<svg width="33" height="32" viewBox="0 0 33 32" fill="none" xmlns="http://www.w3.org/2000/svg">
<rect x="0.5" width="32" height="32" rx="16" fill="#66AC47" fill-opacity="0.1"/>
<mask id="mask0_83_8104" style="mask-type:alpha" maskUnits="userSpaceOnUse" x="4" y="4" width="25" height="24">
<rect x="4.5" y="4" width="24" height="24" fill="#D9D9D9"/>
</mask>
<g mask="url(#mask0_83_8104)">
<path d="M15.1742 17.3H10.0242C9.65755 17.3 9.34505 17.1708 9.08672 16.9125C8.82839 16.6542 8.69922 16.3417 8.69922 15.975C8.69922 15.6083 8.82839 15.2958 9.08672 15.0375C9.34505 14.7792 9.65755 14.65 10.0242 14.65H15.1742V9.49999C15.1742 9.13332 15.3034 8.82082 15.5617 8.56249C15.8201 8.30415 16.1326 8.17499 16.4992 8.17499C16.8659 8.17499 17.1784 8.30415 17.4367 8.56249C17.6951 8.82082 17.8242 9.13332 17.8242 9.49999V14.65H22.9742C23.3409 14.65 23.6534 14.7792 23.9117 15.0375C24.1701 15.2958 24.2992 15.6083 24.2992 15.975C24.2992 16.3417 24.1701 16.6542 23.9117 16.9125C23.6534 17.1708 23.3409 17.3 22.9742 17.3H17.8242V22.45C17.8242 22.8167 17.6951 23.1292 17.4367 23.3875C17.1784 23.6458 16.8659 23.775 16.4992 23.775C16.1326 23.775 15.8201 23.6458 15.5617 23.3875C15.3034 23.1292 15.1742 22.8167 15.1742 22.45V17.3Z" fill="#66AC47"/>
</g>
</svg>
