<svg width="192" height="40" viewBox="0 0 192 40" fill="none" xmlns="http://www.w3.org/2000/svg">
<rect x="1" y="0.5" width="190" height="39" rx="7.5" stroke="black" stroke-opacity="0.1" stroke-dasharray="4 4"/>
<mask id="mask0_170_6798" style="mask-type:alpha" maskUnits="userSpaceOnUse" x="16" y="8" width="25" height="24">
<rect x="16.5" y="8" width="24" height="24" fill="#D9D9D9"/>
</mask>
<g mask="url(#mask0_170_6798)">
<path d="M18.5 28V25H20.5V14C20.5 13.45 20.6958 12.9792 21.0875 12.5875C21.4792 12.1958 21.95 12 22.5 12H37.5V14H22.5V25H28.5V28H18.5ZM31.5 28C31.2167 28 30.9792 27.9042 30.7875 27.7125C30.5958 27.5208 30.5 27.2833 30.5 27V17C30.5 16.7167 30.5958 16.4792 30.7875 16.2875C30.9792 16.0958 31.2167 16 31.5 16H37.5C37.7833 16 38.0208 16.0958 38.2125 16.2875C38.4042 16.4792 38.5 16.7167 38.5 17V27C38.5 27.2833 38.4042 27.5208 38.2125 27.7125C38.0208 27.9042 37.7833 28 37.5 28H31.5ZM32.5 25H36.5V18H32.5V25Z" fill="#66AC47"/>
</g>
<path d="M54.224 25.5V21.622L54.63 22.742L50.374 15.7H52.32L55.736 21.37H54.644L58.088 15.7H59.88L55.624 22.742L56.044 21.622V25.5H54.224ZM63.4299 25.598C62.6645 25.598 61.9832 25.4347 61.3859 25.108C60.7885 24.772 60.3172 24.3147 59.9719 23.736C59.6265 23.1573 59.4539 22.4993 59.4539 21.762C59.4539 21.0153 59.6265 20.3573 59.9719 19.788C60.3172 19.2093 60.7885 18.7567 61.3859 18.43C61.9832 18.1033 62.6645 17.94 63.4299 17.94C64.2045 17.94 64.8905 18.1033 65.4879 18.43C66.0945 18.7567 66.5659 19.2047 66.9019 19.774C67.2472 20.3433 67.4199 21.006 67.4199 21.762C67.4199 22.4993 67.2472 23.1573 66.9019 23.736C66.5659 24.3147 66.0945 24.772 65.4879 25.108C64.8905 25.4347 64.2045 25.598 63.4299 25.598ZM63.4299 24.1C63.8592 24.1 64.2419 24.0067 64.5779 23.82C64.9139 23.6333 65.1752 23.3627 65.3619 23.008C65.5579 22.6533 65.6559 22.238 65.6559 21.762C65.6559 21.2767 65.5579 20.8613 65.3619 20.516C65.1752 20.1613 64.9139 19.8907 64.5779 19.704C64.2419 19.5173 63.8639 19.424 63.4439 19.424C63.0145 19.424 62.6319 19.5173 62.2959 19.704C61.9692 19.8907 61.7079 20.1613 61.5119 20.516C61.3159 20.8613 61.2179 21.2767 61.2179 21.762C61.2179 22.238 61.3159 22.6533 61.5119 23.008C61.7079 23.3627 61.9692 23.6333 62.2959 23.82C62.6319 24.0067 63.0099 24.1 63.4299 24.1ZM72.2573 25.598C71.6226 25.598 71.0626 25.4813 70.5773 25.248C70.092 25.0053 69.714 24.6413 69.4433 24.156C69.1726 23.6613 69.0373 23.0407 69.0373 22.294V18.024H70.7873V22.056C70.7873 22.728 70.9366 23.232 71.2353 23.568C71.5433 23.8947 71.9773 24.058 72.5373 24.058C72.948 24.058 73.3026 23.974 73.6013 23.806C73.9093 23.638 74.1473 23.386 74.3153 23.05C74.4926 22.714 74.5813 22.2987 74.5813 21.804V18.024H76.3313V25.5H74.6653V23.484L74.9593 24.1C74.7073 24.5853 74.3386 24.9587 73.8533 25.22C73.368 25.472 72.836 25.598 72.2573 25.598ZM78.6226 25.5V18.024H80.2886V20.082L80.0926 19.48C80.3166 18.976 80.6666 18.5933 81.1426 18.332C81.6279 18.0707 82.2299 17.94 82.9486 17.94V19.606C82.8739 19.5873 82.8039 19.578 82.7386 19.578C82.6733 19.5687 82.6079 19.564 82.5426 19.564C81.8799 19.564 81.3526 19.76 80.9606 20.152C80.5686 20.5347 80.3726 21.1087 80.3726 21.874V25.5H78.6226ZM88.5387 25.5V15.7H93.1307C94.3067 15.7 95.2027 15.9333 95.8187 16.4C96.4347 16.8573 96.7427 17.4733 96.7427 18.248C96.7427 18.7707 96.6213 19.2187 96.3787 19.592C96.136 19.956 95.8093 20.2407 95.3987 20.446C94.9973 20.642 94.5587 20.74 94.0827 20.74L94.3347 20.236C94.8853 20.236 95.38 20.3387 95.8187 20.544C96.2573 20.74 96.6027 21.0293 96.8547 21.412C97.116 21.7947 97.2467 22.2707 97.2467 22.84C97.2467 23.68 96.9247 24.3333 96.2807 24.8C95.6367 25.2667 94.68 25.5 93.4107 25.5H88.5387ZM90.3587 24.072H93.2987C93.98 24.072 94.5027 23.96 94.8667 23.736C95.2307 23.512 95.4127 23.1527 95.4127 22.658C95.4127 22.1727 95.2307 21.818 94.8667 21.594C94.5027 21.3607 93.98 21.244 93.2987 21.244H90.2187V19.83H92.9347C93.5693 19.83 94.0547 19.718 94.3907 19.494C94.736 19.27 94.9087 18.934 94.9087 18.486C94.9087 18.0287 94.736 17.688 94.3907 17.464C94.0547 17.24 93.5693 17.128 92.9347 17.128H90.3587V24.072ZM99.189 25.5V15.7H103.221C104.089 15.7 104.831 15.84 105.447 16.12C106.072 16.4 106.553 16.8013 106.889 17.324C107.225 17.8467 107.393 18.4673 107.393 19.186C107.393 19.9047 107.225 20.5253 106.889 21.048C106.553 21.5613 106.072 21.958 105.447 22.238C104.831 22.5087 104.089 22.644 103.221 22.644H100.197L101.009 21.818V25.5H99.189ZM105.601 25.5L103.123 21.944H105.069L107.561 25.5H105.601ZM101.009 22.014L100.197 21.146H103.137C103.94 21.146 104.542 20.9733 104.943 20.628C105.354 20.2827 105.559 19.802 105.559 19.186C105.559 18.5607 105.354 18.08 104.943 17.744C104.542 17.408 103.94 17.24 103.137 17.24H100.197L101.009 16.344V22.014ZM108.043 25.5L112.453 15.7H114.245L118.669 25.5H116.765L112.971 16.666H113.699L109.919 25.5H108.043ZM110.073 23.232L110.563 21.804H115.855L116.345 23.232H110.073ZM119.916 25.5V15.7H121.414L127.56 23.246H126.818V15.7H128.624V25.5H127.126L120.98 17.954H121.722V25.5H119.916ZM131.25 25.5V15.7H135.534C136.598 15.7 137.531 15.9053 138.334 16.316C139.136 16.7267 139.762 17.296 140.21 18.024C140.658 18.752 140.882 19.6107 140.882 20.6C140.882 21.58 140.658 22.4387 140.21 23.176C139.762 23.904 139.136 24.4733 138.334 24.884C137.531 25.2947 136.598 25.5 135.534 25.5H131.25ZM133.07 23.96H135.45C136.187 23.96 136.822 23.82 137.354 23.54C137.895 23.26 138.31 22.868 138.6 22.364C138.898 21.86 139.048 21.272 139.048 20.6C139.048 19.9187 138.898 19.3307 138.6 18.836C138.31 18.332 137.895 17.94 137.354 17.66C136.822 17.38 136.187 17.24 135.45 17.24H133.07V23.96ZM145.299 25.5L149.709 15.7H151.501L155.925 25.5H154.021L150.227 16.666H150.955L147.175 25.5H145.299ZM147.329 23.232L147.819 21.804H153.111L153.601 23.232H147.329ZM161.147 25.598C160.541 25.598 159.985 25.458 159.481 25.178C158.987 24.898 158.59 24.478 158.291 23.918C158.002 23.3487 157.857 22.63 157.857 21.762C157.857 20.8847 157.997 20.166 158.277 19.606C158.567 19.046 158.959 18.6307 159.453 18.36C159.948 18.08 160.513 17.94 161.147 17.94C161.885 17.94 162.533 18.0987 163.093 18.416C163.663 18.7333 164.111 19.1767 164.437 19.746C164.773 20.3153 164.941 20.9873 164.941 21.762C164.941 22.5367 164.773 23.2133 164.437 23.792C164.111 24.3613 163.663 24.8047 163.093 25.122C162.533 25.4393 161.885 25.598 161.147 25.598ZM157.003 28.216V18.024H158.669V19.788L158.613 21.776L158.753 23.764V28.216H157.003ZM160.951 24.1C161.371 24.1 161.745 24.0067 162.071 23.82C162.407 23.6333 162.673 23.3627 162.869 23.008C163.065 22.6533 163.163 22.238 163.163 21.762C163.163 21.2767 163.065 20.8613 162.869 20.516C162.673 20.1613 162.407 19.8907 162.071 19.704C161.745 19.5173 161.371 19.424 160.951 19.424C160.531 19.424 160.153 19.5173 159.817 19.704C159.481 19.8907 159.215 20.1613 159.019 20.516C158.823 20.8613 158.725 21.2767 158.725 21.762C158.725 22.238 158.823 22.6533 159.019 23.008C159.215 23.3627 159.481 23.6333 159.817 23.82C160.153 24.0067 160.531 24.1 160.951 24.1ZM170.745 25.598C170.138 25.598 169.583 25.458 169.079 25.178C168.584 24.898 168.188 24.478 167.889 23.918C167.6 23.3487 167.455 22.63 167.455 21.762C167.455 20.8847 167.595 20.166 167.875 19.606C168.164 19.046 168.556 18.6307 169.051 18.36C169.546 18.08 170.11 17.94 170.745 17.94C171.482 17.94 172.131 18.0987 172.691 18.416C173.26 18.7333 173.708 19.1767 174.035 19.746C174.371 20.3153 174.539 20.9873 174.539 21.762C174.539 22.5367 174.371 23.2133 174.035 23.792C173.708 24.3613 173.26 24.8047 172.691 25.122C172.131 25.4393 171.482 25.598 170.745 25.598ZM166.601 28.216V18.024H168.267V19.788L168.211 21.776L168.351 23.764V28.216H166.601ZM170.549 24.1C170.969 24.1 171.342 24.0067 171.669 23.82C172.005 23.6333 172.271 23.3627 172.467 23.008C172.663 22.6533 172.761 22.238 172.761 21.762C172.761 21.2767 172.663 20.8613 172.467 20.516C172.271 20.1613 172.005 19.8907 171.669 19.704C171.342 19.5173 170.969 19.424 170.549 19.424C170.129 19.424 169.751 19.5173 169.415 19.704C169.079 19.8907 168.813 20.1613 168.617 20.516C168.421 20.8613 168.323 21.2767 168.323 21.762C168.323 22.238 168.421 22.6533 168.617 23.008C168.813 23.3627 169.079 23.6333 169.415 23.82C169.751 24.0067 170.129 24.1 170.549 24.1Z" fill="black" fill-opacity="0.5"/>
</svg>
