<svg width="28" height="29" viewBox="0 0 28 29" fill="none" xmlns="http://www.w3.org/2000/svg">
<mask id="mask0_18_3013" style="mask-type:alpha" maskUnits="userSpaceOnUse" x="0" y="0" width="28" height="29">
<rect y="0.666687" width="28" height="28" fill="#D9D9D9"/>
</mask>
<g mask="url(#mask0_18_3013)">
<path d="M5.55815 27.0815C4.79145 27.0815 4.13102 26.8006 3.57686 26.2388C3.02269 25.6769 2.74561 25.0202 2.74561 24.2689V6.98066C2.74561 6.21085 3.02269 5.5478 3.57686 4.99149C4.13102 4.43519 4.79145 4.15703 5.55815 4.15703H6.73706V3.52237C6.73706 3.17684 6.86929 2.87691 7.13373 2.62258C7.39818 2.36805 7.70656 2.24078 8.0589 2.24078C8.4264 2.24078 8.7307 2.36805 8.97181 2.62258C9.21312 2.87691 9.33377 3.17684 9.33377 3.52237V4.15703H18.6654V3.52237C18.6654 3.17684 18.7938 2.87691 19.0506 2.62258C19.3073 2.36805 19.6167 2.24078 19.9787 2.24078C20.3408 2.24078 20.6452 2.36805 20.8919 2.62258C21.1387 2.87691 21.2621 3.17684 21.2621 3.52237V4.15703H22.441C23.2108 4.15703 23.8738 4.43519 24.4301 4.99149C24.9865 5.5478 25.2646 6.21085 25.2646 6.98066V13.4667C25.2646 13.8603 25.1284 14.1946 24.856 14.4698C24.5836 14.7451 24.2498 14.8828 23.8547 14.8828C23.4598 14.8828 23.1254 14.7451 22.8516 14.4698C22.5779 14.1946 22.441 13.8603 22.441 13.4667V11.9477H5.55815V24.2689H13.7429C14.1324 24.2689 14.4649 24.403 14.7404 24.6711C15.0159 24.9393 15.1537 25.2712 15.1537 25.6669C15.1537 26.0624 15.0159 26.397 14.7404 26.6708C14.4649 26.9446 14.1324 27.0815 13.7429 27.0815H5.55815ZM21.7804 27.7642C20.1346 27.7642 18.7426 27.1932 17.6046 26.051C16.4665 24.9088 15.8974 23.5184 15.8974 21.8799C15.8974 20.2415 16.4668 18.8514 17.6054 17.7096C18.7439 16.5678 20.136 15.997 21.7818 15.997C23.4202 15.997 24.8103 16.568 25.9521 17.7102C27.0938 18.8524 27.6647 20.2427 27.6647 21.8813C27.6647 23.5197 27.0937 24.9098 25.9515 26.0516C24.8093 27.1934 23.4189 27.7642 21.7804 27.7642ZM22.3217 21.7209V18.8331C22.3217 18.6393 22.2577 18.4799 22.1298 18.3551C22.0016 18.2302 21.8393 18.1678 21.6427 18.1678C21.4356 18.1678 21.2616 18.2306 21.1206 18.3562C20.9798 18.4819 20.9094 18.6377 20.9094 18.8238V21.6664C20.9094 21.8661 20.9414 22.0534 21.0054 22.2284C21.0692 22.4032 21.1667 22.5472 21.2979 22.6604L23.0649 24.4468C23.1982 24.5975 23.3587 24.672 23.5461 24.6702C23.7336 24.6683 23.8957 24.589 24.0326 24.4322C24.1656 24.2934 24.2367 24.1305 24.2458 23.9434C24.255 23.7565 24.1869 23.5894 24.0416 23.442L22.3217 21.7209Z" fill="white"/>
</g>
</svg>
