<svg width="221" height="220" viewBox="0 0 221 220" fill="none" xmlns="http://www.w3.org/2000/svg">
<path d="M133.521 33.5852H73.1838C72.0222 33.5852 71.0806 34.5268 71.0806 35.6884V125.316C71.0806 126.478 72.0222 127.42 73.1838 127.42H133.521C134.683 127.42 135.624 126.478 135.624 125.316V35.6884C135.624 34.5268 134.683 33.5852 133.521 33.5852Z" fill="white"/>
<path d="M133.49 127.644H73.21C72.5852 127.643 71.9865 127.394 71.5452 126.952C71.1038 126.51 70.856 125.91 70.856 125.286V35.7192C70.856 35.0945 71.1038 34.4953 71.5452 34.0531C71.9865 33.611 72.5852 33.362 73.21 33.3608H133.49C134.115 33.3608 134.715 33.6093 135.158 34.0516C135.6 34.4939 135.848 35.0937 135.848 35.7192V125.286C135.847 125.911 135.598 126.51 135.156 126.952C134.714 127.394 134.115 127.643 133.49 127.644ZM73.21 33.8096C72.9592 33.8096 72.7109 33.859 72.4792 33.955C72.2475 34.051 72.037 34.1916 71.8597 34.3689C71.6823 34.5463 71.5417 34.7568 71.4457 34.9885C71.3498 35.2201 71.3004 35.4685 71.3004 35.7192V125.286C71.3015 125.792 71.5031 126.277 71.8609 126.635C72.2188 126.993 72.7039 127.194 73.21 127.195H133.49C133.997 127.195 134.483 126.994 134.842 126.636C135.201 126.278 135.403 125.792 135.404 125.286V35.7192C135.404 35.4681 135.354 35.2194 135.258 34.9874C135.162 34.7555 135.021 34.5448 134.843 34.3674C134.665 34.19 134.454 34.0494 134.222 33.9537C133.99 33.858 133.741 33.809 133.49 33.8096H73.21Z" fill="#E0E0E0"/>
<path d="M131.07 117.185H77.3638V119.376H131.07V117.185Z" fill="#E0E0E0"/>
<path d="M131.07 120.459H77.3638V122.65H131.07V120.459Z" fill="#E0E0E0"/>
<path d="M131.07 71.0511H77.3638V109.916H131.07V71.0511Z" fill="#F5F5F5"/>
<path d="M130.793 77.7876C130.793 77.8536 118.794 77.9064 103.992 77.9064C89.1907 77.9064 77.1919 77.8536 77.1919 77.7876C77.1919 77.7216 89.1907 77.6732 103.992 77.6732C118.794 77.6732 130.793 77.726 130.793 77.7876Z" fill="#263238"/>
<path d="M84.4298 109.912C84.3682 109.912 84.3154 101.27 84.3154 90.6092C84.3154 79.948 84.3682 71.2976 84.4298 71.2976C84.4914 71.2976 84.5486 79.9436 84.5486 90.6092C84.5486 101.275 84.4958 109.912 84.4298 109.912Z" fill="#263238"/>
<path d="M108.586 110.361C108.524 110.361 108.472 101.618 108.472 90.8336C108.472 80.0492 108.524 71.2976 108.586 71.2976C108.648 71.2976 108.705 80.0404 108.705 90.8336C108.705 101.627 108.652 110.361 108.586 110.361Z" fill="#263238"/>
<path d="M120.664 110.361C120.602 110.361 120.549 101.618 120.549 90.8336C120.549 80.0492 120.602 71.2976 120.664 71.2976C120.725 71.2976 120.783 80.0404 120.783 90.8336C120.783 101.627 120.73 110.361 120.664 110.361Z" fill="#263238"/>
<path d="M82.3662 73.5856H79.2378V75.8824H82.3662V73.5856Z" fill="#E0E0E0"/>
<path d="M82.3662 81.7828H79.2378V84.0796H82.3662V81.7828Z" fill="#E0E0E0"/>
<path d="M82.3662 86.9748H79.2378V89.2716H82.3662V86.9748Z" fill="#E0E0E0"/>
<path d="M82.3662 91.52H79.2378V93.8168H82.3662V91.52Z" fill="#E0E0E0"/>
<path d="M117.91 73.5856H111.27V75.8824H117.91V73.5856Z" fill="#E0E0E0"/>
<path d="M116.893 79.9568H112.313V82.2536H116.893V79.9568Z" fill="#E0E0E0"/>
<path d="M116.893 86.9264H112.313V89.2232H116.893V86.9264Z" fill="#E0E0E0"/>
<path d="M128.483 86.9264H123.902V89.2232H128.483V86.9264Z" fill="#E0E0E0"/>
<path d="M116.893 91.5596H112.313V93.8563H116.893V91.5596Z" fill="#E0E0E0"/>
<path d="M128.448 91.344H123.867V93.6408H128.448V91.344Z" fill="#E0E0E0"/>
<path d="M128.448 80.1108H123.867V82.4076H128.448V80.1108Z" fill="#E0E0E0"/>
<path d="M128.448 73.5856H123.146V75.8824H128.448V73.5856Z" fill="#E0E0E0"/>
<path d="M104.824 73.5856H87.4614V75.8824H104.824V73.5856Z" fill="#E0E0E0"/>
<path d="M97.7838 81.2944H87.4614V83.5912H97.7838V81.2944Z" fill="#E0E0E0"/>
<path d="M104.824 86.7591H87.4614V89.0559H104.824V86.7591Z" fill="#E0E0E0"/>
<path d="M96.6794 91.344H87.4614V93.6408H96.6794V91.344Z" fill="#E0E0E0"/>
<path d="M131.066 109.912H120.664V115.201H131.066V109.912Z" fill="#E0E0E0"/>
<path d="M128.478 43.4499H105.387V45.6411H128.478V43.4499Z" fill="#E0E0E0"/>
<path d="M84.3552 50.2744H78.71V52.4656H84.3552V50.2744Z" fill="#E0E0E0"/>
<path d="M93.6174 53.944H78.5474V56.1352H93.6174V53.944Z" fill="#E0E0E0"/>
<path d="M123.484 52.4612H129.129V50.27H123.484V52.4612Z" fill="#E0E0E0"/>
<path d="M114.227 56.1307H129.297V53.9395H114.227V56.1307Z" fill="#E0E0E0"/>
<path d="M93.6174 60.7156H78.5474V62.9068H93.6174V60.7156Z" fill="#E0E0E0"/>
<path d="M117.017 64.5216H78.5474V66.7128H117.017V64.5216Z" fill="#E0E0E0"/>
<path d="M79.0752 42.3456H80.096V45.9624H79.0752V42.3456Z" fill="#E0E0E0"/>
<path d="M84.267 42.3456V45.9624H83.4222L81.825 44.0352V45.9624H80.8218V42.3456H81.6666L83.2638 44.2728V42.3456H84.267Z" fill="#E0E0E0"/>
<path d="M88.6672 42.3456L87.114 45.9624H86.1064L84.562 42.3456H85.6664L86.6476 44.6996L87.6508 42.3456H88.6672Z" fill="#E0E0E0"/>
<path d="M88.6364 44.154C88.6091 43.7497 88.704 43.3465 88.9088 42.9968C89.1136 42.6472 89.4189 42.3672 89.785 42.1933C90.151 42.0195 90.5609 41.9598 90.9614 42.022C91.3618 42.0841 91.7343 42.2654 92.0304 42.5421C92.3265 42.8187 92.5325 43.1781 92.6216 43.5734C92.7107 43.9687 92.6789 44.3817 92.5302 44.7587C92.3815 45.1357 92.1228 45.4592 91.7878 45.6872C91.4528 45.9152 91.0569 46.0372 90.6516 46.0372C90.3939 46.0534 90.1356 46.0168 89.8925 45.9296C89.6494 45.8424 89.4267 45.7065 89.238 45.5301C89.0493 45.3538 88.8986 45.1408 88.7952 44.9042C88.6918 44.6675 88.6377 44.4123 88.6364 44.154ZM91.6284 44.154C91.6181 43.9624 91.5518 43.7779 91.4377 43.6236C91.3236 43.4692 91.1668 43.3517 90.9866 43.2857C90.8064 43.2196 90.6107 43.2078 90.4239 43.2517C90.2371 43.2957 90.0672 43.3935 89.9354 43.533C89.8036 43.6726 89.7156 43.8477 89.6823 44.0367C89.6491 44.2257 89.672 44.4204 89.7482 44.5965C89.8244 44.7727 89.9506 44.9226 90.1112 45.0278C90.2718 45.1329 90.4597 45.1886 90.6516 45.188C90.7851 45.1889 90.9172 45.1623 91.0399 45.1099C91.1626 45.0575 91.2732 44.9804 91.3649 44.8834C91.4565 44.7864 91.5272 44.6716 91.5725 44.5461C91.6179 44.4207 91.6369 44.2872 91.6284 44.154Z" fill="#E0E0E0"/>
<path d="M93.1992 42.3456H94.2244V45.9624H93.1992V42.3456Z" fill="#E0E0E0"/>
<path d="M94.7701 44.1539C94.7678 43.8969 94.8184 43.6422 94.9189 43.4057C95.0195 43.1691 95.1676 42.9558 95.3543 42.7791C95.5409 42.6024 95.7619 42.466 96.0036 42.3786C96.2453 42.2911 96.5024 42.2544 96.7589 42.2707C97.0535 42.2567 97.3474 42.311 97.6176 42.4293C97.8878 42.5476 98.127 42.7267 98.3165 42.9527L97.6653 43.5423C97.5669 43.4078 97.4386 43.2979 97.2904 43.2216C97.1423 43.1452 96.9784 43.1044 96.8117 43.1023C96.5375 43.1023 96.2745 43.2113 96.0805 43.4052C95.8866 43.5991 95.7777 43.8621 95.7777 44.1363C95.7777 44.4106 95.8866 44.6736 96.0805 44.8675C96.2745 45.0614 96.5375 45.1703 96.8117 45.1703C96.9784 45.1683 97.1423 45.1275 97.2904 45.0511C97.4386 44.9747 97.5669 44.8649 97.6653 44.7303L98.3165 45.3155C98.1272 45.5421 97.8882 45.7219 97.618 45.8409C97.3478 45.96 97.0538 46.0151 96.7589 46.0019C96.5054 46.0181 96.2512 45.9824 96.0119 45.8971C95.7726 45.8117 95.5532 45.6785 95.3671 45.5056C95.181 45.3327 95.0321 45.1236 94.9294 44.8912C94.8268 44.6588 94.7726 44.408 94.7701 44.1539Z" fill="#E0E0E0"/>
<path d="M101.678 45.1704V45.9624H98.7871V42.3456H101.625V43.1332H99.7991V43.7448H101.405V44.5104H99.7991V45.1704H101.678Z" fill="#E0E0E0"/>
<path d="M75.4233 36.9468C75.4242 37.1419 75.3671 37.3329 75.2594 37.4955C75.1516 37.6582 74.998 37.7852 74.818 37.8605C74.638 37.9357 74.4396 37.9559 74.2482 37.9184C74.0567 37.8808 73.8807 37.7873 73.7424 37.6496C73.6041 37.512 73.5098 37.3364 73.4714 37.1451C73.433 36.9538 73.4523 36.7554 73.5267 36.575C73.6012 36.3947 73.7275 36.2405 73.8897 36.132C74.0519 36.0235 74.2426 35.9656 74.4377 35.9656C74.6984 35.9656 74.9484 36.0688 75.1331 36.2527C75.3178 36.4366 75.4222 36.6861 75.4233 36.9468Z" fill="#E0E0E0"/>
<path d="M77.9575 36.9468C77.9584 37.1419 77.9013 37.3329 77.7936 37.4955C77.6858 37.6582 77.5322 37.7852 77.3522 37.8605C77.1721 37.9357 76.9738 37.9559 76.7824 37.9184C76.5909 37.8808 76.4148 37.7873 76.2766 37.6496C76.1383 37.512 76.044 37.3364 76.0056 37.1451C75.9672 36.9538 75.9865 36.7554 76.0609 36.575C76.1354 36.3947 76.2617 36.2405 76.4239 36.132C76.5861 36.0235 76.7768 35.9656 76.9719 35.9656C77.2326 35.9656 77.4826 36.0688 77.6673 36.2527C77.852 36.4366 77.9564 36.6861 77.9575 36.9468Z" fill="#E0E0E0"/>
<path d="M80.4878 36.9468C80.4887 37.1421 80.4315 37.3332 80.3235 37.496C80.2156 37.6587 80.0617 37.7858 79.8814 37.8609C79.7011 37.936 79.5026 37.9559 79.311 37.918C79.1194 37.8801 78.9434 37.7862 78.8053 37.6481C78.6672 37.51 78.5732 37.334 78.5353 37.1424C78.4974 36.9508 78.5173 36.7522 78.5925 36.572C78.6676 36.3917 78.7946 36.2378 78.9574 36.1298C79.1201 36.0219 79.3113 35.9647 79.5066 35.9656C79.7668 35.9656 80.0164 36.0689 80.2004 36.253C80.3844 36.437 80.4878 36.6865 80.4878 36.9468Z" fill="#E0E0E0"/>
<path d="M199.186 81.9324H138.849C137.688 81.9324 136.746 82.874 136.746 84.0356V173.664C136.746 174.825 137.688 175.767 138.849 175.767H199.186C200.348 175.767 201.29 174.825 201.29 173.664V84.0356C201.29 82.874 200.348 81.9324 199.186 81.9324Z" fill="white"/>
<path d="M199.155 176H138.875C138.25 175.999 137.651 175.75 137.209 175.308C136.767 174.866 136.518 174.267 136.517 173.642V84.0664C136.518 83.4413 136.767 82.8421 137.209 82.4001C137.651 81.958 138.25 81.7092 138.875 81.708H199.155C199.781 81.708 200.381 81.9565 200.823 82.3988C201.265 82.8411 201.514 83.4409 201.514 84.0664V173.628C201.516 173.939 201.456 174.247 201.338 174.535C201.22 174.823 201.047 175.084 200.828 175.305C200.609 175.525 200.348 175.7 200.061 175.819C199.774 175.939 199.466 176 199.155 176ZM138.875 82.1656C138.369 82.1668 137.883 82.3689 137.525 82.7278C137.167 83.0866 136.966 83.5727 136.966 84.0796V173.628C136.966 174.135 137.167 174.621 137.525 174.98C137.883 175.339 138.369 175.541 138.875 175.542H199.155C199.663 175.542 200.15 175.341 200.509 174.982C200.868 174.623 201.069 174.136 201.069 173.628V84.0664C201.069 83.5588 200.868 83.072 200.509 82.713C200.15 82.3541 199.663 82.1524 199.155 82.1524L138.875 82.1656Z" fill="#E0E0E0"/>
<path d="M196.736 165.532H143.029V167.724H196.736V165.532Z" fill="#E0E0E0"/>
<path d="M196.736 168.806H143.029V170.997H196.736V168.806Z" fill="#E0E0E0"/>
<path d="M196.736 119.394H143.029V158.259H196.736V119.394Z" fill="#F5F5F5"/>
<path d="M196.467 126.135C196.467 126.201 184.468 126.249 169.667 126.249C154.865 126.249 142.866 126.201 142.866 126.135C142.866 126.069 154.865 126.02 169.667 126.02C184.468 126.02 196.467 126.069 196.467 126.135Z" fill="#E0E0E0"/>
<path d="M150.095 158.259C150.034 158.259 149.981 149.613 149.981 138.952C149.981 128.291 150.034 119.645 150.095 119.645C150.157 119.645 150.214 128.286 150.214 138.952C150.214 149.618 150.161 158.259 150.095 158.259Z" fill="#E0E0E0"/>
<path d="M174.252 158.708C174.19 158.708 174.137 149.961 174.137 139.176C174.137 128.392 174.19 119.645 174.252 119.645C174.313 119.645 174.37 128.388 174.37 139.176C174.37 149.965 174.318 158.708 174.252 158.708Z" fill="#E0E0E0"/>
<path d="M186.347 158.708C186.286 158.708 186.233 149.961 186.233 139.176C186.233 128.392 186.286 119.645 186.347 119.645C186.409 119.645 186.466 128.388 186.466 139.176C186.466 149.965 186.396 158.708 186.347 158.708Z" fill="#E0E0E0"/>
<path d="M148.032 121.933H144.903V124.23H148.032V121.933Z" fill="#E0E0E0"/>
<path d="M148.032 130.126H144.903V132.422H148.032V130.126Z" fill="#E0E0E0"/>
<path d="M148.032 135.322H144.903V137.619H148.032V135.322Z" fill="#E0E0E0"/>
<path d="M148.032 139.867H144.903V142.164H148.032V139.867Z" fill="#E0E0E0"/>
<path d="M183.575 121.933H176.936V124.23H183.575V121.933Z" fill="#E0E0E0"/>
<path d="M182.559 128.304H177.979V130.601H182.559V128.304Z" fill="#E0E0E0"/>
<path d="M182.559 135.274H177.979V137.57H182.559V135.274Z" fill="#E0E0E0"/>
<path d="M194.148 135.274H189.568V137.57H194.148V135.274Z" fill="#E0E0E0"/>
<path d="M182.559 139.907H177.979V142.204H182.559V139.907Z" fill="#E0E0E0"/>
<path d="M194.113 139.687H189.533V141.984H194.113V139.687Z" fill="#E0E0E0"/>
<path d="M194.113 128.454H189.533V130.75H194.113V128.454Z" fill="#E0E0E0"/>
<path d="M194.113 121.933H188.811V124.23H194.113V121.933Z" fill="#E0E0E0"/>
<path d="M170.489 121.933H153.127V124.23H170.489V121.933Z" fill="#E0E0E0"/>
<path d="M163.449 129.642H153.127V131.938H163.449V129.642Z" fill="#E0E0E0"/>
<path d="M170.489 135.106H153.127V137.403H170.489V135.106Z" fill="#E0E0E0"/>
<path d="M162.345 139.687H153.127V141.984H162.345V139.687Z" fill="#E0E0E0"/>
<path d="M196.731 158.259H186.33V163.548H196.731V158.259Z" fill="#E0E0E0"/>
<path d="M194.144 91.7972H171.053V93.9884H194.144V91.7972Z" fill="#E0E0E0"/>
<path d="M150.021 98.6172H144.375V100.808H150.021V98.6172Z" fill="#E0E0E0"/>
<path d="M159.283 102.287H144.213V104.478H159.283V102.287Z" fill="#E0E0E0"/>
<path d="M189.154 100.813H194.799V98.6216H189.154V100.813Z" fill="#E0E0E0"/>
<path d="M179.888 104.482H194.958V102.291H179.888V104.482Z" fill="#E0E0E0"/>
<path d="M159.283 109.063H144.213V111.254H159.283V109.063Z" fill="#E0E0E0"/>
<path d="M182.682 112.869H144.213V115.06H182.682V112.869Z" fill="#E0E0E0"/>
<path d="M144.736 90.6884H145.762V94.3096H144.736V90.6884Z" fill="#E0E0E0"/>
<path d="M149.937 90.6884V94.3096H149.093L147.495 92.4V94.3272H146.492V90.706H147.337L148.947 92.62V90.6884H149.937Z" fill="#E0E0E0"/>
<path d="M154.324 90.6884L152.771 94.3096H151.763L150.219 90.6884H151.323L152.304 93.0468L153.308 90.6884H154.324Z" fill="#E0E0E0"/>
<path d="M154.302 92.5012C154.274 92.0966 154.368 91.6928 154.572 91.3425C154.777 90.9922 155.082 90.7115 155.448 90.5371C155.814 90.3627 156.224 90.3025 156.625 90.3645C157.026 90.4265 157.399 90.6078 157.695 90.8847C157.992 91.1616 158.198 91.5214 158.287 91.9171C158.376 92.3128 158.344 92.7262 158.194 93.1033C158.045 93.4805 157.786 93.804 157.45 94.0317C157.115 94.2594 156.718 94.3808 156.313 94.38C156.055 94.3962 155.798 94.3597 155.555 94.2727C155.313 94.1857 155.09 94.0501 154.902 93.8742C154.714 93.6983 154.563 93.4858 154.46 93.2497C154.357 93.0136 154.303 92.7589 154.302 92.5012ZM157.294 92.5012C157.283 92.3097 157.217 92.1255 157.103 91.9712C156.989 91.8169 156.833 91.6994 156.653 91.6332C156.473 91.567 156.278 91.5549 156.091 91.5985C155.904 91.6421 155.734 91.7395 155.602 91.8786C155.47 92.0177 155.382 92.1924 155.348 92.3812C155.314 92.5699 155.337 92.7644 155.412 92.9407C155.488 93.1169 155.613 93.2672 155.773 93.3728C155.933 93.4785 156.121 93.5349 156.313 93.5352C156.448 93.5392 156.582 93.5149 156.707 93.4638C156.832 93.4127 156.945 93.336 157.039 93.2386C157.133 93.1412 157.205 93.0253 157.251 92.8983C157.297 92.7713 157.316 92.636 157.307 92.5012H157.294Z" fill="#E0E0E0"/>
<path d="M158.865 90.6884H159.89V94.3096H158.865V90.6884Z" fill="#E0E0E0"/>
<path d="M160.436 92.5012C160.433 92.2442 160.484 91.9895 160.584 91.7529C160.685 91.5164 160.833 91.3031 161.02 91.1264C161.206 90.9497 161.427 90.8133 161.669 90.7258C161.911 90.6384 162.168 90.6017 162.424 90.618C162.719 90.604 163.013 90.6582 163.283 90.7766C163.553 90.8949 163.793 91.074 163.982 91.3L163.331 91.8896C163.232 91.7553 163.104 91.6457 162.956 91.5693C162.808 91.493 162.644 91.452 162.477 91.4496C162.203 91.4496 161.94 91.5586 161.746 91.7525C161.552 91.9464 161.443 92.2094 161.443 92.4836C161.443 92.7578 161.552 93.0208 161.746 93.2148C161.94 93.4087 162.203 93.5176 162.477 93.5176C162.644 93.5159 162.808 93.4752 162.956 93.3988C163.104 93.3224 163.233 93.2124 163.331 93.0776L163.982 93.6672C163.793 93.8932 163.553 94.0724 163.283 94.1907C163.013 94.309 162.719 94.3632 162.424 94.3492C162.171 94.3654 161.917 94.3297 161.677 94.2444C161.438 94.159 161.219 94.0258 161.033 93.8529C160.847 93.68 160.698 93.4709 160.595 93.2385C160.492 93.0061 160.438 92.7552 160.436 92.5012Z" fill="#E0E0E0"/>
<path d="M167.343 93.5176V94.3096H164.435V90.6884H167.277V91.4804H165.451V92.092H167.057V92.84H165.451V93.5L167.343 93.5176Z" fill="#E0E0E0"/>
<path d="M141.089 85.294C141.089 85.4889 141.031 85.6795 140.923 85.8416C140.814 86.0036 140.661 86.13 140.48 86.2046C140.3 86.2792 140.102 86.2987 139.911 86.2607C139.72 86.2226 139.544 86.1288 139.406 85.9909C139.269 85.8531 139.175 85.6775 139.137 85.4863C139.099 85.2951 139.118 85.0969 139.193 84.9168C139.267 84.7367 139.394 84.5828 139.556 84.4745C139.718 84.3662 139.908 84.3084 140.103 84.3084C140.233 84.3084 140.361 84.3339 140.48 84.3834C140.6 84.4329 140.709 84.5056 140.8 84.5971C140.892 84.6886 140.964 84.7972 141.014 84.9168C141.063 85.0364 141.089 85.1646 141.089 85.294Z" fill="#E0E0E0"/>
<path d="M143.623 85.294C143.623 85.4889 143.565 85.6795 143.457 85.8416C143.349 86.0036 143.195 86.13 143.015 86.2046C142.835 86.2792 142.636 86.2987 142.445 86.2607C142.254 86.2226 142.078 86.1288 141.941 85.9909C141.803 85.8531 141.709 85.6775 141.671 85.4863C141.633 85.2951 141.652 85.0969 141.727 84.9168C141.801 84.7367 141.928 84.5828 142.09 84.4745C142.252 84.3662 142.443 84.3084 142.637 84.3084C142.898 84.3096 143.149 84.4138 143.333 84.5983C143.518 84.7829 143.622 85.033 143.623 85.294Z" fill="#E0E0E0"/>
<path d="M146.153 85.294C146.153 85.4891 146.095 85.6799 145.987 85.842C145.878 86.0042 145.724 86.1305 145.544 86.205C145.364 86.2795 145.165 86.2987 144.974 86.2603C144.783 86.2219 144.607 86.1276 144.469 85.9894C144.332 85.8511 144.238 85.6751 144.201 85.4836C144.163 85.2921 144.183 85.0938 144.258 84.9138C144.334 84.7338 144.461 84.5801 144.623 84.4724C144.786 84.3646 144.977 84.3075 145.172 84.3084C145.433 84.3096 145.682 84.4139 145.866 84.5986C146.05 84.7833 146.153 85.0334 146.153 85.294Z" fill="#E0E0E0"/>
<path d="M164.532 19.0739C165.802 18.05 167.384 17.4926 169.015 17.4949C170.646 17.4972 172.227 18.059 173.493 19.0866C173.597 19.1814 173.732 19.234 173.872 19.234C174.013 19.234 174.148 19.1814 174.251 19.0866C174.352 18.9836 174.408 18.8453 174.408 18.7012C174.408 18.5571 174.352 18.4188 174.251 18.3158C172.784 17.0733 170.923 16.3915 169 16.3915C167.077 16.3915 165.216 17.0733 163.749 18.3158C163.651 18.4179 163.597 18.5537 163.597 18.6949C163.597 18.8361 163.651 18.9719 163.749 19.0739C163.853 19.173 163.991 19.2282 164.134 19.2282C164.278 19.2282 164.416 19.173 164.52 19.0739H164.532Z" fill="#E0E0E0"/>
<path d="M166.329 20.9844C167.09 20.3769 168.035 20.046 169.009 20.046C169.983 20.046 170.928 20.3769 171.689 20.9844C171.792 21.0798 171.927 21.1327 172.068 21.1327C172.209 21.1327 172.344 21.0798 172.447 20.9844C172.546 20.883 172.601 20.7469 172.601 20.6053C172.601 20.4637 172.546 20.3277 172.447 20.2263C171.486 19.4034 170.262 18.9512 168.996 18.9512C167.731 18.9512 166.507 19.4034 165.546 20.2263C165.449 20.3286 165.395 20.4643 165.395 20.6053C165.395 20.7464 165.449 20.8821 165.546 20.9844C165.65 21.0834 165.788 21.1387 165.931 21.1387C166.075 21.1387 166.213 21.0834 166.316 20.9844H166.329Z" fill="#E0E0E0"/>
<path d="M170.372 22.5891C170.372 22.8555 170.293 23.1159 170.145 23.3374C169.997 23.5589 169.787 23.7315 169.541 23.8335C169.294 23.9354 169.024 23.9621 168.762 23.9101C168.501 23.8581 168.261 23.7299 168.073 23.5415C167.884 23.3531 167.756 23.1131 167.704 22.8519C167.652 22.5906 167.679 22.3198 167.781 22.0736C167.883 21.8275 168.055 21.6172 168.277 21.4692C168.498 21.3212 168.759 21.2422 169.025 21.2422C169.382 21.2428 169.724 21.3849 169.977 21.6374C170.229 21.8899 170.371 22.2321 170.372 22.5891Z" fill="#E0E0E0"/>
<path d="M205.997 205.374C205.997 205.436 163.317 205.489 110.671 205.489C58.0252 205.489 15.3364 205.436 15.3364 205.374C15.3364 205.313 58.0164 205.26 110.671 205.26C163.326 205.26 205.997 205.313 205.997 205.374Z" fill="#263238"/>
<path d="M96.9878 66.4268H36.6506C35.489 66.4268 34.5474 67.3685 34.5474 68.53V158.158C34.5474 159.32 35.489 160.261 36.6506 160.261H96.9878C98.1493 160.261 99.091 159.32 99.091 158.158V68.53C99.091 67.3685 98.1493 66.4268 96.9878 66.4268Z" fill="white"/>
<path d="M96.9568 160.494H36.6768C36.0516 160.493 35.4524 160.244 35.0104 159.802C34.5684 159.36 34.3195 158.761 34.3184 158.136V68.5608C34.3184 67.9354 34.5668 67.3355 35.0091 66.8932C35.4514 66.4509 36.0513 66.2024 36.6768 66.2024H96.9568C97.5819 66.2036 98.1811 66.4524 98.6231 66.8945C99.0651 67.3365 99.314 67.9357 99.3152 68.5608V158.127C99.3157 158.438 99.2552 158.745 99.137 159.032C99.0188 159.319 98.8452 159.579 98.6262 159.799C98.4072 160.019 98.1471 160.194 97.8606 160.313C97.5742 160.432 97.267 160.494 96.9568 160.494ZM36.6812 66.6512C36.4304 66.6512 36.1821 66.7006 35.9504 66.7966C35.7187 66.8926 35.5082 67.0332 35.3309 67.2105C35.1535 67.3879 35.0129 67.5984 34.9169 67.8301C34.821 68.0618 34.7716 68.3101 34.7716 68.5608V158.127C34.7692 158.379 34.8169 158.63 34.9118 158.863C35.0068 159.097 35.1471 159.31 35.3246 159.489C35.5022 159.668 35.7135 159.81 35.9463 159.907C36.1791 160.004 36.4289 160.054 36.6812 160.054H96.9612C97.4673 160.053 97.9523 159.852 98.3102 159.494C98.668 159.136 98.8696 158.651 98.8708 158.145V68.5608C98.8708 68.0544 98.6696 67.5687 98.3115 67.2105C97.9533 66.8524 97.4676 66.6512 96.9612 66.6512H36.6812Z" fill="#263238"/>
<path d="M94.5326 150.027H40.8262V152.218H94.5326V150.027Z" fill="#E0E0E0"/>
<path d="M94.5326 153.3H40.8262V155.492H94.5326V153.3Z" fill="#E0E0E0"/>
<path d="M94.5326 103.893H40.8262V142.758H94.5326V103.893Z" fill="#F5F5F5"/>
<path d="M94.2595 110.629C94.2595 110.695 82.2607 110.748 67.4591 110.748C52.6575 110.748 40.6543 110.695 40.6543 110.629C40.6543 110.563 52.6531 110.515 67.4591 110.515C82.2651 110.515 94.2595 110.568 94.2595 110.629Z" fill="#263238"/>
<path d="M47.8966 142.754C47.8306 142.754 47.7778 134.112 47.7778 123.451C47.7778 112.79 47.8306 104.139 47.8966 104.139C47.9626 104.139 48.011 112.785 48.011 123.451C48.011 134.116 47.9582 142.754 47.8966 142.754Z" fill="#263238"/>
<path d="M72.0529 143.202C71.9869 143.202 71.9341 134.46 71.9341 123.675C71.9341 112.891 71.9869 104.139 72.0529 104.139C72.1189 104.139 72.1673 112.882 72.1673 123.675C72.1673 134.468 72.1145 143.202 72.0529 143.202Z" fill="#263238"/>
<path d="M84.1305 143.202C84.0645 143.202 84.0117 134.46 84.0117 123.675C84.0117 112.891 84.0645 104.139 84.1305 104.139C84.1965 104.139 84.2449 112.882 84.2449 123.675C84.2449 134.468 84.1965 143.202 84.1305 143.202Z" fill="#263238"/>
<path d="M45.833 106.427H42.7046V108.724H45.833V106.427Z" fill="#E0E0E0"/>
<path d="M45.833 114.624H42.7046V116.921H45.833V114.624Z" fill="#E0E0E0"/>
<path d="M45.833 119.816H42.7046V122.113H45.833V119.816Z" fill="#E0E0E0"/>
<path d="M45.833 124.362H42.7046V126.658H45.833V124.362Z" fill="#E0E0E0"/>
<path d="M81.3764 106.427H74.7368V108.724H81.3764V106.427Z" fill="#E0E0E0"/>
<path d="M80.3602 112.798H75.7798V115.095H80.3602V112.798Z" fill="#E0E0E0"/>
<path d="M80.3602 119.768H75.7798V122.065H80.3602V119.768Z" fill="#E0E0E0"/>
<path d="M91.9495 119.768H87.3691V122.065H91.9495V119.768Z" fill="#E0E0E0"/>
<path d="M80.3602 124.401H75.7798V126.698H80.3602V124.401Z" fill="#E0E0E0"/>
<path d="M91.9144 124.186H87.334V126.482H91.9144V124.186Z" fill="#E0E0E0"/>
<path d="M91.9144 112.952H87.334V115.249H91.9144V112.952Z" fill="#E0E0E0"/>
<path d="M91.9099 106.427H86.6079V108.724H91.9099V106.427Z" fill="#E0E0E0"/>
<path d="M68.2862 106.427H50.9238V108.724H68.2862V106.427Z" fill="#E0E0E0"/>
<path d="M61.2462 114.136H50.9238V116.433H61.2462V114.136Z" fill="#E0E0E0"/>
<path d="M68.2862 119.601H50.9238V121.898H68.2862V119.601Z" fill="#E0E0E0"/>
<path d="M60.1418 124.186H50.9238V126.482H60.1418V124.186Z" fill="#E0E0E0"/>
<path d="M94.5325 142.754H84.1309V148.047H94.5325V142.754Z" fill="#66AC47"/>
<path d="M91.9452 76.2916H68.854V78.4828H91.9452V76.2916Z" fill="#E0E0E0"/>
<path d="M47.822 83.116H42.1768V85.3072H47.822V83.116Z" fill="#E0E0E0"/>
<path d="M57.0842 86.7856H42.0142V88.9768H57.0842V86.7856Z" fill="#E0E0E0"/>
<path d="M86.951 85.3028H92.5962V83.1116H86.951V85.3028Z" fill="#E0E0E0"/>
<path d="M77.6937 88.9724H92.7637V86.7812H77.6937V88.9724Z" fill="#E0E0E0"/>
<path d="M57.0842 93.5572H42.0142V95.7484H57.0842V93.5572Z" fill="#66AC47"/>
<path d="M80.4834 97.3632H42.0142V99.5544H80.4834V97.3632Z" fill="#E0E0E0"/>
<path d="M42.5376 75.1872H43.5628V78.804H42.5376V75.1872Z" fill="#263238"/>
<path d="M47.747 75.1872V78.804H46.9066L45.2962 76.8944V78.8216H44.293V75.1872H45.1334L46.7306 77.1144V75.1872H47.747Z" fill="#263238"/>
<path d="M52.1208 75.1872L50.572 78.804H49.5644L48.0156 75.1872H49.1244L50.1056 77.5412L51.1088 75.1872H52.1208Z" fill="#263238"/>
<path d="M52.103 76.9956C52.0765 76.5923 52.1719 76.1903 52.3768 75.8419C52.5818 75.4935 52.8867 75.2148 53.2521 75.042C53.6175 74.8691 54.0264 74.8102 54.4257 74.8727C54.8251 74.9353 55.1963 75.1165 55.4914 75.3928C55.7864 75.6691 55.9915 76.0277 56.0801 76.4221C56.1686 76.8165 56.1366 77.2284 55.988 77.6043C55.8395 77.9802 55.5813 78.3027 55.2471 78.53C54.9128 78.7573 54.518 78.8789 54.1138 78.8788C53.8562 78.895 53.5981 78.8584 53.3553 78.7712C53.1124 78.6839 52.89 78.5479 52.7016 78.3715C52.5133 78.1951 52.363 77.9821 52.2601 77.7455C52.1571 77.5089 52.1037 77.2537 52.103 76.9956ZM55.0906 76.9956C55.0794 76.8053 55.0128 76.6224 54.8989 76.4694C54.785 76.3165 54.6288 76.2002 54.4496 76.135C54.2705 76.0698 54.0761 76.0584 53.8905 76.1023C53.705 76.1462 53.5363 76.2434 53.4054 76.3821C53.2744 76.5207 53.1869 76.6946 53.1536 76.8823C53.1203 77.0701 53.1427 77.2635 53.2181 77.4387C53.2934 77.6139 53.4183 77.7632 53.5775 77.8682C53.7367 77.9732 53.9231 78.0293 54.1138 78.0296C54.2474 78.0312 54.3798 78.005 54.5029 77.9528C54.6259 77.9007 54.7367 77.8236 54.8285 77.7264C54.9202 77.6293 54.9909 77.5142 55.036 77.3885C55.0811 77.2627 55.0997 77.1289 55.0906 76.9956Z" fill="#263238"/>
<path d="M56.666 75.1872H57.6912V78.804H56.666V75.1872Z" fill="#263238"/>
<path d="M58.2323 76.9956C58.2335 76.7403 58.287 76.4879 58.3893 76.2539C58.4917 76.0199 58.6407 75.8094 58.8274 75.6351C59.014 75.4608 59.2343 75.3265 59.4747 75.2404C59.7151 75.1543 59.9706 75.1183 60.2255 75.1344C60.5194 75.1208 60.8125 75.1752 61.0819 75.2935C61.3514 75.4118 61.5898 75.5908 61.7787 75.8164L61.1275 76.406C61.0296 76.271 60.9013 76.1608 60.7531 76.0843C60.6048 76.0079 60.4407 75.9674 60.2739 75.966C59.9996 75.966 59.7366 76.075 59.5427 76.2689C59.3488 76.4628 59.2398 76.7258 59.2398 77C59.2398 77.2743 59.3488 77.5373 59.5427 77.7312C59.7366 77.9251 59.9996 78.034 60.2739 78.034C60.4407 78.0327 60.6048 77.9922 60.7531 77.9157C60.9013 77.8393 61.0296 77.7291 61.1275 77.594L61.7787 78.2144C61.59 78.4406 61.3517 78.6203 61.0823 78.7393C60.8129 78.8584 60.5197 78.9136 60.2255 78.9008C59.9669 78.9173 59.7077 78.88 59.4643 78.7912C59.2209 78.7025 58.9985 78.5642 58.8112 78.3852C58.6239 78.2062 58.4757 77.9903 58.3761 77.7511C58.2764 77.5119 58.2275 77.2547 58.2323 76.9956Z" fill="#263238"/>
<path d="M65.1447 78.012V78.804H62.2363V75.1872H65.0743V75.9748H63.2483V76.5864H64.8587V77.3344H63.2483V77.9944L65.1447 78.012Z" fill="#263238"/>
<path d="M38.8901 69.7884C38.891 69.9836 38.8339 70.1745 38.7262 70.3372C38.6184 70.4999 38.4648 70.6269 38.2848 70.7021C38.1048 70.7774 37.9064 70.7976 37.715 70.76C37.5235 70.7225 37.3475 70.629 37.2092 70.4913C37.0709 70.3537 36.9766 70.1781 36.9382 69.9867C36.8998 69.7954 36.9191 69.597 36.9935 69.4167C37.068 69.2363 37.1943 69.0822 37.3565 68.9737C37.5187 68.8652 37.7094 68.8072 37.9045 68.8072C38.1652 68.8072 38.4152 68.9105 38.5999 69.0944C38.7846 69.2782 38.889 69.5278 38.8901 69.7884Z" fill="#E0E0E0"/>
<path d="M41.4199 69.7884C41.4208 69.9837 41.3636 70.1749 41.2557 70.3377C41.1477 70.5004 40.9938 70.6274 40.8135 70.7026C40.6333 70.7777 40.4347 70.7976 40.2431 70.7597C40.0515 70.7218 39.8755 70.6279 39.7374 70.4897C39.5993 70.3516 39.5053 70.1756 39.4675 69.984C39.4296 69.7924 39.4495 69.5939 39.5246 69.4136C39.5997 69.2334 39.7267 69.0795 39.8895 68.9715C40.0523 68.8635 40.2434 68.8064 40.4387 68.8072C40.699 68.8072 40.9485 68.9106 41.1325 69.0946C41.3165 69.2786 41.4199 69.5282 41.4199 69.7884Z" fill="#E0E0E0"/>
<path d="M43.9546 69.7884C43.9555 69.9836 43.8984 70.1745 43.7906 70.3372C43.6829 70.4999 43.5292 70.6269 43.3492 70.7021C43.1692 70.7774 42.9709 70.7976 42.7794 70.76C42.5879 70.7225 42.4119 70.629 42.2736 70.4913C42.1354 70.3537 42.041 70.1781 42.0027 69.9867C41.9643 69.7954 41.9835 69.597 42.058 69.4167C42.1325 69.2363 42.2588 69.0822 42.421 68.9737C42.5831 68.8652 42.7739 68.8072 42.969 68.8072C43.2296 68.8072 43.4797 68.9105 43.6644 69.0944C43.8491 69.2782 43.9534 69.5278 43.9546 69.7884Z" fill="#E0E0E0"/>
<path d="M160.039 196.156L102.505 195.901C95.5837 195.87 89.9957 190.687 90.0265 184.32L90.6337 51.6164C90.6645 45.2452 96.3053 40.1016 103.231 40.128L160.748 40.3612C167.669 40.392 173.253 45.5752 173.222 51.942L172.615 184.659C172.615 191.026 166.974 196.174 160.052 196.156H160.039Z" fill="#263238"/>
<path d="M160.281 44.066L149.145 44L116.559 43.8592H112.638L102.87 43.8196C98.0301 43.8196 94.0701 47.4496 94.0481 51.9772L93.4541 183.537C93.4541 188.065 97.3481 191.752 102.193 191.774L159.617 192.02C164.457 192.02 168.417 188.377 168.417 183.85L169.011 52.2896C169.033 47.762 165.121 44.0748 160.277 44.0528L160.281 44.066Z" fill="white"/>
<path d="M160.801 55.7612C160.801 55.9041 160.76 56.044 160.681 56.1633C160.602 56.2825 160.49 56.3757 160.358 56.431C160.226 56.4863 160.081 56.5012 159.941 56.4739C159.801 56.4465 159.672 56.3781 159.57 56.2774C159.469 56.1767 159.4 56.0481 159.372 55.908C159.343 55.7679 159.357 55.6226 159.412 55.4905C159.466 55.3584 159.559 55.2454 159.678 55.1659C159.796 55.0864 159.936 55.044 160.079 55.044C160.174 55.0434 160.267 55.0615 160.355 55.0973C160.442 55.1331 160.522 55.1858 160.589 55.2525C160.656 55.3192 160.709 55.3984 160.746 55.4857C160.782 55.573 160.801 55.6666 160.801 55.7612Z" fill="#263238"/>
<path d="M160.792 58.3616C160.792 58.5045 160.749 58.6442 160.67 58.763C160.59 58.8817 160.477 58.9742 160.345 59.0287C160.213 59.0832 160.068 59.0972 159.928 59.069C159.788 59.0408 159.659 58.9716 159.558 58.8703C159.458 58.7689 159.389 58.6399 159.362 58.4997C159.335 58.3594 159.35 58.2142 159.405 58.0824C159.46 57.9506 159.553 57.8382 159.673 57.7595C159.792 57.6807 159.932 57.6391 160.075 57.64C160.169 57.64 160.263 57.6587 160.35 57.695C160.437 57.7313 160.517 57.7845 160.583 57.8516C160.65 57.9187 160.703 57.9983 160.739 58.0858C160.774 58.1733 160.792 58.267 160.792 58.3616Z" fill="#263238"/>
<path d="M160.783 60.9312C160.783 61.1226 160.707 61.3061 160.572 61.4414C160.436 61.5768 160.253 61.6528 160.062 61.6528C159.87 61.6528 159.687 61.5768 159.551 61.4414C159.416 61.3061 159.34 61.1226 159.34 60.9312C159.339 60.8363 159.356 60.7421 159.392 60.654C159.427 60.566 159.48 60.4859 159.547 60.4184C159.614 60.3508 159.693 60.2972 159.781 60.2606C159.868 60.224 159.962 60.2052 160.057 60.2052C160.153 60.2046 160.247 60.223 160.336 60.2593C160.424 60.2955 160.504 60.349 160.572 60.4165C160.639 60.4841 160.693 60.5643 160.729 60.6527C160.765 60.741 160.784 60.8357 160.783 60.9312Z" fill="#263238"/>
<path d="M146.307 58.7972H114.073C113.766 58.7972 113.471 58.6753 113.254 58.4583C113.037 58.2412 112.916 57.9469 112.916 57.64C112.916 57.3331 113.037 57.0387 113.254 56.8217C113.471 56.6047 113.766 56.4828 114.073 56.4828H146.307C146.614 56.4828 146.908 56.6047 147.125 56.8217C147.342 57.0387 147.464 57.3331 147.464 57.64C147.464 57.9469 147.342 58.2412 147.125 58.4583C146.908 58.6753 146.614 58.7972 146.307 58.7972Z" fill="#E0E0E0"/>
<path d="M147.191 160.754H117.197C113.612 160.754 110.707 163.66 110.707 167.244V167.446C110.707 171.031 113.612 173.936 117.197 173.936H147.191C150.776 173.936 153.681 171.031 153.681 167.446V167.244C153.681 163.66 150.776 160.754 147.191 160.754Z" fill="#66AC47"/>
<path d="M130.511 166.76C130.511 167.609 129.869 168.142 128.843 168.142H128.188V169.123H127.127V165.37H128.843C129.869 165.361 130.511 165.88 130.511 166.76ZM129.437 166.76C129.437 166.408 129.217 166.206 128.777 166.206H128.188V167.306H128.777C129.217 167.297 129.437 167.094 129.437 166.76Z" fill="white"/>
<path d="M133.353 168.384H131.787L131.492 169.114H130.405L132.064 165.361H133.107L134.766 169.114H133.661L133.353 168.384ZM133.045 167.6L132.561 166.399L132.077 167.6H133.045Z" fill="white"/>
<path d="M136.829 167.768V169.114H135.769V167.754L134.339 165.361H135.456L136.336 166.852L137.216 165.361H138.246L136.829 167.768Z" fill="white"/>
<path d="M157.435 80.9908H101.893C101.519 80.9908 101.216 81.2942 101.216 81.6684V81.6904C101.216 82.0646 101.519 82.368 101.893 82.368H157.435C157.809 82.368 158.112 82.0646 158.112 81.6904V81.6684C158.112 81.2942 157.809 80.9908 157.435 80.9908Z" fill="#263238"/>
<g opacity="0.3">
<path d="M161.922 137.566C160.18 132.703 159.302 127.573 159.326 122.408V94.8948C159.329 92.2565 158.661 89.6608 157.385 87.3517C156.109 85.0427 154.267 83.096 152.031 81.6948H101.867C104.102 83.096 105.945 85.0427 107.221 87.3517C108.497 89.6608 109.165 92.2565 109.162 94.8948V127.208C109.162 127.208 109.483 147.629 119.612 149.719L168.166 149.653H172.949V146.485C170.005 144.263 163.436 141.728 161.922 137.566Z" fill="black"/>
</g>
<path d="M164.012 135.15C162.271 130.288 161.392 125.158 161.416 119.992V92.4792C161.416 83.3228 152.757 81.6816 152.757 81.6816H102.597C102.597 81.6816 111.256 83.3228 111.256 92.4792V124.788C111.256 124.788 111.578 145.213 121.706 147.303L174.216 147.079C169.143 146.036 165.944 140.461 164.012 135.15Z" fill="white"/>
<path d="M164.013 135.15C164.013 135.15 164.149 135.489 164.409 136.154C164.668 136.818 165.077 137.799 165.707 139.036C166.465 140.565 167.397 142.003 168.483 143.321C169.185 144.148 169.984 144.886 170.863 145.521C171.864 146.247 173.007 146.754 174.216 147.008L174.757 147.123H174.207L121.698 147.4H121.667C119.548 146.897 117.677 145.657 116.387 143.902C115.06 142.114 114.039 140.119 113.364 137.997C112.649 135.828 112.115 133.602 111.767 131.344C111.391 129.029 111.179 126.69 111.133 124.344C111.133 114.862 111.133 104.922 111.133 94.7012V92.5012L111.072 91.4188L111.041 90.8776C111.015 90.7016 110.975 90.5256 110.944 90.3496C110.733 88.9332 110.212 87.581 109.417 86.3896C108.626 85.2103 107.602 84.2055 106.408 83.4372C105.236 82.6654 103.937 82.1068 102.571 81.7872L101.577 81.5584H102.593H152.753C153.816 81.8073 154.84 82.1996 155.798 82.7244C156.742 83.2216 157.607 83.8546 158.367 84.6032C159.876 86.0456 160.891 87.9272 161.267 89.98C161.65 91.9556 161.491 93.9092 161.522 95.7836C161.553 97.658 161.522 99.4884 161.522 101.257C161.522 108.332 161.522 114.488 161.522 119.552C161.473 123.47 161.925 127.379 162.869 131.182C163.199 132.502 163.515 133.483 163.749 134.147L163.999 134.895C164.057 135.062 164.083 135.15 164.083 135.15C164.083 135.15 163.951 134.816 163.722 134.156C163.493 133.496 163.177 132.506 162.842 131.195C161.874 127.391 161.402 123.478 161.439 119.552C161.439 114.488 161.439 108.332 161.439 101.257C161.439 99.4972 161.439 97.6727 161.439 95.7836C161.408 93.9048 161.557 91.9512 161.179 90.0152C160.815 88.0141 159.831 86.1779 158.367 84.766C157.62 84.0292 156.768 83.4078 155.837 82.9224C154.898 82.4086 153.893 82.0238 152.85 81.7784H102.69L102.712 81.5496C104.107 81.8777 105.434 82.4481 106.632 83.2348C107.853 84.0196 108.901 85.0452 109.712 86.2488C110.525 87.4697 111.058 88.8549 111.274 90.3056C111.305 90.486 111.345 90.6664 111.371 90.8468L111.406 91.3968L111.468 92.4968V94.6968C111.468 104.918 111.468 114.858 111.468 124.335C111.477 126.671 111.651 129.002 111.987 131.314C112.331 133.554 112.861 135.761 113.571 137.914C114.236 140.013 115.244 141.987 116.554 143.757C117.815 145.476 119.646 146.691 121.72 147.184H121.698L174.207 147.008V147.123C172.983 146.86 171.827 146.343 170.815 145.605C169.933 144.957 169.132 144.205 168.43 143.365C167.343 142.039 166.414 140.59 165.663 139.049C165.042 137.804 164.659 136.814 164.391 136.154C164.123 135.494 164.013 135.15 164.013 135.15Z" fill="#263238"/>
<path d="M175.941 147.074C177.699 145.774 179.153 144.106 180.202 142.186C181.25 140.267 181.868 138.142 182.013 135.96L125.283 135.736C125.566 138.378 125.265 141.05 124.403 143.563C123.911 144.998 123.185 146.432 121.939 147.299L175.941 147.074Z" fill="#E0E0E0"/>
<path d="M175.941 147.074H175.677H174.894L171.858 147.105L160.541 147.184L121.949 147.391H121.583L121.883 147.18C122.687 146.583 123.326 145.791 123.739 144.879C124.175 143.949 124.514 142.978 124.752 141.979C125.252 139.935 125.394 137.819 125.169 135.727V135.595H125.297H126.952L182.026 135.863H182.101V135.934C181.976 137.786 181.508 139.599 180.719 141.28C180.135 142.523 179.388 143.683 178.497 144.729C177.94 145.375 177.328 145.971 176.667 146.511C176.227 146.872 175.963 147.039 175.963 147.039L176.135 146.894L176.645 146.485C178.332 145.045 179.684 143.253 180.605 141.236C181.374 139.575 181.829 137.786 181.947 135.96L182.017 136.035L126.947 135.863H125.293L125.407 135.736C125.629 137.857 125.48 140.001 124.967 142.072C124.726 143.086 124.381 144.072 123.937 145.015C123.506 145.962 122.841 146.784 122.006 147.404L121.94 147.198L160.497 147.079H171.827H174.876H175.664L175.941 147.074Z" fill="#263238"/>
<path d="M154.878 92.2944C154.878 92.3604 146.492 92.4132 136.147 92.4132C125.803 92.4132 117.417 92.3604 117.417 92.2944C117.417 92.2284 125.799 92.18 136.147 92.18C146.496 92.18 154.878 92.2328 154.878 92.2944Z" fill="#263238"/>
<path d="M154.878 100.28C154.878 100.342 146.492 100.395 136.147 100.395C125.803 100.395 117.417 100.342 117.417 100.28C117.417 100.219 125.799 100.162 136.147 100.162C146.496 100.162 154.878 100.214 154.878 100.28Z" fill="#263238"/>
<path d="M157.109 122.258C157.109 122.324 148.221 122.377 137.261 122.377C126.3 122.377 117.417 122.324 117.417 122.258C117.417 122.192 126.3 122.144 137.261 122.144C148.221 122.144 157.109 122.197 157.109 122.258Z" fill="#263238"/>
<path d="M131.721 88.968C131.721 89.6148 131.184 89.9976 130.176 89.9976H128.152V86.24H130.071C131.056 86.24 131.54 86.6404 131.54 87.2212C131.544 87.3913 131.498 87.5587 131.408 87.7031C131.318 87.8476 131.188 87.9629 131.034 88.0352C131.236 88.0927 131.413 88.2155 131.537 88.3843C131.661 88.5531 131.726 88.7584 131.721 88.968ZM129.2 87.01V87.736H129.93C130.286 87.736 130.467 87.6128 130.467 87.3708C130.467 87.1288 130.286 87.01 129.93 87.01H129.2ZM130.647 88.8492C130.647 88.5896 130.458 88.4664 130.093 88.4664H129.213V89.232H130.093C130.467 89.232 130.647 89.1044 130.647 88.8492Z" fill="#263238"/>
<path d="M132.275 86.24H133.336V89.9932H132.275V86.24Z" fill="#263238"/>
<path d="M134.092 86.24H135.157V89.1484H136.948V89.9932H134.092V86.24Z" fill="#263238"/>
<path d="M137.366 86.24H138.427V89.1484H140.217V89.9932H137.366V86.24Z" fill="#263238"/>
<path d="M136.944 95.172H117.914V98.0144H136.944V95.172Z" fill="#E0E0E0"/>
<path d="M155.837 95.172H144.547V98.0144H155.837V95.172Z" fill="#E0E0E0"/>
<path d="M136.147 103.783H117.914V106.625H136.147V103.783Z" fill="#E0E0E0"/>
<path d="M125.534 109.868H117.914V112.71H125.534V109.868Z" fill="#E0E0E0"/>
<path d="M130.269 115.491H117.914V118.334H130.269V115.491Z" fill="#E0E0E0"/>
<path d="M157.91 131.058H119.357V133.901H157.91V131.058Z" fill="#E0E0E0"/>
<path d="M156.136 103.783H150.601V106.625H156.136V103.783Z" fill="#66AC47"/>
<path d="M156.136 109.226H150.601V112.068H156.136V109.226Z" fill="#66AC47"/>
<path d="M156.136 115.271H150.601V118.114H156.136V115.271Z" fill="#66AC47"/>
<path d="M156.044 124.802H148.375V127.644H156.044V124.802Z" fill="#66AC47"/>
<g opacity="0.3">
<path d="M169.017 71.5098L133.435 70.9818C132.505 70.976 131.615 70.6026 130.96 69.9431C130.304 69.2836 129.937 68.3916 129.937 67.4618V43.3982H155.941C162.871 43.3982 169.198 47.851 169.193 55.9426L169.017 71.5098Z" fill="black"/>
</g>
<path d="M192.496 29.2214H135.239C134.235 29.2214 133.421 30.035 133.421 31.0386V66.0362C133.421 67.0399 134.235 67.8534 135.239 67.8534H192.496C193.499 67.8534 194.313 67.0399 194.313 66.0362V31.0386C194.313 30.035 193.499 29.2214 192.496 29.2214Z" fill="#66AC47"/>
<path d="M143.445 38.0434C143.445 38.5362 143.053 38.8222 142.301 38.8222H140.827V35.9622H142.221C142.934 35.9622 143.304 36.2614 143.304 36.7058C143.306 36.8361 143.271 36.9644 143.203 37.0757C143.136 37.187 143.038 37.277 142.921 37.335C143.076 37.3752 143.213 37.4675 143.308 37.5965C143.404 37.7254 143.452 37.8832 143.445 38.0434ZM141.482 36.4638V37.137H142.142C142.463 37.137 142.639 37.0226 142.639 36.7982C142.639 36.5738 142.463 36.4638 142.142 36.4638H141.482ZM142.802 37.973C142.802 37.7354 142.613 37.621 142.274 37.621H141.5V38.325H142.265C142.595 38.325 142.785 38.2194 142.785 37.973H142.802Z" fill="white"/>
<path d="M145.829 38.2106H144.509L144.254 38.8222H143.585L144.853 35.9622H145.508L146.775 38.8222H146.085L145.829 38.2106ZM145.623 37.709L145.183 36.6134L144.743 37.709H145.623Z" fill="white"/>
<path d="M149.697 35.9622V38.8222H149.152L147.726 37.0886V38.8222H147.07V35.9622H147.62L149.042 37.7002V35.9622H149.697Z" fill="white"/>
<path d="M151.413 37.7002L151.026 38.1402V38.8618H150.388V36.0018H151.065V37.3218L152.333 36.0018H153.067L151.884 37.269L153.155 38.853H152.385L151.413 37.7002Z" fill="white"/>
<path d="M142.908 49.9278H142.384V50.623H142.116V49.9322H140.637V49.743L142.028 47.983H142.327L141.007 49.677H142.142V49.0698H142.402V49.677H142.925L142.908 49.9278Z" fill="white"/>
<path d="M144.835 49.8662C144.835 50.3062 144.518 50.645 143.884 50.645C143.538 50.6548 143.2 50.5339 142.938 50.3062L143.075 50.0906C143.295 50.2934 143.585 50.4024 143.884 50.3942C144.324 50.3942 144.562 50.1918 144.562 49.8662C144.562 49.5406 144.338 49.347 143.854 49.347H143.664V49.149L144.395 48.2338H143.048V47.983H144.738V48.181L143.999 49.1138C144.558 49.171 144.835 49.4482 144.835 49.8662Z" fill="white"/>
<path d="M146.96 49.8486C146.96 50.2886 146.648 50.645 146.006 50.645C145.66 50.6546 145.324 50.5336 145.064 50.3062L145.2 50.0906C145.417 50.2933 145.705 50.4024 146.001 50.3942C146.441 50.3942 146.688 50.1786 146.688 49.8574C146.688 49.5362 146.476 49.3118 145.808 49.3118H145.253L145.385 47.9918H146.824V48.2338H145.623L145.53 49.0786H145.869C146.666 49.0698 146.96 49.3822 146.96 49.8486Z" fill="white"/>
<path d="M149.274 49.8354C149.273 49.9433 149.251 50.0499 149.208 50.149C149.166 50.2481 149.104 50.3379 149.027 50.4132C148.95 50.4884 148.858 50.5476 148.758 50.5874C148.658 50.6272 148.551 50.6468 148.443 50.645H148.377C147.682 50.645 147.299 50.1566 147.299 49.325C147.299 48.445 147.787 47.9698 148.5 47.9698C148.716 47.9608 148.93 48.0094 149.12 48.1106L149.01 48.3262C148.857 48.2377 148.681 48.195 148.504 48.203C147.937 48.203 147.576 48.5682 147.576 49.281V49.4922C147.653 49.3495 147.769 49.232 147.911 49.1539C148.053 49.0758 148.215 49.0405 148.377 49.0522C148.584 49.0273 148.793 49.0855 148.958 49.2141C149.123 49.3427 149.23 49.5312 149.257 49.7386C149.265 49.7705 149.271 49.8028 149.274 49.8354ZM149.006 49.8354C149.006 49.4878 148.751 49.2678 148.346 49.2678C148.186 49.2517 148.026 49.2988 147.9 49.3991C147.774 49.4994 147.693 49.645 147.673 49.8046V49.8398C147.678 49.9235 147.701 50.0052 147.739 50.0799C147.777 50.1545 147.83 50.2205 147.895 50.2737C147.96 50.3269 148.035 50.3663 148.115 50.3893C148.196 50.4123 148.281 50.4185 148.364 50.4074C148.515 50.4248 148.668 50.3812 148.787 50.2864C148.907 50.1915 148.984 50.0531 149.002 49.9014C149.004 49.8824 149.004 49.8632 149.002 49.8442L149.006 49.8354Z" fill="white"/>
<path d="M154.942 50.623L154.317 49.8002L153.705 50.623H153.406L154.189 49.611L153.446 48.6518H153.705L154.299 49.4218L154.889 48.6518H155.184L154.44 49.5978L155.228 50.6098L154.942 50.623Z" fill="white"/>
<path d="M156.944 50.623L156.306 49.8002L155.677 50.623H155.377L156.156 49.611L155.413 48.6518H155.712L156.306 49.4218L156.895 48.6518H157.19L156.46 49.5978L157.247 50.6098L156.944 50.623Z" fill="white"/>
<path d="M158.946 50.623L158.321 49.8002L157.692 50.623H157.393L158.167 49.611L157.423 48.6518H157.727L158.321 49.4218L158.911 48.6518H159.205L158.462 49.5978L159.249 50.6098L158.946 50.623Z" fill="white"/>
<path d="M160.952 50.623L160.327 49.8002L159.685 50.623H159.386L160.169 49.611L159.425 48.6474H159.725L160.314 49.4174L160.908 48.6474H161.185L160.446 49.5934L161.229 50.6054L160.952 50.623Z" fill="white"/>
<path d="M167.856 50.623L167.231 49.8002L166.602 50.623H166.303L167.082 49.5978L166.342 48.6386H166.642L167.231 49.4086L167.825 48.6386H168.138L167.372 49.5978L168.164 50.6098L167.856 50.623Z" fill="white"/>
<path d="M169.858 50.623L169.233 49.8002L168.599 50.623H168.3L169.083 49.611L168.34 48.6518H168.639L169.233 49.4218L169.823 48.6518H170.117L169.374 49.5978L170.161 50.6098L169.858 50.623Z" fill="white"/>
<path d="M171.86 50.623L171.235 49.8002L170.606 50.623H170.307L171.094 49.5978L170.351 48.6386H170.65L171.244 49.4086L171.833 48.6386H172.124L171.376 49.5978L172.185 50.623H171.86Z" fill="white"/>
<path d="M173.862 50.623L173.237 49.8002L172.625 50.623H172.326L173.101 49.611L172.379 48.6518H172.678L173.277 49.4218L173.866 48.6518H174.161L173.395 49.5978L174.183 50.6098L173.862 50.623Z" fill="white"/>
<path d="M180.07 47.983V50.623H179.797V48.2382H179.177V47.983H180.07Z" fill="white"/>
<path d="M182.429 49.8662C182.429 50.3062 182.112 50.645 181.478 50.645C181.131 50.6553 180.794 50.5343 180.532 50.3062L180.664 50.0906C180.885 50.2945 181.178 50.4035 181.478 50.3942C181.918 50.3942 182.151 50.1918 182.151 49.8662C182.151 49.5406 181.927 49.347 181.443 49.347H181.258V49.149L181.984 48.2338H180.664V47.983H182.354V48.181L181.615 49.1138C182.147 49.171 182.429 49.4482 182.429 49.8662Z" fill="white"/>
<path d="M185.038 49.9278H184.506V50.623H184.242V49.9322H182.746V49.743L184.136 47.983H184.435L183.093 49.677H184.233V49.0698H184.506V49.677H185.034L185.038 49.9278Z" fill="white"/>
<path d="M187.062 50.381V50.623H185.223V50.4426L186.31 49.3778C186.609 49.083 186.666 48.907 186.666 48.731C186.666 48.423 186.45 48.2382 186.05 48.2382C185.917 48.2295 185.784 48.2511 185.66 48.3014C185.537 48.3517 185.426 48.4294 185.337 48.5286L185.139 48.3658C185.258 48.2389 185.403 48.1396 185.564 48.0749C185.725 48.0103 185.899 47.9819 186.072 47.9918C186.604 47.9918 186.952 48.2602 186.952 48.7002C186.946 48.8612 186.903 49.0186 186.827 49.1604C186.751 49.3023 186.643 49.4248 186.512 49.5186L185.632 50.3986L187.062 50.381Z" fill="white"/>
<path d="M139.287 56.0658C139.286 55.9815 139.302 55.8978 139.334 55.8197C139.366 55.7415 139.412 55.6704 139.472 55.6103C139.531 55.5502 139.601 55.5024 139.679 55.4696C139.757 55.4368 139.84 55.4196 139.925 55.419H139.969C140.065 55.4155 140.16 55.4334 140.249 55.4714C140.337 55.5095 140.416 55.5667 140.479 55.639L140.294 55.8106C140.242 55.7456 140.171 55.6985 140.091 55.6758C140.011 55.6531 139.925 55.656 139.847 55.6841C139.768 55.7122 139.701 55.7641 139.653 55.8325C139.605 55.9009 139.58 55.9825 139.581 56.0658C139.581 56.1186 139.591 56.1709 139.611 56.2198C139.631 56.2686 139.66 56.313 139.697 56.3503C139.735 56.3876 139.779 56.417 139.828 56.437C139.877 56.4569 139.929 56.4668 139.982 56.4662C140.042 56.4669 140.101 56.4538 140.155 56.4279C140.21 56.4019 140.257 56.3639 140.294 56.3166L140.479 56.4882C140.39 56.5852 140.276 56.6547 140.148 56.6883C140.021 56.722 139.887 56.7185 139.762 56.6781C139.637 56.6378 139.526 56.5624 139.443 56.4609C139.359 56.3594 139.306 56.236 139.291 56.1054C139.291 56.1054 139.287 56.079 139.287 56.0658Z" fill="white"/>
<path d="M141.478 56.4222H140.897L140.783 56.6906H140.505L141.064 55.4234H141.35L141.909 56.6906H141.61L141.478 56.4222ZM141.39 56.2022L141.192 55.7226L140.989 56.2022H141.39Z" fill="white"/>
<path d="M142.824 56.6906L142.582 56.343H142.314V56.6906H142.028V55.4234H142.569C142.903 55.4234 143.115 55.595 143.115 55.8634C143.114 55.9473 143.089 56.0292 143.043 56.0993C142.997 56.1695 142.932 56.2251 142.855 56.2594L143.132 56.6598L142.824 56.6906ZM142.551 55.6742H142.314V56.1142H142.551C142.727 56.1142 142.815 56.035 142.815 55.8942C142.815 55.7534 142.727 55.6918 142.551 55.6918V55.6742Z" fill="white"/>
<path d="M143.242 56.5674L143.339 56.3474C143.468 56.4371 143.622 56.4833 143.779 56.4794C143.955 56.4794 144.021 56.4222 144.021 56.3474C144.021 56.1098 143.295 56.2726 143.295 55.8062C143.295 55.595 143.467 55.419 143.823 55.419C143.977 55.4142 144.129 55.4523 144.263 55.529L144.175 55.749C144.07 55.6865 143.95 55.6531 143.827 55.6522C143.656 55.6522 143.585 55.7138 143.585 55.793C143.585 56.0218 144.32 55.8678 144.32 56.321C144.32 56.5322 144.14 56.7126 143.788 56.7126C143.595 56.7203 143.405 56.6697 143.242 56.5674Z" fill="white"/>
<path d="M146.164 55.463V56.7302H145.874V56.2154H145.302V56.7302H145.016V55.463H145.302V55.9558H145.874V55.463H146.164Z" fill="white"/>
<path d="M146.362 56.0658C146.353 55.9301 146.385 55.7948 146.454 55.6773C146.522 55.5597 146.624 55.4652 146.746 55.4057C146.869 55.3461 147.006 55.3243 147.141 55.3429C147.275 55.3615 147.402 55.4197 147.503 55.5101C147.605 55.6006 147.677 55.7192 147.711 55.8509C147.745 55.9826 147.74 56.1214 147.695 56.2498C147.65 56.3782 147.567 56.4903 147.459 56.5719C147.35 56.6535 147.219 56.701 147.083 56.7082H147.048C146.877 56.7179 146.709 56.6595 146.58 56.5458C146.451 56.4321 146.373 56.2723 146.362 56.101V56.0658ZM147.44 56.0658C147.439 55.9875 147.415 55.9112 147.371 55.8466C147.326 55.782 147.264 55.7319 147.191 55.7027C147.118 55.6736 147.039 55.6666 146.962 55.6828C146.886 55.6989 146.815 55.7374 146.761 55.7934C146.706 55.8494 146.669 55.9203 146.655 55.9973C146.64 56.0743 146.649 56.1538 146.68 56.2258C146.71 56.2979 146.762 56.3591 146.827 56.4019C146.893 56.4447 146.97 56.4671 147.048 56.4662C147.15 56.4662 147.247 56.4259 147.319 56.3541C147.391 56.2823 147.431 56.185 147.431 56.0834L147.44 56.0658Z" fill="white"/>
<path d="M147.95 55.463H148.241V56.475H148.865V56.7126H147.946L147.95 55.463Z" fill="white"/>
<path d="M149.033 55.463H149.605C149.773 55.463 149.934 55.5298 150.053 55.6486C150.172 55.7674 150.238 55.9286 150.238 56.0966C150.238 56.2647 150.172 56.4258 150.053 56.5447C149.934 56.6635 149.773 56.7302 149.605 56.7302H149.033V55.463ZM149.592 56.475C149.688 56.4648 149.777 56.4194 149.841 56.3475C149.906 56.2756 149.942 56.1823 149.942 56.0856C149.942 55.989 149.906 55.8957 149.841 55.8238C149.777 55.7519 149.688 55.7065 149.592 55.6962H149.306V56.475H149.592Z" fill="white"/>
<path d="M151.506 56.4574V56.6906H150.538V55.4234H151.479V55.6566H150.832V55.9338H151.413V56.1626H150.832V56.4486L151.506 56.4574Z" fill="white"/>
<path d="M152.504 56.6906L152.258 56.343H151.99V56.6906H151.704V55.4234H152.245C152.579 55.4234 152.79 55.595 152.79 55.8634C152.789 55.9473 152.764 56.0292 152.718 56.0993C152.672 56.1695 152.607 56.2251 152.531 56.2594L152.812 56.6598L152.504 56.6906ZM152.227 55.6742H151.99V56.1142H152.227C152.403 56.1142 152.496 56.035 152.496 55.8942C152.496 55.7534 152.416 55.6918 152.24 55.6918L152.227 55.6742Z" fill="white"/>
<path d="M156.9 59.8058H139.674C139.302 59.8058 139 60.1072 139 60.479V60.7386C139 61.1104 139.302 61.4118 139.674 61.4118H156.9C157.271 61.4118 157.573 61.1104 157.573 60.7386V60.479C157.573 60.1072 157.271 59.8058 156.9 59.8058Z" fill="white"/>
<path d="M187.598 59.8058H178.627C178.255 59.8058 177.954 60.1072 177.954 60.479V60.7386C177.954 61.1104 178.255 61.4118 178.627 61.4118H187.598C187.97 61.4118 188.272 61.1104 188.272 60.7386V60.479C188.272 60.1072 187.97 59.8058 187.598 59.8058Z" fill="white"/>
<g opacity="0.2">
<path d="M192.293 29.2214H135.441C135.176 29.2209 134.913 29.2726 134.668 29.3736C134.423 29.4746 134.201 29.6229 134.013 29.8101C133.826 29.9973 133.677 30.2197 133.575 30.4644C133.474 30.7092 133.421 30.9716 133.421 31.2366V41.4358C137.012 43.9394 141.949 44.3926 146.322 43.4686C151.483 42.3906 156.156 39.7506 160.961 37.5858C165.766 35.421 171.05 33.6918 176.247 34.5806C181.153 35.4254 185.333 38.4746 189.768 40.7406C191.223 41.4897 192.745 42.1024 194.313 42.571V31.2366C194.313 30.9716 194.261 30.7092 194.159 30.4644C194.058 30.2197 193.909 29.9973 193.721 29.8101C193.534 29.6229 193.311 29.4746 193.066 29.3736C192.821 29.2726 192.558 29.2209 192.293 29.2214Z" fill="white"/>
</g>
<path d="M183.912 34.5718H180.942C180.205 34.5718 179.608 35.1687 179.608 35.905V38.875C179.608 39.6113 180.205 40.2082 180.942 40.2082H183.912C184.648 40.2082 185.245 39.6113 185.245 38.875V35.905C185.245 35.1687 184.648 34.5718 183.912 34.5718Z" fill="white"/>
<path d="M54.5761 209.779H51.5797L47.9585 188.602H52.3585L54.5761 209.779Z" fill="#AE7461"/>
<path d="M26.5698 209.779H29.5618L33.183 188.602H28.783L26.5698 209.779Z" fill="#AE7461"/>
<path d="M104.916 209.779H101.92L98.2988 188.602H102.699L104.916 209.779Z" fill="#AE7461"/>
<path d="M76.9102 209.779H79.9066L83.5234 188.602H79.1234L76.9102 209.779Z" fill="#AE7461"/>
<path d="M105.022 180.127H23.7715V189.059H105.022V180.127Z" fill="#66AC47"/>
<path d="M96.0196 163.205H45.6836C43.5111 163.205 41.75 164.966 41.75 167.138V171.692C41.75 173.865 43.5111 175.626 45.6836 175.626H96.0196C98.1921 175.626 99.9532 173.865 99.9532 171.692V167.138C99.9532 164.966 98.1921 163.205 96.0196 163.205Z" fill="#66AC47"/>
<path d="M82.3486 156.121H102.633C103.198 156.121 103.758 156.232 104.281 156.449C104.804 156.665 105.279 156.982 105.679 157.382C106.079 157.782 106.396 158.257 106.612 158.78C106.829 159.303 106.94 159.863 106.94 160.428V180.36H82.3486V156.121Z" fill="#66AC47"/>
<path d="M44.1743 130.24H83.3035C84.061 130.24 84.8111 130.389 85.511 130.679C86.2108 130.969 86.8467 131.394 87.3824 131.93C87.918 132.465 88.3429 133.101 88.6328 133.801C88.9227 134.501 89.0719 135.251 89.0719 136.008V163.2H44.1919V130.24H44.1743Z" fill="#66AC47"/>
<path d="M98.1933 180.501L47.9585 180.545V174.966H98.1933V180.501Z" fill="#66AC47"/>
<path d="M26.0331 130.24H75.5595V163.205H23.7715V132.502C23.7715 131.902 24.0098 131.327 24.4339 130.902C24.858 130.478 25.4333 130.24 26.0331 130.24Z" fill="#66AC47"/>
<g opacity="0.3">
<path d="M26.0155 130.24H36.5403V159.764C36.5403 160.678 36.1773 161.554 35.5312 162.2C34.8851 162.846 34.0088 163.209 33.0951 163.209H27.2167C26.303 163.209 25.4267 162.846 24.7806 162.2C24.1345 161.554 23.7715 160.678 23.7715 159.764V132.484C23.7709 132.189 23.8286 131.897 23.9411 131.625C24.0537 131.352 24.219 131.104 24.4274 130.896C24.6359 130.687 24.8835 130.522 25.1561 130.41C25.4286 130.297 25.7206 130.239 26.0155 130.24Z" fill="black"/>
</g>
<path d="M59.1872 118.919L56.6836 104.953C56.028 100.72 57.942 96.8088 62.1924 96.2676L62.5884 96.2412C64.5082 96.1093 66.4072 96.7053 67.9075 97.9104C69.4077 99.1155 70.3991 100.841 70.6844 102.744C71.2344 106.418 71.7932 110.484 71.9032 112.464C72.132 116.569 68.0752 117.484 68.0752 117.484C68.0752 117.484 68.3216 119.97 68.458 121.172L67.7716 124.348L59.1872 118.919Z" fill="#FFBF9D"/>
<path d="M68.0839 117.48C66.1895 117.603 64.2995 117.182 62.6367 116.266C62.6367 116.266 64.1283 119.262 68.1983 118.611L68.0839 117.48Z" fill="#FF9A6C"/>
<path d="M69.6813 106.564C69.6924 106.716 69.6441 106.867 69.5464 106.984C69.4488 107.101 69.3094 107.176 69.1577 107.193C69.0833 107.204 69.0074 107.2 68.9345 107.181C68.8617 107.163 68.7933 107.13 68.7334 107.084C68.6735 107.039 68.6234 106.982 68.5859 106.916C68.5484 106.851 68.5244 106.779 68.5153 106.704C68.5041 106.552 68.5524 106.401 68.6501 106.284C68.7477 106.167 68.8871 106.092 69.0389 106.075C69.1132 106.064 69.1891 106.068 69.262 106.087C69.3348 106.105 69.4032 106.138 69.4631 106.184C69.523 106.229 69.5731 106.286 69.6106 106.352C69.6481 106.417 69.6721 106.489 69.6813 106.564Z" fill="#263238"/>
<path d="M69.9319 104.478C69.8659 104.557 69.3995 104.258 68.7703 104.302C68.1411 104.346 67.7011 104.694 67.6263 104.623C67.5515 104.553 67.6527 104.447 67.8463 104.289C68.1055 104.079 68.4241 103.956 68.7571 103.937C69.0835 103.914 69.4086 103.996 69.6855 104.17C69.8923 104.306 69.9671 104.438 69.9319 104.478Z" fill="#263238"/>
<path d="M64.1856 106.99C64.1979 107.143 64.15 107.294 64.0522 107.412C63.9543 107.529 63.8142 107.604 63.662 107.62C63.5879 107.631 63.5123 107.627 63.4397 107.608C63.3671 107.589 63.299 107.556 63.2395 107.511C63.1799 107.465 63.1302 107.408 63.0932 107.343C63.0562 107.278 63.0327 107.206 63.024 107.131C63.0129 106.979 63.0612 106.828 63.1589 106.711C63.2565 106.594 63.3959 106.519 63.5476 106.502C63.6218 106.491 63.6974 106.495 63.77 106.513C63.8426 106.532 63.9107 106.565 63.9702 106.611C64.0297 106.656 64.0795 106.714 64.1165 106.779C64.1535 106.844 64.177 106.916 64.1856 106.99Z" fill="#263238"/>
<path d="M63.7673 105.046C63.6969 105.125 63.2305 104.826 62.6013 104.87C61.9721 104.914 61.5321 105.261 61.4573 105.191C61.3825 105.12 61.4881 105.015 61.6773 104.856C61.9382 104.649 62.2558 104.527 62.5881 104.504C62.9158 104.482 63.2422 104.564 63.5209 104.738C63.7233 104.874 63.7981 105.006 63.7673 105.046Z" fill="#263238"/>
<path d="M66.3592 109.732C66.6825 109.603 67.0212 109.517 67.3668 109.476C67.5296 109.45 67.6792 109.406 67.6968 109.296C67.7 109.128 67.6508 108.964 67.556 108.825C67.38 108.447 67.1952 108.051 66.9972 107.633C66.2184 105.934 65.642 104.531 65.7124 104.5C65.7828 104.469 66.4692 105.82 67.248 107.523C67.4372 107.941 67.6176 108.341 67.7848 108.724C67.9001 108.911 67.9453 109.132 67.9124 109.349C67.8934 109.407 67.8613 109.461 67.8186 109.505C67.7759 109.549 67.7237 109.583 67.666 109.604C67.577 109.631 67.4857 109.651 67.3932 109.661C67.0527 109.727 66.7054 109.751 66.3592 109.732Z" fill="#263238"/>
<path d="M63.8333 103.057C63.7585 103.224 63.1381 103.096 62.3901 103.132C61.6421 103.167 61.0349 103.325 60.9469 103.162C60.9073 103.088 61.0261 102.934 61.2769 102.784C61.6142 102.607 61.9871 102.507 62.3679 102.494C62.7487 102.48 63.1278 102.552 63.4769 102.705C63.7409 102.837 63.8685 102.96 63.8333 103.057Z" fill="#263238"/>
<path d="M69.8352 102.621C69.7164 102.775 69.1928 102.67 68.5768 102.714C67.9608 102.758 67.446 102.903 67.314 102.766C67.2524 102.696 67.314 102.546 67.5384 102.392C67.8397 102.198 68.1875 102.087 68.546 102.071C68.9017 102.045 69.2577 102.116 69.5756 102.278C69.8044 102.406 69.888 102.546 69.8352 102.621Z" fill="#263238"/>
<path d="M57.2248 107.826C57.1544 107.8 54.3516 107.184 54.6332 109.982C54.9148 112.781 58.1532 111.993 58.1532 111.993C58.1576 111.91 57.2248 107.826 57.2248 107.826Z" fill="#FFBF9D"/>
<path d="M56.701 110.88C56.701 110.88 56.6526 110.92 56.5734 110.964C56.4633 111.024 56.3341 111.04 56.2126 111.008C56.0203 110.911 55.8571 110.766 55.7396 110.585C55.6221 110.405 55.5545 110.197 55.5438 109.982C55.5132 109.743 55.5358 109.499 55.6098 109.27C55.6277 109.18 55.6671 109.096 55.7246 109.025C55.782 108.953 55.8559 108.897 55.9398 108.86C55.9948 108.84 56.0553 108.839 56.1108 108.858C56.1662 108.877 56.2132 108.916 56.2434 108.966C56.2874 109.041 56.2742 109.098 56.2918 109.098C56.3094 109.098 56.3446 109.045 56.2918 108.935C56.2729 108.865 56.2271 108.805 56.1642 108.768C56.124 108.743 56.0791 108.726 56.0322 108.718C55.9854 108.711 55.9375 108.713 55.8914 108.724C55.7789 108.758 55.677 108.821 55.5954 108.905C55.5138 108.99 55.4551 109.094 55.425 109.208C55.3311 109.462 55.2994 109.735 55.3326 110.004C55.3438 110.255 55.4287 110.497 55.5766 110.7C55.7245 110.902 55.9289 111.057 56.1642 111.144C56.2418 111.158 56.3215 111.155 56.3976 111.134C56.4737 111.114 56.5442 111.076 56.6042 111.025C56.701 110.933 56.7098 110.88 56.701 110.88Z" fill="#FF9A6C"/>
<path d="M75.907 98.3092C75.8425 98.1493 75.7176 98.0213 75.5594 97.9528C75.2167 97.8362 74.8491 97.8134 74.4946 97.8868C73.5964 97.9562 72.694 97.8224 71.8546 97.4952C72.1197 97.3345 72.3561 97.1308 72.5542 96.8924C72.7688 96.6524 72.9135 96.3581 72.9725 96.0416C73.0314 95.725 73.0024 95.3984 72.8886 95.0972C72.87 95.0396 72.8379 94.9872 72.7951 94.9443C72.7522 94.9015 72.6999 94.8694 72.6422 94.8508C72.4574 94.8112 72.3166 95.0048 72.2022 95.1588C72.064 95.3951 71.8639 95.5892 71.6236 95.7202C71.3832 95.8513 71.1117 95.9142 70.8382 95.9024C70.4621 95.9173 70.0875 95.8466 69.7426 95.6956L69.703 95.656L69.2366 95.2688C68.3407 94.4541 67.2945 93.8219 66.1566 93.4076C64.4733 92.9763 62.7044 93.0113 61.0394 93.5088C59.6534 94.0236 58.4874 95.304 58.4346 96.7824C57.5546 96.184 56.371 96.3116 55.4338 96.7824C54.3866 97.2752 53.885 98.4808 53.6738 99.616C53.6738 99.682 53.6518 99.7436 53.643 99.8052C53.3334 100.425 52.8809 100.961 52.323 101.372C52.2262 101.442 52.1118 101.53 52.1118 101.653C52.1118 101.776 52.2218 101.86 52.3274 101.922C52.6055 102.083 52.9172 102.178 53.2382 102.199C53.1673 102.472 53.0716 102.739 52.9522 102.995C52.851 103.215 52.7322 103.479 52.8598 103.682C52.9144 103.758 52.9921 103.816 53.0816 103.845C53.1711 103.874 53.2676 103.874 53.357 103.844C53.5356 103.786 53.7004 103.692 53.841 103.567L53.5638 104.469C53.9638 104.498 54.3648 104.431 54.7342 104.276C55.0642 105.288 55.425 107.184 55.7594 107.857C56.5074 107.796 56.679 107.699 57.0794 107.787C57.5766 107.901 57.4798 108.777 58.0826 108.469C58.395 108.315 58.7646 107.048 58.8438 106.709C59.3409 104.459 59.3499 102.129 58.8702 99.8756C59.2708 99.3512 59.77 98.9103 60.3398 98.5776L60.2958 98.626C61.4002 98.1156 62.6586 97.5964 63.8158 98.0276C64.6958 98.362 65.281 99.1848 65.9806 99.8184C66.5736 100.403 67.2837 100.855 68.0641 101.144C68.8446 101.434 69.6776 101.555 70.5082 101.499C70.7898 102.718 71.0362 104.733 71.2122 105.899L71.969 103.492C72.0328 103.349 72.0886 103.202 72.1362 103.052L72.1582 103.008C72.2331 102.775 72.3198 102.546 72.4178 102.322C72.5631 102.418 72.738 102.459 72.9108 102.437C73.0835 102.414 73.2425 102.331 73.3588 102.201C73.4751 102.072 73.5409 101.905 73.5443 101.73C73.5476 101.556 73.4883 101.387 73.377 101.253C73.266 101.13 73.1369 101.025 72.9942 100.94C73.1492 101.063 73.3332 101.143 73.5282 101.173C73.7233 101.203 73.9228 101.182 74.1074 101.112C74.2916 101.039 74.4457 100.906 74.5447 100.734C74.6437 100.562 74.6819 100.362 74.653 100.166C74.6244 100.035 74.5617 99.9141 74.4713 99.8152C74.3809 99.7163 74.266 99.6431 74.1382 99.6028C74.6504 99.5916 75.1479 99.4293 75.5682 99.1364C75.797 98.9604 76.0522 98.6612 75.907 98.3092Z" fill="#263238"/>
<path d="M59.7723 97.1256C59.6378 97.2559 59.5128 97.3955 59.3983 97.5436C59.1124 97.966 58.9425 98.4561 58.9055 98.9648C58.8701 99.3144 58.8701 99.6668 58.9055 100.016C58.9407 100.39 59.0111 100.791 59.0815 101.218C59.1639 101.654 59.2183 102.095 59.2443 102.538C59.2544 102.777 59.247 103.017 59.2223 103.255C59.2109 103.509 59.1352 103.755 59.0023 103.972C58.9388 104.059 58.8539 104.127 58.756 104.171C58.658 104.215 58.5504 104.233 58.4435 104.223C58.2391 104.203 58.0465 104.118 57.8935 103.981C57.6423 103.696 57.4708 103.35 57.3963 102.978H57.4843C57.3916 103.298 57.2522 103.604 57.0707 103.884C56.8953 104.146 56.6259 104.33 56.3183 104.399C56.1712 104.429 56.0186 104.417 55.8783 104.364C55.75 104.313 55.6397 104.226 55.5615 104.113C55.4909 104.007 55.4499 103.884 55.4427 103.756C55.4347 103.638 55.469 103.521 55.5395 103.426L55.5879 103.462C55.3713 103.763 55.0941 104.017 54.7739 104.205C54.6892 104.255 54.6009 104.3 54.5099 104.337L54.4175 104.372C54.4175 104.372 54.4439 104.372 54.5055 104.324C54.9155 104.117 55.2701 103.816 55.5395 103.444L55.5879 103.479C55.5294 103.572 55.501 103.68 55.5065 103.79C55.5121 103.899 55.5512 104.004 55.6187 104.091C55.6911 104.191 55.7902 104.269 55.9047 104.315C56.0313 104.351 56.1653 104.351 56.2919 104.315C56.5754 104.251 56.8239 104.081 56.9871 103.84C57.1622 103.568 57.2957 103.271 57.3831 102.96L57.4315 102.819L57.4711 102.96C57.5429 103.316 57.7068 103.646 57.9463 103.919C58.0813 104.042 58.2528 104.118 58.4347 104.135C58.5254 104.144 58.617 104.129 58.7004 104.092C58.7837 104.055 58.8559 103.997 58.9099 103.924C59.0322 103.721 59.1031 103.491 59.1167 103.255C59.1341 103.02 59.1341 102.785 59.1167 102.551C59.0919 102.108 59.039 101.667 58.9583 101.231C58.8923 100.791 58.8263 100.404 58.7911 100.021C58.7555 99.6668 58.7555 99.31 58.7911 98.956C58.8396 98.4394 59.0232 97.9447 59.3235 97.5216C59.4489 97.3645 59.6008 97.2305 59.7723 97.1256Z" fill="#455A64"/>
<path d="M72.8271 99.88C72.8271 99.88 72.8271 99.88 72.7963 99.9152L72.7039 99.9988C72.6526 100.045 72.5983 100.088 72.5411 100.126C72.4667 100.185 72.3871 100.236 72.3035 100.28C71.7798 100.584 71.1884 100.752 70.5831 100.769C69.6828 100.798 68.7932 100.566 68.0223 100.1C67.0894 99.5235 66.2851 98.7612 65.6595 97.8604C65.3119 97.394 65.0171 96.91 64.7047 96.4656C64.415 96.034 64.0654 95.6459 63.6663 95.3128C63.3076 95.0092 62.8776 94.8018 62.4167 94.71C62.2083 94.6771 61.996 94.6771 61.7875 94.71C61.595 94.7396 61.4071 94.7944 61.2287 94.8728C60.9215 95.0138 60.6472 95.2177 60.4235 95.4712C60.2562 95.6639 60.121 95.8823 60.0231 96.118C59.9475 96.3223 59.8973 96.5351 59.8735 96.7516C59.8735 96.7516 59.8735 96.7516 59.8735 96.7076C59.8735 96.6636 59.8735 96.6328 59.8735 96.58C59.8905 96.4177 59.9274 96.2581 59.9835 96.1048C60.0781 95.8617 60.2119 95.6358 60.3795 95.436C60.6048 95.1719 60.8838 94.9589 61.1979 94.8112C61.3801 94.7277 61.5724 94.6686 61.7699 94.6352C61.9872 94.6025 62.2082 94.6025 62.4255 94.6352C62.9015 94.7265 63.3465 94.9369 63.7191 95.2468C64.1266 95.5844 64.4837 95.9785 64.7795 96.4172C65.0963 96.8572 65.3867 97.3456 65.7299 97.8076C66.3542 98.6879 67.1468 99.4356 68.0619 100.008C68.8174 100.469 69.6893 100.704 70.5743 100.685C71.1705 100.678 71.7561 100.527 72.2815 100.245C72.4715 100.136 72.6537 100.014 72.8271 99.88Z" fill="#455A64"/>
<path d="M73.0293 98.0276C72.99 98.0737 72.944 98.1138 72.8929 98.1464C72.7611 98.2435 72.6229 98.3317 72.4793 98.4104C72.2656 98.5271 72.0417 98.6243 71.8105 98.7008C71.246 98.8982 70.6469 98.9775 70.0505 98.934C69.8086 98.9169 69.5686 98.8786 69.3333 98.8196C69.1723 98.7834 69.0148 98.7334 68.8625 98.67C68.8067 98.6519 68.7535 98.6268 68.7041 98.5952C68.7041 98.5952 68.9461 98.67 69.3465 98.7536C69.58 98.8019 69.8168 98.8328 70.0549 98.846C70.3487 98.8579 70.643 98.8462 70.9349 98.8108C71.2245 98.7709 71.5101 98.7062 71.7885 98.6172C72.0162 98.5439 72.2382 98.4542 72.4529 98.3488C72.8269 98.164 73.0161 98.0144 73.0293 98.0276Z" fill="#455A64"/>
<path d="M66.5087 111.646C66.4647 111.549 65.8311 111.879 65.1051 111.571C64.3791 111.263 64.0931 110.554 64.0051 110.594C63.9171 110.634 63.9611 110.81 64.0975 111.096C64.2842 111.468 64.5955 111.764 64.9775 111.932C65.3458 112.089 65.7607 112.097 66.1347 111.954C66.4163 111.839 66.5351 111.69 66.5087 111.646Z" fill="#263238"/>
<path d="M105.572 171.798L110.984 179.023C110.984 179.023 120.149 175.943 121.28 177.188L107.64 188.188L98.7476 177.276L105.572 171.798Z" fill="#263238"/>
<path d="M106.293 181.834C106.194 181.98 106.152 182.157 106.175 182.332C106.199 182.507 106.286 182.666 106.421 182.78C106.563 182.884 106.739 182.93 106.913 182.908C107.088 182.886 107.247 182.798 107.358 182.662C107.462 182.507 107.506 182.32 107.48 182.135C107.454 181.951 107.36 181.782 107.217 181.663C107.059 181.57 106.87 181.542 106.692 181.585C106.513 181.627 106.358 181.737 106.258 181.892" fill="#E0E0E0"/>
<path d="M107.644 188.184L106.791 187.048L120.18 176.928C120.18 176.928 121.003 176.7 121.28 177.184L107.644 188.184Z" fill="#455A64"/>
<path d="M111.151 178.776C111.204 178.847 110.891 179.146 110.737 179.621C110.583 180.096 110.636 180.501 110.553 180.545C110.469 180.589 110.258 180.105 110.456 179.529C110.654 178.952 111.107 178.706 111.151 178.776Z" fill="white"/>
<path d="M113.056 178.2C113.127 178.253 112.929 178.6 112.929 179.08C112.929 179.56 113.105 179.894 113.034 179.96C112.964 180.026 112.621 179.67 112.63 179.08C112.638 178.49 113.004 178.152 113.056 178.2Z" fill="white"/>
<path d="M115.252 179.274C115.199 179.335 114.838 179.076 114.715 178.574C114.592 178.072 114.79 177.694 114.86 177.694C114.931 177.694 114.9 178.077 115.006 178.49C115.111 178.904 115.309 179.212 115.252 179.274Z" fill="white"/>
<path d="M109.734 177.267C109.756 177.351 109.378 177.505 109.022 177.835C108.665 178.165 108.467 178.517 108.388 178.49C108.309 178.464 108.388 177.993 108.828 177.61C109.268 177.228 109.726 177.188 109.734 177.267Z" fill="white"/>
<path d="M93.4147 196.434L93.0759 205.454C93.0759 205.454 102.127 208.833 102.228 210.505L84.7071 210.47L84.6631 196.39L93.4147 196.434Z" fill="#263238"/>
<path d="M87.6596 204.684C87.4913 204.735 87.3477 204.846 87.256 204.996C87.1644 205.146 87.131 205.325 87.1624 205.498C87.2072 205.668 87.3155 205.815 87.4652 205.908C87.615 206.002 87.7947 206.034 87.9676 205.999C88.1484 205.944 88.302 205.823 88.3981 205.66C88.4942 205.497 88.5258 205.304 88.4868 205.119C88.4238 204.947 88.2977 204.806 88.1341 204.725C87.9705 204.643 87.7819 204.627 87.6068 204.679" fill="#E0E0E0"/>
<path d="M84.707 210.47L84.7598 209.048L101.533 209.616C101.533 209.616 102.311 209.959 102.223 210.496L84.707 210.47Z" fill="#455A64"/>
<path d="M93.3576 205.366C93.3576 205.454 92.9176 205.489 92.504 205.762C92.0904 206.034 91.8616 206.395 91.7824 206.364C91.7032 206.334 91.8308 205.836 92.3456 205.511C92.8604 205.185 93.3752 205.286 93.3576 205.366Z" fill="white"/>
<path d="M95.1922 206.131C95.1922 206.215 94.8402 206.356 94.5498 206.721C94.2594 207.086 94.1758 207.464 94.0878 207.46C93.9998 207.456 93.9514 206.972 94.321 206.527C94.6906 206.083 95.1922 206.048 95.1922 206.131Z" fill="white"/>
<path d="M96.2308 208.331C96.156 208.331 96.0372 207.922 96.2572 207.451C96.4772 206.98 96.8776 206.796 96.9128 206.866C96.948 206.936 96.7016 207.187 96.5256 207.574C96.3496 207.962 96.3188 208.322 96.2308 208.331Z" fill="white"/>
<path d="M93.2078 203.302C93.1726 203.381 92.7678 203.262 92.297 203.302C91.8262 203.342 91.417 203.487 91.3906 203.412C91.3642 203.337 91.7118 203.034 92.2706 203.003C92.8294 202.972 93.2518 203.236 93.2078 203.302Z" fill="white"/>
<path d="M57.8185 156.873C58.0473 156.803 66.0201 153.309 72.5717 150.612C75.7405 149.391 79.0146 148.463 82.3529 147.84C82.3529 147.84 89.0057 143.964 91.5269 147.488C94.0481 151.012 111.987 175.56 111.851 175.943C111.714 176.326 103.156 183.92 103.156 183.92C103.156 183.92 84.6761 160.406 84.3109 160.53C83.9457 160.653 75.3921 167.345 75.3921 167.345C75.3921 167.345 72.8269 169.985 70.9349 170.245C69.0429 170.504 57.9725 169.62 57.9725 169.62L53.7793 158.255L57.8185 156.873Z" fill="#263238"/>
<path d="M67.2393 166.76C67.6353 167.024 71.8417 169.972 71.8417 169.972L81.3633 172.172L83.2993 203.434L94.6777 203.029C94.6777 203.029 94.6777 180.488 94.6777 175.208C94.6777 169.928 94.5457 165.048 92.9617 163.328C91.3777 161.608 84.2981 160.521 84.2981 160.521L67.2393 166.76Z" fill="#263238"/>
<path d="M94.6777 174.011C94.6673 173.888 94.6673 173.765 94.6777 173.642C94.6777 173.373 94.6777 173.021 94.6777 172.581C94.6777 171.657 94.6425 170.324 94.5281 168.683C94.4665 167.864 94.3828 166.967 94.2288 166.016C94.1848 165.779 94.1365 165.541 94.0925 165.295C94.0485 165.048 93.9736 164.811 93.8988 164.569C93.7669 164.069 93.5042 163.613 93.1377 163.249C92.2317 162.581 91.2183 162.074 90.1413 161.748C89.0237 161.374 87.8401 161.062 86.6213 160.785C85.9789 160.644 85.3409 160.516 84.7425 160.411L84.8348 160.384L75.7093 167.521L72.9768 169.624L72.2288 170.188C72.1441 170.255 72.0544 170.315 71.9604 170.368C72.0359 170.289 72.1167 170.216 72.2025 170.148L72.9197 169.558L75.6081 167.394L84.6897 160.2L84.7072 160.16H84.76C85.3672 160.266 86.0053 160.398 86.6477 160.538C87.8482 160.799 89.0335 161.125 90.1984 161.515C91.3094 161.847 92.3524 162.375 93.2784 163.073C93.6717 163.462 93.9529 163.95 94.0925 164.485C94.1673 164.732 94.22 164.987 94.2816 165.229C94.3432 165.471 94.3741 165.722 94.4181 165.964C94.5677 166.927 94.6381 167.829 94.6909 168.652C94.7789 170.302 94.7789 171.635 94.7613 172.559C94.7613 172.999 94.7612 173.378 94.7304 173.62C94.7212 173.751 94.7036 173.882 94.6777 174.011Z" fill="#455A64"/>
<path d="M57.9945 119.508L58.6897 115.98L66.3677 120.3L68.1365 117.99L68.3169 118.703L75.9509 131.714L80.8173 147.435L59.9613 155.962L57.6821 143.128L57.9945 119.508Z" fill="#FAFAFA"/>
<path d="M74.0768 145.715C74.0479 145.631 74.0287 145.544 74.0196 145.455L73.9008 144.716C73.804 144.069 73.6544 143.136 73.4608 141.988C72.9183 138.999 72.1999 136.044 71.3092 133.14C70.4065 130.237 69.334 127.389 68.0972 124.612C67.622 123.548 67.2172 122.694 66.94 122.104C66.808 121.832 66.7024 121.603 66.6188 121.427C66.576 121.349 66.5435 121.266 66.522 121.18C66.5759 121.249 66.623 121.323 66.6628 121.4C66.7552 121.576 66.874 121.796 67.0236 122.065C67.3316 122.637 67.7584 123.486 68.2512 124.542C69.528 127.308 70.6158 130.156 71.5072 133.069C72.4052 135.981 73.1035 138.95 73.5972 141.957C73.7864 143.114 73.914 144.052 73.98 144.703C74.0108 145.006 74.0328 145.253 74.0548 145.451C74.0728 145.538 74.0802 145.626 74.0768 145.715Z" fill="#263238"/>
<path d="M69.3422 121.062C69.2711 121.196 69.1823 121.32 69.0782 121.431C68.867 121.7 68.5986 122.025 68.2862 122.417L68.2378 122.474L68.1762 122.421C67.6394 121.946 66.9882 121.374 66.2578 120.723L66.4382 120.674C66.2226 121.427 65.9982 122.25 65.7386 123.116L65.699 123.253L65.5714 123.191L65.017 122.918C63.1734 122.008 61.497 121.158 60.3134 120.551L58.901 119.812C58.7242 119.729 58.5562 119.629 58.3994 119.513C58.5894 119.562 58.7726 119.635 58.945 119.728L60.3882 120.402C61.607 120.978 63.279 121.792 65.1226 122.703L65.677 122.976L65.5098 123.05C65.765 122.17 66.007 121.365 66.227 120.613L66.2754 120.446L66.403 120.564L68.2774 122.324H68.1674L69.0166 121.387C69.1108 121.265 69.2202 121.156 69.3422 121.062Z" fill="#263238"/>
<g opacity="0.3">
<path d="M57.9727 169.629L59.9615 169.778L62.8391 154.735C62.8391 154.735 59.7019 156.644 59.6227 156.886C59.5435 157.128 57.9727 169.629 57.9727 169.629Z" fill="black"/>
</g>
<path d="M58.3994 117.445L57.1938 119.68L50.5938 123.222L52.7498 147.563C52.7498 147.563 48.5654 159.443 48.5654 164.683C48.5654 169.924 49.7358 172.467 51.0954 173.149C52.455 173.831 57.6954 171.301 57.6954 171.301C57.6954 171.301 58.263 168.221 61.3122 161.181C64.3614 154.141 67.6174 146.485 67.6174 146.485C67.6174 146.485 68.5898 142.692 66.3546 135.784C64.1194 128.876 58.3994 117.445 58.3994 117.445Z" fill="#455A64"/>
<path d="M89.3182 128.168C89.3182 128.168 89.1774 124.502 89.3754 123.886C89.5702 123.388 89.8809 122.942 90.2818 122.587C90.6827 122.232 91.1623 121.978 91.681 121.845C91.8558 121.786 92.0408 121.765 92.2241 121.783C92.4075 121.8 92.5852 121.856 92.7458 121.946C92.9262 122.126 93.1858 123.495 93.1858 123.495L98.083 122.588C98.083 122.588 95.1878 127.103 94.3694 128.308C93.8835 129.033 93.3279 129.708 92.7106 130.324L87.303 143.207L85.103 135.868L89.3182 128.168Z" fill="#FFBF9D"/>
<path d="M100.063 114.875C98.8441 117.207 94.7301 125.202 93.5597 127.486C93.4738 127.651 93.3281 127.777 93.1522 127.838C92.9764 127.9 92.7838 127.892 92.6137 127.816C92.5229 127.776 92.4412 127.717 92.3737 127.645C92.3063 127.572 92.2544 127.486 92.2215 127.392C92.1885 127.299 92.175 127.199 92.1819 127.1C92.1889 127.001 92.216 126.905 92.2617 126.817L98.7473 114.193C98.7923 114.105 98.8545 114.026 98.9305 113.962C99.0064 113.898 99.0944 113.85 99.1892 113.821C99.2841 113.792 99.3838 113.782 99.4825 113.793C99.5812 113.803 99.6769 113.833 99.7637 113.881C99.9343 113.974 100.061 114.13 100.117 114.317C100.173 114.503 100.154 114.703 100.063 114.875Z" fill="#263238"/>
<path d="M98.4088 118.228C98.5276 118.25 99.0028 118.122 99.0732 118.668C99.1436 119.214 99.0512 121.114 98.7828 121.238L98.0876 121.554C98.0876 121.554 98.3384 122.747 98.0524 123.169C97.8348 123.456 97.5589 123.693 97.2428 123.864C97.2397 124.343 97.13 124.815 96.9216 125.246C96.6134 125.61 96.2828 125.953 95.9316 126.276C95.9316 126.276 95.7424 127.864 94.9988 128.154C94.6585 128.255 94.3475 128.436 94.0924 128.682L93.8592 127.728C93.8592 127.728 91.8484 126.342 91.4436 126.091C91.0388 125.84 90.854 125.268 91.25 125.013C91.646 124.758 94.2464 126.095 94.2464 126.095L95.1924 125.123L94.6336 124.08C94.6336 124.08 93.4852 122.83 93.5072 122.566C93.5795 122.367 93.713 122.196 93.8884 122.078C94.0639 121.959 94.2724 121.899 94.484 121.906C94.924 121.95 96.09 122.958 96.09 122.958C96.1076 123.008 96.1393 123.051 96.1813 123.083C96.2233 123.114 96.2737 123.133 96.3262 123.136C96.3787 123.139 96.431 123.127 96.4766 123.101C96.5223 123.075 96.5592 123.036 96.5828 122.989L96.6532 122.857C96.6532 122.857 96.2528 121.612 96.0416 120.688C95.9844 120.446 96.0636 120.019 96.3012 119.913C96.7808 119.698 97.1812 119.68 97.4364 120.133L98.4088 118.228Z" fill="#FFBF9D"/>
<path d="M90.5942 123.499C90.7872 123.545 90.9865 123.558 91.1838 123.539L91.1134 123.486C91.1608 123.797 91.2684 124.096 91.4302 124.366C91.5431 124.543 91.7074 124.681 91.901 124.762C92.0084 124.815 92.1266 124.843 92.2464 124.843C92.3662 124.843 92.4844 124.815 92.5918 124.762C92.7699 124.654 92.9004 124.483 92.957 124.282C93.0068 124.115 93.0392 123.942 93.0538 123.768C93.0883 123.475 93.0883 123.18 93.0538 122.888C93.0455 122.619 92.9715 122.356 92.8382 122.122C92.8074 122.122 92.8778 122.426 92.8954 122.901C92.907 123.177 92.8938 123.454 92.8558 123.728C92.8074 124.027 92.7502 124.406 92.4862 124.555C92.4078 124.592 92.3221 124.611 92.2354 124.611C92.1487 124.611 92.0631 124.592 91.9846 124.555C91.8274 124.494 91.6925 124.387 91.5974 124.247C91.4432 124.001 91.3275 123.732 91.2542 123.451L91.2322 123.394H91.1838C90.9828 123.396 90.7836 123.432 90.5942 123.499Z" fill="#FF9A6C"/>
<path d="M93.859 127.736C93.5899 127.478 93.295 127.248 92.979 127.05L92.0022 126.364L91.4302 125.963C91.2476 125.833 91.1217 125.638 91.0782 125.418C91.043 125.228 91.2586 125.083 91.4566 125.11C91.6799 125.135 91.8997 125.186 92.1122 125.259C92.5302 125.4 92.9042 125.558 93.2166 125.699C93.5454 125.86 93.885 125.999 94.233 126.113C93.9426 125.885 93.623 125.697 93.2826 125.554C92.9237 125.374 92.555 125.213 92.1782 125.074C91.949 124.986 91.7094 124.929 91.4654 124.903C91.3881 124.891 91.3092 124.895 91.2336 124.915C91.158 124.934 91.0871 124.969 91.0254 125.017C90.957 125.067 90.9033 125.134 90.87 125.211C90.8367 125.289 90.825 125.374 90.8362 125.457C90.8872 125.738 91.0448 125.989 91.2762 126.157L91.8702 126.553L92.869 127.2C93.1805 127.411 93.5121 127.59 93.859 127.736Z" fill="#FF9A6C"/>
<path d="M96.961 124.313C97.0226 124.313 96.961 123.9 96.7146 123.486C96.4682 123.072 96.1074 122.857 96.0722 122.905C96.037 122.954 96.2878 123.222 96.5122 123.605C96.7366 123.988 96.8994 124.331 96.961 124.313Z" fill="#FF9A6C"/>
<path d="M97.278 119.904C97.2164 119.935 97.4012 120.344 97.6652 120.784C97.9292 121.224 98.0656 121.642 98.1272 121.629C98.1519 121.291 98.0569 120.954 97.8588 120.679C97.5904 120.217 97.3264 119.878 97.278 119.904Z" fill="#FF9A6C"/>
<path d="M87.422 131.274C87.2284 131.569 84.342 136.598 84.342 136.598C84.342 136.598 77.7024 121.431 75.41 121.198C73.0384 120.952 74.8776 127.767 74.8776 127.767L80.5976 145.169C80.5976 145.169 84.606 146.41 86.8412 144.949C89.0764 143.488 94.1188 133.439 94.1188 133.439L87.422 131.274Z" fill="#455A64"/>
<path d="M68.3125 118.598C68.3125 118.598 73.8169 129.342 75.3921 135.032C76.4261 138.767 77.8957 148.865 77.8957 148.865L82.4277 147.862L78.5469 134.328L75.3833 121.189L70.4861 120.221L68.3125 118.598Z" fill="#455A64"/>
<path d="M66.6229 144.355C66.5701 144.284 66.5244 144.207 66.4865 144.126C66.3897 143.95 66.2709 143.726 66.1257 143.449L64.8057 140.936C63.7145 138.78 62.2361 135.846 60.5949 132.603C59.7853 130.966 58.9845 129.426 58.3245 127.974C57.7093 126.677 57.2656 125.306 57.0045 123.895C56.8298 122.922 56.8046 121.928 56.9297 120.947C56.9644 120.683 57.0158 120.422 57.0837 120.164C57.1046 120.074 57.1326 119.986 57.1673 119.9C57.1893 119.9 57.0793 120.274 57.0089 120.96C56.9123 121.928 56.9582 122.905 57.1453 123.86C57.429 125.248 57.8857 126.594 58.5049 127.868C59.1737 129.303 59.9789 130.843 60.7885 132.48C62.4077 135.736 63.8685 138.684 64.9465 140.84C65.4613 141.896 65.8837 142.758 66.1873 143.392C66.3237 143.673 66.4293 143.906 66.5173 144.091C66.5656 144.173 66.6012 144.262 66.6229 144.355Z" fill="#263238"/>
<path d="M77.1523 124.577C77.1919 124.645 77.2229 124.717 77.2447 124.793L77.4735 125.422C77.6627 125.972 77.9135 126.773 78.1951 127.776C78.7495 129.778 79.3567 132.59 79.8759 135.696C80.1355 137.258 80.3775 138.745 80.6019 140.096C80.7163 140.769 80.8219 141.416 80.9231 142.014C81.0247 142.567 81.1614 143.112 81.3323 143.647C81.6447 144.637 81.9351 145.407 82.1111 145.979C82.1991 146.256 82.2651 146.472 82.3047 146.621C82.3298 146.695 82.3447 146.772 82.3487 146.85C82.3081 146.783 82.277 146.71 82.2563 146.634L82.0231 146.01C81.8207 145.464 81.5039 144.69 81.1695 143.7C80.9881 143.159 80.8412 142.608 80.7295 142.05C80.6239 141.447 80.5095 140.804 80.3863 140.131C80.1575 138.772 79.9067 137.289 79.6427 135.731C79.1235 132.612 78.5471 129.804 78.0367 127.811C77.7771 126.808 77.5483 126.003 77.3899 125.444C77.3151 125.189 77.2535 124.978 77.2051 124.802C77.1766 124.73 77.1588 124.654 77.1523 124.577Z" fill="#263238"/>
<path d="M70.4953 120.221C70.5757 120.247 70.6515 120.286 70.7197 120.336C70.9234 120.458 71.1189 120.593 71.3049 120.74C71.9859 121.283 72.6189 121.884 73.1969 122.536C73.5665 122.945 73.9581 123.416 74.3497 123.93C74.7413 124.445 75.0977 125.044 75.4717 125.668C76.2868 127.028 76.9648 128.465 77.4957 129.958C78.0455 131.446 78.4364 132.987 78.6617 134.556C78.825 135.843 78.825 137.146 78.6617 138.433C78.5613 139.299 78.398 140.156 78.1733 140.998C78.0941 141.293 78.0237 141.526 77.9753 141.68C77.9534 141.759 77.9239 141.836 77.8873 141.909C77.8885 141.827 77.9018 141.745 77.9269 141.667C77.9709 141.482 78.0193 141.253 78.0809 140.976C78.2688 140.131 78.4069 139.276 78.4945 138.415C78.626 137.141 78.6053 135.856 78.4329 134.587C78.1987 133.036 77.8051 131.513 77.2581 130.042C76.7329 128.563 76.0685 127.137 75.2737 125.783C74.9085 125.158 74.5521 124.564 74.1781 124.045C73.8041 123.526 73.4213 123.064 73.0605 122.65C72.4982 121.993 71.8879 121.378 71.2345 120.811C70.7769 120.415 70.4865 120.239 70.4953 120.221Z" fill="#263238"/>
<path d="M57.4271 159.852C57.4694 159.932 57.4991 160.018 57.5151 160.107C57.5591 160.274 57.6163 160.525 57.6691 160.851C57.8068 161.75 57.8201 162.663 57.7087 163.566V163.671H57.6031C54.6717 163.169 51.6906 163.021 48.7239 163.231H48.5039L48.6359 163.06L50.2155 160.97C50.4031 160.698 50.6136 160.444 50.8447 160.208C50.6877 160.499 50.5082 160.777 50.3079 161.04L48.7943 163.174L48.7063 163.016C51.6913 162.756 54.6977 162.904 57.6427 163.456L57.5239 163.539C57.6454 162.652 57.6587 161.754 57.5635 160.864C57.4711 160.222 57.3919 159.856 57.4271 159.852Z" fill="#263238"/>
<path d="M50.6158 123.2C50.6158 123.2 46.537 125.919 45.9958 129.026C45.2654 133.21 46.7086 147.871 47.0914 151.202C47.4742 154.532 49.661 157.485 51.9314 157.674C54.2018 157.863 72.3034 151.298 72.3034 151.298L70.495 144.637L57.3566 147.299L56.0366 131.899L50.6158 123.2Z" fill="#455A64"/>
<path d="M56.2082 133.861L57.3698 147.316L70.5082 144.654L72.3166 151.316C72.3166 151.316 58.4918 156.781 56.5514 157.036C54.611 157.291 49.353 158.264 48.2222 154.748" fill="#455A64"/>
<path d="M76.8679 135.972L75.7909 145.951C75.7662 146.18 75.9322 146.386 76.1617 146.411L82.1942 147.062C82.4238 147.087 82.6299 146.921 82.6547 146.691L83.7316 136.713C83.7564 136.484 83.5904 136.277 83.3609 136.253L77.3283 135.602C77.0988 135.577 76.8927 135.743 76.8679 135.972Z" fill="#66AC47"/>
<path d="M77.324 135.595C77.2098 135.601 77.1011 135.646 77.016 135.722C76.9696 135.772 76.9343 135.831 76.9123 135.896C76.8903 135.96 76.8822 136.029 76.8884 136.096C76.8884 136.268 76.8532 136.466 76.8356 136.682C76.7476 137.584 76.6244 138.846 76.4704 140.395C76.3164 141.944 76.1184 143.836 75.9028 145.904C75.8896 145.955 75.8889 146.008 75.9007 146.058C75.9126 146.109 75.9367 146.156 75.971 146.196C76.0052 146.235 76.0486 146.266 76.0972 146.285C76.1459 146.304 76.1985 146.31 76.2504 146.304L77.0556 146.388L78.7188 146.564L82.208 146.938C82.2615 146.945 82.3157 146.936 82.3647 146.914C82.4137 146.891 82.4554 146.855 82.4852 146.81C82.5163 146.765 82.5345 146.712 82.538 146.656L82.5644 146.432L82.6568 145.552C82.7228 144.971 82.7844 144.399 82.846 143.836C82.9692 142.71 83.088 141.636 83.2024 140.584C83.3168 139.533 83.4268 138.565 83.5324 137.645C83.5588 137.412 83.5852 137.205 83.6072 136.963C83.6072 136.862 83.638 136.73 83.6424 136.646C83.6368 136.561 83.5991 136.481 83.5368 136.422C83.5053 136.392 83.4681 136.368 83.4273 136.352C83.3865 136.336 83.3429 136.328 83.2992 136.33L82.9912 136.294L82.3884 136.224L78.6836 135.784L77.676 135.652C77.5569 135.643 77.4391 135.622 77.324 135.59C77.4426 135.582 77.5618 135.582 77.6804 135.59L78.6924 135.678L82.406 136.044L83.0088 136.105L83.3168 136.136C83.4438 136.139 83.5655 136.187 83.66 136.272C83.7091 136.317 83.7488 136.372 83.7768 136.432C83.8047 136.492 83.8204 136.558 83.8228 136.624C83.8199 136.739 83.8096 136.854 83.792 136.968C83.792 137.192 83.748 137.408 83.7216 137.645C83.6292 138.569 83.5236 139.555 83.418 140.589L83.0748 143.84C83.0132 144.404 82.9516 144.98 82.89 145.561C82.8592 145.851 82.8284 146.146 82.7932 146.441L82.7712 146.661C82.7663 146.732 82.747 146.802 82.7143 146.866C82.6817 146.93 82.6365 146.987 82.5815 147.033C82.5264 147.079 82.4626 147.113 82.3939 147.134C82.3251 147.155 82.2529 147.161 82.1816 147.154L78.6924 146.775L77.0336 146.595L76.2284 146.502C76.1457 146.505 76.0635 146.489 75.9875 146.456C75.9115 146.424 75.8435 146.375 75.7884 146.313C75.7383 146.253 75.7021 146.182 75.6823 146.106C75.6625 146.03 75.6597 145.95 75.674 145.873C75.9028 143.81 76.114 141.948 76.29 140.373C76.466 138.798 76.62 137.566 76.73 136.668C76.7564 136.453 76.7784 136.259 76.8004 136.083C76.7989 136.009 76.8129 135.934 76.8417 135.865C76.8705 135.796 76.9134 135.734 76.9676 135.683C77.0132 135.637 77.0705 135.604 77.1334 135.589C77.1963 135.573 77.2622 135.575 77.324 135.595Z" fill="#263238"/>
<path d="M81.7638 140.387L81.0464 140.309L80.909 141.582L81.6264 141.66L81.7638 140.387Z" fill="white"/>
<path d="M81.966 138.532L81.2485 138.454L81.1111 139.727L81.8286 139.805L81.966 138.532Z" fill="white"/>
<path d="M81.5651 142.247L80.8477 142.169L80.7103 143.442L81.4277 143.52L81.5651 142.247Z" fill="white"/>
<path d="M81.3517 144.083L80.6343 144.006L80.4969 145.279L81.2143 145.356L81.3517 144.083Z" fill="white"/>
<path d="M48.2222 154.735C48.2478 154.772 48.2685 154.811 48.2838 154.854C48.3278 154.942 48.3806 155.06 48.4466 155.206C48.6708 155.644 48.993 156.025 49.3882 156.319C50.0284 156.777 50.775 157.065 51.5574 157.155C52.599 157.286 53.6529 157.286 54.6946 157.155C55.2754 157.098 55.8826 157.005 56.5206 156.922C57.171 156.783 57.8118 156.602 58.439 156.38C59.759 155.94 61.1538 155.434 62.6322 154.893C65.5802 153.798 68.8318 152.544 72.2726 151.188L72.2022 151.329L71.199 147.651C70.9262 146.643 70.6578 145.644 70.3894 144.668L70.5302 144.751L57.3918 147.391H57.2818V147.277C56.9474 143.229 56.6702 139.867 56.4766 137.504C56.3886 136.338 56.3182 135.423 56.2698 134.776C56.2698 134.473 56.2346 134.235 56.2214 134.059C56.2146 133.977 56.2146 133.895 56.2214 133.813C56.2396 133.894 56.2514 133.976 56.2566 134.059C56.2566 134.235 56.3006 134.468 56.3358 134.772C56.3974 135.414 56.4854 136.33 56.5954 137.496C56.811 139.858 57.1146 143.216 57.4754 147.259L57.3566 147.171L70.4862 144.487L70.5962 144.465L70.627 144.571C70.891 145.552 71.1638 146.546 71.4366 147.558C71.7798 148.817 72.1142 150.058 72.4354 151.237L72.4618 151.338L72.365 151.378C68.9198 152.728 65.6638 153.974 62.707 155.06C61.2286 155.597 59.825 156.099 58.5006 156.53C57.8619 156.751 57.2093 156.929 56.547 157.062C55.9134 157.142 55.3018 157.23 54.7122 157.282C53.6581 157.397 52.5938 157.379 51.5442 157.23C50.7478 157.129 49.9904 156.826 49.3442 156.35C48.9466 156.04 48.6284 155.64 48.4158 155.184C48.3542 155.034 48.3102 154.915 48.2706 154.823C48.2511 154.795 48.2349 154.766 48.2222 154.735Z" fill="#263238"/>
<path d="M48.187 125.937C48.5754 125.866 48.9734 125.866 49.3618 125.937C50.3069 126.064 51.2165 126.382 52.0361 126.869C52.8557 127.357 53.5684 128.005 54.1314 128.775C54.3779 129.081 54.5686 129.428 54.6946 129.8C54.655 129.822 54.4438 129.43 53.995 128.876C52.8201 127.428 51.1684 126.446 49.3354 126.104C48.627 125.976 48.187 125.976 48.187 125.937Z" fill="#263238"/>
<path d="M70.7944 145.248C70.7944 145.248 75.0096 141.152 75.7576 140.316C76.5056 139.48 81.0376 139.269 81.6976 139.572C82.3576 139.876 82.2784 140.804 81.8692 140.941C81.46 141.077 79.018 140.919 78.2612 141.209C77.5044 141.5 80.1884 141.412 81.2796 142.226C82.3708 143.04 81.7636 143.572 81.35 143.607C81.35 143.607 81.9352 144.126 81.4732 144.624C81.3573 144.765 81.2 144.867 81.0234 144.915C80.8467 144.964 80.6594 144.955 80.4876 144.892C80.4876 144.892 81.2224 145.209 80.9276 145.82C80.6328 146.432 79.6076 146.177 79.6076 146.177C79.6076 146.177 77.984 145.57 77.72 145.675C77.456 145.781 76.6288 147.105 75.7268 147.875C74.5828 148.826 73.1528 148.579 72.8008 148.544L71.8856 149.362C71.6084 148.364 70.7944 145.248 70.7944 145.248Z" fill="#FFBF9D"/>
<path d="M78.3113 137.03L78.2051 138.014L79.2812 138.13L79.3875 137.146L78.3113 137.03Z" fill="white"/>
<path d="M56.1775 180.545H23.7715V156.121H53.9467C55.0995 156.121 56.0323 156.596 56.0323 157.186L56.1775 180.545Z" fill="#66AC47"/>
<g opacity="0.3">
<path d="M42.5903 189.059H23.7715V156.121L42.4891 156.169L42.5903 189.059Z" fill="black"/>
</g>
<path d="M52.7413 156.156C52.7413 156.222 46.5813 156.275 38.9737 156.275C31.3661 156.275 25.2061 156.222 25.2061 156.156C25.2061 156.09 31.3661 156.042 38.9737 156.042C46.5813 156.042 52.7413 156.09 52.7413 156.156Z" fill="#263238"/>
<path d="M56.0148 189.169C55.9488 189.169 55.896 183.132 55.896 175.683C55.896 168.234 55.9488 162.202 56.0148 162.202C56.0808 162.202 56.1292 168.238 56.1292 175.683C56.1292 183.128 56.0764 189.169 56.0148 189.169Z" fill="#263238"/>
<path d="M82.6125 180.426C82.6125 180.488 76.6857 180.541 69.3729 180.541C62.0601 180.541 56.1377 180.488 56.1377 180.426C56.1377 180.365 62.0601 180.308 69.3729 180.308C76.6857 180.308 82.6125 180.36 82.6125 180.426Z" fill="#263238"/>
</svg>
