<svg width="220" height="220" viewBox="0 0 220 220" fill="none" xmlns="http://www.w3.org/2000/svg">
<g clip-path="url(#clip0_13_2003)">
<path d="M184.984 37.102L184.799 59.5841L218.155 59.8577L218.34 37.3757L184.984 37.102Z" fill="#F5F5F5"/>
<path d="M218.443 37.6455C218.35 37.7546 218.245 37.854 218.132 37.9422C217.894 38.1461 217.583 38.4132 217.197 38.7507C216.348 39.4591 215.168 40.453 213.718 41.6732L202.139 51.2568L202.047 51.3347L201.95 51.2568L201.716 51.0676L189.919 41.4247L186.366 38.4799L185.409 37.664C185.293 37.5755 185.186 37.4762 185.09 37.3673C185.222 37.4374 185.347 37.522 185.461 37.6195L186.451 38.3872L190.063 41.2578L201.932 50.8266L202.165 51.0157H201.972L213.607 41.5026L217.149 38.6505L218.117 37.8902C218.218 37.7993 218.327 37.7174 218.443 37.6455Z" fill="#E0E0E0"/>
<path d="M184.904 59.8575C184.841 59.8019 187.374 56.7384 190.564 53.0185C193.753 49.2985 196.386 46.3241 196.45 46.3797C196.513 46.4353 193.983 49.4951 190.794 53.215C187.604 56.935 184.967 59.9094 184.904 59.8575Z" fill="#E0E0E0"/>
<path d="M207.543 46.1869C207.606 46.1387 210.061 49.217 213.021 53.0667C215.98 56.9165 218.324 60.0764 218.261 60.1135C218.198 60.1505 215.739 57.0871 212.78 53.2373C209.82 49.3876 207.476 46.2388 207.543 46.1869Z" fill="#E0E0E0"/>
<path d="M191.442 70.1387C191.383 70.2035 191.319 70.263 191.249 70.3167L190.7 70.81L188.579 72.5902L181.532 78.4279L181.476 78.4761L181.417 78.4279L181.276 78.3129L174.089 72.4456L171.923 70.6505L171.34 70.1535C171.27 70.0995 171.206 70.0386 171.147 69.9718C171.225 70.0153 171.298 70.0662 171.366 70.1239L171.967 70.5949L174.17 72.3417L181.391 78.172L181.532 78.287H181.417L188.475 72.4901L190.63 70.7544L191.223 70.2908C191.29 70.2315 191.363 70.1804 191.442 70.1387Z" fill="#E0E0E0"/>
<path d="M171.007 83.6684C170.969 83.6351 172.512 81.7695 174.456 79.5034C176.399 77.2374 178.005 75.4237 178.042 75.4571C178.079 75.4905 176.536 77.356 174.593 79.6221C172.65 81.8882 171.044 83.6981 171.007 83.6684Z" fill="#E0E0E0"/>
<path d="M184.8 75.3422C184.841 75.3088 186.335 77.1966 188.138 79.5331C189.94 81.8697 191.368 83.802 191.327 83.8353C191.287 83.8687 189.796 81.9809 187.989 79.6444C186.183 77.3078 184.767 75.3718 184.8 75.3422Z" fill="#E0E0E0"/>
<path d="M149.64 184.181V200.923H146.844V202.751H149.64V213.955H201.89V203.749H198.022V201.523H201.89V198.185H203.611V196.672H201.567V184.181H149.64Z" fill="#F5F5F5"/>
<path d="M188.015 184.229V213.759H201.89V203.563H198.022V201.527L201.89 201.598V198.263L203.644 198.267L203.611 196.546L201.567 196.494V184.181L188.015 184.229Z" fill="#E0E0E0"/>
<path d="M189.002 202.499C189.002 202.603 179.548 202.684 167.888 202.684C156.227 202.684 146.77 202.603 146.77 202.499C146.77 202.395 156.223 202.313 167.888 202.313C179.552 202.313 189.002 202.38 189.002 202.499Z" fill="#E0E0E0"/>
<path d="M189.002 200.796C189.002 200.9 179.548 200.982 167.888 200.982C156.227 200.982 146.77 200.9 146.77 200.796C146.77 200.693 156.223 200.611 167.888 200.611C179.552 200.611 189.002 200.696 189.002 200.796Z" fill="#E0E0E0"/>
<path d="M191.716 196.22C191.716 196.324 182.259 196.405 170.598 196.405C158.938 196.405 149.48 196.324 149.48 196.22C149.48 196.116 158.934 196.034 170.598 196.034C182.263 196.034 191.716 196.12 191.716 196.22Z" fill="#E0E0E0"/>
<path d="M191.976 208.685C191.976 208.789 182.523 208.871 170.862 208.871C159.202 208.871 149.744 208.789 149.744 208.685C149.744 208.581 159.198 208.5 170.862 208.5C182.526 208.5 191.976 208.592 191.976 208.685Z" fill="#E0E0E0"/>
<path d="M208.911 212.546C208.911 212.602 151.602 212.642 80.9271 212.642C10.2519 212.642 8.09131 212.546 8.09131 212.49C8.09131 212.435 10.2223 212.449 80.9271 212.449C151.632 212.449 208.911 212.494 208.911 212.546Z" fill="#263238"/>
<path d="M129.5 76.6154H204.496C205.08 76.6125 205.658 76.7249 206.198 76.9461C206.738 77.1674 207.228 77.4931 207.642 77.9046C208.056 78.3161 208.384 78.8052 208.608 79.344C208.832 79.8827 208.947 80.4604 208.947 81.0438V135.408C208.947 137.255 208.213 139.026 206.907 140.333C205.601 141.639 203.829 142.373 201.982 142.373H131.062C129.215 142.373 127.443 141.639 126.137 140.333C124.831 139.026 124.097 137.255 124.097 135.408V82.0266C124.097 80.5928 124.666 79.2175 125.679 78.203C126.692 77.1884 128.067 76.6174 129.5 76.6154Z" fill="white"/>
<path d="M129.5 76.6154H204.496C205.079 76.6125 205.658 76.7249 206.197 76.9461C206.737 77.1674 207.228 77.4931 207.642 77.9046C208.055 78.3161 208.383 78.8052 208.607 79.344C208.831 79.8827 208.946 80.4604 208.946 81.0438V85.8281H124.089V82.0266C124.089 80.5915 124.659 79.2151 125.674 78.2003C126.689 77.1855 128.065 76.6154 129.5 76.6154Z" fill="#E0E0E0"/>
<path d="M130.112 81.3738C130.113 81.6111 130.043 81.8432 129.912 82.0408C129.78 82.2384 129.593 82.3925 129.374 82.4836C129.155 82.5747 128.914 82.5988 128.681 82.5527C128.449 82.5066 128.235 82.3924 128.067 82.2246C127.899 82.0569 127.785 81.8431 127.739 81.6104C127.693 81.3776 127.717 81.1365 127.808 80.9174C127.899 80.6984 128.053 80.5113 128.251 80.38C128.449 80.2486 128.681 80.1789 128.918 80.1796C129.234 80.1806 129.538 80.3067 129.761 80.5305C129.985 80.7542 130.111 81.0574 130.112 81.3738Z" fill="white"/>
<path d="M134.077 81.3738C134.078 81.6109 134.008 81.8429 133.877 82.0404C133.746 82.2379 133.559 82.392 133.34 82.4833C133.121 82.5745 132.88 82.5987 132.648 82.5529C132.415 82.5071 132.201 82.3933 132.033 82.2259C131.865 82.0586 131.751 81.8451 131.704 81.6126C131.658 81.3802 131.681 81.1391 131.772 80.92C131.863 80.7009 132.016 80.5136 132.213 80.3818C132.41 80.25 132.642 80.1796 132.879 80.1796C133.196 80.1796 133.5 80.3053 133.725 80.5292C133.949 80.753 134.076 81.0568 134.077 81.3738Z" fill="white"/>
<path d="M138.038 81.3738C138.039 81.6111 137.969 81.8432 137.838 82.0408C137.706 82.2384 137.519 82.3925 137.3 82.4836C137.081 82.5747 136.84 82.5988 136.607 82.5527C136.375 82.5066 136.161 82.3924 135.993 82.2246C135.825 82.0569 135.711 81.8431 135.665 81.6104C135.619 81.3776 135.643 81.1365 135.734 80.9174C135.825 80.6984 135.979 80.5113 136.177 80.38C136.374 80.2486 136.607 80.1789 136.844 80.1796C137.16 80.1806 137.463 80.3067 137.687 80.5305C137.911 80.7542 138.037 81.0574 138.038 81.3738Z" fill="white"/>
<path d="M153.226 94.6254V92.5411H152.402V91.9365H154.798V92.5411H153.975V94.6254H153.226Z" fill="#263238"/>
<path d="M155.614 94.6588C155.469 94.6627 155.324 94.6335 155.191 94.5735C155.084 94.5229 154.993 94.4432 154.928 94.3436C154.868 94.2454 154.837 94.1322 154.839 94.0172C154.837 93.8999 154.87 93.7847 154.935 93.6871C155.011 93.5844 155.118 93.509 155.24 93.472C155.409 93.4145 155.587 93.3881 155.766 93.3941H156.256V93.765H155.863C155.777 93.7571 155.691 93.7766 155.618 93.8206C155.595 93.8394 155.577 93.8633 155.564 93.8903C155.552 93.9173 155.546 93.9468 155.547 93.9764C155.546 94.0055 155.552 94.0346 155.564 94.061C155.576 94.0875 155.595 94.1106 155.618 94.1285C155.675 94.1716 155.746 94.1926 155.818 94.1878C155.894 94.1875 155.968 94.167 156.033 94.1285C156.101 94.0867 156.152 94.0224 156.178 93.9467L156.278 94.2138C156.248 94.347 156.169 94.4638 156.055 94.5401C155.923 94.6207 155.77 94.6619 155.614 94.6588ZM156.23 94.6254V94.2546L156.178 94.1581V93.446C156.181 93.3966 156.174 93.3471 156.156 93.301C156.138 93.2548 156.11 93.2132 156.074 93.179C155.977 93.1069 155.857 93.0726 155.737 93.0826C155.633 93.0845 155.531 93.1007 155.432 93.1308C155.339 93.1601 155.251 93.2053 155.173 93.2643L154.928 92.771C155.059 92.6888 155.201 92.6275 155.351 92.5893C155.512 92.5485 155.678 92.5274 155.844 92.5263C156.126 92.5085 156.404 92.5913 156.63 92.7599C156.731 92.8538 156.808 92.9696 156.856 93.0983C156.904 93.2269 156.922 93.365 156.909 93.5017V94.6588L156.23 94.6254Z" fill="#263238"/>
<path d="M158.136 94.6588C157.962 94.6587 157.789 94.6375 157.621 94.5958C157.479 94.5663 157.342 94.515 157.216 94.4437L157.435 93.943C157.541 94.0067 157.656 94.0542 157.776 94.084C157.897 94.1181 158.022 94.1356 158.147 94.1359C158.234 94.1424 158.322 94.1297 158.403 94.0988C158.424 94.0902 158.441 94.0758 158.454 94.0573C158.466 94.0389 158.473 94.0172 158.474 93.9949C158.474 93.9749 158.467 93.9554 158.455 93.9393C158.443 93.9233 158.426 93.9115 158.407 93.9059C158.352 93.8811 158.293 93.866 158.233 93.8614L157.991 93.8243C157.903 93.8124 157.815 93.795 157.728 93.7724C157.642 93.7553 157.56 93.7213 157.487 93.6723C157.413 93.6292 157.353 93.5663 157.313 93.4905C157.265 93.4017 157.242 93.3019 157.246 93.2013C157.241 93.0676 157.283 92.9366 157.365 92.8304C157.454 92.7188 157.572 92.6341 157.706 92.5856C157.882 92.519 158.07 92.4875 158.258 92.4929C158.408 92.493 158.557 92.5079 158.704 92.5374C158.833 92.5621 158.959 92.6072 159.074 92.6709L158.856 93.1642C158.759 93.1102 158.655 93.0703 158.548 93.0455C158.452 93.024 158.353 93.0128 158.255 93.0121C158.167 93.0063 158.08 93.0203 157.999 93.0529C157.947 93.0826 157.921 93.116 157.921 93.1567C157.922 93.1776 157.928 93.1977 157.94 93.2149C157.952 93.232 157.968 93.2453 157.988 93.2532C158.043 93.2782 158.102 93.2945 158.162 93.3014L158.403 93.3385C158.492 93.3495 158.58 93.3656 158.666 93.3867C158.751 93.4113 158.832 93.4462 158.908 93.4905C158.981 93.5346 159.041 93.5973 159.082 93.6723C159.13 93.7609 159.153 93.8609 159.149 93.9616C159.148 94.0865 159.107 94.2078 159.03 94.3065C158.94 94.4189 158.821 94.5037 158.685 94.5513C158.51 94.6216 158.324 94.6581 158.136 94.6588Z" fill="#263238"/>
<path d="M159.471 94.6254V91.7771H160.213V94.6254H159.471ZM160.076 94.2546V93.383L160.925 92.5596H161.789L160.847 93.5313L160.476 93.828L160.076 94.2546ZM160.999 94.6254L160.361 93.8243L160.814 93.2643L161.882 94.6254H160.999Z" fill="#263238"/>
<path d="M162.787 94.6588C162.613 94.6587 162.44 94.6375 162.271 94.5958C162.128 94.5662 161.991 94.5149 161.863 94.4437L162.082 93.943C162.19 94.0067 162.306 94.0542 162.427 94.0839C162.548 94.1181 162.672 94.1356 162.798 94.1359C162.885 94.1423 162.972 94.1297 163.054 94.0988C163.074 94.0902 163.092 94.0758 163.104 94.0573C163.117 94.0389 163.124 94.0172 163.124 93.9949C163.124 93.9749 163.118 93.9554 163.106 93.9393C163.094 93.9233 163.077 93.9115 163.058 93.9059C163.001 93.8806 162.941 93.8656 162.879 93.8614L162.642 93.8243C162.553 93.8124 162.465 93.795 162.379 93.7724C162.293 93.7553 162.211 93.7213 162.138 93.6723C162.064 93.6283 162.002 93.5656 161.96 93.4905C161.915 93.4008 161.894 93.3014 161.897 93.2013C161.891 93.068 161.931 92.9369 162.012 92.8304C162.101 92.7179 162.221 92.6331 162.357 92.5856C162.533 92.5187 162.721 92.4872 162.909 92.4929C163.059 92.4933 163.208 92.5083 163.354 92.5374C163.484 92.5621 163.609 92.6072 163.725 92.6709L163.506 93.1642C163.41 93.1108 163.306 93.0709 163.198 93.0455C163.102 93.024 163.004 93.0128 162.905 93.0121C162.817 93.0069 162.728 93.0208 162.646 93.0529C162.625 93.062 162.608 93.0765 162.595 93.0947C162.582 93.113 162.574 93.1344 162.572 93.1567C162.572 93.1776 162.579 93.1977 162.591 93.2149C162.603 93.232 162.619 93.2453 162.638 93.2532C162.693 93.2787 162.752 93.295 162.813 93.3014L163.05 93.3385C163.139 93.3488 163.227 93.3649 163.313 93.3867C163.399 93.4106 163.481 93.4455 163.558 93.4905C163.631 93.5357 163.69 93.5981 163.733 93.6723C163.778 93.7619 163.799 93.8614 163.796 93.9616C163.797 94.0861 163.756 94.2075 163.681 94.3065C163.591 94.4189 163.471 94.5037 163.336 94.5513C163.161 94.6212 162.975 94.6576 162.787 94.6588Z" fill="#263238"/>
<path d="M148.222 142.376C148.17 142.376 148.126 129.811 148.126 114.316C148.126 98.8201 148.17 86.2546 148.222 86.2546C148.274 86.2546 148.319 98.8164 148.319 114.316C148.319 129.815 148.274 142.376 148.222 142.376Z" fill="#E0E0E0"/>
<path d="M144.094 94.6254H128.918V96.5837H144.094V94.6254Z" fill="#E0E0E0"/>
<path d="M192.498 99.9661H152.217V101.924H192.498V99.9661Z" fill="#E0E0E0"/>
<path d="M134.956 100.367H128.918V102.325H134.956V100.367Z" fill="#E0E0E0"/>
<path d="M134.956 105.9H128.918V107.858H134.956V105.9Z" fill="#E0E0E0"/>
<path d="M201.21 99.1799H198.629C198.367 99.1799 198.154 99.3924 198.154 99.6546V102.236C198.154 102.498 198.367 102.711 198.629 102.711H201.21C201.473 102.711 201.685 102.498 201.685 102.236V99.6546C201.685 99.3924 201.473 99.1799 201.21 99.1799Z" fill="#66AC47"/>
<path d="M198.852 100.93L199.675 101.676L201.166 100.218" stroke="white" stroke-linecap="round" stroke-linejoin="round"/>
<path d="M192.498 107.536H152.217V109.494H192.498V107.536Z" fill="#E0E0E0"/>
<path d="M201.21 106.75H198.629C198.367 106.75 198.154 106.962 198.154 107.224V109.806C198.154 110.068 198.367 110.28 198.629 110.28H201.21C201.473 110.28 201.685 110.068 201.685 109.806V107.224C201.685 106.962 201.473 106.75 201.21 106.75Z" stroke="#888888" stroke-miterlimit="10"/>
<path d="M192.498 115.102H152.217V117.06H192.498V115.102Z" fill="#E0E0E0"/>
<path d="M201.21 114.316H198.629C198.367 114.316 198.154 114.528 198.154 114.79V117.372C198.154 117.634 198.367 117.846 198.629 117.846H201.21C201.473 117.846 201.685 117.634 201.685 117.372V114.79C201.685 114.528 201.473 114.316 201.21 114.316Z" stroke="#888888" stroke-miterlimit="10"/>
<path d="M192.498 122.668H152.217V124.626H192.498V122.668Z" fill="#E0E0E0"/>
<path d="M201.21 121.882H198.629C198.367 121.882 198.154 122.094 198.154 122.356V124.938C198.154 125.2 198.367 125.412 198.629 125.412H201.21C201.473 125.412 201.685 125.2 201.685 124.938V122.356C201.685 122.094 201.473 121.882 201.21 121.882Z" stroke="#888888" stroke-miterlimit="10"/>
<path d="M192.498 130.237H152.217V132.196H192.498V130.237Z" fill="#E0E0E0"/>
<path d="M201.21 129.451H198.629C198.367 129.451 198.154 129.664 198.154 129.926V132.507C198.154 132.769 198.367 132.982 198.629 132.982H201.21C201.473 132.982 201.685 132.769 201.685 132.507V129.926C201.685 129.664 201.473 129.451 201.21 129.451Z" stroke="#888888" stroke-miterlimit="10"/>
<path d="M201.97 142.373H202.16C202.286 142.373 202.475 142.373 202.72 142.336C203.449 142.247 204.16 142.048 204.83 141.746C205.918 141.253 206.86 140.486 207.563 139.521C208.011 138.897 208.353 138.204 208.576 137.47C208.624 137.273 208.676 137.077 208.728 136.873C208.78 136.669 208.795 136.453 208.832 136.242C208.874 135.798 208.891 135.353 208.884 134.907C208.884 127.541 208.884 116.889 208.854 103.727C208.854 97.1437 208.854 89.9338 208.854 82.1935C208.854 81.7114 208.854 81.2181 208.854 80.7396C208.792 79.7585 208.396 78.8281 207.732 78.1029C207.068 77.3777 206.176 76.9013 205.205 76.7527C204.712 76.6963 204.216 76.6765 203.721 76.6933H187.903H131.273C130.023 76.7193 128.744 76.5635 127.598 77.0642C126.446 77.5076 125.483 78.3375 124.875 79.4119C124.578 79.9422 124.372 80.5191 124.267 81.1179C124.188 81.7252 124.16 82.3382 124.186 82.9501V101.079C124.186 110.551 124.186 119.69 124.186 128.394V134.84C124.186 135.103 124.186 135.37 124.186 135.63C124.189 135.891 124.212 136.152 124.256 136.409L124.312 136.78L124.412 137.151C124.472 137.404 124.552 137.651 124.649 137.892C125.02 138.853 125.606 139.716 126.363 140.414C127.107 141.106 127.993 141.628 128.959 141.942C129.196 142.013 129.441 142.072 129.682 142.132C129.923 142.191 130.175 142.217 130.424 142.239C130.917 142.273 131.421 142.276 131.907 142.273H137.808H159.345L190.525 142.306L199 142.324L190.525 142.343L159.345 142.373H137.808H131.922C131.421 142.373 130.921 142.373 130.409 142.343C130.153 142.317 129.905 142.269 129.649 142.232C129.393 142.195 129.152 142.113 128.907 142.039C127.918 141.718 127.011 141.183 126.251 140.474C125.472 139.756 124.87 138.868 124.493 137.878C124.394 137.637 124.312 137.389 124.249 137.136L124.148 136.765L124.085 136.368C124.043 136.106 124.02 135.84 124.015 135.574C123.996 135.304 124.015 135.044 124.015 134.777C124.015 132.656 124.015 130.507 124.015 128.331C124.015 119.627 124.015 110.488 124.015 101.016C124.015 96.2808 124.015 91.4655 124.015 86.5699V82.9501C123.988 82.3307 124.017 81.7101 124.1 81.0957C124.209 80.4734 124.422 79.874 124.731 79.3229C125.36 78.2102 126.356 77.3513 127.549 76.8936C128.14 76.6591 128.768 76.5335 129.404 76.5227C130.034 76.5227 130.661 76.5227 131.288 76.5227H187.918H203.702C204.213 76.5049 204.723 76.526 205.23 76.5858C205.737 76.6643 206.226 76.8286 206.677 77.0716C207.568 77.566 208.27 78.3404 208.676 79.2747C208.866 79.7368 208.981 80.2264 209.017 80.7248C209.047 81.2255 209.017 81.7039 209.017 82.1898C209.017 89.9301 209.017 97.14 209.017 103.723C209.017 116.886 208.991 127.537 208.984 134.903C208.992 135.351 208.973 135.8 208.928 136.246C208.891 136.461 208.869 136.676 208.821 136.884L208.665 137.488C208.43 138.219 208.078 138.906 207.623 139.524C206.908 140.492 205.954 141.259 204.856 141.75C204.183 142.049 203.467 142.242 202.734 142.321C202.226 142.369 201.97 142.373 201.97 142.373Z" fill="#263238"/>
<path d="M140.791 184.304L87.2398 184.269C80.7837 184.269 75.5791 178.776 75.5791 172.007V30.9162C75.5791 24.1422 80.8085 18.6545 87.2547 18.6595L140.806 18.6893C147.262 18.6893 152.467 24.182 152.467 30.951L152.437 172.047C152.462 178.821 147.237 184.309 140.791 184.304Z" fill="#263238"/>
<path d="M140.776 23.6803H130.392C129.691 23.7138 129.032 24.0238 128.559 24.5422C128.086 25.0607 127.838 25.7455 127.869 26.4465V28.433C127.885 28.7803 127.832 29.1274 127.714 29.4544C127.596 29.7813 127.415 30.0819 127.18 30.3387C126.946 30.5956 126.663 30.8038 126.349 30.9515C126.034 31.0991 125.693 31.1833 125.346 31.1992H105.108C104.407 31.1645 103.748 30.8535 103.275 30.3342C102.802 29.8149 102.555 29.1296 102.586 28.4281V26.4416C102.617 25.74 102.369 25.0547 101.896 24.5354C101.423 24.0162 100.764 23.7052 100.063 23.6704H87.3292C82.8149 23.6704 79.1548 27.5093 79.1548 32.2521L79.125 169.971C79.125 174.714 82.7802 178.558 87.2945 178.558L140.741 178.592C145.251 178.592 148.911 174.749 148.916 170.006L148.941 32.2868C148.941 27.5292 145.285 23.6853 140.776 23.6803Z" fill="white"/>
<path d="M93.7309 165.551V168.923C93.7314 168.99 93.7139 169.056 93.6802 169.114C93.6465 169.171 93.598 169.219 93.5395 169.251C93.4811 169.284 93.415 169.3 93.3482 169.298C93.2814 169.296 93.2163 169.277 93.1598 169.241L90.5078 167.553C90.4555 167.519 90.4125 167.472 90.3828 167.418C90.353 167.363 90.3374 167.302 90.3374 167.24C90.3374 167.177 90.353 167.116 90.3828 167.062C90.4125 167.007 90.4555 166.961 90.5078 166.927L93.1598 165.238C93.2159 165.203 93.2806 165.183 93.347 165.181C93.4134 165.179 93.4791 165.195 93.5374 165.227C93.5956 165.259 93.6443 165.305 93.6783 165.363C93.7123 165.42 93.7305 165.485 93.7309 165.551Z" fill="#E0E0E0"/>
<path d="M115.513 167.23C115.512 167.689 115.375 168.138 115.119 168.52C114.863 168.901 114.499 169.198 114.074 169.373C113.65 169.549 113.183 169.594 112.732 169.504C112.281 169.413 111.868 169.192 111.543 168.866C111.219 168.541 110.998 168.127 110.909 167.676C110.819 167.226 110.866 166.759 111.042 166.334C111.218 165.91 111.516 165.547 111.898 165.292C112.28 165.037 112.729 164.901 113.188 164.901C113.805 164.902 114.396 165.148 114.832 165.584C115.268 166.021 115.513 166.613 115.513 167.23Z" fill="#E0E0E0"/>
<path d="M135.556 165.203H133.128C132.615 165.203 132.199 165.619 132.199 166.132V168.571C132.199 169.084 132.615 169.499 133.128 169.499H135.556C136.069 169.499 136.485 169.084 136.485 168.571V166.132C136.485 165.619 136.069 165.203 135.556 165.203Z" fill="#E0E0E0"/>
<path d="M90.026 42.3882C89.4698 42.3882 88.7596 42.3882 88.0395 42.3882C87.1953 42.3882 86.351 42.3584 85.765 42.3633C85.7007 42.3545 85.6419 42.3228 85.5993 42.2739C85.5567 42.2251 85.5332 42.1625 85.5332 42.0977C85.5332 42.0328 85.5567 41.9702 85.5993 41.9214C85.6419 41.8725 85.7007 41.8408 85.765 41.832C86.3559 41.832 87.2052 41.832 88.0544 41.832C88.9036 41.832 89.7429 41.8618 90.3289 41.832C90.3988 41.832 90.4657 41.8597 90.5151 41.909C90.5644 41.9584 90.5922 42.0254 90.5922 42.0952C90.5922 42.165 90.5644 42.2319 90.5151 42.2813C90.4657 42.3306 90.3988 42.3584 90.3289 42.3584L90.026 42.3882Z" fill="#263238"/>
<path d="M87.3936 44.1463C87.3559 44.1467 87.3187 44.139 87.2843 44.1235C87.25 44.1081 87.2195 44.0854 87.1949 44.0569L85.5759 42.2392C85.5306 42.1898 85.5054 42.1251 85.5054 42.058C85.5054 41.9908 85.5306 41.9262 85.5759 41.8767L87.1502 40.2229C87.1747 40.1985 87.2037 40.179 87.2356 40.1658C87.2676 40.1525 87.3019 40.1457 87.3364 40.1457C87.371 40.1457 87.4053 40.1525 87.4372 40.1658C87.4692 40.179 87.4982 40.1985 87.5227 40.2229C87.5479 40.2475 87.568 40.2768 87.5817 40.3092C87.5954 40.3416 87.6024 40.3765 87.6024 40.4117C87.6024 40.4468 87.5954 40.4817 87.5817 40.5141C87.568 40.5465 87.5479 40.5758 87.5227 40.6004L86.1172 42.0902L87.5723 43.7241C87.6177 43.7781 87.6405 43.8475 87.6358 43.9179C87.6312 43.9882 87.5996 44.054 87.5475 44.1016C87.5021 44.1321 87.4483 44.1477 87.3936 44.1463Z" fill="#263238"/>
<path d="M142.618 40.3719C143.074 40.3719 143.443 40.0028 143.443 39.5475C143.443 39.0922 143.074 38.7231 142.618 38.7231C142.163 38.7231 141.794 39.0922 141.794 39.5475C141.794 40.0028 142.163 40.3719 142.618 40.3719Z" fill="#263238"/>
<path d="M143.443 42.1449C143.443 42.3073 143.395 42.4661 143.305 42.6013C143.215 42.7365 143.087 42.8422 142.937 42.905C142.787 42.9678 142.622 42.985 142.463 42.9543C142.303 42.9237 142.157 42.8467 142.041 42.7329C141.925 42.6191 141.845 42.4736 141.812 42.3146C141.778 42.1557 141.792 41.9904 141.853 41.8396C141.913 41.6887 142.016 41.5589 142.15 41.4666C142.283 41.3742 142.441 41.3234 142.603 41.3205C142.713 41.3185 142.822 41.3383 142.924 41.3789C143.025 41.4194 143.118 41.4798 143.196 41.5566C143.274 41.6333 143.336 41.7249 143.379 41.8259C143.421 41.9269 143.443 42.0353 143.443 42.1449Z" fill="#263238"/>
<path d="M143.443 44.7422C143.443 44.9046 143.395 45.0634 143.305 45.1986C143.215 45.3338 143.087 45.4395 142.937 45.5023C142.787 45.5651 142.622 45.5823 142.463 45.5517C142.303 45.5211 142.157 45.444 142.041 45.3302C141.925 45.2164 141.845 45.0709 141.812 44.912C141.778 44.753 141.792 44.5878 141.853 44.4369C141.913 44.286 142.016 44.1563 142.15 44.0639C142.283 43.9716 142.441 43.9207 142.603 43.9178C142.713 43.9158 142.822 43.9357 142.924 43.9762C143.025 44.0168 143.118 44.0772 143.196 44.1539C143.274 44.2307 143.336 44.3222 143.379 44.4232C143.421 44.5242 143.443 44.6327 143.443 44.7422Z" fill="#263238"/>
<path d="M99.6159 44.1462H98.5283V40.3073H101.543V41.1466H99.6159V44.1462ZM99.5414 41.9909H101.309V42.8302H99.5414V41.9909Z" fill="#263238"/>
<path d="M103.425 44.1959C103.125 44.202 102.828 44.1338 102.561 43.9972C102.311 43.8752 102.102 43.6838 101.958 43.446C101.815 43.2082 101.743 42.934 101.751 42.6563C101.744 42.3795 101.816 42.1064 101.96 41.8696C102.103 41.6328 102.312 41.4421 102.561 41.3204C102.832 41.1929 103.128 41.1268 103.427 41.1268C103.727 41.1268 104.023 41.1929 104.294 41.3204C104.54 41.4401 104.747 41.628 104.89 41.8617C105.034 42.1013 105.108 42.3767 105.103 42.6563C105.109 42.9377 105.035 43.2149 104.89 43.4559C104.745 43.6876 104.538 43.8749 104.294 43.9972C104.025 44.1344 103.726 44.2026 103.425 44.1959ZM103.425 43.3665C103.538 43.3699 103.649 43.3424 103.748 43.2871C103.844 43.2288 103.921 43.1444 103.971 43.0437C104.027 42.9225 104.054 42.7899 104.05 42.6563C104.055 42.5243 104.028 42.3931 103.971 42.2739C103.921 42.1746 103.844 42.0918 103.748 42.0356C103.649 41.9802 103.538 41.9527 103.425 41.9561C103.315 41.9541 103.207 41.9815 103.112 42.0356C103.016 42.0918 102.938 42.1746 102.888 42.2739C102.828 42.3919 102.798 42.5237 102.804 42.6563C102.799 42.7905 102.828 42.9238 102.888 43.0437C102.938 43.1444 103.016 43.2288 103.112 43.2871C103.206 43.3463 103.314 43.379 103.425 43.3814V43.3665Z" fill="#263238"/>
<path d="M107.105 44.1959C106.8 44.2021 106.498 44.1339 106.226 43.9973C105.973 43.8774 105.761 43.6869 105.615 43.4489C105.469 43.211 105.394 42.9357 105.401 42.6564C105.395 42.378 105.47 42.1038 105.616 41.8667C105.763 41.6297 105.974 41.44 106.226 41.3205C106.499 41.1878 106.801 41.1214 107.105 41.1268C107.41 41.1184 107.712 41.1921 107.979 41.3403C108.216 41.4759 108.399 41.6878 108.5 41.9413L107.691 42.3535C107.635 42.2301 107.546 42.125 107.433 42.0505C107.333 41.9871 107.218 41.9543 107.1 41.9562C106.986 41.9541 106.873 41.9814 106.772 42.0356C106.672 42.0901 106.591 42.1731 106.539 42.274C106.483 42.3947 106.454 42.526 106.454 42.6589C106.454 42.7918 106.483 42.9231 106.539 43.0438C106.589 43.1471 106.671 43.2321 106.772 43.2871C106.873 43.3413 106.986 43.3687 107.1 43.3666C107.218 43.3684 107.333 43.3356 107.433 43.2722C107.546 43.1977 107.635 43.0927 107.691 42.9693L108.5 43.3815C108.399 43.635 108.216 43.8468 107.979 43.9824C107.712 44.1306 107.41 44.2044 107.105 44.1959Z" fill="#263238"/>
<path d="M110.144 44.1959C109.919 44.2013 109.696 44.1519 109.494 44.0519C109.298 43.9564 109.139 43.7994 109.042 43.6049C108.928 43.3648 108.873 43.1008 108.883 42.8351V41.1764H109.926V42.6663C109.909 42.8419 109.954 43.0179 110.055 43.1629C110.101 43.2116 110.158 43.2497 110.22 43.2746C110.283 43.2995 110.35 43.3105 110.417 43.3069C110.515 43.3099 110.611 43.2859 110.696 43.2374C110.786 43.1846 110.857 43.1046 110.899 43.009C110.958 42.8832 110.985 42.7452 110.979 42.6067V41.1764H112.017V44.1562H111.023V43.3069L111.212 43.5453C111.123 43.7546 110.968 43.929 110.77 44.0419C110.578 44.1447 110.363 44.1976 110.144 44.1959Z" fill="#263238"/>
<path d="M113.77 44.1959C113.521 44.1957 113.272 44.1674 113.03 44.1115C112.827 44.0665 112.633 43.9912 112.454 43.888L112.766 43.1779C112.921 43.2683 113.089 43.3352 113.263 43.3765C113.441 43.4249 113.625 43.45 113.809 43.451C113.934 43.459 114.06 43.4404 114.177 43.3964C114.206 43.3838 114.231 43.3631 114.249 43.3366C114.266 43.3102 114.276 43.2792 114.276 43.2474C114.276 43.2186 114.267 43.1905 114.25 43.1672C114.233 43.144 114.209 43.1268 114.182 43.1183C114.101 43.0869 114.015 43.0668 113.929 43.0587L113.586 43.009L113.208 42.9345C113.088 42.903 112.973 42.8545 112.866 42.7905C112.76 42.7274 112.674 42.6363 112.617 42.5273C112.55 42.4007 112.517 42.2584 112.523 42.1151C112.523 41.9354 112.582 41.7608 112.692 41.6185C112.822 41.4586 112.994 41.3383 113.189 41.2708C113.442 41.1797 113.709 41.1359 113.978 41.1417C114.192 41.1413 114.405 41.1629 114.614 41.2063C114.804 41.2387 114.987 41.3025 115.155 41.395L114.842 42.1002C114.704 42.021 114.555 41.9625 114.4 41.9264C114.263 41.8973 114.123 41.8823 113.983 41.8817C113.858 41.8725 113.732 41.8929 113.616 41.9413C113.586 41.9538 113.56 41.9743 113.54 42.0005C113.521 42.0268 113.509 42.0578 113.506 42.0902C113.507 42.1194 113.517 42.1476 113.534 42.1714C113.55 42.1953 113.574 42.2137 113.601 42.2243C113.68 42.2596 113.763 42.283 113.849 42.2939L114.192 42.3435C114.316 42.3435 114.445 42.3882 114.569 42.418C114.691 42.4517 114.807 42.5001 114.917 42.562C115.019 42.6274 115.104 42.7159 115.165 42.8203C115.231 42.9492 115.264 43.0927 115.26 43.2375C115.26 43.4171 115.201 43.5919 115.091 43.7341C114.958 43.8921 114.787 44.0135 114.594 44.0867C114.328 44.1736 114.049 44.2106 113.77 44.1959Z" fill="#263238"/>
<path d="M117.331 44.1462V40.3073H118.224L119.814 42.9196H119.347L120.891 40.3073H121.785V44.1462H120.792V41.827H120.961L119.804 43.7688H119.307L118.115 41.827H118.324V44.1462H117.331Z" fill="#263238"/>
<path d="M124.005 44.1959C123.705 44.2026 123.408 44.1344 123.141 43.9972C122.892 43.8744 122.683 43.683 122.538 43.4455C122.394 43.208 122.321 42.9342 122.327 42.6564C122.322 42.3793 122.395 42.1066 122.54 41.8701C122.684 41.6335 122.892 41.4429 123.141 41.3204C123.409 41.1873 123.706 41.1209 124.005 41.1267C124.306 41.1209 124.604 41.1873 124.874 41.3204C125.123 41.4421 125.331 41.6328 125.475 41.8696C125.618 42.1064 125.691 42.3795 125.684 42.6564C125.692 42.934 125.62 43.2082 125.476 43.446C125.333 43.6838 125.124 43.8752 124.874 43.9972C124.605 44.1344 124.307 44.2026 124.005 44.1959ZM124.005 43.3665C124.118 43.3691 124.229 43.3417 124.328 43.2871C124.421 43.2271 124.497 43.143 124.546 43.0437C124.604 42.9229 124.633 42.7903 124.631 42.6564C124.634 42.5239 124.605 42.3927 124.546 42.2739C124.497 42.176 124.421 42.0936 124.328 42.0356C124.229 41.9809 124.118 41.9535 124.005 41.9561C123.895 41.9536 123.787 41.981 123.692 42.0356C123.596 42.093 123.517 42.1753 123.464 42.2739C123.405 42.3927 123.376 42.5239 123.379 42.6564C123.377 42.7903 123.406 42.9229 123.464 43.0437C123.517 43.1437 123.596 43.2277 123.692 43.2871C123.786 43.3468 123.894 43.3795 124.005 43.3814V43.3665Z" fill="#263238"/>
<path d="M127.461 44.1959C127.203 44.1983 126.948 44.1333 126.721 44.0072C126.508 43.8788 126.333 43.6952 126.215 43.4758C126.084 43.2233 126.016 42.9431 126.016 42.6588C126.016 42.3745 126.084 42.0944 126.215 41.8419C126.33 41.6237 126.502 41.4402 126.712 41.3105C126.938 41.1861 127.193 41.1228 127.452 41.1268C127.679 41.1199 127.905 41.1766 128.102 41.2906C128.285 41.4103 128.425 41.5839 128.504 41.7873C128.602 42.0628 128.648 42.3542 128.638 42.6464C128.647 42.9415 128.604 43.2358 128.509 43.5155C128.435 43.7201 128.295 43.8946 128.112 44.0121C127.917 44.1331 127.691 44.1968 127.461 44.1959ZM127.705 43.3814C127.814 43.384 127.923 43.3565 128.018 43.302C128.114 43.2437 128.191 43.1593 128.241 43.0586C128.299 42.9378 128.328 42.8052 128.326 42.6713C128.329 42.5388 128.3 42.4076 128.241 42.2889C128.191 42.1895 128.114 42.1067 128.018 42.0505C127.923 41.9959 127.814 41.9685 127.705 41.971C127.592 41.9677 127.48 41.9951 127.382 42.0505C127.288 42.107 127.212 42.1898 127.163 42.2889C127.103 42.4068 127.074 42.5386 127.079 42.6713C127.074 42.8054 127.103 42.9387 127.163 43.0586C127.212 43.159 127.287 43.2434 127.382 43.302C127.48 43.3573 127.592 43.3848 127.705 43.3814ZM128.355 44.1611V42.6713L128.301 41.678V40.0789H129.344V44.1462L128.355 44.1611Z" fill="#263238"/>
<path d="M131.549 44.1959C131.231 44.2041 130.916 44.136 130.63 43.9972C130.381 43.8726 130.171 43.6819 130.024 43.446C129.877 43.2092 129.801 42.9351 129.805 42.6563C129.801 42.3767 129.875 42.1013 130.019 41.8618C130.159 41.6309 130.36 41.4435 130.6 41.3204C130.86 41.189 131.148 41.1225 131.439 41.1267C131.716 41.1229 131.99 41.1841 132.239 41.3055C132.477 41.4197 132.678 41.6009 132.815 41.827C132.964 42.0811 133.038 42.372 133.028 42.6663C133.031 42.7093 133.031 42.7524 133.028 42.7954C133.028 42.8401 133.028 42.8848 133.028 42.9245H130.684V42.3882H132.482L132.09 42.5372C132.098 42.4166 132.072 42.2963 132.015 42.1895C131.965 42.0943 131.89 42.0151 131.797 41.9611C131.698 41.9018 131.584 41.8725 131.469 41.8766C131.355 41.872 131.243 41.9014 131.146 41.9611C131.052 42.0138 130.976 42.0933 130.928 42.1895C130.874 42.3011 130.847 42.4234 130.848 42.5471V42.706C130.847 42.8378 130.88 42.9677 130.943 43.0834C131.002 43.1893 131.092 43.2743 131.201 43.3268C131.329 43.3854 131.468 43.4142 131.608 43.4112C131.737 43.4144 131.865 43.3925 131.986 43.3467C132.099 43.3004 132.203 43.2349 132.293 43.153L132.84 43.7241C132.696 43.8849 132.516 44.0077 132.313 44.0817C132.069 44.1702 131.809 44.2091 131.549 44.1959Z" fill="#263238"/>
<path d="M148.921 55.0769C148.921 55.1514 133.346 55.2061 114.157 55.2061C94.9672 55.2061 79.3931 55.1514 79.3931 55.0769C79.3931 55.0025 94.9622 54.9478 114.157 54.9478C133.351 54.9478 148.921 55.0074 148.921 55.0769Z" fill="#E0E0E0"/>
<path d="M137.225 63.7381H90.8404C87.2419 63.7381 84.3247 66.6553 84.3247 70.2538V72.1509C84.3247 75.7495 87.2419 78.6667 90.8404 78.6667H137.225C140.824 78.6667 143.741 75.7495 143.741 72.1509V70.2538C143.741 66.6553 140.824 63.7381 137.225 63.7381Z" fill="#F5F5F5"/>
<path d="M101.88 72.727V70.373H100.932V69.7026H103.693V70.383H102.749V72.737L101.88 72.727Z" fill="#263238"/>
<path d="M104.626 72.7667C104.455 72.7726 104.285 72.7386 104.13 72.6674C104.008 72.6121 103.904 72.5224 103.832 72.4091C103.762 72.2992 103.726 72.1716 103.728 72.0416C103.738 71.9129 103.786 71.7902 103.867 71.689C103.957 71.5769 104.078 71.4926 104.214 71.4457C104.409 71.3844 104.612 71.3559 104.815 71.3613H105.357V71.7933H104.905C104.806 71.7835 104.706 71.8062 104.621 71.8579C104.595 71.8784 104.575 71.9049 104.561 71.9352C104.547 71.9654 104.54 71.9985 104.542 72.0317C104.541 72.0654 104.548 72.0989 104.562 72.1293C104.577 72.1596 104.599 72.1858 104.626 72.2055C104.693 72.2532 104.774 72.276 104.855 72.2701C104.942 72.2692 105.028 72.2452 105.103 72.2006C105.179 72.1531 105.237 72.0813 105.267 71.9969L105.381 72.2999C105.346 72.4509 105.253 72.5825 105.123 72.6674C104.97 72.7461 104.798 72.7805 104.626 72.7667ZM105.332 72.727V72.2899L105.272 72.1807V71.3712C105.276 71.3158 105.267 71.2603 105.246 71.2087C105.226 71.1571 105.194 71.1109 105.153 71.0732C105.041 70.9926 104.903 70.9539 104.766 70.964C104.648 70.9655 104.531 70.9839 104.418 71.0186C104.312 71.053 104.211 71.1032 104.12 71.1676L103.837 70.6114C103.99 70.5162 104.158 70.4474 104.333 70.4077C104.519 70.3626 104.709 70.3393 104.9 70.3382C105.221 70.3164 105.54 70.4097 105.799 70.6014C105.911 70.7045 105.998 70.832 106.053 70.9741C106.108 71.1162 106.13 71.269 106.116 71.4209V72.727H105.332Z" fill="#263238"/>
<path d="M107.502 72.7668C107.303 72.7663 107.105 72.743 106.911 72.6972C106.748 72.6606 106.591 72.6022 106.444 72.5234L106.698 71.9573C106.82 72.0297 106.952 72.0833 107.09 72.1162C107.232 72.1551 107.379 72.1752 107.527 72.1758C107.627 72.1833 107.727 72.168 107.82 72.1311C107.843 72.1219 107.864 72.1063 107.879 72.0861C107.893 72.0659 107.902 72.0419 107.904 72.0169C107.904 71.9932 107.896 71.9703 107.882 71.9515C107.868 71.9327 107.848 71.919 107.825 71.9126C107.76 71.8873 107.691 71.8706 107.621 71.8629L107.348 71.8232L107.045 71.7636C106.949 71.7415 106.857 71.7047 106.772 71.6543C106.687 71.6045 106.616 71.5324 106.568 71.4457C106.515 71.3451 106.489 71.2319 106.494 71.118C106.493 70.9727 106.54 70.8312 106.628 70.7157C106.734 70.5896 106.871 70.4937 107.025 70.4376C107.228 70.3669 107.442 70.3333 107.656 70.3383C107.823 70.3381 107.989 70.3547 108.153 70.3879C108.305 70.4156 108.452 70.4658 108.59 70.5369L108.336 71.0981C108.227 71.0327 108.108 70.9857 107.984 70.9591C107.875 70.9357 107.763 70.9241 107.651 70.9243C107.55 70.9179 107.448 70.9331 107.353 70.969C107.33 70.9799 107.31 70.9966 107.295 71.0175C107.281 71.0384 107.271 71.0627 107.269 71.0882C107.269 71.111 107.277 71.1332 107.29 71.1517C107.303 71.1703 107.322 71.1845 107.343 71.1925C107.406 71.2217 107.473 71.2417 107.542 71.2521L107.82 71.2868C107.919 71.2868 108.019 71.3067 108.118 71.3464C108.216 71.3702 108.31 71.4087 108.396 71.4606C108.479 71.5101 108.547 71.5803 108.595 71.6643C108.652 71.7781 108.677 71.9056 108.667 72.0327C108.656 72.1598 108.611 72.2816 108.535 72.3844C108.432 72.5104 108.296 72.6065 108.143 72.6625C107.938 72.7365 107.72 72.7718 107.502 72.7668Z" fill="#263238"/>
<path d="M109.042 72.727V69.5089H109.876V72.727H109.042ZM109.737 72.29L109.762 71.2967L110.73 70.3681H111.723L110.641 71.4606L110.219 71.8033L109.737 72.29ZM110.795 72.727L110.065 71.8232L110.561 71.1925L111.783 72.727H110.795Z" fill="#263238"/>
<path d="M113.67 72.727V70.0006L114.043 70.3532H113.099V69.7026H114.539V72.737L113.67 72.727Z" fill="#263238"/>
<path d="M95.0769 75.0874C97.2188 74.1949 98.2317 71.7351 97.3393 69.5932C96.4468 67.4513 93.9869 66.4384 91.845 67.3309C89.7031 68.2234 88.6903 70.6832 89.5827 72.8251C90.4752 74.967 92.935 75.9799 95.0769 75.0874Z" fill="#455A64"/>
<path d="M135.76 69.1811H131.767C131.416 69.1811 131.131 69.4657 131.131 69.8168V73.8096C131.131 74.1607 131.416 74.4453 131.767 74.4453H135.76C136.111 74.4453 136.396 74.1607 136.396 73.8096V69.8168C136.396 69.4657 136.111 69.1811 135.76 69.1811Z" fill="#66AC47"/>
<path d="M132.169 71.7884L133.401 72.9008L135.621 70.7256" stroke="white" stroke-linecap="round" stroke-linejoin="round"/>
<path d="M137.225 81.6811H90.8404C87.2419 81.6811 84.3247 84.5983 84.3247 88.1969V90.094C84.3247 93.6925 87.2419 96.6097 90.8404 96.6097H137.225C140.824 96.6097 143.741 93.6925 143.741 90.094V88.1969C143.741 84.5983 140.824 81.6811 137.225 81.6811Z" fill="#F5F5F5"/>
<path d="M101.88 91.1667V88.8127H100.932V88.1323H103.693V88.8127H102.749V91.1667H101.88Z" fill="#263238"/>
<path d="M104.627 91.2064C104.456 91.2111 104.287 91.1789 104.13 91.112C104.009 91.0533 103.905 90.9623 103.832 90.8488C103.763 90.7389 103.727 90.6113 103.728 90.4813C103.724 90.3487 103.762 90.2181 103.837 90.1089C103.925 89.9937 104.047 89.9087 104.185 89.8655C104.378 89.8018 104.582 89.7732 104.786 89.7811H105.357V90.2082H104.905C104.806 90.1983 104.707 90.221 104.622 90.2727C104.596 90.2933 104.575 90.3198 104.561 90.35C104.547 90.3802 104.541 90.4134 104.542 90.4466C104.54 90.4803 104.547 90.514 104.562 90.5444C104.577 90.5748 104.599 90.601 104.627 90.6204C104.693 90.668 104.774 90.6909 104.855 90.6849C104.942 90.6855 105.028 90.6633 105.104 90.6204C105.18 90.5711 105.238 90.4977 105.267 90.4118L105.382 90.7147C105.346 90.8658 105.253 90.9974 105.123 91.0822C104.973 91.1696 104.801 91.2126 104.627 91.2064ZM105.332 91.1667V90.7296L105.272 90.6204V89.8158C105.276 89.7597 105.268 89.7033 105.247 89.6509C105.226 89.5984 105.194 89.5513 105.153 89.5129C105.04 89.434 104.903 89.3971 104.766 89.4086C104.648 89.4084 104.531 89.4251 104.418 89.4583C104.311 89.4923 104.21 89.5444 104.12 89.6122L103.837 89.051C103.991 88.9581 104.159 88.8894 104.334 88.8474C104.519 88.8023 104.709 88.779 104.9 88.7779C105.221 88.7586 105.539 88.8517 105.799 89.0411C105.911 89.1442 105.998 89.2717 106.053 89.4138C106.108 89.5559 106.13 89.7087 106.117 89.8605V91.1667H105.332Z" fill="#263238"/>
<path d="M107.502 91.2064C107.303 91.206 107.105 91.1826 106.911 91.1369C106.748 91.1003 106.591 91.0418 106.444 90.9631L106.698 90.3969C106.82 90.4693 106.952 90.5229 107.09 90.5558C107.232 90.5948 107.379 90.6148 107.527 90.6154C107.634 90.6229 107.742 90.6042 107.84 90.5608C107.864 90.5527 107.885 90.5374 107.9 90.517C107.915 90.4965 107.924 90.472 107.924 90.4466C107.924 90.3969 107.894 90.3671 107.845 90.3423C107.779 90.3193 107.71 90.3027 107.641 90.2926L107.368 90.2529C107.269 90.2529 107.169 90.2231 107.065 90.1983C106.969 90.1746 106.877 90.136 106.792 90.084C106.706 90.0342 106.636 89.9621 106.588 89.8755C106.535 89.7748 106.509 89.6616 106.514 89.5477C106.513 89.4025 106.56 89.261 106.648 89.1454C106.753 89.0193 106.89 88.9248 107.045 88.8723C107.247 88.7973 107.461 88.7619 107.676 88.768C107.843 88.7678 108.009 88.7845 108.173 88.8177C108.325 88.8453 108.472 88.8955 108.61 88.9666L108.356 89.5278C108.247 89.4624 108.128 89.4154 108.004 89.3888C107.894 89.3654 107.783 89.3538 107.671 89.354C107.57 89.3476 107.468 89.3628 107.373 89.3987C107.35 89.4097 107.33 89.4264 107.315 89.4472C107.3 89.4681 107.291 89.4924 107.289 89.5179C107.289 89.5407 107.297 89.5629 107.31 89.5815C107.323 89.6001 107.342 89.6142 107.363 89.6222C107.426 89.6514 107.493 89.6715 107.562 89.6818L107.84 89.7215C107.94 89.7325 108.04 89.7507 108.138 89.7761C108.236 89.8014 108.33 89.8416 108.416 89.8953C108.5 89.9435 108.569 90.014 108.615 90.0989C108.668 90.1981 108.693 90.3095 108.689 90.4217C108.69 90.564 108.643 90.7023 108.555 90.8141C108.451 90.9402 108.316 91.0362 108.163 91.0922C107.952 91.172 107.728 91.2108 107.502 91.2064Z" fill="#263238"/>
<path d="M109.042 91.1667V87.9486H109.876V91.1667H109.042ZM109.737 90.7346L109.762 89.7414L110.73 88.8077H111.723L110.641 89.9053L110.219 90.243L109.737 90.7346ZM110.795 91.1667L110.065 90.2628L110.561 89.6321L111.783 91.1667H110.795Z" fill="#263238"/>
<path d="M113.203 91.1667V90.6303L114.355 89.5675C114.424 89.5082 114.485 89.4416 114.539 89.3689C114.573 89.3197 114.599 89.2662 114.619 89.21C114.623 89.1653 114.623 89.1205 114.619 89.0759C114.621 89.0327 114.613 88.9897 114.595 88.9501C114.578 88.9105 114.552 88.8754 114.519 88.8474C114.433 88.7851 114.327 88.7552 114.221 88.763C114.113 88.7628 114.005 88.7884 113.908 88.8375C113.811 88.8901 113.729 88.9671 113.67 89.061L113.024 88.7034C113.146 88.509 113.317 88.3511 113.521 88.2465C113.762 88.1235 114.03 88.0637 114.301 88.0727C114.514 88.0674 114.727 88.1046 114.926 88.1819C115.092 88.25 115.236 88.3615 115.344 88.5047C115.449 88.6483 115.503 88.8232 115.498 89.0014C115.496 89.1003 115.483 89.1987 115.458 89.2944C115.426 89.4056 115.374 89.51 115.304 89.6023C115.208 89.7329 115.098 89.8528 114.976 89.9599L114.057 90.7942L113.913 90.4912H115.582V91.1716L113.203 91.1667Z" fill="#263238"/>
<path d="M135.76 87.1292H131.767C131.416 87.1292 131.131 87.4138 131.131 87.7648V91.7577C131.131 92.1088 131.416 92.3934 131.767 92.3934H135.76C136.111 92.3934 136.396 92.1088 136.396 91.7577V87.7648C136.396 87.4138 136.111 87.1292 135.76 87.1292Z" stroke="#888888" stroke-miterlimit="10"/>
<path d="M137.225 99.6292H90.8404C87.2419 99.6292 84.3247 102.546 84.3247 106.145V108.042C84.3247 111.641 87.2419 114.558 90.8404 114.558H137.225C140.824 114.558 143.741 111.641 143.741 108.042V106.145C143.741 102.546 140.824 99.6292 137.225 99.6292Z" fill="#F5F5F5"/>
<path d="M101.88 109.11V106.756H100.932V106.075H103.693V106.756H102.749V109.11H101.88Z" fill="#263238"/>
<path d="M104.627 109.149C104.456 109.157 104.286 109.124 104.13 109.055C104.007 108.998 103.904 108.907 103.832 108.792C103.762 108.682 103.726 108.555 103.728 108.424C103.724 108.292 103.762 108.161 103.837 108.052C103.927 107.938 104.047 107.854 104.185 107.809C104.379 107.747 104.582 107.719 104.786 107.724H105.357V108.151H104.905C104.806 108.144 104.708 108.167 104.622 108.216C104.596 108.237 104.575 108.263 104.562 108.293C104.548 108.324 104.541 108.356 104.542 108.39C104.54 108.423 104.547 108.457 104.562 108.488C104.577 108.518 104.599 108.544 104.627 108.563C104.693 108.611 104.774 108.634 104.855 108.628C104.942 108.629 105.028 108.606 105.104 108.563C105.181 108.515 105.239 108.442 105.267 108.355L105.382 108.658C105.347 108.81 105.254 108.942 105.123 109.025C104.974 109.115 104.801 109.158 104.627 109.149ZM105.332 109.11V108.673L105.272 108.563V107.759C105.276 107.703 105.267 107.647 105.246 107.594C105.226 107.542 105.194 107.495 105.153 107.456C105.04 107.377 104.903 107.34 104.766 107.352C104.648 107.353 104.531 107.372 104.418 107.406C104.31 107.437 104.209 107.487 104.12 107.555L103.837 106.994C103.99 106.901 104.158 106.834 104.334 106.795C104.518 106.746 104.709 106.721 104.9 106.721C105.221 106.702 105.539 106.795 105.799 106.984C105.911 107.087 105.998 107.215 106.053 107.357C106.108 107.499 106.13 107.652 106.117 107.804V109.11H105.332Z" fill="#263238"/>
<path d="M107.502 109.149C107.303 109.149 107.105 109.126 106.911 109.08C106.748 109.046 106.59 108.987 106.444 108.906L106.698 108.345C106.821 108.415 106.953 108.469 107.09 108.504C107.233 108.539 107.38 108.557 107.527 108.558C107.626 108.564 107.726 108.551 107.82 108.519C107.844 108.509 107.864 108.492 107.879 108.471C107.894 108.45 107.903 108.425 107.904 108.4C107.903 108.377 107.895 108.355 107.881 108.337C107.866 108.319 107.847 108.306 107.825 108.3C107.76 108.273 107.691 108.256 107.621 108.251L107.348 108.211L107.045 108.151C106.949 108.128 106.857 108.089 106.772 108.037C106.688 107.988 106.618 107.918 106.568 107.833C106.516 107.731 106.49 107.616 106.494 107.501C106.492 107.357 106.539 107.217 106.628 107.103C106.732 106.976 106.87 106.88 107.025 106.825C107.227 106.75 107.441 106.715 107.656 106.721C107.823 106.723 107.989 106.74 108.153 106.771C108.305 106.798 108.452 106.848 108.59 106.92L108.336 107.481C108.226 107.419 108.107 107.374 107.984 107.347C107.875 107.322 107.763 107.309 107.651 107.307C107.549 107.299 107.447 107.316 107.353 107.357C107.33 107.366 107.31 107.381 107.295 107.402C107.28 107.422 107.271 107.446 107.269 107.471C107.268 107.495 107.275 107.518 107.289 107.537C107.302 107.557 107.321 107.572 107.343 107.58C107.407 107.607 107.473 107.626 107.542 107.635L107.82 107.674C107.921 107.685 108.021 107.705 108.118 107.734C108.216 107.758 108.31 107.796 108.396 107.848C108.479 107.898 108.547 107.968 108.595 108.052C108.648 108.153 108.674 108.266 108.669 108.38C108.67 108.52 108.623 108.657 108.535 108.767C108.433 108.895 108.297 108.991 108.143 109.045C107.938 109.119 107.72 109.155 107.502 109.149Z" fill="#263238"/>
<path d="M109.042 109.11V105.897H109.876V109.11H109.042ZM109.737 108.678L109.762 107.684L110.73 106.751H111.723L110.641 107.848L110.219 108.186L109.737 108.678ZM110.795 109.11L110.065 108.211L110.561 107.575L111.783 109.11H110.795Z" fill="#263238"/>
<path d="M114.251 109.169C114.035 109.169 113.82 109.144 113.61 109.095C113.415 109.047 113.228 108.972 113.054 108.871L113.372 108.226C113.5 108.308 113.638 108.372 113.784 108.414C113.928 108.455 114.077 108.477 114.226 108.479C114.349 108.485 114.472 108.456 114.579 108.395C114.617 108.372 114.649 108.341 114.673 108.303C114.696 108.265 114.709 108.222 114.712 108.178C114.714 108.134 114.705 108.089 114.687 108.049C114.668 108.009 114.639 107.974 114.604 107.948C114.494 107.885 114.367 107.857 114.241 107.868H113.879V107.327L114.703 106.443L114.787 106.741H113.213V106.075H115.438V106.617L114.614 107.496L114.187 107.257H114.42C114.732 107.235 115.042 107.325 115.294 107.511C115.39 107.589 115.466 107.689 115.518 107.802C115.569 107.914 115.595 108.037 115.592 108.161C115.592 108.337 115.542 108.509 115.448 108.658C115.342 108.822 115.19 108.952 115.011 109.03C114.772 109.135 114.512 109.182 114.251 109.169Z" fill="#263238"/>
<path d="M135.76 105.072H131.767C131.416 105.072 131.131 105.357 131.131 105.708V109.701C131.131 110.052 131.416 110.336 131.767 110.336H135.76C136.111 110.336 136.396 110.052 136.396 109.701V105.708C136.396 105.357 136.111 105.072 135.76 105.072Z" stroke="#888888" stroke-miterlimit="10"/>
<path d="M137.225 117.572H90.8404C87.2419 117.572 84.3247 120.489 84.3247 124.088V125.985C84.3247 129.584 87.2419 132.501 90.8404 132.501H137.225C140.824 132.501 143.741 129.584 143.741 125.985V124.088C143.741 120.489 140.824 117.572 137.225 117.572Z" fill="#F5F5F5"/>
<path d="M101.88 126.561V124.207H100.932V123.527H103.693V124.207H102.749V126.561H101.88Z" fill="#263238"/>
<path d="M104.627 126.596C104.456 126.603 104.286 126.571 104.13 126.502C104.009 126.445 103.906 126.355 103.832 126.243C103.763 126.133 103.727 126.006 103.728 125.876C103.724 125.742 103.762 125.609 103.837 125.498C103.928 125.386 104.048 125.302 104.185 125.255C104.379 125.194 104.582 125.165 104.786 125.171H105.357V125.603H104.905C104.806 125.593 104.707 125.615 104.622 125.667C104.595 125.687 104.574 125.714 104.56 125.744C104.547 125.775 104.54 125.808 104.542 125.841C104.541 125.875 104.548 125.908 104.563 125.939C104.577 125.969 104.599 125.995 104.627 126.015C104.694 126.06 104.774 126.083 104.855 126.079C104.943 126.079 105.028 126.055 105.104 126.01C105.18 125.962 105.237 125.891 105.267 125.806L105.382 126.109C105.344 126.26 105.252 126.391 105.123 126.477C104.972 126.562 104.8 126.604 104.627 126.596ZM105.332 126.561V126.119L105.272 126.015V125.205C105.276 125.15 105.267 125.094 105.247 125.043C105.226 124.991 105.194 124.945 105.153 124.907C105.042 124.825 104.904 124.786 104.766 124.798C104.648 124.8 104.531 124.818 104.418 124.853C104.31 124.883 104.209 124.934 104.12 125.002L103.837 124.446C103.99 124.35 104.158 124.282 104.334 124.242C104.519 124.194 104.709 124.171 104.9 124.172C105.22 124.152 105.538 124.243 105.799 124.431C105.912 124.534 105.999 124.663 106.054 124.806C106.11 124.949 106.131 125.102 106.117 125.255V126.561H105.332Z" fill="#263238"/>
<path d="M107.502 126.596C107.303 126.598 107.104 126.574 106.911 126.526C106.748 126.493 106.591 126.437 106.444 126.357L106.698 125.791C106.821 125.862 106.953 125.915 107.09 125.95C107.232 125.989 107.379 126.009 107.527 126.01C107.627 126.017 107.727 126.002 107.82 125.965C107.844 125.955 107.864 125.939 107.879 125.918C107.894 125.897 107.903 125.872 107.904 125.846C107.903 125.823 107.895 125.801 107.881 125.784C107.866 125.766 107.847 125.753 107.825 125.747C107.76 125.721 107.691 125.705 107.621 125.697L107.348 125.657L107.045 125.598C106.949 125.576 106.857 125.539 106.772 125.488C106.688 125.437 106.618 125.365 106.568 125.28C106.511 125.164 106.486 125.035 106.496 124.906C106.507 124.778 106.552 124.654 106.628 124.55C106.732 124.422 106.87 124.326 107.025 124.272C107.228 124.201 107.442 124.167 107.656 124.172C107.823 124.172 107.989 124.189 108.153 124.222C108.306 124.245 108.454 124.295 108.59 124.371L108.336 124.927C108.226 124.865 108.107 124.82 107.984 124.793C107.875 124.768 107.763 124.755 107.651 124.753C107.549 124.748 107.448 124.765 107.353 124.803C107.329 124.813 107.309 124.83 107.294 124.851C107.279 124.872 107.27 124.897 107.269 124.922C107.269 124.945 107.277 124.967 107.29 124.986C107.303 125.004 107.322 125.019 107.343 125.027C107.406 125.056 107.473 125.075 107.542 125.081L107.82 125.121C107.919 125.121 108.019 125.141 108.118 125.181C108.216 125.204 108.31 125.243 108.396 125.295C108.479 125.344 108.547 125.414 108.595 125.498C108.652 125.612 108.677 125.74 108.667 125.867C108.656 125.994 108.611 126.116 108.535 126.218C108.432 126.344 108.297 126.439 108.143 126.492C107.938 126.566 107.72 126.601 107.502 126.596Z" fill="#263238"/>
<path d="M109.042 126.561V123.338H109.876V126.556L109.042 126.561ZM109.737 126.124L109.762 125.131L110.73 124.202H111.723L110.641 125.295L110.219 125.632L109.737 126.124ZM110.795 126.561L110.065 125.657L110.561 125.027L111.783 126.561H110.795Z" fill="#263238"/>
<path d="M113.188 125.98V125.419L114.574 123.527H115.473L114.132 125.419L113.72 125.3H116.124V125.98H113.188ZM114.817 126.561V125.98L114.842 125.3V124.803H115.667V126.581L114.817 126.561Z" fill="#263238"/>
<path d="M95.4127 129.115C97.657 128.035 98.6011 125.341 97.5215 123.096C96.4419 120.852 93.7473 119.908 91.5031 120.988C89.2588 122.067 88.3147 124.762 89.3943 127.006C90.4739 129.25 93.1684 130.194 95.4127 129.115Z" fill="#455A64"/>
<path d="M95.4156 112.04C97.6599 110.961 98.604 108.266 97.5244 106.022C96.4448 103.777 93.7503 102.833 91.506 103.913C89.2617 104.993 88.3176 107.687 89.3972 109.931C90.4768 112.176 93.1713 113.12 95.4156 112.04Z" fill="#455A64"/>
<path d="M96.4759 92.3332C98.2369 90.5722 98.2369 87.7171 96.4759 85.9561C94.7149 84.1951 91.8598 84.1951 90.0988 85.9561C88.3377 87.7171 88.3377 90.5722 90.0987 92.3332C91.8598 94.0943 94.7149 94.0943 96.4759 92.3332Z" fill="#455A64"/>
<path d="M135.76 123.015H131.767C131.416 123.015 131.131 123.3 131.131 123.651V127.644C131.131 127.995 131.416 128.279 131.767 128.279H135.76C136.111 128.279 136.396 127.995 136.396 127.644V123.651C136.396 123.3 136.111 123.015 135.76 123.015Z" stroke="#888888" stroke-miterlimit="10"/>
<path d="M137.225 135.515H90.8404C87.2419 135.515 84.3247 138.432 84.3247 142.031V143.928C84.3247 147.527 87.2419 150.444 90.8404 150.444H137.225C140.824 150.444 143.741 147.527 143.741 143.928V142.031C143.741 138.432 140.824 135.515 137.225 135.515Z" fill="#F5F5F5"/>
<path d="M101.88 144.504V142.15H100.932V141.47H103.693V142.15H102.749V144.504H101.88Z" fill="#263238"/>
<path d="M104.627 144.544C104.456 144.549 104.287 144.516 104.13 144.45C104.009 144.391 103.905 144.3 103.832 144.186C103.763 144.076 103.727 143.949 103.728 143.819C103.724 143.686 103.762 143.556 103.837 143.446C103.925 143.331 104.047 143.246 104.185 143.203C104.378 143.139 104.582 143.111 104.786 143.119H105.357V143.546H104.905C104.806 143.536 104.707 143.559 104.622 143.61C104.596 143.631 104.575 143.658 104.562 143.688C104.548 143.718 104.541 143.751 104.542 143.784C104.54 143.818 104.547 143.851 104.562 143.882C104.577 143.912 104.599 143.938 104.627 143.958C104.693 144.006 104.774 144.028 104.855 144.022C104.943 144.025 105.03 144.001 105.104 143.953C105.182 143.908 105.24 143.835 105.267 143.749L105.382 144.052C105.346 144.203 105.253 144.335 105.123 144.42C104.974 144.509 104.801 144.552 104.627 144.544ZM105.332 144.504V144.067L105.272 143.958V143.153C105.276 143.097 105.267 143.041 105.246 142.989C105.226 142.936 105.194 142.889 105.153 142.85C105.04 142.772 104.903 142.735 104.766 142.746C104.648 142.746 104.531 142.763 104.418 142.796C104.311 142.83 104.21 142.882 104.12 142.95L103.837 142.389C103.991 142.296 104.159 142.227 104.334 142.185C104.519 142.14 104.709 142.116 104.9 142.115C105.221 142.096 105.539 142.189 105.799 142.379C105.911 142.482 105.998 142.609 106.053 142.751C106.108 142.893 106.13 143.046 106.117 143.198V144.504H105.332Z" fill="#263238"/>
<path d="M107.502 144.544C107.303 144.543 107.105 144.52 106.911 144.474C106.748 144.44 106.59 144.381 106.444 144.301L106.698 143.734C106.82 143.807 106.952 143.86 107.09 143.893C107.232 143.932 107.379 143.952 107.527 143.953C107.627 143.96 107.727 143.945 107.82 143.908C107.844 143.9 107.865 143.885 107.88 143.864C107.895 143.844 107.904 143.819 107.904 143.794C107.902 143.774 107.895 143.755 107.884 143.739C107.873 143.722 107.858 143.709 107.84 143.7C107.774 143.677 107.706 143.66 107.636 143.65L107.363 143.61C107.264 143.61 107.164 143.58 107.06 143.556C106.964 143.532 106.872 143.493 106.787 143.441C106.703 143.392 106.633 143.322 106.583 143.238C106.531 143.135 106.505 143.02 106.509 142.905C106.508 142.76 106.555 142.618 106.643 142.503C106.748 142.377 106.885 142.282 107.04 142.23C107.242 142.155 107.456 142.119 107.671 142.125C107.838 142.125 108.004 142.142 108.168 142.175C108.32 142.203 108.467 142.253 108.605 142.324L108.351 142.885C108.242 142.82 108.123 142.773 107.999 142.746C107.889 142.723 107.778 142.711 107.666 142.711C107.564 142.704 107.462 142.721 107.368 142.761C107.345 142.77 107.324 142.786 107.309 142.806C107.295 142.826 107.286 142.85 107.284 142.875C107.284 142.898 107.292 142.92 107.305 142.939C107.318 142.957 107.337 142.972 107.358 142.98C107.421 143.009 107.488 143.029 107.557 143.039L107.835 143.079C107.935 143.09 108.035 143.108 108.133 143.133C108.231 143.159 108.325 143.199 108.411 143.253C108.495 143.301 108.564 143.371 108.61 143.456C108.663 143.555 108.688 143.667 108.684 143.779C108.686 143.921 108.639 144.06 108.55 144.171C108.446 144.298 108.311 144.394 108.158 144.45C107.947 144.522 107.725 144.554 107.502 144.544Z" fill="#263238"/>
<path d="M109.042 144.504V141.286H109.876V144.504H109.042ZM109.737 144.072L109.762 143.079L110.73 142.145H111.723L110.641 143.243L110.219 143.58L109.737 144.072ZM110.795 144.504L110.065 143.6L110.561 142.97L111.783 144.504H110.795Z" fill="#263238"/>
<path d="M114.296 144.564C114.08 144.564 113.865 144.538 113.655 144.484C113.461 144.442 113.275 144.368 113.104 144.266L113.412 143.62C113.669 143.778 113.964 143.866 114.266 143.873C114.391 143.879 114.514 143.849 114.624 143.789C114.665 143.765 114.699 143.73 114.723 143.688C114.746 143.646 114.758 143.599 114.758 143.551C114.759 143.492 114.741 143.435 114.708 143.387C114.661 143.333 114.599 143.295 114.529 143.277C114.409 143.25 114.285 143.238 114.162 143.243H113.327L113.481 141.47H115.443V142.135H113.799L114.241 141.758L114.142 142.955L113.695 142.577H114.38C114.631 142.567 114.882 142.61 115.115 142.701C115.282 142.771 115.423 142.891 115.518 143.044C115.608 143.194 115.655 143.366 115.655 143.541C115.655 143.716 115.608 143.887 115.518 144.037C115.413 144.205 115.261 144.339 115.081 144.42C114.834 144.529 114.565 144.579 114.296 144.564Z" fill="#263238"/>
<path d="M135.76 140.958H131.767C131.416 140.958 131.131 141.243 131.131 141.594V145.587C131.131 145.938 131.416 146.223 131.767 146.223H135.76C136.111 146.223 136.396 145.938 136.396 145.587V141.594C136.396 141.243 136.111 140.958 135.76 140.958Z" stroke="#888888" stroke-miterlimit="10"/>
<path d="M93.4625 147.648C95.9529 147.648 97.9718 145.629 97.9718 143.138C97.9718 140.648 95.9529 138.629 93.4625 138.629C90.972 138.629 88.9531 140.648 88.9531 143.138C88.9531 145.629 90.972 147.648 93.4625 147.648Z" fill="#455A64"/>
<path d="M93.1098 71.8132L92.5287 71.2322C92.4956 71.1992 92.4513 71.1797 92.4046 71.1776C92.3812 71.1776 92.3582 71.1824 92.3368 71.1919C92.3154 71.2013 92.2962 71.215 92.2804 71.2322C92.2639 71.2482 92.2509 71.2676 92.2424 71.289C92.2338 71.3104 92.2299 71.3333 92.2308 71.3563C92.2346 71.4002 92.252 71.4419 92.2804 71.4755L92.9856 72.1956C93.019 72.2278 93.0635 72.2458 93.1098 72.2458C93.1561 72.2458 93.2006 72.2278 93.2339 72.1956L94.6046 70.8249C94.622 70.8082 94.6357 70.7882 94.6451 70.766C94.6545 70.7438 94.6593 70.7199 94.6593 70.6958C94.6569 70.6492 94.6373 70.6051 94.6042 70.5721C94.5712 70.539 94.5271 70.5194 94.4805 70.517C94.4564 70.517 94.4325 70.5218 94.4103 70.5312C94.3881 70.5406 94.3681 70.5543 94.3513 70.5717L93.1098 71.8132ZM91.6894 73.5365C91.6443 73.5371 91.5995 73.5286 91.5577 73.5115C91.5159 73.4944 91.478 73.4692 91.4461 73.4372C91.4128 73.405 91.3865 73.3664 91.3685 73.3237C91.3506 73.281 91.3415 73.2352 91.3418 73.1889V69.7026C91.3415 69.6563 91.3506 69.6104 91.3685 69.5677C91.3865 69.5251 91.4128 69.4865 91.4461 69.4543C91.478 69.4223 91.5159 69.397 91.5577 69.38C91.5995 69.3629 91.6443 69.3544 91.6894 69.3549H92.8863C92.9041 69.2225 92.9715 69.1018 93.075 69.0172C93.1792 68.9334 93.3088 68.8877 93.4425 68.8877C93.5762 68.8877 93.7059 68.9334 93.81 69.0172C93.9135 69.1018 93.981 69.2225 93.9987 69.3549H95.1956C95.2416 69.3536 95.2875 69.3616 95.3303 69.3786C95.3731 69.3956 95.4119 69.4211 95.4445 69.4537C95.477 69.4863 95.5026 69.5251 95.5196 69.5679C95.5366 69.6107 95.5446 69.6566 95.5432 69.7026V73.1789C95.5446 73.225 95.5366 73.2708 95.5196 73.3136C95.5026 73.3564 95.477 73.3953 95.4445 73.4278C95.4119 73.4604 95.3731 73.4859 95.3303 73.5029C95.2875 73.5199 95.2416 73.528 95.1956 73.5266L91.6894 73.5365ZM93.4425 69.5635C93.4965 69.5635 93.5483 69.5421 93.5865 69.5039C93.6247 69.4657 93.6461 69.4139 93.6461 69.3599C93.6463 69.3339 93.6411 69.3081 93.6309 69.2841C93.6206 69.2602 93.6055 69.2387 93.5865 69.2208C93.5684 69.2007 93.5462 69.1845 93.5214 69.1734C93.4965 69.1624 93.4697 69.1567 93.4425 69.1567C93.4154 69.1567 93.3885 69.1624 93.3637 69.1734C93.3389 69.1845 93.3167 69.2007 93.2985 69.2208C93.2795 69.2387 93.2644 69.2602 93.2542 69.2841C93.2439 69.3081 93.2387 69.3339 93.2389 69.3599C93.2389 69.4139 93.2604 69.4657 93.2986 69.5039C93.3367 69.5421 93.3885 69.5635 93.4425 69.5635Z" fill="white"/>
<path d="M93.1098 89.7265L92.5287 89.1454C92.4956 89.1125 92.4513 89.093 92.4046 89.0908C92.3812 89.0908 92.3582 89.0957 92.3368 89.1051C92.3154 89.1145 92.2962 89.1282 92.2804 89.1454C92.2639 89.1615 92.2509 89.1808 92.2424 89.2022C92.2338 89.2236 92.2299 89.2466 92.2308 89.2696C92.2346 89.3135 92.252 89.3551 92.2804 89.3888L92.9856 90.1089C93.019 90.1411 93.0635 90.159 93.1098 90.159C93.1561 90.159 93.2006 90.1411 93.2339 90.1089L94.6046 88.7382C94.622 88.7215 94.6357 88.7014 94.6451 88.6792C94.6545 88.657 94.6593 88.6332 94.6593 88.6091C94.6581 88.5621 94.6384 88.5175 94.6046 88.4849C94.5882 88.4689 94.5688 88.4562 94.5475 88.4477C94.5262 88.4392 94.5034 88.4349 94.4805 88.4353C94.4567 88.4343 94.433 88.4381 94.4108 88.4467C94.3885 88.4552 94.3683 88.4683 94.3513 88.4849L93.1098 89.7265ZM91.6894 91.4498C91.6443 91.4503 91.5995 91.4418 91.5577 91.4248C91.5159 91.4077 91.478 91.3824 91.4461 91.3504C91.4128 91.3182 91.3865 91.2796 91.3685 91.237C91.3506 91.1943 91.3415 91.1484 91.3418 91.1021V87.5811C91.343 87.4888 91.3799 87.4006 91.4447 87.3349C91.5095 87.2691 91.5972 87.231 91.6894 87.2285H92.8863C92.9055 87.0965 92.9727 86.9762 93.075 86.8908C93.1792 86.8069 93.3088 86.7612 93.4425 86.7612C93.5762 86.7612 93.7059 86.8069 93.81 86.8908C93.9124 86.9762 93.9796 87.0965 93.9987 87.2285H95.1956C95.2417 87.2285 95.2873 87.2376 95.3298 87.2554C95.3723 87.2732 95.4109 87.2992 95.4432 87.332C95.4755 87.3648 95.501 87.4038 95.5182 87.4465C95.5354 87.4893 95.5439 87.535 95.5432 87.5811V91.0823C95.5446 91.1283 95.5366 91.1741 95.5196 91.2169C95.5026 91.2597 95.477 91.2986 95.4445 91.3311C95.4119 91.3637 95.3731 91.3893 95.3303 91.4063C95.2875 91.4232 95.2416 91.4313 95.1956 91.4299L91.6894 91.4498ZM93.4425 87.5016C93.4696 87.501 93.4963 87.4949 93.5211 87.4839C93.5458 87.4728 93.568 87.4569 93.5865 87.437C93.6057 87.4183 93.6208 87.3959 93.6311 87.3711C93.6413 87.3464 93.6464 87.3198 93.6461 87.293C93.6463 87.267 93.6411 87.2412 93.6309 87.2173C93.6206 87.1933 93.6055 87.1718 93.5865 87.154C93.5684 87.1338 93.5462 87.1176 93.5214 87.1066C93.4965 87.0955 93.4697 87.0898 93.4425 87.0898C93.4154 87.0898 93.3885 87.0955 93.3637 87.1066C93.3389 87.1176 93.3167 87.1338 93.2985 87.154C93.2795 87.1718 93.2644 87.1933 93.2542 87.2173C93.2439 87.2412 93.2387 87.267 93.2389 87.293C93.2386 87.3198 93.2438 87.3464 93.254 87.3711C93.2642 87.3959 93.2794 87.4183 93.2985 87.437C93.3347 87.4759 93.3846 87.499 93.4376 87.5016H93.4425Z" fill="white"/>
<path d="M93.1098 108.315L92.5287 107.734C92.4956 107.701 92.4513 107.682 92.4046 107.679C92.3812 107.679 92.3582 107.684 92.3368 107.694C92.3154 107.703 92.2962 107.717 92.2804 107.734C92.2645 107.75 92.2519 107.768 92.2434 107.789C92.2348 107.809 92.2305 107.831 92.2308 107.853C92.2336 107.899 92.251 107.942 92.2804 107.977L92.9856 108.698C93.019 108.73 93.0635 108.748 93.1098 108.748C93.1561 108.748 93.2006 108.73 93.2339 108.698L94.6046 107.322C94.6218 107.306 94.6355 107.287 94.6448 107.266C94.6542 107.244 94.659 107.221 94.659 107.198C94.659 107.174 94.6542 107.151 94.6448 107.13C94.6355 107.109 94.6218 107.089 94.6046 107.074C94.572 107.04 94.5274 107.02 94.4805 107.019C94.4564 107.019 94.4325 107.024 94.4103 107.033C94.3881 107.042 94.3681 107.056 94.3513 107.074L93.1098 108.315ZM91.6894 110.038C91.5972 110.036 91.5095 109.998 91.4447 109.932C91.3799 109.866 91.343 109.778 91.3418 109.686V106.209C91.3415 106.163 91.3506 106.117 91.3685 106.075C91.3865 106.032 91.4128 105.993 91.4461 105.961C91.478 105.929 91.5159 105.904 91.5577 105.887C91.5995 105.87 91.6443 105.861 91.6894 105.862H92.8863C92.9041 105.729 92.9715 105.609 93.075 105.524C93.1792 105.44 93.3088 105.395 93.4425 105.395C93.5762 105.395 93.7059 105.44 93.81 105.524C93.9135 105.609 93.981 105.729 93.9987 105.862H95.1956C95.2416 105.86 95.2875 105.869 95.3303 105.885C95.3731 105.902 95.4119 105.928 95.4445 105.961C95.477 105.993 95.5026 106.032 95.5196 106.075C95.5366 106.118 95.5446 106.163 95.5432 106.209V109.686C95.5439 109.732 95.5354 109.778 95.5182 109.82C95.501 109.863 95.4755 109.902 95.4432 109.935C95.4109 109.968 95.3723 109.994 95.3298 110.012C95.2873 110.029 95.2417 110.038 95.1956 110.038H91.6894ZM93.4425 106.065C93.4896 106.065 93.5353 106.049 93.5717 106.019C93.6081 105.989 93.633 105.948 93.6422 105.901C93.6513 105.855 93.6442 105.807 93.622 105.766C93.5998 105.724 93.5638 105.692 93.5203 105.674C93.4768 105.656 93.4283 105.653 93.3833 105.667C93.3382 105.681 93.2993 105.71 93.2731 105.749C93.2469 105.788 93.2352 105.835 93.2398 105.882C93.2444 105.929 93.2652 105.973 93.2985 106.006C93.3149 106.028 93.3357 106.047 93.3597 106.06C93.3836 106.074 93.4101 106.082 93.4376 106.085L93.4425 106.065Z" fill="white"/>
<path d="M93.13 143.59L92.544 143.009C92.5282 142.992 92.509 142.978 92.4877 142.969C92.4663 142.96 92.4432 142.955 92.4199 142.955C92.3974 142.955 92.3752 142.961 92.3547 142.97C92.3343 142.979 92.3159 142.993 92.3007 143.009C92.2833 143.025 92.2697 143.044 92.2611 143.065C92.2525 143.087 92.249 143.11 92.251 143.133C92.2526 143.178 92.2702 143.22 92.3007 143.253L93.0059 143.973C93.0219 143.989 93.0413 144.002 93.0627 144.011C93.084 144.019 93.107 144.023 93.13 144.022C93.1522 144.023 93.1742 144.018 93.1947 144.01C93.2152 144.001 93.2338 143.989 93.2492 143.973L94.6249 142.602C94.6416 142.585 94.6546 142.565 94.6631 142.543C94.6716 142.52 94.6755 142.497 94.6745 142.473C94.6749 142.45 94.6706 142.427 94.6621 142.406C94.6536 142.385 94.6409 142.365 94.6249 142.349C94.6079 142.332 94.5877 142.319 94.5655 142.311C94.5433 142.302 94.5195 142.298 94.4958 142.299C94.4728 142.299 94.45 142.303 94.4287 142.312C94.4074 142.32 94.388 142.333 94.3716 142.349L93.13 143.59ZM91.7097 145.314C91.6172 145.314 91.5282 145.278 91.4614 145.214C91.4288 145.182 91.4032 145.143 91.3861 145.1C91.369 145.058 91.3608 145.012 91.3621 144.966V141.46C91.3603 141.415 91.3682 141.369 91.3854 141.327C91.4025 141.285 91.4284 141.248 91.4614 141.216C91.4936 141.183 91.5322 141.157 91.5749 141.139C91.6175 141.121 91.6634 141.112 91.7097 141.112H92.9066C92.9138 141.046 92.9343 140.982 92.9667 140.924C92.9991 140.866 93.0428 140.815 93.0953 140.774C93.1984 140.689 93.3288 140.643 93.4628 140.645C93.5966 140.644 93.7267 140.69 93.8303 140.774C93.9315 140.86 93.9971 140.981 94.014 141.112H95.2109C95.3032 141.113 95.3914 141.15 95.4571 141.215C95.5228 141.28 95.5609 141.368 95.5635 141.46V144.966C95.5635 145.012 95.5543 145.058 95.5366 145.1C95.5188 145.143 95.4927 145.181 95.4599 145.214C95.4271 145.246 95.3882 145.271 95.3454 145.289C95.3027 145.306 95.257 145.314 95.2109 145.314H91.7097ZM93.4628 141.341C93.4888 141.341 93.5146 141.336 93.5385 141.325C93.5625 141.315 93.584 141.3 93.6018 141.281C93.6226 141.263 93.6392 141.241 93.6504 141.216C93.6615 141.191 93.667 141.164 93.6664 141.137C93.6619 141.085 93.639 141.035 93.6017 140.998C93.5645 140.961 93.5153 140.938 93.4628 140.933C93.4355 140.933 93.4084 140.938 93.3835 140.949C93.3586 140.961 93.3365 140.977 93.3188 140.998C93.2998 141.016 93.2847 141.037 93.2744 141.061C93.2642 141.085 93.259 141.111 93.2592 141.137C93.2592 141.164 93.2644 141.19 93.2747 141.215C93.2849 141.24 93.2999 141.262 93.3188 141.281C93.3377 141.3 93.3601 141.315 93.3849 141.325C93.4096 141.335 93.436 141.341 93.4628 141.341Z" fill="white"/>
<path d="M93.1297 125.672L92.5436 125.086C92.5279 125.069 92.5087 125.055 92.4873 125.046C92.4659 125.036 92.4428 125.032 92.4195 125.031C92.397 125.032 92.3748 125.037 92.3544 125.047C92.3339 125.056 92.3155 125.07 92.3003 125.086C92.2829 125.102 92.2694 125.121 92.2608 125.142C92.2521 125.164 92.2487 125.187 92.2506 125.21C92.2522 125.255 92.2699 125.297 92.3003 125.329L93.0055 126.05C93.0213 126.067 93.0405 126.081 93.0619 126.09C93.0832 126.099 93.1063 126.104 93.1297 126.104C93.1522 126.104 93.1743 126.098 93.1948 126.089C93.2152 126.08 93.2336 126.066 93.2488 126.05L94.6245 124.679C94.6406 124.662 94.6532 124.643 94.6617 124.622C94.6703 124.6 94.6745 124.578 94.6742 124.555C94.6756 124.531 94.672 124.507 94.6635 124.485C94.655 124.462 94.6419 124.442 94.625 124.425C94.6081 124.408 94.5878 124.395 94.5655 124.387C94.5431 124.378 94.5192 124.374 94.4954 124.376C94.4724 124.376 94.4496 124.38 94.4283 124.388C94.407 124.397 94.3876 124.41 94.3712 124.426L93.1297 125.672ZM91.7093 127.39C91.6168 127.391 91.5278 127.355 91.461 127.291C91.4284 127.259 91.4028 127.22 91.3857 127.177C91.3686 127.135 91.3605 127.089 91.3617 127.043V123.542C91.3595 123.496 91.3673 123.45 91.3844 123.407C91.4015 123.364 91.4277 123.325 91.461 123.293C91.4932 123.26 91.5318 123.234 91.5745 123.216C91.6172 123.198 91.663 123.189 91.7093 123.189H92.9062C92.9141 123.124 92.9348 123.061 92.9672 123.004C92.9996 122.947 93.043 122.897 93.0949 122.856C93.1964 122.767 93.3275 122.72 93.4624 122.722C93.5972 122.72 93.7279 122.768 93.8299 122.856C93.8809 122.897 93.9233 122.947 93.9549 123.004C93.9864 123.061 94.0064 123.124 94.0137 123.189H95.2105C95.3036 123.19 95.3926 123.228 95.4584 123.294C95.5243 123.36 95.5618 123.449 95.5631 123.542V127.043C95.5631 127.089 95.554 127.135 95.5362 127.177C95.5184 127.22 95.4924 127.258 95.4595 127.29C95.4267 127.323 95.3878 127.348 95.3451 127.365C95.3023 127.383 95.2566 127.391 95.2105 127.39H91.7093ZM93.4624 123.442C93.489 123.443 93.5153 123.437 93.5394 123.426C93.5635 123.415 93.5847 123.398 93.6014 123.378C93.6216 123.361 93.6378 123.339 93.6489 123.315C93.6601 123.291 93.6659 123.265 93.666 123.239C93.6666 123.211 93.6612 123.184 93.65 123.159C93.6388 123.134 93.6222 123.112 93.6014 123.095C93.5847 123.074 93.5635 123.057 93.5394 123.046C93.5153 123.035 93.489 123.03 93.4624 123.03C93.4351 123.029 93.408 123.035 93.3831 123.046C93.3582 123.057 93.3361 123.074 93.3184 123.095C93.2993 123.113 93.2841 123.136 93.2739 123.161C93.2636 123.185 93.2585 123.212 93.2588 123.239C93.2589 123.265 93.2642 123.29 93.2744 123.314C93.2847 123.338 93.2996 123.36 93.3184 123.378C93.3361 123.399 93.3582 123.415 93.3831 123.426C93.408 123.437 93.4351 123.443 93.4624 123.442Z" fill="white"/>
<path d="M34.99 68.3673C39.4793 66.4642 41.5759 61.2822 39.6728 56.7928C37.7697 52.3035 32.5877 50.207 28.0984 52.11C23.609 54.0131 21.5125 59.1952 23.4156 63.6845C25.3186 68.1738 30.5007 70.2704 34.99 68.3673Z" fill="#F5F5F5"/>
<path d="M34.3072 66.8745C37.9813 65.3758 39.7449 61.1825 38.2463 57.5083C36.7476 53.8342 32.5543 52.0706 28.8801 53.5692C25.206 55.0679 23.4424 59.2612 24.9411 62.9354C26.4397 66.6095 30.6331 68.3731 34.3072 66.8745Z" fill="#E0E0E0"/>
<path d="M33.5838 64.9596C36.2006 63.8607 37.431 60.8486 36.3321 58.2318C35.2332 55.615 32.221 54.3846 29.6043 55.4835C26.9875 56.5824 25.7571 59.5945 26.856 62.2113C27.9549 64.8281 30.967 66.0585 33.5838 64.9596Z" fill="#263238"/>
<path d="M33.5403 60.5408C33.7143 59.4668 32.9846 58.4551 31.9106 58.2811C30.8366 58.1072 29.8249 58.8368 29.6509 59.9109C29.477 60.9849 30.2066 61.9966 31.2806 62.1705C32.3547 62.3445 33.3664 61.6148 33.5403 60.5408Z" fill="#E0E0E0"/>
<path d="M55.5161 36.6014C57.3453 30.0412 53.51 23.2402 46.9497 21.411C40.3895 19.5818 33.5885 23.4171 31.7593 29.9774C29.9301 36.5376 33.7654 43.3386 40.3257 45.1678C46.8859 46.997 53.6869 43.1617 55.5161 36.6014Z" fill="#F5F5F5"/>
<path d="M50.3741 39.462L48.5659 37.3697V32.3586C48.5632 31.1869 48.1415 30.0549 47.3769 29.1671C46.6122 28.2793 45.5552 27.6943 44.3969 27.518V25.4128H43.0769V27.4792C41.8829 27.6216 40.7827 28.1974 39.9852 29.0973C39.1876 29.9973 38.7482 31.1587 38.7503 32.3612V37.1295L36.9189 39.4542H41.9172C42.0362 39.7704 42.231 40.0526 42.4844 40.276C42.7378 40.4994 43.0422 40.6573 43.3708 40.7358C43.6993 40.8143 44.0422 40.8111 44.3692 40.7264C44.6963 40.6416 44.9976 40.478 45.2467 40.2498C45.4842 40.0292 45.6665 39.7558 45.7788 39.4517L50.3741 39.462Z" fill="#455A64"/>
<path d="M49.9553 30.7243C49.9553 31.0481 49.8592 31.3646 49.6793 31.6339C49.4994 31.9031 49.2437 32.113 48.9445 32.2369C48.6453 32.3608 48.3161 32.3933 47.9985 32.3301C47.6809 32.2669 47.3892 32.111 47.1602 31.882C46.9312 31.653 46.7753 31.3613 46.7121 31.0437C46.6489 30.7261 46.6814 30.3969 46.8053 30.0977C46.9292 29.7985 47.1391 29.5428 47.4083 29.3629C47.6776 29.183 47.9941 29.087 48.318 29.087C48.533 29.087 48.7459 29.1293 48.9445 29.2116C49.1432 29.2939 49.3237 29.4145 49.4757 29.5665C49.6277 29.7186 49.7483 29.8991 49.8306 30.0977C49.9129 30.2963 49.9553 30.5092 49.9553 30.7243Z" fill="#66AC47"/>
<path d="M39.3473 82.3481C34.8114 81.5766 30.817 83.3235 27.0044 85.8788C23.1917 88.4342 20.3025 92.2914 18.6373 96.5788C16.8867 101.096 16.4602 106.177 17.8065 110.828C19.1528 115.479 22.3387 119.648 26.6594 121.839C32.5565 124.836 40.0965 123.79 45.3741 119.803C50.6518 115.816 53.667 109.218 53.9044 102.609C54.0787 98.0549 52.9883 93.3966 50.4441 89.6285C47.8998 85.8603 43.8387 83.0231 39.3176 82.3629" fill="#263238"/>
<path d="M26.4518 97.7656C27.1157 96.0299 26.8598 94.0939 27.1194 92.2543C27.698 88.208 30.9617 84.9628 34.7336 83.3828C38.2421 81.8993 42.5221 82.2368 46.7538 83.6016C49.6504 84.54 52.3801 86.1718 54.3124 88.5269C55.5831 90.106 56.4581 91.9658 56.8646 93.9515C57.271 95.9372 57.1971 97.9913 56.6489 99.9427L35.9389 96.9274C33.9992 98.5333 32.015 100.161 29.6599 101.059C28.982 101.358 28.2386 101.476 27.5014 101.404C27.1332 101.36 26.7854 101.211 26.4994 100.975C26.2134 100.739 26.0012 100.426 25.888 100.072C25.6989 99.2751 26.1662 98.5333 26.4518 97.7656Z" fill="#263238"/>
<path d="M47.1993 89.3206L29.1151 93.1518C28.2718 93.2083 27.4804 93.5792 26.8973 94.1911C26.3143 94.803 25.9821 95.6113 25.9663 96.4564L26.1814 135.584C26.1972 138.258 27.0926 140.851 28.7294 142.965L30.454 145.19C34.3853 150.26 42.3518 149.748 45.3523 144.078C45.5359 143.756 45.6768 143.412 45.7714 143.054C45.8431 142.763 45.9 142.468 45.942 142.171L46.2832 138.355C46.4612 134.872 46.4835 131.334 46.4872 131.364C46.4909 131.393 53.8862 130.429 55.7815 120.897C56.7235 116.154 56.7865 108.325 56.6345 101.916C56.4935 96.1448 52.9553 88.9349 47.1993 89.3206Z" fill="#FFBF9D"/>
<path d="M53.8823 109.259C53.8726 109.58 53.7381 109.884 53.5075 110.107C53.2768 110.33 52.9681 110.455 52.6472 110.453C52.4901 110.46 52.3332 110.435 52.186 110.38C52.0387 110.324 51.904 110.24 51.7899 110.132C51.6757 110.024 51.5845 109.893 51.5215 109.749C51.4586 109.605 51.4252 109.45 51.4233 109.293C51.4339 108.973 51.5682 108.67 51.7979 108.447C52.0275 108.224 52.3347 108.099 52.6547 108.098C52.8121 108.091 52.9694 108.116 53.1171 108.171C53.2648 108.226 53.3999 108.31 53.5145 108.419C53.629 108.527 53.7206 108.657 53.7837 108.802C53.8469 108.946 53.8804 109.102 53.8823 109.259Z" fill="#263238"/>
<path d="M54.7801 105.918C54.6206 106.073 53.7156 105.346 52.3916 105.298C51.0676 105.25 50.0699 105.873 49.9327 105.706C49.8659 105.632 50.0328 105.335 50.4667 105.057C51.0562 104.683 51.7462 104.499 52.4435 104.53C53.1317 104.555 53.7942 104.798 54.335 105.224C54.7282 105.554 54.858 105.847 54.7801 105.918Z" fill="#263238"/>
<path d="M42.018 108.959C42.0084 109.28 41.874 109.585 41.6434 109.808C41.4129 110.032 41.1042 110.157 40.783 110.157C40.6258 110.163 40.469 110.138 40.3217 110.083C40.1744 110.028 40.0397 109.943 39.9256 109.835C39.8115 109.727 39.7202 109.597 39.6573 109.453C39.5943 109.308 39.5609 109.153 39.5591 108.996C39.5687 108.676 39.7028 108.373 39.9328 108.15C40.1628 107.928 40.4705 107.804 40.7904 107.805C40.9471 107.799 41.1036 107.824 41.2506 107.879C41.3976 107.933 41.5322 108.017 41.6465 108.124C41.7608 108.232 41.8525 108.361 41.9163 108.504C41.9801 108.647 42.0147 108.802 42.018 108.959Z" fill="#263238"/>
<path d="M42.2069 105.58C42.0475 105.736 41.1425 105.009 39.8185 104.961C38.4944 104.912 37.5005 105.536 37.3632 105.369C37.2928 105.294 37.4597 104.998 37.8973 104.72C38.4854 104.346 39.1743 104.162 39.8704 104.193C40.5586 104.217 41.2211 104.46 41.7619 104.887C42.1587 105.231 42.2848 105.524 42.2069 105.58Z" fill="#263238"/>
<path d="M46.1789 115.664C46.1789 115.586 47.006 115.479 48.3449 115.36C48.6824 115.338 49.005 115.282 49.0866 115.052C49.129 114.705 49.0643 114.353 48.9012 114.044L47.9999 111.447C46.7538 107.739 45.8674 104.679 46.0157 104.627C46.1641 104.575 47.299 107.553 48.5451 111.273C48.8443 112.188 49.1299 113.063 49.4019 113.899C49.5168 114.288 49.7171 114.733 49.5243 115.234C49.4709 115.351 49.3913 115.455 49.2916 115.536C49.1919 115.618 49.0749 115.676 48.9494 115.705C48.7612 115.75 48.5679 115.77 48.3745 115.764C47.0134 115.764 46.1826 115.738 46.1789 115.664Z" fill="#263238"/>
<path d="M46.4868 131.364C41.9672 131.258 37.5657 129.9 33.7729 127.44C33.7729 127.44 36.74 134.205 46.3829 133.682L46.4868 131.364Z" fill="#FF9A6C"/>
<path d="M45.4965 118.832C45.2557 118.505 44.9362 118.246 44.5678 118.076C44.1995 117.907 43.7942 117.834 43.3899 117.864C43.0972 117.878 42.8105 117.951 42.5466 118.078C42.2828 118.206 42.0474 118.385 41.8544 118.605C41.6689 118.819 41.5536 119.085 41.5244 119.366C41.4952 119.647 41.5535 119.931 41.6913 120.178C42.0288 120.693 42.7705 120.838 43.4084 120.686C44.0421 120.487 44.6305 120.166 45.1404 119.74C45.2931 119.642 45.4263 119.516 45.5336 119.369C45.5833 119.297 45.61 119.212 45.61 119.125C45.61 119.037 45.5833 118.952 45.5336 118.88" fill="#FF9A6C"/>
<path d="M42.2479 116.428C42.463 116.428 42.411 117.86 43.6016 118.928C44.7921 119.996 46.3275 119.896 46.3312 120.1C46.3312 120.189 45.9789 120.363 45.3299 120.356C44.4879 120.337 43.6799 120.02 43.049 119.462C42.4428 118.925 42.069 118.174 42.0068 117.367C41.9771 116.766 42.1514 116.417 42.2479 116.428Z" fill="#263238"/>
<path d="M42.1327 101.664C41.9881 102.034 40.6715 101.797 39.1138 101.923C37.5561 102.049 36.2802 102.428 36.0874 102.094C35.9984 101.938 36.232 101.608 36.7512 101.278C37.4442 100.878 38.2189 100.641 39.0169 100.585C39.8148 100.528 40.6152 100.653 41.3576 100.951C41.9213 101.204 42.1958 101.5 42.1327 101.664Z" fill="#263238"/>
<path d="M54.6204 100.113C54.3757 100.406 53.4744 100.058 52.3952 99.9983C51.3159 99.939 50.359 100.124 50.1699 99.8017C50.0809 99.646 50.2403 99.3493 50.6557 99.0785C51.2152 98.7605 51.8562 98.6148 52.4981 98.6597C53.1401 98.7045 53.7546 98.938 54.2644 99.3307C54.613 99.646 54.728 99.9686 54.6204 100.113Z" fill="#263238"/>
<path d="M23.1401 94.9729C24.9945 89.4653 33.1984 81.9623 38.9916 82.4853L48.1449 88.2265C47.8115 89.8006 47.0594 91.2554 45.968 92.4376C44.8765 93.6198 43.4863 94.4854 41.9438 94.9432C40.2934 95.4105 38.3203 95.5069 37.3189 96.8977C36.3175 98.2885 36.8331 100.421 35.8799 101.886C34.5558 103.915 31.0584 103.74 30.0422 105.966C29.6046 106.926 29.8011 108.095 29.3412 109.048C28.733 110.32 25.4507 111.885 24.1155 111.433C22.7804 110.98 22.8212 108.688 22.4021 107.479C21.6937 105.417 22.0312 104.36 22.2945 103.218C22.9324 100.506 22.2463 97.5987 23.1401 94.9729Z" fill="#263238"/>
<path d="M28.0579 112.627C28.0838 111.911 27.3161 110.194 26.6225 110.057C24.7681 109.686 21.3486 109.712 21.1298 114.507C20.8331 121.046 27.4607 119.996 27.4793 119.811C27.4978 119.625 27.9688 115.101 28.0579 112.627Z" fill="#FFBF9D"/>
<path d="M25.5954 117.233C25.5694 117.211 25.4767 117.307 25.2838 117.389C25.0074 117.493 24.7014 117.485 24.4308 117.367C23.7521 117.081 23.218 115.957 23.2403 114.77C23.2492 114.209 23.3835 113.656 23.6334 113.153C23.7041 112.952 23.8228 112.771 23.9792 112.625C24.1355 112.48 24.3249 112.375 24.5309 112.319C24.663 112.291 24.8006 112.31 24.9203 112.372C25.0401 112.434 25.1345 112.536 25.1874 112.66C25.269 112.849 25.2208 112.979 25.2542 112.99C25.2875 113.001 25.3988 112.886 25.358 112.619C25.3285 112.456 25.2449 112.307 25.1206 112.197C24.9467 112.052 24.7226 111.983 24.4976 112.004C24.227 112.044 23.9714 112.153 23.7552 112.321C23.5389 112.489 23.3693 112.709 23.2625 112.961C22.9573 113.514 22.793 114.135 22.7841 114.767C22.7656 116.087 23.3849 117.363 24.3158 117.667C24.489 117.726 24.6733 117.745 24.855 117.724C25.0367 117.702 25.2111 117.639 25.3654 117.541C25.5768 117.393 25.6176 117.248 25.5954 117.233Z" fill="#FF9A6C"/>
<path d="M46.2422 86.246C46.8467 88.9089 50.893 92.3248 52.6696 94.4054C56.0557 98.359 56.7233 99.6719 56.6899 108.499C58.2921 105.447 59.516 102.454 59.3936 99.008C59.2712 95.5626 58.0028 92.1134 55.6069 89.6322C53.211 87.151 49.6543 85.7453 46.2422 86.2386" fill="#263238"/>
<path d="M29.8604 78.7987C28.3287 77.4598 26.2703 76.707 24.1822 76.4288C21.1962 75.9963 18.1521 76.5983 15.5555 78.1348C13.0595 79.6925 11.2904 82.2813 11.0567 85.0555C10.9503 86.4771 11.2348 87.9007 11.8794 89.1722C12.524 90.4437 13.5041 91.5147 14.7136 92.2691C13.3725 93.9049 11.6561 95.1925 9.71045 96.0224C10.0672 96.393 10.4944 96.6886 10.967 96.8918C11.4396 97.0949 11.948 97.2016 12.4624 97.2056C13.5041 97.2191 14.5429 97.0943 15.5518 96.8347C14.9701 97.9613 14.0084 98.8455 12.837 99.3307C14.5481 99.5255 16.2805 99.2698 17.8624 98.5889C19.409 97.9221 20.8636 97.0596 22.1906 96.0224C26.8192 92.5844 29.267 89.7583 32.1117 84.9368C32.3342 83.0045 31.3959 80.1413 29.8604 78.7987Z" fill="#263238"/>
<path d="M25.6025 123.594C27.1735 123.594 28.4471 122.32 28.4471 120.749C28.4471 119.178 27.1735 117.904 25.6025 117.904C24.0314 117.904 22.7578 119.178 22.7578 120.749C22.7578 122.32 24.0314 123.594 25.6025 123.594Z" fill="#455A64"/>
<path d="M20.7183 93.5783C23.7521 87.8556 28.058 84.488 32.1488 83.1306Z" fill="#263238"/>
<path d="M32.1488 83.1306C31.9657 83.2293 31.7747 83.3124 31.5777 83.3791C31.2068 83.5312 30.6727 83.75 30.0385 84.0875C28.386 84.9491 26.8639 86.0405 25.5175 87.329C24.1726 88.6197 22.9759 90.0565 21.9496 91.6127C21.5787 92.2135 21.2523 92.7031 21.0558 93.0517C20.9586 93.2366 20.8457 93.4128 20.7183 93.5783C20.793 93.3834 20.8836 93.1948 20.989 93.0146C21.167 92.6437 21.4637 92.1542 21.8346 91.5311C22.8345 89.9406 24.0266 88.4794 25.3839 87.1806C26.7427 85.8787 28.2923 84.7919 29.9792 83.9577C30.4891 83.7063 31.0144 83.487 31.5517 83.3012C31.7463 83.2298 31.9459 83.1728 32.1488 83.1306Z" fill="#455A64"/>
<path d="M16.8945 98.5964L16.9798 98.6149L17.2246 98.6817C17.4397 98.7484 17.7587 98.83 18.1741 98.9227C19.3462 99.1725 20.5442 99.2796 21.742 99.2417C23.5182 99.1741 25.2766 98.8621 26.9677 98.3145C29.0343 97.6301 31.0312 96.7509 32.9314 95.6887C34.9639 94.576 36.8739 93.4634 38.5688 92.373C40.0725 91.4241 41.5031 90.3641 42.8488 89.2019C43.7529 88.415 44.5937 87.5581 45.3634 86.6392C45.6415 86.3165 45.8381 86.0532 45.9753 85.8751L46.1348 85.6749C46.1516 85.6512 46.1715 85.63 46.1942 85.6118C46.1942 85.6118 46.1942 85.6415 46.1496 85.686L46.0087 85.8974C45.8789 86.0828 45.6935 86.3573 45.4227 86.6874C44.6714 87.6301 43.84 88.5062 42.9378 89.3058C41.5991 90.4878 40.1706 91.5641 38.6653 92.525C36.9703 93.6154 35.064 94.7503 33.0242 95.863C31.1125 96.9308 29.1015 97.8102 27.0196 98.4888C25.3123 99.0329 23.5369 99.3337 21.7457 99.3826C20.538 99.4134 19.3314 99.2887 18.1555 99.0118C17.7439 98.9042 17.4138 98.8115 17.2135 98.7336L16.9761 98.6483C16.9466 98.635 16.9191 98.6175 16.8945 98.5964Z" fill="#455A64"/>
<path d="M72.5352 159.021L79.4783 180.72L96.9341 174.968L104.092 178.972C104.092 178.972 80.7415 196.165 77.3999 196.625C74.0583 197.085 68.0923 196.134 65.5207 191.232C63.1664 186.768 58.1146 164.744 58.1146 164.744L72.5352 159.021Z" fill="#FFBF9D"/>
<path d="M119.234 154.773C119.129 154.576 118.975 154.409 118.787 154.289C118.599 154.17 118.384 154.1 118.161 154.089L110.479 153.671C110.145 153.658 109.812 153.715 109.501 153.839C109.191 153.963 108.91 154.151 108.677 154.391L88.5162 175.265L89.5815 176.163L97.908 177.507L119.41 155.109L119.234 154.773Z" fill="#455A64"/>
<path d="M113.335 156.849C113.377 156.956 113.451 157.047 113.547 157.11C113.643 157.172 113.756 157.203 113.87 157.197C113.985 157.192 114.095 157.15 114.184 157.078C114.274 157.007 114.338 156.909 114.369 156.799C114.4 156.688 114.395 156.571 114.355 156.463C114.315 156.356 114.243 156.264 114.148 156.2C114.052 156.136 113.94 156.104 113.825 156.108C113.711 156.112 113.6 156.152 113.51 156.222C113.405 156.284 113.329 156.384 113.297 156.501C113.264 156.617 113.278 156.742 113.335 156.849Z" fill="white"/>
<path d="M119.411 155.109C118.908 155.152 118.402 155.154 117.899 155.115L113.814 154.962L110.995 154.832C110.76 154.807 110.522 154.836 110.3 154.915C110.077 154.994 109.875 155.122 109.709 155.289L108.558 156.491C106.966 158.139 105.244 159.948 103.405 161.84C99.7404 165.626 96.4016 169.036 93.9815 171.488C92.8009 172.668 91.8235 173.639 91.0876 174.377C90.746 174.743 90.376 175.082 89.9809 175.39C90.274 174.985 90.6004 174.604 90.9566 174.253L93.7488 171.265C96.1235 168.756 99.4344 165.313 103.085 161.521L108.27 156.201L109.442 155.007C109.649 154.804 109.898 154.649 110.172 154.554C110.446 154.459 110.738 154.426 111.026 154.456L113.849 154.625L117.928 154.924C118.426 154.947 118.922 155.009 119.411 155.109Z" fill="#263238"/>
<path d="M109.459 162.041C109.459 162.041 108.816 161.792 108.095 163.545C107.374 165.298 105.189 170.303 105.189 170.303L102.052 167.773L97.5725 167.495C97.5725 167.495 96.4479 168.192 97.0547 168.804C97.6614 169.416 100.329 170.447 100.329 170.447L101.801 173.773L96.4951 169.821C96.4951 169.821 94.4454 169.95 94.7865 171.251C95.1277 172.552 98.3492 177.044 98.3492 177.044L95.4792 176.258L92.4042 173.468C92.4042 173.468 91.3245 173.308 91.5488 174.296C91.7731 175.284 94.7406 179.274 94.7406 179.274L98.7231 182.255C98.7231 182.255 101.159 182.533 101.525 181.871C101.788 181.344 101.996 180.79 102.143 180.219C102.143 180.219 103.484 180.124 103.84 179.551C104.082 179.059 104.217 178.521 104.236 177.973C104.236 177.973 106.165 178.724 106.631 177.643C107.097 176.562 107.311 174.345 107.274 173.446C107.236 172.547 109.834 164.788 109.8 164.532C109.767 164.276 110.825 161.758 109.459 162.041Z" fill="#FFBF9D"/>
<path d="M101.675 181.912C101.666 181.963 101.222 182.07 100.458 182.054C98.4561 181.953 96.5679 181.093 95.1777 179.649C94.6572 179.099 94.432 178.681 94.4762 178.648C94.5781 178.551 95.7394 180.026 97.7816 180.931C99.8238 181.837 101.68 181.769 101.675 181.912Z" fill="#FF9A6C"/>
<path d="M100.943 180.134C100.854 180.223 100.154 179.664 99.4561 178.819C98.7584 177.974 98.3332 177.185 98.4382 177.111C98.5432 177.037 99.1219 177.696 99.8106 178.51C100.499 179.323 101.035 180.028 100.943 180.134Z" fill="#FF9A6C"/>
<path d="M103.986 176.791C103.9 176.88 103.206 176.33 102.566 175.458C101.927 174.586 101.607 173.761 101.72 173.704C101.833 173.647 102.317 174.348 102.944 175.188C103.571 176.027 104.079 176.699 103.986 176.791Z" fill="#FF9A6C"/>
<path d="M107.009 174.207C106.879 174.234 106.599 173.323 106.077 172.292C105.555 171.262 105.003 170.483 105.099 170.395C105.195 170.308 105.941 170.985 106.487 172.085C107.034 173.184 107.13 174.189 107.009 174.207Z" fill="#FF9A6C"/>
<path d="M73.9767 158.987C73.9767 158.987 66.9299 147.252 64.9717 144.893C63.4005 143.056 61.4253 141.608 59.2008 140.662C58.322 140.281 57.4005 140.009 56.4562 139.849L46.32 137.606C46.32 137.606 46.231 142.205 38.9766 142.472C30.6318 142.779 25.7028 135.284 25.7028 135.284C25.7028 135.284 13.994 137.094 11.1902 138.533C8.38632 139.972 3.98396 141.808 1.54727 153.939L-0.151367 165.807L20.0394 167.662L21.9717 197.662L31.9855 204.635C31.9855 204.635 59.746 211.852 61.5188 212.331C63.2916 212.809 63.8813 167.662 63.8813 167.662C63.8813 167.662 71.0244 163.044 73.9767 158.987Z" fill="#66AC47"/>
<path d="M19.928 154.065C19.9836 154.065 20.0949 157.604 20.1802 161.973C20.2655 166.342 20.2951 169.88 20.2395 169.88C20.1839 169.88 20.0763 166.345 19.9873 161.976C19.8983 157.607 19.8761 154.065 19.928 154.065Z" fill="#263238"/>
<path d="M60.4653 153.947C60.5117 153.999 60.5504 154.058 60.5803 154.121C60.6582 154.262 60.7583 154.433 60.877 154.648C60.9957 154.863 61.1589 155.156 61.3184 155.49C61.4778 155.823 61.6892 156.198 61.8524 156.632C62.2955 157.635 62.6746 158.666 62.9873 159.718C63.3601 161.008 63.6402 162.323 63.8255 163.653C64.1306 166.073 64.2014 168.517 64.0369 170.952C63.9739 171.883 63.9145 172.635 63.8515 173.155C63.8255 173.396 63.7995 173.596 63.7847 173.752C63.7811 173.823 63.7674 173.893 63.7439 173.959C63.7391 173.889 63.7391 173.818 63.7439 173.748L63.7773 173.147C63.8144 172.628 63.8552 171.875 63.8997 170.944C64.0251 168.519 63.9358 166.088 63.6327 163.679C63.3135 161.274 62.6736 158.922 61.73 156.687C61.5594 156.254 61.3592 155.875 61.2219 155.538C61.0847 155.2 60.9289 154.915 60.8102 154.681L60.5469 154.14C60.5128 154.078 60.4854 154.014 60.4653 153.947Z" fill="#263238"/>
<path d="M48.8457 138.147C48.8572 138.574 48.8149 139 48.7196 139.416C48.4683 140.565 47.902 141.622 47.084 142.468C45.8375 143.691 44.2588 144.52 42.5444 144.853C40.4627 145.284 38.3127 145.264 36.2394 144.793C34.1713 144.335 32.1886 143.553 30.3647 142.475C28.8683 141.611 27.4811 140.57 26.2331 139.375C25.3958 138.568 24.6324 137.688 23.9521 136.745C23.7148 136.408 23.5553 136.13 23.4403 135.952C23.3778 135.861 23.322 135.765 23.2734 135.666C23.3461 135.748 23.4118 135.836 23.47 135.929C23.5998 136.104 23.7667 136.374 24.0152 136.701C24.7139 137.621 25.4867 138.483 26.3258 139.278C27.5784 140.45 28.9638 141.47 30.4537 142.32C32.266 143.378 34.2316 144.149 36.2802 144.604C38.3271 145.071 40.4499 145.096 42.5073 144.678C44.1928 144.362 45.7497 143.562 46.9876 142.375C47.7981 141.553 48.372 140.529 48.6491 139.408C48.7217 139.103 48.775 138.793 48.8086 138.481C48.8103 138.369 48.8227 138.257 48.8457 138.147Z" fill="#263238"/>
<path d="M59.8278 203.122L21.8087 194.829L20.0545 167.658L3.146 166.093C3.146 166.093 3.77279 184.67 4.42183 190.2C5.36016 198.141 10.0518 208.982 12.8 211.144C15.5483 213.306 61.5338 212.335 61.5338 212.335L59.8278 203.122Z" fill="#FFBF9D"/>
<path d="M81.4053 208.029C81.2767 208.29 81.0736 208.509 80.8216 208.656C80.5696 208.803 80.2798 208.872 79.9885 208.856C79.8626 208.844 79.7382 208.82 79.6176 208.781C78.7757 208.511 78.8573 206.797 78.8573 206.797L74.8259 206.141C74.8259 206.141 69.589 209.52 67.7235 211.76C65.858 214 61.1033 212.182 61.1033 212.182L59.4565 203.597L66.8742 196.891C66.8742 196.891 66.4217 197.288 66.9335 196.034C67.4453 194.781 69.7745 195.255 69.7745 195.255C70.1453 194.636 71.6585 194.414 71.6585 194.414L78.1638 195.155C78.8258 195.231 79.4624 195.454 80.0266 195.808C80.5908 196.163 81.0683 196.639 81.4238 197.203L84.1721 201.557C84.1721 201.557 85.6259 204.691 85.3923 205.421C85.0399 206.534 83.8754 206.274 83.8754 206.274C83.8754 206.274 83.5564 208.336 83.0149 208.407C82.4734 208.477 81.4053 208.036 81.4053 208.036V208.029Z" fill="#FFBF9D"/>
<path d="M67.5679 201.861C67.5679 201.931 68.4394 201.861 69.8302 201.909C71.6364 201.997 73.4221 202.331 75.1376 202.903C76.0796 203.22 76.9948 203.612 77.8747 204.075C78.6609 204.516 79.4806 204.88 79.7291 205.451C79.7852 205.575 79.8083 205.712 79.7959 205.848C79.7836 205.984 79.7363 206.114 79.6586 206.226C79.5398 206.41 79.3695 206.554 79.169 206.641C78.9844 206.7 78.7916 206.729 78.5979 206.727C78.5793 206.727 78.7982 206.905 79.221 206.794C79.4712 206.722 79.6913 206.571 79.8477 206.363C79.9594 206.221 80.0321 206.052 80.0588 205.873C80.0854 205.695 80.0651 205.512 79.9998 205.343C79.8276 204.965 79.546 204.647 79.1913 204.431C78.8389 204.197 78.4681 203.96 78.0527 203.737C75.5363 202.347 72.7087 201.618 69.8339 201.616C68.4135 201.638 67.5679 201.816 67.5679 201.861Z" fill="#FF9A6C"/>
<path d="M67.1079 206.011C67.1079 206.133 69.7597 206.011 73.0123 206.211C76.265 206.412 78.8834 206.801 78.9057 206.679C78.9057 206.627 78.2714 206.456 77.2107 206.267C74.445 205.803 71.6367 205.643 68.8362 205.792C67.7607 205.859 67.1042 205.955 67.1079 206.011Z" fill="#FF9A6C"/>
<path d="M81.3684 207.865C81.4218 207.638 81.4492 207.405 81.45 207.172C81.4901 206.537 81.4901 205.9 81.45 205.266C81.4267 204.822 81.3659 204.382 81.2683 203.949C81.1494 203.44 80.9328 202.959 80.6303 202.532C79.9923 201.546 79.1639 200.698 78.1937 200.036C77.2368 199.366 76.1889 198.837 75.082 198.464C74.1668 198.202 73.2222 198.057 72.2707 198.033C71.4659 198.007 70.8205 198.033 70.3718 198.033C70.1383 198.02 69.9043 198.044 69.6782 198.104C69.6782 198.171 70.6685 198.204 72.2521 198.319C73.173 198.384 74.0836 198.552 74.967 198.82C76.0271 199.204 77.0312 199.727 77.9526 200.377C78.8815 201.011 79.6819 201.815 80.3114 202.747C80.8209 203.502 81.1123 204.382 81.1533 205.291C81.3165 206.868 81.2905 207.865 81.3684 207.865Z" fill="#FF9A6C"/>
<path d="M71.9741 196.075C71.9741 196.138 72.9458 196.164 74.4998 196.342C76.0538 196.52 78.3904 196.683 79.7552 198.745C81.2387 200.622 82.4886 202.395 83.0375 203.849C83.5864 205.303 83.5679 206.289 83.6532 206.282C83.7124 206.057 83.7263 205.822 83.694 205.592C83.6617 204.959 83.5367 204.334 83.3231 203.738C82.8261 202.202 81.5762 200.366 80.089 198.478C79.7242 197.999 79.2991 197.569 78.8243 197.199C78.363 196.868 77.8452 196.624 77.2963 196.479C76.3931 196.243 75.4689 196.097 74.5369 196.042C72.9496 195.934 71.9704 196.012 71.9741 196.075Z" fill="#FF9A6C"/>
<path d="M69.1514 210.373C69.2837 210.285 69.4078 210.186 69.5223 210.076L70.6127 209.201C71.9803 208.139 73.4068 207.156 74.8852 206.256L74.7925 206.274L78.8166 206.96L78.6793 206.79C78.6692 207.12 78.6941 207.451 78.7535 207.776C78.8082 208.137 78.9682 208.474 79.2134 208.744C79.3636 208.877 79.5493 208.962 79.7475 208.989C79.9313 209.038 80.1229 209.049 80.3112 209.023C80.7015 208.962 81.0577 208.765 81.3163 208.466C81.3814 208.393 81.4398 208.313 81.4906 208.229L81.5277 208.166L81.5462 208.132V208.114L81.3126 208.199L81.4387 208.251C81.6093 208.318 81.7836 208.377 81.9616 208.433C82.1415 208.49 82.3248 208.536 82.5105 208.57C82.6094 208.591 82.71 208.602 82.811 208.603C82.9387 208.614 83.0669 208.59 83.1818 208.533C83.3607 208.396 83.497 208.21 83.575 207.999C83.6537 207.819 83.7206 207.635 83.7752 207.446C83.8845 207.072 83.9712 206.692 84.0349 206.308L83.7975 206.467C84.0707 206.528 84.3553 206.512 84.6202 206.422C84.8851 206.331 85.1201 206.17 85.2996 205.955C85.485 205.727 85.5836 205.441 85.5777 205.147C85.5578 204.883 85.5093 204.622 85.4331 204.368C85.1324 203.377 84.7606 202.409 84.3204 201.471C83.8531 200.73 83.3561 199.947 82.8555 199.15L81.9245 197.666C81.6387 197.155 81.2966 196.677 80.9046 196.242C80.4883 195.823 79.9912 195.492 79.4433 195.27C78.9111 195.073 78.3522 194.957 77.7855 194.925L71.6808 194.221H71.6474C71.2805 194.279 70.9203 194.373 70.5719 194.503C70.1995 194.617 69.8725 194.845 69.6372 195.155L69.8635 195.085C69.5313 194.934 69.1674 194.865 68.803 194.886C68.4386 194.907 68.0846 195.016 67.7717 195.204C67.2299 195.6 66.8608 196.19 66.7407 196.85L66.7889 196.765L61.6781 201.36L60.3022 202.629C60.1349 202.769 59.981 202.924 59.8423 203.092C60.0262 202.975 60.1999 202.842 60.3615 202.695L61.7931 201.486L66.9854 196.995L67.0188 196.965V196.91C67.1324 196.335 67.4581 195.824 67.9312 195.478C68.1976 195.326 68.4965 195.24 68.803 195.227C69.1095 195.214 69.4147 195.275 69.6929 195.404L69.8338 195.463L69.9191 195.333C70.11 195.097 70.3689 194.925 70.6609 194.84C70.9855 194.722 71.3209 194.637 71.6623 194.584H71.6474L77.767 195.333C78.2971 195.361 78.8199 195.47 79.3172 195.656C79.8128 195.857 80.2621 196.158 80.6376 196.539C81.0071 196.955 81.3304 197.41 81.6019 197.896L82.5291 199.38L84.0126 201.701V201.675C84.4493 202.593 84.8211 203.54 85.1253 204.509C85.1921 204.733 85.2356 204.962 85.2551 205.195C85.258 205.396 85.1897 205.592 85.0622 205.748C84.9297 205.907 84.7553 206.026 84.5587 206.092C84.3621 206.157 84.1512 206.166 83.9496 206.119L83.7456 206.085L83.7159 206.282C83.6552 206.649 83.5748 207.013 83.4748 207.372C83.4078 207.693 83.2625 207.992 83.052 208.244C82.9982 208.255 82.9427 208.255 82.8888 208.244C82.8054 208.242 82.7223 208.233 82.6404 208.218C82.4702 208.186 82.3018 208.145 82.1359 208.095C81.9691 208.043 81.8059 207.988 81.6427 207.925L81.524 207.877L81.2829 207.962V207.988L81.257 208.04C81.2167 208.105 81.1708 208.167 81.1197 208.225C80.9217 208.461 80.6452 208.618 80.3409 208.667C80.1936 208.689 80.0431 208.68 79.8995 208.641C79.7632 208.629 79.6337 208.576 79.5287 208.488C79.1578 208.088 79.091 207.376 79.0873 206.805V206.656L78.9501 206.634L74.9149 206.004H74.863L74.8222 206.03C73.3462 206.955 71.9337 207.979 70.5941 209.093C70.1268 209.49 69.7782 209.805 69.5482 210.028C69.4015 210.125 69.268 210.241 69.1514 210.373Z" fill="#FF9A6C"/>
<path d="M136.474 170.373L86.4048 170.781C84.7803 170.781 83.2263 171.56 82.9852 173.166L77.5073 209.664H51.7162C51.3303 209.683 50.9665 209.85 50.7001 210.13C50.4337 210.41 50.2852 210.782 50.2852 211.168C50.2852 211.555 50.4337 211.926 50.7001 212.206C50.9665 212.486 51.3303 212.653 51.7162 212.672H134.093L139.723 174.152C139.794 173.684 139.763 173.207 139.632 172.752C139.502 172.297 139.274 171.876 138.966 171.517C138.657 171.158 138.275 170.87 137.845 170.673C137.415 170.475 136.947 170.373 136.474 170.373Z" fill="#E0E0E0"/>
<path d="M136.474 170.373C136.739 170.359 137.006 170.384 137.264 170.447C137.931 170.604 138.532 170.964 138.986 171.478C139.44 171.991 139.723 172.633 139.797 173.314C139.878 173.959 139.693 174.638 139.611 175.376C139.404 176.86 139.159 178.547 138.87 180.457C137.757 188.109 136.181 199.135 134.226 212.694V212.824H134.093L54.1753 212.872H52.0242C51.6319 212.91 51.237 212.835 50.8855 212.657C50.6233 212.508 50.4053 212.293 50.2536 212.032C50.1019 211.771 50.022 211.475 50.022 211.174C50.022 210.872 50.1019 210.576 50.2536 210.315C50.4053 210.055 50.6233 209.839 50.8855 209.69C51.2299 209.518 51.6146 209.444 51.9982 209.475H77.5074L77.3145 209.642C79.2839 196.572 81.1235 184.377 82.7702 173.44C82.8214 172.709 83.1536 172.026 83.6974 171.534C84.2418 171.076 84.9058 170.782 85.6112 170.688C86.2829 170.625 86.9579 170.601 87.6325 170.618H89.5981L97.1382 170.57L110.534 170.484L129.609 170.384H134.708H136.029H136.474C136.474 170.384 136.325 170.384 136.029 170.406L134.712 170.432L129.609 170.507L110.534 170.718L97.1382 170.851L89.5981 170.926H87.6325C86.9752 170.91 86.3175 170.933 85.6631 170.996C85.0188 171.08 84.4124 171.348 83.9162 171.768C83.4302 172.208 83.1382 172.822 83.104 173.477C81.4721 184.418 79.6511 196.613 77.7003 209.686L77.678 209.85H77.5074H61.452H52.0204C51.7009 209.814 51.3778 209.87 51.0895 210.013C50.818 210.164 50.609 210.406 50.5003 210.697C50.3915 210.988 50.39 211.308 50.4961 211.6C50.6018 211.893 50.8099 212.138 51.0821 212.29C51.3737 212.434 51.701 212.491 52.0242 212.453H54.1753L134.093 212.501L133.941 212.635C135.951 199.087 137.583 188.064 138.718 180.416C139.002 178.51 139.257 176.818 139.482 175.339C139.571 174.597 139.76 173.926 139.686 173.31C139.632 172.75 139.431 172.214 139.103 171.756C138.656 171.124 137.999 170.671 137.249 170.477C136.993 170.428 136.734 170.393 136.474 170.373Z" fill="#263238"/>
<path d="M109.314 194.191C111.045 194.191 112.448 192.788 112.448 191.057C112.448 189.326 111.045 187.923 109.314 187.923C107.583 187.923 106.18 189.326 106.18 191.057C106.18 192.788 107.583 194.191 109.314 194.191Z" fill="white"/>
<path d="M79.5361 212.335C79.6103 212.335 81.2014 203.062 83.0966 191.565C84.9918 180.068 86.4716 170.777 86.4011 170.766C86.3307 170.755 84.7359 180.038 82.8407 191.536C80.9455 203.033 79.4656 212.323 79.5361 212.335Z" fill="#263238"/>
</g>
<defs>
<clipPath id="clip0_13_2003">
<rect width="220" height="220" fill="white"/>
</clipPath>
</defs>
</svg>
