<svg width="81" height="111" viewBox="0 0 81 111" fill="none" xmlns="http://www.w3.org/2000/svg">
<rect x="0.199219" width="80" height="80" rx="40" fill="#66AC47" fill-opacity="0.1"/>
<path d="M29.6625 59.7969C29.6625 60.304 17.168 102.23 17.168 102.23L27.908 97.4278L33.7902 110.394L41.3509 60.4511L29.6625 59.7969Z" fill="#66AC47"/>
<path d="M38.8047 61.5718L41.3503 109.659L50.706 96.4695L62.7898 105.115L50.706 57.8853L38.8047 61.5718Z" fill="#66AC47"/>
<g opacity="0.5">
<path d="M28.8496 62.9764C29.1281 63.8684 29.671 64.6548 30.4062 65.2316C31.1414 65.8084 32.0345 66.1484 32.9671 66.2065C34.0675 66.2522 35.2795 65.9124 36.2074 66.5108C37.1354 67.1091 37.5258 68.5036 38.6161 68.6507C39.8939 68.8332 40.6444 67.1294 41.8513 66.7238C43.4993 66.1862 45.2285 68.174 46.8511 67.5604C47.8957 67.1649 48.3724 65.8211 49.4779 65.5321C49.9631 65.4503 50.4599 65.4675 50.9383 65.5828C51.5083 65.6458 52.0842 65.5363 52.5914 65.2684L51.9981 62.951L50.9839 58.4532H29.2603L28.8496 62.9764Z" fill="black"/>
</g>
<path d="M41.5527 25.5434C42.6193 25.6348 43.6722 25.8457 44.6916 26.1722C44.69 25.9984 44.7227 25.8261 44.7879 25.6651C45.7075 23.204 46.6236 20.748 47.5363 18.2971L47.6023 18.2363C47.2212 18.0217 46.9071 17.7057 46.6946 17.3235C46.4301 16.9109 46.0642 16.573 45.6318 16.3422C45.1994 16.1113 44.7151 15.9953 44.2251 16.0051C43.718 18.0943 43.1145 20.9542 42.6683 22.7341C42.4776 23.7327 42.099 24.686 41.5527 25.5434Z" fill="#66AC47"/>
<path d="M28.3185 47.9363C27.6395 46.9241 27.0909 45.8303 26.6857 44.6808C26.5439 44.8197 26.3695 44.9208 26.1786 44.9749L25.9605 45.051C25.8248 45.1382 25.6824 45.2145 25.5346 45.2791C25.0734 45.4556 24.6028 45.6063 24.1249 45.7304L22.3906 46.2122C21.1584 46.5469 20.0378 46.8359 19.2264 47.0286C18.7933 47.1608 18.3483 47.2508 17.8979 47.2973C18.3078 47.1062 18.7359 46.9568 19.1757 46.8511L20.2812 46.5266L17.7457 47.0894C17.4161 48.5296 16.3969 50.0711 17.2944 51.1816C17.3894 51.2952 17.5004 51.3943 17.624 51.4757C20.8542 50.279 24.9971 48.7324 27.71 48.0174C27.9067 47.9557 28.1125 47.9283 28.3185 47.9363Z" fill="#66AC47"/>
<path d="M36.6336 25.1731C36.6336 25.3151 36.6336 25.4368 36.6336 25.5484C36.6336 25.6599 36.6336 25.8121 36.6336 25.9388C37.7932 25.6389 38.9855 25.4839 40.1832 25.4774C40.1832 25.4115 40.1832 25.3455 40.1832 25.2796L40.3505 22.6124C40.3505 22.4349 40.3505 22.2523 40.3505 22.0647C40.386 20.1479 40.4621 18.5607 40.528 18.2514C39.9905 17.6176 39.4784 16.289 38.3932 16.147C37.4956 16.0304 37.0291 16.147 36.6488 16.5121C36.6894 19.1794 36.6032 22.5515 36.6336 25.1731Z" fill="#66AC47"/>
<path d="M22.625 34.5188C22.8481 34.6067 23.0712 34.6878 23.2943 34.7622C22.3461 34.3869 21.3725 33.9813 20.4395 33.5807C21.0835 33.8799 21.8187 34.2044 22.625 34.5188Z" fill="#66AC47"/>
<path d="M25.8839 39.1788C25.9483 38.0631 26.1423 36.9587 26.462 35.8879C26.178 35.8017 25.8839 35.7053 25.5847 35.6039C24.5437 35.4316 23.5238 35.1495 22.5422 34.7621C21.4384 34.3224 20.363 33.8143 19.3223 33.2409C18.7645 32.9417 18.3689 32.7338 18.1813 32.5867L17.5728 32.3281C17.1773 32.9721 16.5586 33.4995 16.1276 34.1435C15.8963 34.5094 15.7716 34.9326 15.7676 35.3656C19.0687 36.2682 23.0544 37.4598 25.8282 39.1129L25.8839 39.1788Z" fill="#66AC47"/>
<path d="M26.9999 34.2855C27.4068 33.3318 27.9169 32.4254 28.5212 31.5828L28.3031 31.4408C26.6365 30.3331 25.1048 29.0346 23.7393 27.5717L23.7038 27.5311C23.0852 27.0241 22.497 26.4815 21.9747 26.0099C21.9049 26.2318 21.7852 26.4348 21.6248 26.6032C20.8388 27.3892 19.3632 26.8821 18.4961 27.5768C18.1894 27.8321 17.9917 28.1948 17.9434 28.591C20.6984 30.1211 23.3679 31.8004 25.9401 33.6212C26.3559 33.8799 26.7261 34.108 26.9999 34.2855Z" fill="#66AC47"/>
<path d="M28.378 29.2907C28.733 29.7978 29.0474 30.2339 29.2807 30.5787C30.0704 29.6467 30.9752 28.8186 31.9733 28.1143C31.669 27.7289 31.2938 27.2269 30.878 26.6691C30.5078 26.2432 30.0869 25.7361 29.6458 25.1833C28.9967 24.3669 28.4389 23.6114 28.0535 23.0485C27.8233 22.7597 27.6307 22.4427 27.4805 22.1053C27.4805 22.1053 27.6377 22.2372 27.8557 22.5059C27.5008 21.9988 27.1661 21.5678 26.872 21.1824C26.6632 21.6507 26.3255 22.0499 25.8984 22.3335C25.2595 22.7138 24.4126 22.6936 23.6875 22.8406C25.1548 24.5993 26.5097 26.4487 27.7442 28.378L28.378 29.2907Z" fill="#66AC47"/>
<path d="M32.8714 27.5261C33.7024 27.0263 34.5826 26.6133 35.4981 26.2938C35.4626 26.1874 35.4322 26.0758 35.3967 25.949C35.1989 25.2645 34.9606 24.3111 34.7527 23.2412C34.5448 22.1712 34.4079 21.2128 34.3318 20.4928C34.2849 20.1279 34.2612 19.7603 34.2608 19.3924L34.2304 19.1946C33.891 19.2224 33.5495 19.1824 33.2256 19.0771C32.9018 18.9718 32.6022 18.8032 32.344 18.5811C31.5073 17.8306 30.0875 17.9269 28.9922 18.3985C30.1483 21.1824 31.8775 24.9906 32.8308 27.4297C32.846 27.4601 32.8562 27.4906 32.8714 27.5261Z" fill="#66AC47"/>
<path d="M29.1543 30.7254L29.1191 30.6852L29.1493 30.7354L29.1543 30.7254Z" fill="#66AC47"/>
<path d="M26.4317 43.8846C26.1075 42.7482 25.9219 41.5768 25.8789 40.3959H25.7978C24.7836 40.4517 23.5971 40.4364 22.3496 40.3959C21.9693 40.3959 21.5788 40.3959 21.163 40.3959C19.9562 40.3959 18.8659 40.2995 18.08 40.2235C17.7199 40.188 17.4309 40.1525 17.2179 40.1221L16.4471 40.0764C16.2747 40.3401 16.1023 40.5835 15.9401 40.8776C15.4989 41.6535 15.22 42.6271 15.6358 43.413L15.6814 43.479C19.0383 43.5601 22.3919 43.6581 25.742 43.7731C25.977 43.7647 26.2113 43.8026 26.4317 43.8846Z" fill="#66AC47"/>
<path d="M31.1429 51.3439L31.3559 51.2069C30.4058 50.4487 29.5541 49.5748 28.8205 48.6056C28.725 48.7774 28.5893 48.9236 28.425 49.0315C28.3658 49.1841 28.2679 49.3187 28.141 49.422C27.4919 49.9291 26.5792 50.492 25.5599 51.1613C24.5407 51.8307 23.6178 52.3986 22.9383 52.8093C22.5859 53.0547 22.2086 53.2621 21.8126 53.428C22.1237 53.1359 22.4634 52.876 22.8267 52.6521C23.202 52.3986 23.6584 52.0842 24.1705 51.7495C23.1868 52.3428 22.1979 52.9361 21.3105 53.4787C21.4779 54.2292 21.2142 55.1014 21.559 55.8062C21.9038 56.5111 22.6138 56.719 23.4048 56.8609L29.4391 52.3783C29.9579 51.9584 30.5311 51.6105 31.1429 51.3439Z" fill="#66AC47"/>
<path d="M58.6973 53.6765L59.5238 54.3255C59.5393 54.3057 59.5563 54.2871 59.5745 54.2697L59.3058 54.0923L58.6973 53.6765Z" fill="#66AC47"/>
<path d="M51.167 49.3408C50.4037 50.2209 49.5371 51.0058 48.5859 51.6785C48.8536 51.9522 49.1027 52.2436 49.3314 52.5507C49.3596 52.5693 49.3867 52.5896 49.4125 52.6115C49.8234 53.0206 50.1659 53.4932 50.4267 54.0111L51.4713 55.7909L51.5017 55.8518C52.1812 56.9826 52.8607 58.159 53.459 59.1834C53.5334 59.0176 53.6345 58.8651 53.7582 58.732C54.8129 57.6317 56.9528 58.7016 58.0684 57.6722C58.1784 57.5671 58.2739 57.4477 58.3524 57.3173C56.2987 55.081 53.5604 51.9472 51.8161 50.1167C51.5732 49.8814 51.3557 49.6214 51.167 49.3408ZM51.9733 51.7444C52.4291 52.3216 52.849 52.9261 53.2308 53.5547C53.683 54.1352 54.1012 54.7413 54.4833 55.3701C53.8981 54.9076 53.4001 54.3443 53.0128 53.7068C52.5561 53.1173 52.2045 52.4534 51.9733 51.7444Z" fill="#66AC47"/>
<path d="M40.6605 18.3428C40.6474 18.3322 40.6355 18.3203 40.625 18.3073C40.6294 18.39 40.6294 18.473 40.625 18.5557L40.6605 18.3428Z" fill="#66AC47"/>
<path d="M54.6068 41.5621C54.4865 42.5985 54.2536 43.6187 53.9121 44.6046L54.3076 44.7973L55.7072 45.5275C55.2308 45.2867 54.7761 45.005 54.3482 44.6858C55.8155 45.322 57.246 46.0398 58.6331 46.8358C59.6472 47.3886 60.6107 47.9108 61.3358 48.3216L61.8074 48.5193C61.8005 48.282 61.8348 48.0452 61.9088 47.8196C62.3044 46.6786 63.7648 46.0803 64.2668 45.0762C61.204 43.9556 57.269 42.5611 54.6068 41.5621Z" fill="#66AC47"/>
<path d="M51.8457 48.5093C52.1246 48.7273 52.4796 49.0163 52.8599 49.2902L52.9968 49.3865C53.8335 49.9494 54.9693 50.7404 56.2168 51.6278C57.4642 52.5152 58.5849 53.3367 59.3911 53.9351L59.6954 54.1683C60.2025 53.8032 60.811 53.575 61.3383 53.2606C58.7319 50.9788 55.6539 47.8247 53.3112 46.0296C52.905 46.9021 52.4142 47.7326 51.8457 48.5093Z" fill="#66AC47"/>
<path d="M35.3366 53.6664C35.2904 53.5668 35.2379 53.4702 35.1794 53.3773C34.2551 53.0251 33.3698 52.5782 32.5375 52.0437L32.4665 52.135C32.2789 52.3632 32.0659 52.6066 31.8326 52.8652C31.4168 53.3723 30.8489 54.0264 30.1947 54.7313C29.5406 55.4361 28.8408 56.1257 28.354 56.5872C28.1079 56.8537 27.8284 57.0872 27.5224 57.2819C27.5224 57.2819 27.568 57.1856 27.6847 57.0486C27.2689 57.4645 26.8784 57.8701 26.5234 58.2504C27.0812 59.4117 26.5234 61.1053 27.4768 62.0434C27.6447 62.2116 27.8471 62.3414 28.0701 62.4238C30.0984 59.7007 32.862 56.1765 34.8295 53.9909C34.9527 53.8239 35.1333 53.7083 35.3366 53.6664Z" fill="#66AC47"/>
<path d="M41.1176 54.285C41.2581 54.4787 41.3376 54.71 41.3458 54.9492C41.5099 55.4496 41.5448 55.9834 41.4472 56.5009C41.3712 57.1145 41.285 57.7737 41.1988 58.4633C41.077 59.3812 40.9553 60.2381 40.8489 60.9988C40.7677 61.9673 40.6917 62.9206 40.6055 63.7827C41.1243 64.2693 41.7164 64.6714 42.36 64.9743C43.3336 65.2887 44.2007 64.8171 45.0627 64.1883C44.865 60.9379 44.6926 56.8863 44.8244 53.9959L44.9765 54.3509C44.9309 54.1835 44.9157 54.0872 44.9309 54.0821C45.1365 54.4454 45.2982 54.8318 45.4126 55.2332C45.6763 55.9583 46.011 56.9725 46.3457 58.0982C46.4369 58.4126 46.5232 58.7169 46.6043 59.011C46.9592 60.2128 47.2686 61.4247 47.5018 62.5606C47.8604 62.3999 48.2499 62.3203 48.6428 62.3273C49.5352 62.3527 50.4784 62.8851 51.3202 62.9967C49.8902 59.5333 48.3639 55.1977 47.7706 52.2363C45.7542 53.4537 43.4696 54.1572 41.1176 54.285ZM42.9583 59.797C42.855 59.3312 42.8175 58.8533 42.8468 58.3771C42.7925 57.9031 42.801 57.424 42.8721 56.9522C43.1605 57.8747 43.1903 58.8587 42.9583 59.797Z" fill="#66AC47"/>
<path d="M39.7325 54.3458C39.7485 54.3263 39.7673 54.3092 39.7882 54.2951C38.2514 54.2475 36.7324 53.9513 35.2904 53.4178C35.3259 53.4635 35.3664 53.5142 35.4121 53.5801C35.427 53.6132 35.4439 53.6454 35.4628 53.6765C35.7569 53.7576 35.8482 54.1835 35.8127 54.503C35.7955 54.6617 35.7684 54.8192 35.7315 54.9746C35.7018 55.4254 35.6009 55.8687 35.4324 56.288C35.2092 56.8711 34.9253 57.4745 34.6007 58.1135C34.0631 59.1962 33.4672 60.2491 32.8158 61.2675C32.5166 61.7341 32.2732 62.0789 32.1211 62.2817C32.3051 62.3028 32.4857 62.3471 32.6586 62.4135C34.0734 62.9663 34.8391 65.02 36.3451 64.8425L36.482 64.8171C37.3644 62.0079 38.2467 58.1135 39.129 55.502C39.2418 55.0765 39.4479 54.6816 39.7325 54.3458Z" fill="#66AC47"/>
<path d="M52.2525 31.8515C52.4216 31.6994 52.5906 31.5523 52.7596 31.4103C52.9421 31.1528 53.1687 30.9296 53.429 30.7511C53.8296 30.4671 54.2758 30.1882 54.7525 29.8992C55.7007 29.3211 56.5831 28.8445 57.2372 28.5199C57.6834 28.3019 58.013 28.1548 58.1854 28.094L59.0881 27.5615C58.1956 26.162 59.3517 24.0373 58.3021 22.7493C58.2536 22.6916 58.2011 22.6373 58.1449 22.587C55.503 24.5444 52.0954 26.7654 49.1289 28.5199C50.3403 29.4576 51.3947 30.5822 52.2525 31.8515ZM52.8864 26.1823C53.485 25.7493 54.1137 25.3595 54.7677 25.016C54.2677 25.571 53.6802 26.0404 53.0284 26.4054C52.4255 26.8465 51.7562 27.1888 51.0457 27.4196C51.6287 26.9634 52.2438 26.5498 52.8864 26.1823Z" fill="#66AC47"/>
<path d="M54.5137 37.5613C54.638 38.3309 54.7007 39.1092 54.7013 39.8888C54.7013 40.0359 54.7013 40.1778 54.7013 40.3198H54.9396C55.3656 40.3198 55.7865 40.3604 56.2124 40.3908H56.5116C57.3838 40.3908 58.5856 40.472 59.9141 40.5683C61.1565 40.6646 62.2822 40.7762 63.1291 40.8776C63.342 39.9192 64.5235 39.4426 64.8734 38.5146C65.0279 38.0345 64.9916 37.5133 64.772 37.0593C61.6737 37.2317 57.4852 37.4852 54.9041 37.5664L54.5137 37.5613Z" fill="#66AC47"/>
<path d="M50.9948 19.6206L45.853 26.086C45.7439 26.2219 45.6158 26.3415 45.4727 26.4409C46.6049 26.8754 47.6768 27.4531 48.6622 28.1599L48.7332 28.0687C48.8035 27.8805 48.9104 27.7082 49.0476 27.5616C49.2758 27.2979 49.5547 26.9886 49.8488 26.6539C51.3701 24.8284 53.1043 22.9826 54.5546 21.4512C54.2574 21.3412 53.9875 21.1682 53.7635 20.9441C53.1246 20.3001 52.9877 19.2251 52.2423 18.7332C52.0012 18.5856 51.7281 18.4986 51.4461 18.4797C51.4484 18.4982 51.4484 18.5169 51.4461 18.5354C51.4466 18.7372 51.407 18.9371 51.3295 19.1234C51.252 19.3097 51.1383 19.4787 50.9948 19.6206Z" fill="#66AC47"/>
<path d="M54.179 36.0452L54.5998 35.8575C54.9166 35.6819 55.2474 35.5326 55.5887 35.4113C56.2175 35.1527 57.1099 34.818 58.0632 34.463C59.0166 34.1081 59.9192 33.7988 60.5632 33.5858C60.9057 33.4483 61.2631 33.3513 61.6281 33.2967C61.6281 33.2967 61.5064 33.388 61.263 33.4945L62.5712 33.0635C62.5712 32.0088 62.8654 30.8881 62.3278 29.9906C62.1938 29.7712 62.0222 29.5772 61.8208 29.4175C59.0571 30.5331 55.2793 32.2876 52.8555 32.7947C53.4284 33.8198 53.8729 34.9115 54.179 36.0452Z" fill="#66AC47"/>
<path d="M63.0878 41.1007L61.957 41.0145C62.3323 41.0399 62.7075 41.0703 63.0878 41.1007Z" fill="#66AC47"/>
<path d="M35.5901 25.9034C35.6206 26.0251 35.6409 26.1367 35.6611 26.2381L35.7423 26.2127C35.6713 26.0302 35.6003 25.8324 35.5293 25.6144C35.5344 25.7107 35.5597 25.8172 35.5901 25.9034Z" fill="#66AC47"/>
<path d="M48.7027 28.1903C48.708 28.1487 48.7182 28.1078 48.7331 28.0686L48.6621 28.1599L48.7027 28.1903Z" fill="black"/>
<path d="M52.4969 32.2267C52.4976 32.0636 52.5285 31.902 52.5882 31.7501C52.634 31.6294 52.6954 31.5151 52.7708 31.4103C52.5916 31.5523 52.4226 31.6994 52.2637 31.8515C52.3245 31.9732 52.4158 32.1 52.4969 32.2267Z" fill="#66AC47"/>
<path d="M61.8075 48.5904V48.5194L61.3359 48.3217L61.8075 48.5904Z" fill="black"/>
<path d="M52.8797 49.2902C52.4791 48.991 52.1241 48.7273 51.8655 48.5093L51.8047 48.5853C51.9771 48.6969 52.3625 48.9454 52.8797 49.2902Z" fill="black"/>
<path d="M53.2958 59.0566L53.4074 59.2646L53.4378 59.1834C52.8395 58.1692 52.16 56.9827 51.4805 55.8519C52.2005 57.0942 52.8293 58.2301 53.2958 59.0566Z" fill="black"/>
<path d="M40.8223 54.2951C41.039 54.4335 41.2142 54.628 41.3294 54.858C41.3294 54.8884 41.3294 54.9188 41.3649 54.9493C41.3566 54.7101 41.2772 54.4787 41.1367 54.285L40.8223 54.2951Z" fill="#66AC47"/>
<path d="M35.4629 53.6765C35.6242 53.9786 35.716 54.313 35.7316 54.6551C35.7392 54.7615 35.7392 54.8682 35.7316 54.9746C35.7685 54.8192 35.7956 54.6617 35.8128 54.503C35.8483 54.1785 35.757 53.7576 35.4629 53.6765Z" fill="#66AC47"/>
<path d="M32.5467 52.0437H32.4959C32.4047 52.1857 32.2069 52.4494 31.928 52.7891C31.9027 52.8195 31.8722 52.8601 31.8418 52.8905C32.0751 52.6319 32.288 52.3835 32.4757 52.1603L32.5467 52.0437Z" fill="black"/>
<path d="M26.5373 35.5431C26.3642 35.629 26.1726 35.6709 25.9795 35.6648L25.5586 35.6039C25.8578 35.7054 26.1519 35.8017 26.4359 35.8879C26.4612 35.7713 26.5018 35.6851 26.5373 35.5431Z" fill="black"/>
<path d="M32.1505 27.9875C31.8604 27.7608 31.5968 27.5023 31.3645 27.2167L30.8574 26.6691C31.2732 27.2269 31.6485 27.7289 31.9527 28.1143L32.1505 27.9875Z" fill="black"/>
<path d="M36.6035 25.954H36.6492C36.6492 25.8272 36.6492 25.6954 36.6492 25.5635C36.6478 25.6949 36.6325 25.8258 36.6035 25.954Z" fill="black"/>
<path d="M40.2031 25.4775H40.3958C40.3705 24.9045 40.3654 23.8497 40.3958 22.6124L40.2285 25.2797C40.2082 25.3456 40.2031 25.4115 40.2031 25.4775Z" fill="black"/>
<path d="M44.7878 25.66C44.7226 25.821 44.6899 25.9934 44.6915 26.1671C44.9551 26.2533 45.1985 26.3446 45.4724 26.446C45.6155 26.3465 45.7436 26.227 45.8527 26.091L50.9945 19.6257C51.2824 19.3436 51.4465 18.9588 51.4509 18.5557C51.4532 18.5372 51.4532 18.5185 51.4509 18.5C50.5229 18.4239 49.4581 18.8853 48.5301 18.5963C48.3084 18.5313 48.09 18.4551 47.876 18.3681C47.6123 19.1642 47.1762 20.3965 46.664 21.7554C46.1652 23.203 45.5862 24.6216 44.9298 26.0048C45.3411 24.5305 45.8371 23.0812 46.4156 21.6642C46.9226 20.29 47.4044 19.073 47.7289 18.2971C47.6901 18.2799 47.6528 18.2595 47.6173 18.2363L47.5514 18.2971C46.6251 20.7616 45.7039 23.2158 44.7878 25.66ZM47.4652 23.5404C47.9085 22.9073 48.4074 22.315 48.956 21.7707C48.6213 22.4717 48.1894 23.1221 47.6731 23.7026C47.2279 24.3401 46.6973 24.9134 46.0961 25.4065C46.4959 24.7449 46.9542 24.1204 47.4652 23.5404Z" fill="#66AC47"/>
<path d="M51.2091 25.163C52.0661 24.2351 52.8521 23.4035 53.4301 22.8102C53.7232 22.4691 54.0512 22.1598 54.4088 21.8873C54.1628 22.2635 53.8809 22.6151 53.5671 22.9369C53.0245 23.5607 52.2588 24.4126 51.4069 25.3405C50.555 26.2685 49.7639 27.1052 49.1858 27.6934C49.0046 27.843 48.8809 28.0509 48.8359 28.2816L49.125 28.5047C52.0914 26.7502 55.499 24.5292 58.141 22.5718C57.9071 22.3428 57.6246 22.1694 57.3144 22.0647C56.4625 21.7706 55.4128 21.7808 54.5711 21.4512C53.1208 22.9724 51.3764 24.8284 49.8653 26.6539C50.2558 26.2076 50.7172 25.7006 51.2091 25.163Z" fill="#66AC47"/>
<path d="M58.3326 28.0788C58.0173 28.323 57.6774 28.5338 57.3185 28.7076C56.6948 29.0727 55.8276 29.5696 54.8844 30.1426C53.9413 30.7156 53.0133 31.1923 52.7445 31.8414C52.6535 32.038 52.6117 32.2538 52.6228 32.4702L52.8206 32.815C55.2445 32.3079 59.0223 30.5534 61.7859 29.4378C60.9441 28.7634 59.6815 28.4997 59.0831 27.5818L58.1957 28.0788C58.2768 28.0788 58.3276 28.0484 58.3326 28.0788ZM56.5528 31.1213C56.0922 31.37 55.5988 31.5527 55.0873 31.6639C55.9344 31.04 56.9095 30.6122 57.9422 30.4114C57.5132 30.6994 57.0454 30.9248 56.5528 31.0807V31.1213Z" fill="#66AC47"/>
<path d="M60.6353 33.7633C60.0065 34.0168 59.114 34.3515 58.1556 34.7115C57.1972 35.0716 56.2946 35.3758 55.6506 35.5837C55.3109 35.7244 54.9548 35.8215 54.5908 35.8728L54.1699 36.0604C54.3084 36.5612 54.4201 37.069 54.5046 37.5816H54.8849C57.466 37.5157 61.6545 37.2622 64.7528 37.0746C64.5993 36.7114 64.3981 36.3703 64.1544 36.0604C63.6017 35.3657 62.9171 34.7267 62.6737 33.8748C62.6009 33.6019 62.5634 33.3207 62.5622 33.0381L61.2539 33.4692L60.6353 33.7633Z" fill="#66AC47"/>
<path d="M59.8842 40.8472L56.4918 40.5886C56.0198 40.575 55.5499 40.5207 55.0872 40.4263C55.4571 40.3785 55.8309 40.3683 56.2028 40.3959C55.7768 40.3655 55.356 40.3401 54.93 40.3249H54.6917C54.6917 40.7458 54.6511 41.1565 54.6055 41.5673C57.2677 42.5814 61.1976 43.9607 64.2654 45.0814C64.3728 44.876 64.4317 44.6487 64.4379 44.4171C64.4734 43.2051 63.013 42.2772 63.089 41.1058C62.7087 41.0754 62.3335 41.045 61.9582 41.0044L59.8842 40.8472Z" fill="#66AC47"/>
<path d="M55.706 45.5276L54.3064 44.8126L53.9109 44.6199C53.7457 45.0998 53.5544 45.5704 53.3379 46.0296C55.6806 47.8247 58.7586 50.9787 61.365 53.2606C61.6932 53.0807 61.9705 52.8208 62.1713 52.5051C62.8001 51.3996 61.9431 50.0558 61.8214 48.7881C61.0355 48.3977 59.8438 47.7739 58.5152 47.0691C57.425 46.4859 56.4413 45.9434 55.706 45.5276Z" fill="#66AC47"/>
<path d="M56.0867 51.8459C54.8393 50.9585 53.7135 50.137 52.9123 49.5387C52.3393 49.1076 51.9286 48.7932 51.7511 48.631C51.5635 48.8744 51.3708 49.1127 51.168 49.3409C51.3502 49.6205 51.561 49.8805 51.7967 50.1167C53.5411 51.9473 56.2794 55.0811 58.3331 57.3174C58.8098 56.5263 58.6931 55.3752 59.2661 54.5994C59.343 54.4997 59.4296 54.4079 59.5247 54.3256L58.6982 53.6765C57.9578 53.1643 57.0552 52.5355 56.0867 51.8459Z" fill="#66AC47"/>
<path d="M51.2228 55.9228C50.8577 55.2941 50.5129 54.6906 50.2086 54.1328C49.9754 53.6334 49.6733 53.1691 49.3111 52.7536C49.1837 52.6309 49.025 52.5456 48.8524 52.5072C48.6797 52.4687 48.4999 52.4785 48.3324 52.5355C48.0941 52.6217 48.0282 52.7789 48.0079 52.7586C47.9876 52.7383 48.0079 52.5811 48.2868 52.4392C48.4576 52.3625 48.6456 52.3325 48.8317 52.352C49.0179 52.3716 49.1955 52.4402 49.3466 52.5507C49.1179 52.2436 48.8689 51.9523 48.6012 51.6785C48.3375 51.8611 48.0687 52.0436 47.7949 52.211C48.3781 55.1723 49.9044 59.5079 51.3445 62.9713C51.5486 63.0091 51.7582 63.0048 51.9605 62.9586C52.1628 62.9124 52.3536 62.8252 52.521 62.7026C53.4236 62.0129 53.0534 60.5627 53.3627 59.4775L53.1599 59.153C52.6325 58.3315 51.953 57.1906 51.2228 55.9228Z" fill="#66AC47"/>
<path d="M47.1105 60.9886C47.2301 61.3897 47.3033 61.8031 47.3286 62.2208C47.1588 61.8407 47.0264 61.445 46.933 61.0393L46.0913 58.154C45.7718 57.079 45.4828 56.1003 45.2343 55.2738C45.1177 54.863 45.0264 54.5385 44.9757 54.3306L44.8236 53.9756C44.6917 56.866 44.8641 60.9177 45.0619 64.1681C45.8109 63.5338 46.6291 62.9861 47.501 62.5353C47.2677 61.4045 46.9584 60.1925 46.6034 58.9856C46.8164 59.7564 46.9888 60.4461 47.1105 60.9886Z" fill="#66AC47"/>
<path d="M40.6846 62.013C40.6336 62.5073 40.5386 62.996 40.4006 63.4734C40.387 62.976 40.421 62.4785 40.502 61.9876C40.5984 61.0749 40.7505 59.8173 40.9331 58.438L41.2069 56.4807C41.3167 55.9764 41.294 55.4523 41.141 54.9594C41.0281 54.6952 40.8346 54.4734 40.5882 54.3256H40.284C40.1167 54.3256 39.9493 54.3256 39.7769 54.3256C39.756 54.3397 39.7372 54.3568 39.7211 54.3763C39.4359 54.7135 39.2297 55.1103 39.1177 55.5375C38.2354 58.149 37.353 62.0434 36.4707 64.8527C37.5153 64.6346 38.1897 63.3618 39.2698 63.2908C39.7581 63.2924 40.2289 63.4728 40.5933 63.7979C40.6795 62.9359 40.7556 61.9826 40.8367 61.014C40.7911 61.3588 40.7353 61.7087 40.6846 62.013Z" fill="#66AC47"/>
<path d="M34.3683 57.9968C34.6776 57.368 34.9819 56.7595 35.2101 56.2068C35.4188 55.7261 35.5325 55.2095 35.5447 54.6856C35.547 54.3367 35.4761 53.9912 35.3368 53.6714C35.1336 53.7134 34.953 53.8289 34.8298 53.9959C32.8623 56.1815 30.0885 59.7057 28.0703 62.4287C29.1859 62.8496 30.7173 62.1346 32.0306 62.2766C32.1524 62.0535 32.3704 61.6783 32.6594 61.1762C33.1158 60.37 33.7395 59.2544 34.3683 57.9968Z" fill="#66AC47"/>
<path d="M27.6845 57.0486C28.0395 56.6277 28.9522 55.6794 30.0019 54.5486C31.1428 53.3266 32.0962 52.282 32.4258 51.9777C32.0962 51.7597 31.7767 51.5315 31.4623 51.2932C31.0606 51.6703 30.6391 52.0258 30.1997 52.358C29.7212 52.7808 29.1893 53.1388 28.6175 53.4229C29.0278 52.9332 29.5059 52.5046 30.0374 52.1501C30.4633 51.8205 30.8538 51.5366 31.1428 51.3439C30.5285 51.6034 29.952 51.9445 29.4289 52.358L23.4199 56.8609C24.4645 57.0435 25.646 57.0891 26.3002 57.8751C26.3987 57.9945 26.4822 58.1257 26.5486 58.2656C26.8783 57.8701 27.2687 57.4897 27.6845 57.0486Z" fill="#66AC47"/>
<path d="M25.3967 50.9383C26.4108 50.2791 27.3591 49.7061 27.998 49.2801C28.1308 49.1866 28.2331 49.0561 28.2921 48.9049C28.3349 48.7904 28.3349 48.6644 28.2921 48.5499C28.2262 48.3522 28.0893 48.3167 28.0994 48.2964C28.1096 48.2761 28.2668 48.2964 28.3885 48.5094C28.4551 48.6447 28.4713 48.7993 28.4341 48.9454C28.4277 48.9754 28.4175 49.0044 28.4037 49.0317C28.568 48.9237 28.7037 48.7775 28.7992 48.6057C28.6369 48.3877 28.4747 48.1645 28.3175 47.9364C28.1115 47.9284 27.9057 47.9558 27.709 48.0175C24.9961 48.7325 20.8532 50.2791 17.623 51.4758C18.6372 52.2162 20.4881 51.8967 21.1422 53.0376C21.214 53.177 21.2669 53.3254 21.2994 53.4788C22.1868 52.9362 23.1756 52.3429 24.1594 51.7496C24.5448 51.491 24.9403 51.2223 25.3967 50.9383Z" fill="#66AC47"/>
<path d="M22.3249 45.9585L24.0642 45.492C24.6017 45.3551 25.0784 45.2486 25.4688 45.1066C25.8867 44.9586 26.2626 44.7116 26.5641 44.3866C26.5641 44.3866 26.5337 44.5235 26.3765 44.706C26.257 44.8403 26.1187 44.9565 25.9657 45.0509L26.1838 44.9748C26.3748 44.9207 26.5491 44.8196 26.6909 44.6807C26.5996 44.417 26.5134 44.1736 26.4374 43.8846C26.2209 43.8004 25.9901 43.7591 25.7578 43.7629C22.4043 43.6445 19.0508 43.5465 15.6973 43.4688C16.1638 44.2598 17.2185 44.6097 17.6343 45.4261C17.8763 45.9473 17.9179 46.5394 17.751 47.0893L20.2864 46.5265C20.8848 46.3338 21.5896 46.1563 22.3249 45.9585Z" fill="#66AC47"/>
<path d="M16.8289 40.0156C17.2539 39.9757 17.6817 39.9757 18.1068 40.0156C18.8978 40.046 19.983 40.0866 21.1848 40.1119C22.3866 40.1373 23.4768 40.1423 24.2628 40.1474C24.6911 40.1255 25.1205 40.1425 25.5457 40.1981C25.1266 40.2935 24.6977 40.3394 24.2679 40.335C23.7608 40.3655 23.0914 40.3807 22.3663 40.3857C23.6137 40.4364 24.8104 40.4517 25.8145 40.3857H25.8956C25.8956 40.2184 25.8956 40.0511 25.8956 39.8787C25.8956 39.7062 25.8956 39.402 25.8956 39.1687L25.8246 39.1231C23.0508 37.47 19.0651 36.2783 15.764 35.3757C15.7251 35.6482 15.7809 35.9258 15.9222 36.1621C16.0634 36.3984 16.2814 36.5791 16.5399 36.6739L16.4689 36.2175C17.2853 36.5725 17.5084 37.6728 17.2498 38.5247C17.0592 39.0666 16.7929 39.5788 16.4587 40.046L17.2295 40.0916C17.0926 40.0896 16.957 40.0638 16.8289 40.0156ZM23.9281 39.3006C24.5027 39.3597 25.0651 39.505 25.5964 39.7316C25.02 39.7612 24.4423 39.7048 23.8825 39.5643C23.3094 39.5055 22.7486 39.3602 22.2192 39.1332C22.794 39.1034 23.37 39.1598 23.9281 39.3006Z" fill="#66AC47"/>
<path d="M18.0403 32.5107C18.5067 32.6639 18.9581 32.8591 19.3892 33.0939L20.4388 33.601C21.3719 34.0015 22.3455 34.4072 23.2937 34.7825C24.1699 35.1006 25.0727 35.3399 25.9914 35.4975C26.1789 35.5186 26.3686 35.4869 26.5391 35.4062C26.565 35.3887 26.5888 35.3682 26.6101 35.3453C26.7115 35.0461 26.818 34.752 26.9397 34.4579C26.4732 34.2297 25.7632 33.8444 24.9722 33.388C24.1266 32.9602 23.325 32.4507 22.5787 31.8667C23.4606 32.2236 24.3091 32.658 25.1142 33.1649L25.9356 33.6719C23.3615 31.8317 20.6886 30.1338 17.9288 28.5859C17.7665 29.5392 18.1316 30.7562 17.8375 31.745C17.7684 31.9548 17.6748 32.1556 17.5586 32.3434L18.1671 32.602C18.086 32.5564 18.0353 32.5158 18.0403 32.5107Z" fill="#66AC47"/>
<path d="M22.9365 26.6082C23.2697 26.8537 23.5772 27.1324 23.8543 27.4398C24.407 27.9469 25.1778 28.6873 26.0601 29.4377C26.9424 30.1882 27.7791 30.8322 28.3927 31.2886L28.6006 31.4458C28.7781 31.2024 28.9556 30.9641 29.1483 30.7359L29.1178 30.6852C28.8491 30.3657 28.5144 29.9347 28.1594 29.4428C27.67 28.8336 27.2641 28.1617 26.9526 27.4449C27.2484 27.7254 27.5074 28.0423 27.7233 28.3881C26.4889 26.4588 25.134 24.6094 23.6667 22.8507C23.2427 22.9165 22.8542 23.1259 22.5663 23.444C22.0034 24.1286 22.2113 25.2036 21.9375 26.0149C22.4446 26.4814 23.048 26.9987 23.6667 27.5362C23.3868 27.2573 23.1417 26.9458 22.9365 26.6082Z" fill="#66AC47"/>
<path d="M29.8547 25.0362C31.1224 26.6386 32.1822 27.9165 32.1569 27.9976C32.3901 27.8387 32.6285 27.6866 32.8719 27.5412C32.8719 27.5057 32.8465 27.4753 32.8313 27.4449C31.878 25.0109 30.1488 21.1976 28.9927 18.4137C28.8084 18.4964 28.6289 18.5896 28.4552 18.6926C27.6083 19.1997 27.3294 20.3 26.873 21.1976C27.1672 21.583 27.5018 22.0343 27.8568 22.5211C28.2118 23.0079 28.9977 23.9561 29.8547 25.0362ZM31.163 24.301C31.4879 24.8198 31.7629 25.3682 31.9845 25.9388C32.2832 26.4733 32.5294 27.0354 32.7197 27.6173C31.9478 26.6493 31.4145 25.5132 31.163 24.301Z" fill="#66AC47"/>
<path d="M34.2754 19.3367C34.3929 19.7048 34.4744 20.0836 34.5188 20.4675C34.6405 21.1622 34.8078 22.1307 35.0259 23.1905C35.2084 24.1185 35.3859 24.9501 35.5329 25.6144C35.6039 25.8324 35.6749 26.0302 35.7459 26.2128C36.0147 26.1215 36.2885 26.0403 36.5725 25.9643C36.449 25.4112 36.3626 24.8505 36.3138 24.2858C36.1939 23.7225 36.1361 23.1478 36.1414 22.5719C36.3924 23.1003 36.5404 23.6716 36.5775 24.2554C36.6232 24.5901 36.6435 24.9045 36.6536 25.1732C36.6536 22.5516 36.7094 19.1795 36.7043 16.5122C36.2834 16.9128 35.9741 17.6126 35.2946 18.6166C35.1739 18.784 35.0176 18.9227 34.837 19.0226C34.6565 19.1226 34.456 19.1813 34.25 19.1947L34.2804 19.3924C34.2652 19.362 34.2703 19.3367 34.2754 19.3367Z" fill="#66AC47"/>
<path d="M40.6619 22.0698C40.6366 23.5454 40.5909 24.8233 40.5352 25.4774C40.88 25.4774 41.2248 25.4774 41.5493 25.5332C42.095 24.6774 42.4736 23.7258 42.6649 22.729C43.1112 20.9492 43.7247 18.0892 44.2217 16C43.9074 16.0207 43.6012 16.1089 43.3241 16.2586C42.5432 16.6896 41.595 18.576 41.1031 18.5861C41.0143 18.5793 40.9279 18.5542 40.8494 18.5123C40.7708 18.4704 40.7018 18.4127 40.6467 18.3427V18.5557C40.6619 19.1744 40.6619 20.5131 40.6619 22.0698Z" fill="#66AC47"/>
<path d="M55.6493 35.5837C56.2933 35.3758 57.1705 35.0766 58.1543 34.7115C59.138 34.3464 60.0052 34.0168 60.6339 33.7633L61.2627 33.4945C61.5061 33.388 61.638 33.317 61.6278 33.2968C61.2628 33.3513 60.9054 33.4483 60.5629 33.5858C59.9189 33.7988 59.0417 34.0929 58.063 34.4631C57.0843 34.8332 56.2172 35.1527 55.5884 35.4113C55.2471 35.5326 54.9164 35.6819 54.5996 35.8575C54.9595 35.8104 55.3122 35.7184 55.6493 35.5837Z" fill="#263238"/>
<path d="M56.5007 40.406H56.2015C55.8296 40.3784 55.4558 40.3886 55.0859 40.4364C55.5486 40.5308 56.0186 40.5851 56.4906 40.5987L59.883 40.8573L61.9569 41.0094L63.0877 41.0956C63.0877 41.05 63.0877 41.0043 63.0877 40.9587C63.0877 40.9131 63.0877 40.9232 63.0877 40.9029C62.2409 40.8015 61.1152 40.69 59.8728 40.5936C58.5747 40.4871 57.3932 40.4263 56.5007 40.406Z" fill="#263238"/>
<path d="M58.6306 46.841C57.2435 46.045 55.813 45.3272 54.3457 44.691C54.7736 45.0102 55.2283 45.2919 55.7047 45.5327C56.44 45.9486 57.4237 46.4911 58.5089 47.054C59.8375 47.7639 61.0443 48.3826 61.8151 48.773C61.8151 48.7071 61.8151 48.6412 61.8151 48.5753L61.3435 48.3065C60.6082 47.911 59.665 47.3887 58.6306 46.841Z" fill="#263238"/>
<path d="M56.2375 51.6278C54.9901 50.7404 53.8542 49.9494 53.0175 49.3865L52.8806 49.2902C52.3735 48.9453 51.978 48.6969 51.7853 48.5853L51.8461 48.5092C52.4234 47.7337 52.9228 46.9031 53.337 46.0296C53.5557 45.5656 53.7487 45.0899 53.9151 44.6047C54.2565 43.6188 54.4895 42.5986 54.6098 41.5622C54.6554 41.1514 54.6858 40.7407 54.696 40.3198C54.696 40.1778 54.696 40.0358 54.696 39.8888C54.7035 38.5904 54.5329 37.2971 54.1889 36.0451C53.8715 34.9097 53.4151 33.818 52.8299 32.7947L52.6321 32.4498C52.621 32.2335 52.6628 32.0177 52.7538 31.8211C53.0226 31.172 53.9658 30.7105 54.8937 30.1223C55.8217 29.5341 56.704 29.0524 57.3277 28.6873C57.6867 28.5134 58.0266 28.3027 58.3419 28.0585C58.3419 28.0585 58.2861 28.0585 58.205 28.094C58.0326 28.1548 57.6979 28.3019 57.2568 28.5199C56.6026 28.8445 55.7355 29.3211 54.772 29.8992C54.2954 30.1882 53.8491 30.4671 53.4485 30.7511C53.1882 30.9296 52.9616 31.1528 52.7792 31.4103C52.7038 31.5151 52.6424 31.6293 52.5966 31.7501C52.537 31.9019 52.506 32.0635 52.5054 32.2267C52.4242 32.0999 52.3482 31.9732 52.262 31.8515C51.4039 30.5764 50.3477 29.4466 49.1332 28.5047L48.8442 28.2816C48.8892 28.0509 49.0128 27.843 49.1941 27.6934C49.7722 27.1052 50.5581 26.2735 51.4151 25.3405C52.2721 24.4075 53.0327 23.5606 53.5753 22.9369C53.8892 22.615 54.1711 22.2635 54.4171 21.8872C54.0595 22.1598 53.7314 22.4691 53.4384 22.8101C52.8603 23.4034 52.0743 24.235 51.2174 25.163C50.7103 25.7005 50.264 26.2076 49.8584 26.6843C49.5592 27.0189 49.2854 27.3283 49.0572 27.592C48.9199 27.7386 48.8131 27.9109 48.7428 28.099C48.7279 28.1383 48.7177 28.1791 48.7124 28.2207L48.6718 28.1903C47.6864 27.4834 46.6145 26.9057 45.4822 26.4713C45.2236 26.3699 44.9751 26.2786 44.7013 26.1924C43.6819 25.8659 42.629 25.655 41.5625 25.5636C41.2227 25.5332 40.8779 25.518 40.5483 25.5078C40.6041 24.8537 40.6497 23.5758 40.6751 22.1002C40.7055 20.5435 40.6751 19.2048 40.6751 18.5861C40.6795 18.5034 40.6795 18.4204 40.6751 18.3376L40.6243 18.2819C40.5584 18.5912 40.4824 20.1784 40.4469 22.0951C40.4469 22.2828 40.4469 22.4653 40.4469 22.6428C40.4469 23.8801 40.4469 24.9348 40.4469 25.5078H40.2542C39.0565 25.5143 37.8642 25.6693 36.7046 25.9693H36.6589C36.6873 25.836 36.7009 25.6999 36.6995 25.5636C36.6995 25.4521 36.6995 25.3304 36.6995 25.1884C36.6995 24.9196 36.6691 24.6052 36.6234 24.2705C36.5863 23.6868 36.4383 23.1154 36.1873 22.587C36.182 23.1629 36.2398 23.7377 36.3597 24.301C36.4085 24.8656 36.4949 25.4263 36.6184 25.9794C36.3344 26.0555 36.0606 26.1366 35.7918 26.2279L35.7107 26.2532C35.7107 26.1518 35.6701 26.0403 35.6397 25.9186C35.6093 25.7969 35.5991 25.7259 35.5788 25.6295C35.4369 24.9653 35.2594 24.1336 35.0718 23.2057C34.8689 22.1459 34.7016 21.1773 34.5647 20.4826C34.5203 20.0987 34.4388 19.72 34.3213 19.3518C34.3213 19.3518 34.3213 19.3772 34.3213 19.4076C34.3216 19.7755 34.3453 20.1431 34.3923 20.508C34.4683 21.2128 34.6052 22.1915 34.8131 23.2564C35.0211 24.3213 35.2594 25.2847 35.4571 25.9642C35.4926 26.091 35.5231 26.2025 35.5586 26.309C34.643 26.6285 33.7628 27.0415 32.9319 27.5412C32.6885 27.6866 32.4501 27.8387 32.2169 27.9976C32.2169 27.9165 31.2027 26.6386 29.9147 25.0362C29.0679 23.9714 28.3377 23.0333 27.9168 22.5008C27.6987 22.2321 27.5618 22.085 27.5415 22.1002C27.6918 22.4376 27.8843 22.7546 28.1145 23.0434C28.4999 23.6063 29.0577 24.3618 29.7068 25.1782C30.148 25.731 30.5688 26.238 30.939 26.664L31.4461 27.2116C31.6784 27.4972 31.942 27.7557 32.2321 27.9824L32.0546 28.1092C31.0565 28.8135 30.1517 29.6416 29.362 30.5736C29.1287 30.2288 28.8143 29.7775 28.4594 29.2856L27.8052 28.383C27.5893 28.0372 27.3303 27.7203 27.0345 27.4398C27.346 28.1566 27.7518 28.8285 28.2413 29.4377C28.5963 29.9448 28.9309 30.3606 29.1997 30.6801L29.2352 30.7207C29.0425 30.9489 28.865 31.1872 28.6876 31.4306L28.4797 31.2734C27.8661 30.817 27.0345 30.173 26.1471 29.4225C25.2597 28.672 24.494 27.952 23.9412 27.4246C23.6641 27.1171 23.3566 26.8385 23.0234 26.593C23.2353 26.9299 23.4873 27.2398 23.7739 27.5159L23.8094 27.5565C25.1749 29.0194 26.7065 30.3179 28.3732 31.4255L28.5912 31.5675C27.987 32.4102 27.4768 33.3165 27.07 34.2703C26.7961 34.0928 26.4259 33.8646 25.9949 33.606L25.1734 33.0989C24.3684 32.5921 23.5199 32.1576 22.638 31.8008C23.3843 32.3847 24.1859 32.8943 25.0315 33.322C25.8225 33.7784 26.5527 34.1638 26.999 34.392C26.8773 34.6861 26.7708 34.9802 26.6694 35.2794C26.6481 35.3023 26.6243 35.3227 26.5984 35.3402C26.4278 35.421 26.2382 35.4526 26.0507 35.4315C25.132 35.274 24.2292 35.0347 23.353 34.7165C23.1299 34.6388 22.9068 34.5576 22.6837 34.4731C21.8774 34.1587 21.1624 33.8342 20.4981 33.535L19.4485 33.0279C19.0174 32.7931 18.5659 32.5979 18.0996 32.4448C18.0996 32.4448 18.1452 32.4904 18.2264 32.5411C18.414 32.6679 18.8095 32.8961 19.3673 33.1953C20.408 33.7687 21.4834 34.2767 22.5873 34.7165C23.5689 35.1038 24.5887 35.386 25.6298 35.5583L26.0507 35.6191C26.2438 35.6252 26.4355 35.5834 26.6085 35.4974C26.573 35.6141 26.5375 35.7256 26.5071 35.8422C26.196 36.9141 26.0105 38.0185 25.9544 39.1332C25.9544 39.3665 25.9544 39.6048 25.9544 39.8431C25.9544 40.0815 25.9544 40.1829 25.9544 40.3502C25.9973 41.5312 26.1829 42.7026 26.5071 43.839C26.5831 44.1077 26.6693 44.3714 26.7606 44.6351C27.1659 45.7846 27.7145 46.8784 28.3934 47.8906C28.5506 48.1188 28.7129 48.3419 28.8752 48.5599C29.6088 49.5292 30.4605 50.4031 31.4106 51.1613L31.1976 51.2982C30.9086 51.4909 30.5181 51.7749 30.0922 52.1045C29.5607 52.4589 29.0825 52.8875 28.6723 53.3773C29.2441 53.0931 29.776 52.7351 30.2545 52.3124C30.6939 51.9801 31.1154 51.6246 31.5171 51.2475C31.8315 51.4858 32.1509 51.714 32.4805 51.9321C32.1509 52.2363 31.1976 53.2809 30.0567 54.503C29.007 55.6338 28.0943 56.582 27.7393 57.0029C27.6227 57.1398 27.5618 57.221 27.577 57.2362C27.8831 57.0415 28.1626 56.808 28.4087 56.5415C28.9157 56.08 29.5496 55.431 30.2494 54.6855C30.9492 53.9401 31.4715 53.3265 31.8873 52.8195C31.9177 52.789 31.9481 52.7485 31.9735 52.718C32.2524 52.3783 32.4501 52.1146 32.5414 51.9726H32.5921C33.4244 52.5071 34.3097 52.954 35.234 53.3063C35.2925 53.3992 35.345 53.4957 35.3912 53.5953C35.5305 53.9152 35.6013 54.2606 35.5991 54.6095C35.5869 55.1334 35.4732 55.65 35.2644 56.1307C35.0363 56.6835 34.732 57.292 34.4227 57.9208C33.7939 59.1834 33.1702 60.299 32.7138 61.1002C32.4248 61.6073 32.2067 61.9774 32.085 62.2006H32.1763C32.3284 61.9926 32.5718 61.6478 32.871 61.1864C33.5225 60.168 34.1183 59.1151 34.6559 58.0323C34.9703 57.3934 35.2644 56.7899 35.4876 56.2068C35.6561 55.7876 35.7571 55.3443 35.7868 54.8934C35.7944 54.7871 35.7944 54.6803 35.7868 54.574C35.7711 54.2318 35.6793 53.8975 35.518 53.5953C35.4991 53.5643 35.4822 53.5321 35.4673 53.499C35.4217 53.433 35.3811 53.3823 35.3456 53.3367C36.7876 53.8701 38.3066 54.1664 39.8434 54.2139C40.0057 54.2139 40.173 54.2139 40.3505 54.2139H40.6548C40.9043 54.3957 41.0849 54.6567 41.1669 54.9543C41.32 55.4472 41.3427 55.9713 41.2329 56.4756L40.959 58.4329C40.7765 59.8223 40.6243 61.0799 40.528 61.9825C40.4469 62.4734 40.413 62.9709 40.4266 63.4683C40.5645 62.9909 40.6596 62.5021 40.7106 62.0079C40.7613 61.7036 40.817 61.3537 40.8728 60.9937C40.9793 60.2533 41.101 59.3964 41.2227 58.4583C41.3089 57.7686 41.3951 57.1094 41.4712 56.4958C41.5687 55.9783 41.5338 55.4446 41.3698 54.9442C41.3698 54.9137 41.3698 54.8833 41.3343 54.8529C41.2191 54.6229 41.0439 54.4284 40.8272 54.29H41.1213C43.4707 54.1506 45.7499 53.4367 47.759 52.211C48.0329 52.0436 48.3016 51.8611 48.5653 51.6785C49.5164 51.0058 50.383 50.2209 51.1464 49.3409C51.3492 49.1127 51.5419 48.8743 51.7295 48.6309C51.907 48.7932 52.3177 49.1076 52.8907 49.5386C53.6919 50.137 54.8177 50.9585 56.0651 51.8459C57.0336 52.5355 57.9362 53.1643 58.6766 53.6764L59.2851 54.0923L59.5539 54.2697L59.6958 54.1683L59.422 53.9401C58.6056 53.3367 57.4849 52.5203 56.2375 51.6278ZM40.2846 52.5304C37.7843 52.5304 35.3402 51.789 33.2613 50.3999C31.1824 49.0108 29.5621 47.0365 28.6052 44.7265C27.6484 42.4166 27.3981 39.8748 27.8859 37.4225C28.3736 34.9703 29.5776 32.7178 31.3456 30.9498C33.1136 29.1818 35.3661 27.9778 37.8183 27.49C40.2706 27.0023 42.8124 27.2526 45.1223 28.2094C47.4323 29.1662 49.4067 30.7866 50.7957 32.8655C52.1848 34.9444 52.9262 37.3885 52.9262 39.8888C52.9262 43.2416 51.5944 46.457 49.2236 48.8278C46.8528 51.1985 43.6374 52.5304 40.2846 52.5304Z" fill="#263238"/>
<path d="M54.4847 55.3702C54.1025 54.7414 53.6843 54.1353 53.2322 53.5548C52.8504 52.9262 52.4304 52.3217 51.9746 51.7445C52.2058 52.4535 52.5575 53.1174 53.0141 53.7069C53.4014 54.3444 53.8994 54.9077 54.4847 55.3702Z" fill="#263238"/>
<path d="M51.4818 55.8519L51.4514 55.791L50.4068 54.0111C50.146 53.4933 49.8035 53.0207 49.3926 52.6116C49.3668 52.5897 49.3397 52.5694 49.3115 52.5507C49.1639 52.4397 48.9899 52.3691 48.8067 52.3459C48.6235 52.3228 48.4374 52.348 48.2669 52.4189C48.0082 52.5609 47.9778 52.7434 47.988 52.7384C47.9981 52.7333 48.0742 52.6015 48.3125 52.5152C48.4799 52.4583 48.6598 52.4485 48.8324 52.4869C49.0051 52.5254 49.1638 52.6106 49.2912 52.7333C49.6533 53.1488 49.9555 53.6131 50.1887 54.1126C50.5082 54.6704 50.853 55.2738 51.2029 55.9026C51.9331 57.1703 52.6126 58.3112 53.1146 59.1327L53.3174 59.4573C53.3174 59.3863 53.3631 59.3153 53.3884 59.2443L53.2769 59.0364C52.8306 58.2301 52.2018 57.0942 51.4818 55.8519Z" fill="#263238"/>
<path d="M46.0909 58.1541L46.9327 61.0394C47.026 61.4451 47.1585 61.8408 47.3282 62.2209C47.3029 61.8032 47.2298 61.3897 47.1101 60.9887C46.9884 60.4461 46.816 59.7565 46.6031 58.9908C46.5219 58.6967 46.4357 58.3924 46.3444 58.078C46.0098 56.9523 45.6751 55.9381 45.4114 55.213C45.297 54.8115 45.1353 54.4251 44.9297 54.0619C44.9297 54.0619 44.9297 54.1633 44.9753 54.3306C45.021 54.498 45.1173 54.8377 45.2339 55.2738C45.4824 56.1004 45.7714 57.079 46.0909 58.1541Z" fill="#263238"/>
<path d="M42.8711 56.9523C42.8 57.4241 42.7915 57.9032 42.8458 58.3772C42.8164 58.8533 42.854 59.3313 42.9573 59.797C43.1893 58.8587 43.1595 57.8748 42.8711 56.9523Z" fill="#263238"/>
<path d="M28.3878 48.5093C28.2661 48.2811 28.0937 48.2862 28.0988 48.2963C28.1039 48.3065 28.2255 48.3521 28.2915 48.5499C28.3342 48.6643 28.3342 48.7904 28.2915 48.9048C28.2324 49.0561 28.1301 49.1866 27.9974 49.2801C27.3584 49.706 26.4051 50.2943 25.396 50.9382C24.9599 51.2222 24.5441 51.491 24.1587 51.7496C23.6516 52.0843 23.1902 52.3987 22.815 52.6522C22.4517 52.876 22.1119 53.136 21.8008 53.428C22.1968 53.2621 22.5741 53.0548 22.9265 52.8094C23.606 52.3987 24.534 51.7952 25.5482 51.1614C26.5623 50.5275 27.4801 49.919 28.1292 49.4221C28.2561 49.3187 28.354 49.1842 28.4132 49.0316C28.427 49.0043 28.4372 48.9753 28.4436 48.9454C28.4776 48.798 28.4578 48.6434 28.3878 48.5093Z" fill="#263238"/>
<path d="M26.3754 44.7061C26.5326 44.5236 26.5731 44.3917 26.563 44.3867C26.2614 44.7117 25.8856 44.9587 25.4677 45.1067C25.0874 45.2487 24.6006 45.3552 24.063 45.4921L22.3237 45.9586C21.5885 46.1564 20.8938 46.3491 20.2954 46.5266L19.19 46.8511C18.7502 46.9567 18.3221 47.1062 17.9121 47.2973C18.3626 47.2508 18.8075 47.1608 19.2407 47.0286C20.052 46.8359 21.1727 46.5215 22.4049 46.2122L24.1391 45.7304C24.617 45.6062 25.0876 45.4556 25.5488 45.2791C25.6966 45.2145 25.8391 45.1382 25.9748 45.0509C26.1241 44.9558 26.259 44.8396 26.3754 44.7061Z" fill="#263238"/>
<path d="M25.5293 40.2032C25.1041 40.1476 24.6747 40.1306 24.2464 40.1525C23.4604 40.1525 22.3702 40.1525 21.1684 40.117C19.9666 40.0815 18.8814 40.0511 18.0904 40.0206C17.6653 39.9808 17.2375 39.9808 16.8125 40.0206C16.9413 40.0747 17.0786 40.1056 17.2182 40.1119C17.4311 40.1423 17.7253 40.1778 18.0802 40.2133C18.8662 40.2894 19.9564 40.3604 21.1633 40.3857C21.5791 40.3857 21.9696 40.3857 22.3499 40.3857C23.075 40.3857 23.7342 40.3857 24.2515 40.335C24.6811 40.3411 25.11 40.2968 25.5293 40.2032Z" fill="#263238"/>
<path d="M23.8605 39.5643C24.4204 39.7048 24.998 39.7612 25.5745 39.7316C24.4865 39.3583 23.3472 39.1564 22.1973 39.1332C22.7267 39.3602 23.2875 39.5055 23.8605 39.5643Z" fill="#263238"/>
<path d="M32.7189 27.6021C32.5286 27.0202 32.2823 26.4581 31.9836 25.9237C31.7621 25.353 31.487 24.8046 31.1621 24.2858C31.4136 25.498 31.9469 26.6341 32.7189 27.6021Z" fill="#263238"/>
<path d="M44.9141 25.9998C45.5705 24.6165 46.1494 23.1979 46.6483 21.7504C47.1554 20.3812 47.5965 19.1592 47.8602 18.363L47.7132 18.2921C47.3886 19.0679 46.912 20.2849 46.3998 21.6591C45.8214 23.0762 45.3253 24.5255 44.9141 25.9998Z" fill="#263238"/>
<path d="M47.6727 23.7026C48.189 23.1221 48.6209 22.4717 48.9557 21.7706C48.407 22.3149 47.9081 22.9072 47.4648 23.5403C46.9538 24.1203 46.4956 24.7448 46.0957 25.4064C46.6969 24.9133 47.2276 24.34 47.6727 23.7026Z" fill="#263238"/>
<path d="M53.0296 26.4055C53.6814 26.0405 54.2689 25.5711 54.7689 25.0161C54.1149 25.3596 53.4862 25.7493 52.8876 26.1823C52.2453 26.5467 51.6302 26.9568 51.0469 27.4095C51.7567 27.1818 52.426 26.843 53.0296 26.4055Z" fill="#263238"/>
<path d="M56.4449 30.8374C55.946 31.0104 55.4847 31.2771 55.0859 31.6234C55.5975 31.5122 56.0908 31.3295 56.5514 31.0808C57.0463 30.9122 57.5142 30.6731 57.9408 30.3708C57.4168 30.4288 56.909 30.5872 56.4449 30.8374Z" fill="#263238"/>
<path d="M40.2842 52.5305C47.266 52.5305 52.9259 46.8706 52.9259 39.8888C52.9259 32.907 47.266 27.2472 40.2842 27.2472C33.3024 27.2472 27.6426 32.907 27.6426 39.8888C27.6426 46.8706 33.3024 52.5305 40.2842 52.5305Z" fill="#FAFAFA"/>
<path d="M46.2365 66.2167C46.2688 66.3154 46.2892 66.4175 46.2974 66.521C46.3278 66.7542 46.3684 67.0281 46.4191 67.4033C46.5205 68.2096 46.6574 69.31 46.8298 70.6588C47.1746 73.4021 47.6716 77.1901 48.275 81.3685C48.8784 85.5468 49.492 89.3196 49.9585 92.0477C50.1867 93.3864 50.3693 94.4817 50.5062 95.2778C50.567 95.6378 50.6127 95.9269 50.6482 96.1601C50.6685 96.2621 50.6803 96.3656 50.6837 96.4695C50.6421 96.3739 50.6132 96.2733 50.5975 96.1703C50.5468 95.9421 50.4859 95.6632 50.4048 95.2981C50.2425 94.5425 50.0295 93.4422 49.7709 92.0781C49.2638 89.3601 48.6249 85.5874 48.0164 81.4293C47.4079 77.2712 46.9414 73.4528 46.6422 70.6994C46.4951 69.3252 46.3836 68.2096 46.3177 67.4388C46.2872 67.0737 46.2619 66.7796 46.2467 66.5463C46.2293 66.4373 46.2259 66.3266 46.2365 66.2167Z" fill="#263238"/>
<path d="M38.9121 63.5748C38.9831 63.5748 39.5866 73.8889 40.261 86.6218C40.9354 99.3547 41.4273 109.674 41.3512 109.679C41.2751 109.684 40.6717 99.3649 39.9973 86.632C39.3229 73.899 38.8361 63.5748 38.9121 63.5748Z" fill="#263238"/>
<path d="M34.8738 65.806C34.8769 65.9103 34.865 66.0145 34.8383 66.1154C34.7977 66.3435 34.7419 66.6224 34.676 66.9825C34.5188 67.7685 34.3058 68.8485 34.0421 70.1619C33.4742 72.8748 32.7034 76.5613 31.8465 80.6332C30.9895 84.7051 30.1629 88.3815 29.5747 91.0842C29.2806 92.3925 29.0372 93.4675 28.8597 94.2485C28.7735 94.5933 28.7076 94.8773 28.6518 95.1004C28.6333 95.2033 28.6026 95.3038 28.5605 95.3996C28.5613 95.2952 28.575 95.1913 28.6011 95.0902C28.6417 94.8671 28.6924 94.5831 28.7583 94.2231C28.9155 93.4422 29.1335 92.3621 29.3922 91.0437C29.9652 88.3359 30.7359 84.6493 31.5878 80.5724C32.4397 76.4954 33.2714 72.8241 33.8596 70.1213C34.1588 68.8131 34.4022 67.738 34.5797 66.9571C34.6608 66.6123 34.7318 66.3283 34.7876 66.1052C34.8094 66.0036 34.8382 65.9037 34.8738 65.806Z" fill="#263238"/>
<path d="M41.2634 32.7896L43.0432 36.3899C43.0869 36.4783 43.1511 36.5548 43.2305 36.613C43.31 36.6713 43.4023 36.7096 43.4996 36.7246L47.4752 37.2976C47.5826 37.3173 47.6828 37.3656 47.7651 37.4373C47.8475 37.5091 47.909 37.6017 47.9433 37.7055C47.9775 37.8092 47.9832 37.9202 47.9597 38.0269C47.9362 38.1336 47.8845 38.232 47.8098 38.3118L44.9347 41.1109C44.8643 41.1797 44.8118 41.2646 44.7817 41.3583C44.7517 41.4519 44.745 41.5516 44.7622 41.6484L45.4367 45.6088C45.4566 45.7202 45.4447 45.8349 45.4025 45.94C45.3603 46.045 45.2894 46.136 45.1979 46.2026C45.1064 46.2693 44.998 46.3088 44.8851 46.3168C44.7722 46.3247 44.6594 46.3008 44.5594 46.2477L41.0098 44.3765C40.9219 44.3316 40.8246 44.3081 40.7258 44.3081C40.6271 44.3081 40.5298 44.3316 40.4419 44.3765L36.8923 46.2477C36.7923 46.3008 36.6795 46.3247 36.5666 46.3168C36.4537 46.3088 36.3453 46.2693 36.2538 46.2026C36.1623 46.136 36.0914 46.045 36.0492 45.94C36.007 45.8349 35.9951 45.7202 36.015 45.6088L36.6945 41.6484C36.7107 41.5511 36.703 41.4514 36.6721 41.3578C36.6412 41.2641 36.588 41.1794 36.517 41.1109L33.6419 38.3118C33.5672 38.2317 33.5155 38.1329 33.4923 38.0258C33.4691 37.9188 33.4752 37.8075 33.51 37.7036C33.5448 37.5998 33.607 37.5072 33.69 37.4358C33.773 37.3643 33.8737 37.3166 33.9816 37.2976L37.9521 36.7246C38.0494 36.7096 38.1417 36.6713 38.2212 36.613C38.3006 36.5548 38.3648 36.4783 38.4085 36.3899L40.1883 32.7896C40.2389 32.6905 40.3158 32.6074 40.4107 32.5493C40.5056 32.4912 40.6146 32.4604 40.7258 32.4604C40.8371 32.4604 40.9461 32.4912 41.041 32.5493C41.1359 32.6074 41.2128 32.6905 41.2634 32.7896Z" fill="#66AC47"/>
<path d="M45.5279 31.6689L45.7408 32.3586C45.7879 32.5096 45.8712 32.6467 45.9834 32.7581C46.0957 32.8695 46.2335 32.9517 46.3848 32.9975L47.0745 33.2156L46.3798 33.4488C46.2394 33.497 46.1117 33.5763 46.0064 33.6808C45.901 33.7853 45.8206 33.9123 45.7713 34.0522L45.5279 34.7571L45.2591 34.0218C45.2079 33.8847 45.1266 33.7607 45.0214 33.6589C44.9161 33.5572 44.7894 33.4802 44.6506 33.4336L43.9863 33.2156L44.6405 32.9924C44.7754 32.948 44.8988 32.8739 45.0014 32.7756C45.1041 32.6774 45.1834 32.5574 45.2338 32.4245L45.5279 31.6689Z" fill="#66AC47"/>
<g opacity="0.3">
<path d="M44.7859 25.66C44.7206 25.821 44.6879 25.9934 44.6895 26.1671C44.9532 26.2533 45.1966 26.3446 45.4704 26.446C45.6136 26.3465 45.7417 26.227 45.8507 26.091L50.9926 19.6257C51.2804 19.3436 51.4446 18.9588 51.449 18.5557C51.4512 18.5372 51.4512 18.5185 51.449 18.5C50.521 18.4239 49.4561 18.8853 48.5281 18.5963C48.3064 18.5313 48.0881 18.4551 47.874 18.3681C47.6103 19.1642 47.1742 20.3965 46.6621 21.7554C46.1632 23.203 45.5842 24.6216 44.9278 26.0048C45.3391 24.5305 45.8352 23.0812 46.4136 21.6642C46.9207 20.29 47.4024 19.073 47.7269 18.2971C47.6882 18.2799 47.6509 18.2595 47.6154 18.2363L47.5495 18.2971C46.6232 20.7616 45.702 23.2158 44.7859 25.66ZM47.4633 23.5404C47.9065 22.9073 48.4054 22.315 48.9541 21.7707C48.6194 22.4717 48.1875 23.1221 47.6712 23.7026C47.226 24.3401 46.6954 24.9134 46.0941 25.4065C46.494 24.7449 46.9522 24.1204 47.4633 23.5404Z" fill="black"/>
<path d="M51.2071 25.163C52.0641 24.2351 52.8501 23.4035 53.4282 22.8102C53.7212 22.4691 54.0492 22.1598 54.4069 21.8873C54.1608 22.2635 53.8789 22.6151 53.5651 22.9369C53.0225 23.5607 52.2568 24.4126 51.4049 25.3405C50.553 26.2685 49.762 27.1052 49.1839 27.6934C49.0026 27.843 48.8789 28.0509 48.834 28.2816L49.123 28.5047C52.0895 26.7502 55.4971 24.5292 58.139 22.5718C57.9052 22.3428 57.6226 22.1694 57.3125 22.0647C56.4606 21.7706 55.4109 21.7808 54.5691 21.4512C53.1189 22.9724 51.3745 24.8284 49.8634 26.6539C50.2538 26.2076 50.7153 25.7006 51.2071 25.163Z" fill="black"/>
<path d="M58.3326 28.0788C58.0173 28.323 57.6774 28.5338 57.3185 28.7076C56.6948 29.0727 55.8276 29.5696 54.8844 30.1426C53.9413 30.7156 53.0133 31.1923 52.7445 31.8414C52.6535 32.038 52.6117 32.2538 52.6228 32.4702L52.8206 32.815C55.2445 32.3079 59.0223 30.5534 61.7859 29.4378C60.9441 28.7634 59.6815 28.4997 59.0831 27.5818L58.1957 28.0788C58.2768 28.0788 58.3276 28.0484 58.3326 28.0788ZM56.5528 31.1213C56.0922 31.37 55.5988 31.5527 55.0873 31.6639C55.9344 31.04 56.9095 30.6122 57.9422 30.4114C57.5132 30.6994 57.0454 30.9248 56.5528 31.0807V31.1213Z" fill="black"/>
<path d="M60.6333 33.7633C60.0045 34.0168 59.112 34.3515 58.1537 34.7115C57.1953 35.0716 56.2926 35.3758 55.6487 35.5837C55.309 35.7244 54.9529 35.8215 54.5888 35.8728L54.168 36.0604C54.3065 36.5612 54.4182 37.069 54.5026 37.5816H54.8829C57.464 37.5157 61.6525 37.2622 64.7508 37.0746C64.5974 36.7114 64.3961 36.3703 64.1525 36.0604C63.5997 35.3657 62.9152 34.7267 62.6718 33.8748C62.5989 33.6019 62.5614 33.3207 62.5602 33.0381L61.2519 33.4692L60.6333 33.7633Z" fill="black"/>
<path d="M59.8842 40.8472L56.4918 40.5886C56.0198 40.575 55.5499 40.5207 55.0872 40.4263C55.4571 40.3785 55.8309 40.3683 56.2028 40.3959C55.7768 40.3655 55.356 40.3401 54.93 40.3249H54.6917C54.6917 40.7458 54.6511 41.1565 54.6055 41.5673C57.2677 42.5814 61.1976 43.9607 64.2654 45.0814C64.3728 44.876 64.4317 44.6487 64.4379 44.4171C64.4734 43.2051 63.013 42.2772 63.089 41.1058C62.7087 41.0754 62.3335 41.045 61.9582 41.0044L59.8842 40.8472Z" fill="black"/>
<path d="M55.706 45.5276L54.3064 44.8126L53.9109 44.6199C53.7457 45.0998 53.5544 45.5704 53.3379 46.0296C55.6806 47.8247 58.7586 50.9787 61.365 53.2606C61.6932 53.0807 61.9705 52.8208 62.1713 52.5051C62.8001 51.3996 61.9431 50.0558 61.8214 48.7881C61.0355 48.3977 59.8438 47.7739 58.5152 47.0691C57.425 46.4859 56.4413 45.9434 55.706 45.5276Z" fill="black"/>
<path d="M56.0848 51.8459C54.8373 50.9585 53.7116 50.137 52.9104 49.5387C52.3374 49.1076 51.9266 48.7932 51.7492 48.631C51.5615 48.8744 51.3688 49.1127 51.166 49.3409C51.3483 49.6205 51.559 49.8805 51.7948 50.1167C53.5392 51.9473 56.2774 55.0811 58.3311 57.3174C58.8078 56.5263 58.6912 55.3752 59.2642 54.5994C59.341 54.4997 59.4276 54.4079 59.5228 54.3256L58.6962 53.6765C57.9559 53.1643 57.0533 52.5355 56.0848 51.8459Z" fill="black"/>
<path d="M51.2228 55.9228C50.8577 55.2941 50.5129 54.6906 50.2086 54.1328C49.9754 53.6334 49.6733 53.1691 49.3111 52.7536C49.1837 52.6309 49.025 52.5456 48.8524 52.5072C48.6797 52.4687 48.4999 52.4785 48.3324 52.5355C48.0941 52.6217 48.0282 52.7789 48.0079 52.7586C47.9876 52.7383 48.0079 52.5811 48.2868 52.4392C48.4576 52.3625 48.6456 52.3325 48.8317 52.352C49.0179 52.3716 49.1955 52.4402 49.3466 52.5507C49.1179 52.2436 48.8689 51.9523 48.6012 51.6785C48.3375 51.8611 48.0687 52.0436 47.7949 52.211C48.3781 55.1723 49.9044 59.5079 51.3445 62.9713C51.5486 63.0091 51.7582 63.0048 51.9605 62.9586C52.1628 62.9124 52.3536 62.8252 52.521 62.7026C53.4236 62.0129 53.0534 60.5627 53.3627 59.4775L53.1599 59.153C52.6325 58.3315 51.953 57.1906 51.2228 55.9228Z" fill="black"/>
<path d="M47.1086 60.9886C47.2282 61.3897 47.3013 61.8031 47.3266 62.2208C47.1569 61.8407 47.0244 61.445 46.9311 61.0393L46.0893 58.154C45.7699 57.079 45.4808 56.1003 45.2323 55.2738C45.1157 54.863 45.0245 54.5385 44.9737 54.3306L44.8216 53.9756C44.6898 56.866 44.8622 60.9177 45.0599 64.1681C45.809 63.5338 46.6272 62.9861 47.499 62.5353C47.2658 61.4045 46.9564 60.1925 46.6015 58.9856C46.8145 59.7564 46.9869 60.4461 47.1086 60.9886Z" fill="black"/>
<path d="M40.6846 62.013C40.6336 62.5073 40.5386 62.996 40.4006 63.4734C40.387 62.976 40.421 62.4785 40.502 61.9876C40.5984 61.0749 40.7505 59.8173 40.9331 58.438L41.2069 56.4807C41.3167 55.9764 41.294 55.4523 41.141 54.9594C41.0281 54.6952 40.8346 54.4734 40.5882 54.3256H40.284C40.1167 54.3256 39.9493 54.3256 39.7769 54.3256C39.756 54.3397 39.7372 54.3568 39.7211 54.3763C39.4359 54.7135 39.2297 55.1103 39.1177 55.5375C38.2354 58.149 37.353 62.0434 36.4707 64.8527C37.5153 64.6346 38.1897 63.3618 39.2698 63.2908C39.7581 63.2924 40.2289 63.4728 40.5933 63.7979C40.6795 62.9359 40.7556 61.9826 40.8367 61.014C40.7911 61.3588 40.7353 61.7087 40.6846 62.013Z" fill="black"/>
<path d="M34.3664 57.9968C34.6757 57.368 34.9799 56.7595 35.2081 56.2068C35.4169 55.7261 35.5306 55.2095 35.5428 54.6856C35.545 54.3367 35.4742 53.9912 35.3349 53.6714C35.1316 53.7134 34.951 53.8289 34.8278 53.9959C32.8603 56.1815 30.0866 59.7057 28.0684 62.4287C29.1839 62.8496 30.7153 62.1346 32.0287 62.2766C32.1504 62.0535 32.3684 61.6783 32.6575 61.1762C33.1139 60.37 33.7376 59.2544 34.3664 57.9968Z" fill="black"/>
<path d="M27.6826 57.0486C28.0375 56.6277 28.9503 55.6794 29.9999 54.5486C31.1409 53.3266 32.0942 52.282 32.4238 51.9777C32.0942 51.7597 31.7747 51.5315 31.4603 51.2932C31.0587 51.6703 30.6372 52.0258 30.1977 52.358C29.7193 52.7808 29.1873 53.1388 28.6156 53.4229C29.0258 52.9332 29.5039 52.5046 30.0354 52.1501C30.4614 51.8205 30.8518 51.5366 31.1409 51.3439C30.5266 51.6034 29.9501 51.9445 29.4269 52.358L23.418 56.8609C24.4626 57.0435 25.6441 57.0891 26.2982 57.8751C26.3968 57.9945 26.4803 58.1257 26.5467 58.2656C26.8763 57.8701 27.2668 57.4897 27.6826 57.0486Z" fill="black"/>
<path d="M25.3947 50.9383C26.4089 50.2791 27.3571 49.7061 27.9961 49.2801C28.1288 49.1866 28.2311 49.0561 28.2902 48.9049C28.3329 48.7904 28.3329 48.6644 28.2902 48.5499C28.2242 48.3522 28.0873 48.3167 28.0975 48.2964C28.1076 48.2761 28.2648 48.2964 28.3865 48.5094C28.4531 48.6447 28.4693 48.7993 28.4322 48.9454C28.4258 48.9754 28.4155 49.0044 28.4017 49.0317C28.566 48.9237 28.7017 48.7775 28.7972 48.6057C28.635 48.3877 28.4727 48.1645 28.3155 47.9364C28.1095 47.9284 27.9037 47.9558 27.707 48.0175C24.9941 48.7325 20.8512 50.2791 17.6211 51.4758C18.6353 52.2162 20.4861 51.8967 21.1403 53.0376C21.212 53.177 21.2649 53.3254 21.2975 53.4788C22.1849 52.9362 23.1737 52.3429 24.1574 51.7496C24.5428 51.491 24.9383 51.2223 25.3947 50.9383Z" fill="black"/>
<path d="M22.3229 45.9585L24.0622 45.492C24.5997 45.3551 25.0764 45.2486 25.4669 45.1066C25.8848 44.9586 26.2606 44.7116 26.5622 44.3866C26.5622 44.3866 26.5317 44.5235 26.3745 44.706C26.2551 44.8403 26.1167 44.9565 25.9638 45.0509L26.1819 44.9748C26.3728 44.9207 26.5472 44.8196 26.6889 44.6807C26.5977 44.417 26.5115 44.1736 26.4354 43.8846C26.2189 43.8004 25.9881 43.7591 25.7559 43.7629C22.4024 43.6445 19.0488 43.5465 15.6953 43.4688C16.1618 44.2598 17.2166 44.6097 17.6324 45.4261C17.8744 45.9473 17.9159 46.5394 17.749 47.0893L20.2844 46.5265C20.8828 46.3338 21.5877 46.1563 22.3229 45.9585Z" fill="black"/>
<path d="M16.8269 40.0156C17.252 39.9757 17.6798 39.9757 18.1048 40.0156C18.8959 40.046 19.981 40.0866 21.1828 40.1119C22.3846 40.1373 23.4748 40.1423 24.2608 40.1474C24.6891 40.1255 25.1185 40.1425 25.5438 40.1981C25.1246 40.2935 24.6957 40.3394 24.2659 40.335C23.7588 40.3655 23.0895 40.3807 22.3643 40.3857C23.6118 40.4364 24.8085 40.4517 25.8125 40.3857H25.8936C25.8936 40.2184 25.8936 40.0511 25.8936 39.8787C25.8936 39.7062 25.8936 39.402 25.8936 39.1687L25.8226 39.1231C23.0489 37.47 19.0632 36.2783 15.7621 35.3757C15.7232 35.6482 15.779 35.9258 15.9202 36.1621C16.0614 36.3984 16.2795 36.5791 16.5379 36.6739L16.4669 36.2175C17.2833 36.5725 17.5064 37.6728 17.2478 38.5247C17.0573 39.0666 16.7909 39.5788 16.4568 40.046L17.2276 40.0916C17.0906 40.0896 16.9551 40.0638 16.8269 40.0156ZM23.9261 39.3006C24.5007 39.3597 25.0631 39.505 25.5945 39.7316C25.018 39.7612 24.4404 39.7048 23.8805 39.5643C23.3075 39.5055 22.7467 39.3602 22.2173 39.1332C22.7921 39.1034 23.3681 39.1598 23.9261 39.3006Z" fill="black"/>
<path d="M18.0384 32.5107C18.5047 32.6639 18.9562 32.8591 19.3872 33.0939L20.4369 33.601C21.3699 34.0015 22.3435 34.4072 23.2918 34.7825C24.1679 35.1006 25.0708 35.3399 25.9895 35.4975C26.177 35.5186 26.3666 35.4869 26.5371 35.4062C26.563 35.3887 26.5869 35.3682 26.6081 35.3453C26.7095 35.0461 26.816 34.752 26.9377 34.4579C26.4712 34.2297 25.7613 33.8444 24.9702 33.388C24.1247 32.9602 23.323 32.4507 22.5768 31.8667C23.4587 32.2236 24.3071 32.658 25.1122 33.1649L25.9337 33.6719C23.3596 31.8317 20.6866 30.1338 17.9268 28.5859C17.7646 29.5392 18.1296 30.7562 17.8355 31.745C17.7665 31.9548 17.6729 32.1556 17.5566 32.3434L18.1651 32.602C18.084 32.5564 18.0333 32.5158 18.0384 32.5107Z" fill="black"/>
<path d="M22.9365 26.6082C23.2697 26.8537 23.5772 27.1324 23.8543 27.4398C24.407 27.9469 25.1778 28.6873 26.0601 29.4377C26.9424 30.1882 27.7791 30.8322 28.3927 31.2886L28.6006 31.4458C28.7781 31.2024 28.9556 30.9641 29.1483 30.7359L29.1178 30.6852C28.8491 30.3657 28.5144 29.9347 28.1594 29.4428C27.67 28.8336 27.2641 28.1617 26.9526 27.4449C27.2484 27.7254 27.5074 28.0423 27.7233 28.3881C26.4889 26.4588 25.134 24.6094 23.6667 22.8507C23.2427 22.9165 22.8542 23.1259 22.5663 23.444C22.0034 24.1286 22.2113 25.2036 21.9375 26.0149C22.4446 26.4814 23.048 26.9987 23.6667 27.5362C23.3868 27.2573 23.1417 26.9458 22.9365 26.6082Z" fill="black"/>
<path d="M29.8547 25.0362C31.1224 26.6386 32.1822 27.9165 32.1569 27.9976C32.3901 27.8387 32.6285 27.6866 32.8719 27.5412C32.8719 27.5057 32.8465 27.4753 32.8313 27.4449C31.878 25.0109 30.1488 21.1976 28.9927 18.4137C28.8084 18.4964 28.6289 18.5896 28.4552 18.6926C27.6083 19.1997 27.3294 20.3 26.873 21.1976C27.1672 21.583 27.5018 22.0343 27.8568 22.5211C28.2118 23.0079 28.9977 23.9561 29.8547 25.0362ZM31.163 24.301C31.4879 24.8198 31.7629 25.3682 31.9845 25.9388C32.2832 26.4733 32.5294 27.0354 32.7197 27.6173C31.9478 26.6493 31.4145 25.5132 31.163 24.301Z" fill="black"/>
<path d="M34.2734 19.3367C34.3909 19.7048 34.4725 20.0836 34.5168 20.4675C34.6385 21.1622 34.8059 22.1307 35.0239 23.1905C35.2065 24.1185 35.3839 24.9501 35.531 25.6144C35.602 25.8324 35.673 26.0302 35.744 26.2128C36.0127 26.1215 36.2865 26.0403 36.5705 25.9643C36.447 25.4112 36.3606 24.8505 36.3119 24.2858C36.192 23.7225 36.1341 23.1478 36.1395 22.5719C36.3905 23.1003 36.5385 23.6716 36.5756 24.2554C36.6212 24.5901 36.6415 24.9045 36.6516 25.1732C36.6516 22.5516 36.7074 19.1795 36.7024 16.5122C36.2815 16.9128 35.9722 17.6126 35.2927 18.6166C35.1719 18.784 35.0157 18.9227 34.8351 19.0226C34.6545 19.1226 34.454 19.1813 34.248 19.1947L34.2785 19.3924C34.2633 19.362 34.2683 19.3367 34.2734 19.3367Z" fill="black"/>
<path d="M40.66 22.0698C40.6346 23.5454 40.589 24.8233 40.5332 25.4774C40.878 25.4774 41.2228 25.4774 41.5474 25.5332C42.0931 24.6774 42.4716 23.7258 42.663 22.729C43.1092 20.9492 43.7228 18.0892 44.2197 16C43.9054 16.0207 43.5993 16.1089 43.3222 16.2586C42.5413 16.6896 41.593 18.576 41.1011 18.5861C41.0124 18.5793 40.926 18.5542 40.8474 18.5123C40.7689 18.4704 40.6999 18.4127 40.6448 18.3427V18.5557C40.66 19.1744 40.66 20.5131 40.66 22.0698Z" fill="black"/>
</g>
</svg>
