<svg width="21" height="20" viewBox="0 0 21 20" fill="none" xmlns="http://www.w3.org/2000/svg">
<mask id="mask0_228_7323" style="mask-type:alpha" maskUnits="userSpaceOnUse" x="0" y="0" width="21" height="20">
<rect x="0.75" width="20" height="20" fill="#D9D9D9"/>
</mask>
<g mask="url(#mask0_228_7323)">
<path d="M10.7493 11.167L13.166 13.5837C13.3188 13.7364 13.5132 13.8128 13.7493 13.8128C13.9855 13.8128 14.1799 13.7364 14.3327 13.5837C14.4855 13.4309 14.5618 13.2364 14.5618 13.0003C14.5618 12.7642 14.4855 12.5698 14.3327 12.417L11.916 10.0003L14.3327 7.58366C14.4855 7.43088 14.5618 7.23644 14.5618 7.00033C14.5618 6.76421 14.4855 6.56977 14.3327 6.41699C14.1799 6.26421 13.9855 6.18783 13.7493 6.18783C13.5132 6.18783 13.3188 6.26421 13.166 6.41699L10.7493 8.83366L8.33268 6.41699C8.1799 6.26421 7.98546 6.18783 7.74935 6.18783C7.51324 6.18783 7.31879 6.26421 7.16602 6.41699C7.01324 6.56977 6.93685 6.76421 6.93685 7.00033C6.93685 7.23644 7.01324 7.43088 7.16602 7.58366L9.58268 10.0003L7.16602 12.417C7.01324 12.5698 6.93685 12.7642 6.93685 13.0003C6.93685 13.2364 7.01324 13.4309 7.16602 13.5837C7.31879 13.7364 7.51324 13.8128 7.74935 13.8128C7.98546 13.8128 8.1799 13.7364 8.33268 13.5837L10.7493 11.167ZM10.7493 18.3337C9.59657 18.3337 8.51324 18.1149 7.49935 17.6774C6.48546 17.2399 5.60352 16.6462 4.85352 15.8962C4.10352 15.1462 3.50977 14.2642 3.07227 13.2503C2.63477 12.2364 2.41602 11.1531 2.41602 10.0003C2.41602 8.84755 2.63477 7.76421 3.07227 6.75033C3.50977 5.73644 4.10352 4.85449 4.85352 4.10449C5.60352 3.35449 6.48546 2.76074 7.49935 2.32324C8.51324 1.88574 9.59657 1.66699 10.7493 1.66699C11.9021 1.66699 12.9855 1.88574 13.9993 2.32324C15.0132 2.76074 15.8952 3.35449 16.6452 4.10449C17.3952 4.85449 17.9889 5.73644 18.4264 6.75033C18.8639 7.76421 19.0827 8.84755 19.0827 10.0003C19.0827 11.1531 18.8639 12.2364 18.4264 13.2503C17.9889 14.2642 17.3952 15.1462 16.6452 15.8962C15.8952 16.6462 15.0132 17.2399 13.9993 17.6774C12.9855 18.1149 11.9021 18.3337 10.7493 18.3337Z" fill="#F74263"/>
</g>
</svg>
