<svg width="110" height="25" viewBox="0 0 110 25" fill="none" xmlns="http://www.w3.org/2000/svg">
<path d="M15.5938 4.67188H5.14062V10.2969H14.7656C15.474 10.2969 16 10.4583 16.3438 10.7812C16.6979 11.0938 16.875 11.5104 16.875 12.0312C16.875 12.5521 16.7031 12.9792 16.3594 13.3125C16.0156 13.6354 15.4844 13.7969 14.7656 13.7969H5.14062V20.3125H15.9531C16.6823 20.3125 17.2292 20.4844 17.5938 20.8281C17.9688 21.1615 18.1562 21.6094 18.1562 22.1719C18.1562 22.7135 17.9688 23.1562 17.5938 23.5C17.2292 23.8333 16.6823 24 15.9531 24H3.34375C2.33333 24 1.60417 23.776 1.15625 23.3281C0.71875 22.8802 0.5 22.1562 0.5 21.1562V3.9375C0.5 3.27083 0.598958 2.72917 0.796875 2.3125C0.994792 1.88542 1.30208 1.57812 1.71875 1.39062C2.14583 1.19271 2.6875 1.09375 3.34375 1.09375H15.5938C16.3333 1.09375 16.8802 1.26042 17.2344 1.59375C17.599 1.91667 17.7812 2.34375 17.7812 2.875C17.7812 3.41667 17.599 3.85417 17.2344 4.1875C16.8802 4.51042 16.3333 4.67188 15.5938 4.67188ZM28.0781 14.2031H26.4531V21.5625C26.4531 22.5312 26.2396 23.2448 25.8125 23.7031C25.3854 24.1615 24.8281 24.3906 24.1406 24.3906C23.401 24.3906 22.8281 24.151 22.4219 23.6719C22.0156 23.1927 21.8125 22.4896 21.8125 21.5625V3.9375C21.8125 2.9375 22.0365 2.21354 22.4844 1.76562C22.9323 1.31771 23.6562 1.09375 24.6562 1.09375H32.2031C33.2448 1.09375 34.1354 1.14062 34.875 1.23438C35.6146 1.31771 36.2812 1.49479 36.875 1.76562C37.5938 2.06771 38.2292 2.5 38.7812 3.0625C39.3333 3.625 39.75 4.28125 40.0312 5.03125C40.3229 5.77083 40.4688 6.55729 40.4688 7.39062C40.4688 9.09896 39.9844 10.4635 39.0156 11.4844C38.0573 12.5052 36.599 13.2292 34.6406 13.6562C35.4635 14.0938 36.25 14.7396 37 15.5938C37.75 16.4479 38.4167 17.3594 39 18.3281C39.5938 19.2865 40.0521 20.1562 40.375 20.9375C40.7083 21.7083 40.875 22.2396 40.875 22.5312C40.875 22.8333 40.776 23.1354 40.5781 23.4375C40.3906 23.7292 40.1302 23.9583 39.7969 24.125C39.4635 24.3021 39.0781 24.3906 38.6406 24.3906C38.1198 24.3906 37.6823 24.2656 37.3281 24.0156C36.974 23.776 36.6667 23.4688 36.4062 23.0938C36.1562 22.7188 35.8125 22.1667 35.375 21.4375L33.5156 18.3438C32.849 17.2083 32.25 16.3438 31.7188 15.75C31.1979 15.1562 30.6667 14.75 30.125 14.5312C29.5833 14.3125 28.901 14.2031 28.0781 14.2031ZM30.7344 4.57812H26.4531V10.875H30.6094C31.724 10.875 32.6615 10.7812 33.4219 10.5938C34.1823 10.3958 34.7604 10.0677 35.1562 9.60938C35.5625 9.14062 35.7656 8.5 35.7656 7.6875C35.7656 7.05208 35.6042 6.49479 35.2812 6.01562C34.9583 5.52604 34.5104 5.16146 33.9375 4.92188C33.3958 4.69271 32.3281 4.57812 30.7344 4.57812ZM53.7656 15.0781H49.5156V21.5625C49.5156 22.4896 49.2969 23.1927 48.8594 23.6719C48.4219 24.151 47.8698 24.3906 47.2031 24.3906C46.5052 24.3906 45.9427 24.1562 45.5156 23.6875C45.0885 23.2083 44.875 22.5104 44.875 21.5938V3.9375C44.875 2.91667 45.1094 2.1875 45.5781 1.75C46.0469 1.3125 46.7917 1.09375 47.8125 1.09375H53.7656C55.526 1.09375 56.8802 1.22917 57.8281 1.5C58.7656 1.76042 59.5729 2.19271 60.25 2.79688C60.9375 3.40104 61.4583 4.14062 61.8125 5.01562C62.1667 5.89062 62.3438 6.875 62.3438 7.96875C62.3438 10.3021 61.625 12.0729 60.1875 13.2812C58.75 14.4792 56.6094 15.0781 53.7656 15.0781ZM52.6406 4.57812H49.5156V11.5781H52.6406C53.7344 11.5781 54.6458 11.4635 55.375 11.2344C56.1146 11.0052 56.6771 10.6302 57.0625 10.1094C57.4479 9.58854 57.6406 8.90625 57.6406 8.0625C57.6406 7.05208 57.3438 6.22917 56.75 5.59375C56.0833 4.91667 54.7135 4.57812 52.6406 4.57812Z" fill="#093F63"/>
<path d="M85.7344 16.7656C85.7344 17.4948 85.5521 18.2865 85.1875 19.1406C84.8333 19.9844 84.2708 20.8177 83.5 21.6406C82.7292 22.4531 81.7448 23.1146 80.5469 23.625C79.349 24.1354 77.9531 24.3906 76.3594 24.3906C75.151 24.3906 74.0521 24.276 73.0625 24.0469C72.0729 23.8177 71.1719 23.4635 70.3594 22.9844C69.5573 22.4948 68.8177 21.8542 68.1406 21.0625C67.5365 20.3438 67.0208 19.5417 66.5938 18.6562C66.1667 17.7604 65.8438 16.8073 65.625 15.7969C65.4167 14.7865 65.3125 13.7135 65.3125 12.5781C65.3125 10.7344 65.5781 9.08333 66.1094 7.625C66.651 6.16667 67.4219 4.92188 68.4219 3.89062C69.4219 2.84896 70.5938 2.05729 71.9375 1.51562C73.2812 0.973958 74.7135 0.703125 76.2344 0.703125C78.0885 0.703125 79.7396 1.07292 81.1875 1.8125C82.6354 2.55208 83.7448 3.46875 84.5156 4.5625C85.2865 5.64583 85.6719 6.67188 85.6719 7.64062C85.6719 8.17188 85.4844 8.64062 85.1094 9.04688C84.7344 9.45312 84.2812 9.65625 83.75 9.65625C83.1562 9.65625 82.7083 9.51562 82.4062 9.23438C82.1146 8.95312 81.7865 8.46875 81.4219 7.78125C80.8177 6.64583 80.1042 5.79688 79.2812 5.23438C78.4688 4.67188 77.4635 4.39062 76.2656 4.39062C74.3594 4.39062 72.8385 5.11458 71.7031 6.5625C70.5781 8.01042 70.0156 10.0677 70.0156 12.7344C70.0156 14.5156 70.2656 16 70.7656 17.1875C71.2656 18.3646 71.974 19.2448 72.8906 19.8281C73.8073 20.4115 74.8802 20.7031 76.1094 20.7031C77.4427 20.7031 78.5677 20.375 79.4844 19.7188C80.4115 19.0521 81.1094 18.0781 81.5781 16.7969C81.776 16.1927 82.0208 15.7031 82.3125 15.3281C82.6042 14.9427 83.0729 14.75 83.7188 14.75C84.2708 14.75 84.7448 14.9427 85.1406 15.3281C85.5365 15.7135 85.7344 16.1927 85.7344 16.7656ZM104.562 21.4062L103.469 18.5312H94.1562L93.0625 21.4688C92.6354 22.6146 92.2708 23.3906 91.9688 23.7969C91.6667 24.1927 91.1719 24.3906 90.4844 24.3906C89.901 24.3906 89.3854 24.1771 88.9375 23.75C88.4896 23.3229 88.2656 22.8385 88.2656 22.2969C88.2656 21.9844 88.3177 21.6615 88.4219 21.3281C88.526 20.9948 88.6979 20.5312 88.9375 19.9375L94.7969 5.0625C94.9635 4.63542 95.1615 4.125 95.3906 3.53125C95.6302 2.92708 95.8802 2.42708 96.1406 2.03125C96.4115 1.63542 96.7604 1.31771 97.1875 1.07812C97.625 0.828125 98.1615 0.703125 98.7969 0.703125C99.4427 0.703125 99.9792 0.828125 100.406 1.07812C100.844 1.31771 101.193 1.63021 101.453 2.01562C101.724 2.40104 101.948 2.81771 102.125 3.26562C102.312 3.70312 102.547 4.29167 102.828 5.03125L108.812 19.8125C109.281 20.9375 109.516 21.7552 109.516 22.2656C109.516 22.7969 109.292 23.2865 108.844 23.7344C108.406 24.1719 107.875 24.3906 107.25 24.3906C106.885 24.3906 106.573 24.3229 106.312 24.1875C106.052 24.0625 105.833 23.8906 105.656 23.6719C105.479 23.4427 105.286 23.099 105.078 22.6406C104.88 22.1719 104.708 21.7604 104.562 21.4062ZM95.375 15.0469H102.219L98.7656 5.59375L95.375 15.0469Z" fill="#66AC47"/>
</svg>
