<?xml version="1.0" encoding="UTF-8"?>
<svg version="1.1" xmlns="http://www.w3.org/2000/svg" width="32" height="32">
<path d="M0 0 C10.56 0 21.12 0 32 0 C32 10.56 32 21.12 32 32 C21.44 32 10.88 32 0 32 C0 21.44 0 10.88 0 0 Z " fill="#FBFCFC" transform="translate(0,0)"/>
<path d="M0 0 C0.98033203 -0.01224609 1.96066406 -0.02449219 2.97070312 -0.03710938 C3.90720703 -0.03904297 4.84371094 -0.04097656 5.80859375 -0.04296875 C6.67154053 -0.04707764 7.5344873 -0.05118652 8.42358398 -0.05541992 C10.5625 0.1875 10.5625 0.1875 12.5625 2.1875 C12.875 5.1875 12.875 5.1875 12.5625 8.1875 C11.5725 8.8475 10.5825 9.5075 9.5625 10.1875 C11.2125 12.8275 12.8625 15.4675 14.5625 18.1875 C10.5625 17.1875 10.5625 17.1875 7.5625 16.1875 C7.2325 16.8475 6.9025 17.5075 6.5625 18.1875 C4.22916667 18.1875 1.89583333 18.1875 -0.4375 18.1875 C-1.59958984 18.20490234 -1.59958984 18.20490234 -2.78515625 18.22265625 C-4.12900391 18.23619141 -4.12900391 18.23619141 -5.5 18.25 C-6.39847656 18.26160156 -7.29695312 18.27320312 -8.22265625 18.28515625 C-10.4375 18.1875 -10.4375 18.1875 -11.4375 17.1875 C-11.53731214 14.5101862 -11.57629875 11.86445825 -11.5625 9.1875 C-11.56636719 8.43726563 -11.57023438 7.68703125 -11.57421875 6.9140625 C-11.55825916 -1.92754967 -7.72305426 0.00505766 0 0 Z " fill="#FAFBFA" transform="translate(14.4375,6.8125)"/>
<path d="M0 0 C0.98033203 -0.01224609 1.96066406 -0.02449219 2.97070312 -0.03710938 C3.90720703 -0.03904297 4.84371094 -0.04097656 5.80859375 -0.04296875 C6.67154053 -0.04707764 7.5344873 -0.05118652 8.42358398 -0.05541992 C10.5625 0.1875 10.5625 0.1875 12.5625 2.1875 C12.6875 5.3125 12.6875 5.3125 12.5625 8.1875 C11.2425 8.1875 9.9225 8.1875 8.5625 8.1875 C8.5625 6.8675 8.5625 5.5475 8.5625 4.1875 C3.2825 3.8575 -1.9975 3.5275 -7.4375 3.1875 C-7.4375 4.5075 -7.4375 5.8275 -7.4375 7.1875 C-4.7975 7.1875 -2.1575 7.1875 0.5625 7.1875 C-0.4275 8.6725 -0.4275 8.6725 -1.4375 10.1875 C-4.5625 10.375 -4.5625 10.375 -7.4375 10.1875 C-7.4375 11.8375 -7.4375 13.4875 -7.4375 15.1875 C-5.4575 15.1875 -3.4775 15.1875 -1.4375 15.1875 C-1.1075 16.1775 -0.7775 17.1675 -0.4375 18.1875 C-2.08324566 18.21438151 -3.72911413 18.23384123 -5.375 18.25 C-6.29152344 18.26160156 -7.20804687 18.27320312 -8.15234375 18.28515625 C-10.4375 18.1875 -10.4375 18.1875 -11.4375 17.1875 C-11.53731214 14.5101862 -11.57629875 11.86445825 -11.5625 9.1875 C-11.56636719 8.43726563 -11.57023438 7.68703125 -11.57421875 6.9140625 C-11.55825916 -1.92754967 -7.72305426 0.00505766 0 0 Z " fill="#17486A" transform="translate(14.4375,6.8125)"/>
<path d="M0 0 C2.01953125 2.40625 2.01953125 2.40625 3.8125 5.5 C4.41707031 6.5209375 5.02164062 7.541875 5.64453125 8.59375 C6.09183594 9.3878125 6.53914063 10.181875 7 11 C4.61435923 10.42415568 2.33317216 9.77772405 0 9 C-0.33 9.66 -0.66 10.32 -1 11 C-3.375 11.125 -3.375 11.125 -6 11 C-8 9 -8 9 -8.3125 6.0625 C-8 3 -8 3 -6.8125 1.125 C-4.29478167 -0.43772173 -2.92395213 -0.46121864 0 0 Z " fill="#265670" transform="translate(22,14)"/>
<path d="M0 0 C5.80512153 0.14105903 5.80512153 0.14105903 8.02734375 2.36328125 C8.15234375 5.48828125 8.15234375 5.48828125 8.02734375 8.36328125 C6.70734375 8.36328125 5.38734375 8.36328125 4.02734375 8.36328125 C4.02734375 7.04328125 4.02734375 5.72328125 4.02734375 4.36328125 C1.05734375 4.03328125 -1.91265625 3.70328125 -4.97265625 3.36328125 C-1.97265625 0.36328125 -1.97265625 0.36328125 0 0 Z " fill="#6EB359" transform="translate(18.97265625,6.63671875)"/>
<path d="M0 0 C-0.66 2.31 -1.32 4.62 -2 7 C-4.31 6.67 -6.62 6.34 -9 6 C-9 4.35 -9 2.7 -9 1 C-2.25 -1.125 -2.25 -1.125 0 0 Z " fill="#EFF2F5" transform="translate(16,16)"/>
<path d="M0 0 C3 1 3 1 4.1875 3.0625 C4.455625 3.701875 4.72375 4.34125 5 5 C3.35 5.66 1.7 6.32 0 7 C-0.66 6.34 -1.32 5.68 -2 5 C-1.46428571 1.46428571 -1.46428571 1.46428571 0 0 Z " fill="#EAEEF0" transform="translate(18,16)"/>
<path d="M0 0 C0.4125 0.639375 0.825 1.27875 1.25 1.9375 C3.17810487 4.20990931 4.11424181 4.60196439 7 5 C6.67 5.66 6.34 6.32 6 7 C3.625 7.125 3.625 7.125 1 7 C0.34 6.34 -0.32 5.68 -1 5 C-0.625 2.375 -0.625 2.375 0 0 Z " fill="#406F79" transform="translate(15,18)"/>
</svg>
