<svg width="98" height="99" viewBox="0 0 98 99" fill="none" xmlns="http://www.w3.org/2000/svg">
<g filter="url(#filter0_d_18_1543)">
<rect x="15" y="15.5" width="68" height="68" rx="15" fill="#036EC0" shape-rendering="crispEdges"/>
<mask id="mask0_18_1543" style="mask-type:alpha" maskUnits="userSpaceOnUse" x="25" y="25" width="48" height="49">
<rect x="25" y="25.5" width="48" height="48" fill="#D9D9D9"/>
</mask>
<g mask="url(#mask0_18_1543)">
<path d="M59.5 65.5C59.075 65.5 58.7188 65.3562 58.4315 65.0685C58.1438 64.7812 58 64.425 58 64V53C58 52.575 58.1438 52.2187 58.4315 51.931C58.7188 51.6437 59.075 51.5 59.5 51.5H63.5C63.925 51.5 64.2813 51.6437 64.569 51.931C64.8563 52.2187 65 52.575 65 53V64C65 64.425 64.8563 64.7812 64.569 65.0685C64.2813 65.3562 63.925 65.5 63.5 65.5H59.5ZM47 65.5C46.575 65.5 46.2188 65.3562 45.9315 65.0685C45.6438 64.7812 45.5 64.425 45.5 64V35C45.5 34.575 45.6438 34.2187 45.9315 33.931C46.2188 33.6437 46.575 33.5 47 33.5H51C51.425 33.5 51.7813 33.6437 52.069 33.931C52.3563 34.2187 52.5 34.575 52.5 35V64C52.5 64.425 52.3563 64.7812 52.069 65.0685C51.7813 65.3562 51.425 65.5 51 65.5H47ZM34.5 65.5C34.075 65.5 33.7188 65.3562 33.4315 65.0685C33.1438 64.7812 33 64.425 33 64V45C33 44.575 33.1438 44.2187 33.4315 43.931C33.7188 43.6437 34.075 43.5 34.5 43.5H38.5C38.925 43.5 39.2813 43.6437 39.569 43.931C39.8563 44.2187 40 44.575 40 45V64C40 64.425 39.8563 64.7812 39.569 65.0685C39.2813 65.3562 38.925 65.5 38.5 65.5H34.5Z" fill="white"/>
</g>
</g>
<defs>
<filter id="filter0_d_18_1543" x="0" y="0.5" width="98" height="98" filterUnits="userSpaceOnUse" color-interpolation-filters="sRGB">
<feFlood flood-opacity="0" result="BackgroundImageFix"/>
<feColorMatrix in="SourceAlpha" type="matrix" values="0 0 0 0 0 0 0 0 0 0 0 0 0 0 0 0 0 0 127 0" result="hardAlpha"/>
<feOffset/>
<feGaussianBlur stdDeviation="7.5"/>
<feComposite in2="hardAlpha" operator="out"/>
<feColorMatrix type="matrix" values="0 0 0 0 1 0 0 0 0 1 0 0 0 0 1 0 0 0 0.5 0"/>
<feBlend mode="normal" in2="BackgroundImageFix" result="effect1_dropShadow_18_1543"/>
<feBlend mode="normal" in="SourceGraphic" in2="effect1_dropShadow_18_1543" result="shape"/>
</filter>
</defs>
</svg>
