<svg width="98" height="98" viewBox="0 0 98 98" fill="none" xmlns="http://www.w3.org/2000/svg">
<g filter="url(#filter0_d_18_1551)">
<rect x="15" y="15" width="68" height="68" rx="15" fill="#9747FF" shape-rendering="crispEdges"/>
<mask id="mask0_18_1551" style="mask-type:alpha" maskUnits="userSpaceOnUse" x="25" y="25" width="48" height="48">
<rect x="25" y="25" width="48" height="48" fill="#D9D9D9"/>
</mask>
<g mask="url(#mask0_18_1551)">
<path d="M60 63H55.5C55.075 63 54.7188 62.8553 54.4315 62.566C54.1438 62.277 54 61.9187 54 61.491C54 61.0637 54.1438 60.7083 54.4315 60.425C54.7188 60.1417 55.075 60 55.5 60H60V55.5C60 55.075 60.1447 54.7187 60.434 54.431C60.723 54.1437 61.0813 54 61.509 54C61.9363 54 62.2917 54.1437 62.575 54.431C62.8583 54.7187 63 55.075 63 55.5V60H67.5C67.925 60 68.2813 60.1447 68.569 60.434C68.8563 60.723 69 61.0813 69 61.509C69 61.9363 68.8563 62.2917 68.569 62.575C68.2813 62.8583 67.925 63 67.5 63H63V67.5C63 67.925 62.8553 68.2812 62.566 68.5685C62.277 68.8562 61.9187 69 61.491 69C61.0637 69 60.7083 68.8562 60.425 68.5685C60.1417 68.2812 60 67.925 60 67.5V63ZM34 65C33.2 65 32.5 64.7 31.9 64.1C31.3 63.5 31 62.8 31 62V35C31 34.2 31.3 33.5 31.9 32.9C32.5 32.3 33.2 32 34 32H37.25V30.6C37.25 30.1467 37.4033 29.7667 37.71 29.46C38.0167 29.1533 38.3967 29 38.85 29C39.3173 29 39.7092 29.1533 40.0255 29.46C40.3418 29.7667 40.5 30.1467 40.5 30.6V32H53.5V30.6C53.5 30.1467 53.6533 29.7667 53.96 29.46C54.2667 29.1533 54.6467 29 55.1 29C55.5677 29 55.9595 29.1533 56.2755 29.46C56.5918 29.7667 56.75 30.1467 56.75 30.6V32H60C60.8 32 61.5 32.3 62.1 32.9C62.7 33.5 63 34.2 63 35V48.45C63 48.875 62.8553 49.2312 62.566 49.5185C62.277 49.8062 61.9187 49.95 61.491 49.95C61.0637 49.95 60.7083 49.8062 60.425 49.5185C60.1417 49.2312 60 48.875 60 48.45V44.5H34V62H48.5C48.925 62 49.2813 62.1447 49.569 62.434C49.8563 62.723 50 63.0813 50 63.509C50 63.9363 49.8563 64.2917 49.569 64.575C49.2813 64.8583 48.925 65 48.5 65H34Z" fill="white"/>
</g>
</g>
<defs>
<filter id="filter0_d_18_1551" x="0" y="0" width="98" height="98" filterUnits="userSpaceOnUse" color-interpolation-filters="sRGB">
<feFlood flood-opacity="0" result="BackgroundImageFix"/>
<feColorMatrix in="SourceAlpha" type="matrix" values="0 0 0 0 0 0 0 0 0 0 0 0 0 0 0 0 0 0 127 0" result="hardAlpha"/>
<feOffset/>
<feGaussianBlur stdDeviation="7.5"/>
<feComposite in2="hardAlpha" operator="out"/>
<feColorMatrix type="matrix" values="0 0 0 0 1 0 0 0 0 1 0 0 0 0 1 0 0 0 0.5 0"/>
<feBlend mode="normal" in2="BackgroundImageFix" result="effect1_dropShadow_18_1551"/>
<feBlend mode="normal" in="SourceGraphic" in2="effect1_dropShadow_18_1551" result="shape"/>
</filter>
</defs>
</svg>
