<svg width="98" height="98" viewBox="0 0 98 98" fill="none" xmlns="http://www.w3.org/2000/svg">
<g filter="url(#filter0_d_18_1539)">
<rect x="15" y="15" width="68" height="68" rx="15" fill="#1BD5F1" shape-rendering="crispEdges"/>
<mask id="mask0_18_1539" style="mask-type:alpha" maskUnits="userSpaceOnUse" x="25" y="25" width="48" height="48">
<rect x="25" y="25" width="48" height="48" fill="#D9D9D9"/>
</mask>
<g mask="url(#mask0_18_1539)">
<path d="M34 64C35.9333 62.1 38.1917 60.625 40.775 59.575C43.3583 58.525 46.1 58 49 58C51.9 58 54.6333 58.525 57.2 59.575C59.7667 60.625 62.0333 62.1 64 64V35H34V64ZM49 53.3C47.1 53.3 45.4917 52.6417 44.175 51.325C42.8583 50.0083 42.2 48.4 42.2 46.5C42.2 44.6 42.8583 42.9917 44.175 41.675C45.4917 40.3583 47.1 39.7 49 39.7C50.9 39.7 52.5083 40.3583 53.825 41.675C55.1417 42.9917 55.8 44.6 55.8 46.5C55.8 48.4 55.1417 50.0083 53.825 51.325C52.5083 52.6417 50.9 53.3 49 53.3ZM34 69C33.2 69 32.5 68.7 31.9 68.1C31.3 67.5 31 66.8 31 66V35C31 34.2 31.3 33.5 31.9 32.9C32.5 32.3 33.2 32 34 32H37.25V30.6C37.25 30.1467 37.4033 29.7667 37.71 29.46C38.0167 29.1533 38.3967 29 38.85 29C39.3173 29 39.7092 29.1533 40.0255 29.46C40.3418 29.7667 40.5 30.1467 40.5 30.6V32H57.5V30.6C57.5 30.1467 57.6533 29.7667 57.96 29.46C58.2667 29.1533 58.6467 29 59.1 29C59.5677 29 59.9595 29.1533 60.2755 29.46C60.5918 29.7667 60.75 30.1467 60.75 30.6V32H64C64.8 32 65.5 32.3 66.1 32.9C66.7 33.5 67 34.2 67 35V66C67 66.8 66.7 67.5 66.1 68.1C65.5 68.7 64.8 69 64 69H34Z" fill="white"/>
</g>
</g>
<defs>
<filter id="filter0_d_18_1539" x="0" y="0" width="98" height="98" filterUnits="userSpaceOnUse" color-interpolation-filters="sRGB">
<feFlood flood-opacity="0" result="BackgroundImageFix"/>
<feColorMatrix in="SourceAlpha" type="matrix" values="0 0 0 0 0 0 0 0 0 0 0 0 0 0 0 0 0 0 127 0" result="hardAlpha"/>
<feOffset/>
<feGaussianBlur stdDeviation="7.5"/>
<feComposite in2="hardAlpha" operator="out"/>
<feColorMatrix type="matrix" values="0 0 0 0 1 0 0 0 0 1 0 0 0 0 1 0 0 0 0.5 0"/>
<feBlend mode="normal" in2="BackgroundImageFix" result="effect1_dropShadow_18_1539"/>
<feBlend mode="normal" in="SourceGraphic" in2="effect1_dropShadow_18_1539" result="shape"/>
</filter>
</defs>
</svg>
