<svg width="98" height="99" viewBox="0 0 98 99" fill="none" xmlns="http://www.w3.org/2000/svg">
<g filter="url(#filter0_d_18_1535)">
<rect x="15" y="15.6666" width="68" height="68" rx="15" fill="#E64FCB" shape-rendering="crispEdges"/>
<mask id="mask0_18_1535" style="mask-type:alpha" maskUnits="userSpaceOnUse" x="25" y="25" width="48" height="49">
<rect x="25" y="25.6666" width="48" height="48" fill="#D9D9D9"/>
</mask>
<g mask="url(#mask0_18_1535)">
<path d="M46.15 52.9166L41.15 47.9166C40.85 47.6166 40.5 47.4666 40.1 47.4666C39.7 47.4666 39.35 47.6166 39.05 47.9166C38.75 48.2166 38.6083 48.5666 38.625 48.9666C38.6417 49.3666 38.7833 49.7166 39.05 50.0166L45.1 56.1666C45.4 56.4666 45.75 56.6166 46.15 56.6166C46.55 56.6166 46.9 56.4666 47.2 56.1666L58.95 44.4166C59.25 44.1166 59.4 43.7583 59.4 43.3416C59.4 42.925 59.25 42.5666 58.95 42.2666C58.65 41.9666 58.2917 41.8166 57.875 41.8166C57.4583 41.8166 57.1 41.9666 56.8 42.2666L46.15 52.9166ZM34 67.6666C33.1667 67.6666 32.4583 67.375 31.875 66.7916C31.2917 66.2083 31 65.5 31 64.6666V34.6666C31 33.8333 31.2917 33.125 31.875 32.5416C32.4583 31.9583 33.1667 31.6666 34 31.6666H44.25C44.4167 30.5 44.95 29.5416 45.85 28.7916C46.75 28.0416 47.8 27.6666 49 27.6666C50.2 27.6666 51.25 28.0416 52.15 28.7916C53.05 29.5416 53.5833 30.5 53.75 31.6666H64C64.8333 31.6666 65.5417 31.9583 66.125 32.5416C66.7083 33.125 67 33.8333 67 34.6666V64.6666C67 65.5 66.7083 66.2083 66.125 66.7916C65.5417 67.375 64.8333 67.6666 64 67.6666H34ZM49 33.8166C49.4667 33.8166 49.875 33.6416 50.225 33.2916C50.575 32.9416 50.75 32.5333 50.75 32.0666C50.75 31.6 50.575 31.1916 50.225 30.8416C49.875 30.4916 49.4667 30.3166 49 30.3166C48.5333 30.3166 48.125 30.4916 47.775 30.8416C47.425 31.1916 47.25 31.6 47.25 32.0666C47.25 32.5333 47.425 32.9416 47.775 33.2916C48.125 33.6416 48.5333 33.8166 49 33.8166Z" fill="white"/>
</g>
</g>
<defs>
<filter id="filter0_d_18_1535" x="0" y="0.666626" width="98" height="98" filterUnits="userSpaceOnUse" color-interpolation-filters="sRGB">
<feFlood flood-opacity="0" result="BackgroundImageFix"/>
<feColorMatrix in="SourceAlpha" type="matrix" values="0 0 0 0 0 0 0 0 0 0 0 0 0 0 0 0 0 0 127 0" result="hardAlpha"/>
<feOffset/>
<feGaussianBlur stdDeviation="7.5"/>
<feComposite in2="hardAlpha" operator="out"/>
<feColorMatrix type="matrix" values="0 0 0 0 1 0 0 0 0 1 0 0 0 0 1 0 0 0 0.5 0"/>
<feBlend mode="normal" in2="BackgroundImageFix" result="effect1_dropShadow_18_1535"/>
<feBlend mode="normal" in="SourceGraphic" in2="effect1_dropShadow_18_1535" result="shape"/>
</filter>
</defs>
</svg>
