<svg width="20" height="20" viewBox="0 0 20 20" fill="none" xmlns="http://www.w3.org/2000/svg">
<mask id="mask0_18_3038" style="mask-type:alpha" maskUnits="userSpaceOnUse" x="0" y="0" width="20" height="20">
<rect width="20" height="20" fill="#D9D9D9"/>
</mask>
<g mask="url(#mask0_18_3038)">
<path d="M10.0003 12.4791C9.88921 12.4791 9.78505 12.4618 9.68783 12.4271C9.5906 12.3923 9.50033 12.3333 9.41699 12.25L5.58366 8.41665C5.43088 8.26387 5.35449 8.06942 5.35449 7.83331C5.35449 7.5972 5.43088 7.40276 5.58366 7.24998C5.73644 7.0972 5.93088 7.02081 6.16699 7.02081C6.4031 7.02081 6.59755 7.0972 6.75033 7.24998L10.0003 10.5L13.2503 7.24998C13.4031 7.0972 13.5975 7.02081 13.8337 7.02081C14.0698 7.02081 14.2642 7.0972 14.417 7.24998C14.5698 7.40276 14.6462 7.5972 14.6462 7.83331C14.6462 8.06942 14.5698 8.26387 14.417 8.41665L10.5837 12.25C10.5003 12.3333 10.41 12.3923 10.3128 12.4271C10.2156 12.4618 10.1114 12.4791 10.0003 12.4791Z" fill="white"/>
</g>
</svg>
