<svg width="124" height="124" viewBox="0 0 124 124" fill="none" xmlns="http://www.w3.org/2000/svg">
<path d="M22.9771 50.5886C22.9771 50.5886 27.9962 69.4984 48.667 64.7201C48.667 64.7201 42.2679 45.6072 22.9771 50.5886Z" fill="#66AC47"/>
<path d="M33.5853 79.1554C33.5853 79.1554 43.399 93.1711 58.947 83.0278C58.947 83.0278 47.9295 69.2536 33.5853 79.1554Z" fill="#66AC47"/>
<path d="M49.2047 100.527C49.2047 100.527 63.3458 112.07 76.3672 97.1478C76.3675 97.1614 61.0612 86.1981 49.2047 100.527Z" fill="#66AC47"/>
<path d="M62.6592 54.6322C62.6592 54.6322 47.3884 62.3529 55.2129 79.1876C56.3001 78.5547 70.276 69.9186 62.6592 54.6322Z" fill="#66AC47"/>
<path d="M66.4185 75.0418C66.4185 75.0418 58.9353 85.5799 70.5749 94.2677C71.2674 93.1403 77.783 83.1014 66.4185 75.0418Z" fill="#66AC47"/>
<path d="M29.8025 28.58C29.8025 28.58 28.3422 43.9988 45.0195 46.1444C45.0195 46.1444 45.5092 30.1748 29.8025 28.58Z" fill="#66AC47"/>
<path d="M53.34 12.5288C53.34 12.5288 40.0014 18.4138 46.159 34.0599C46.159 34.0599 59.5025 27.0659 53.34 12.5288Z" fill="#66AC47"/>
<path d="M61.9088 34.857C61.9088 34.857 44.1411 37.246 46.0953 56.5794C46.0953 56.5794 64.2188 52.9747 61.9088 34.857Z" fill="#66AC47"/>
<path d="M88.6133 102.008L88.3857 101.945L87.7125 101.782C87.1258 101.64 86.2484 101.449 85.1463 101.113C82.0218 100.218 78.994 99.0141 76.1075 97.52C71.8326 95.2983 67.8712 92.5194 64.3271 89.256C62.2246 87.3246 60.2619 85.2464 58.4538 83.0371L57.0601 81.2545C56.8279 80.9605 56.5956 80.6619 56.3678 80.3632C56.14 80.0645 55.9343 79.7382 55.7198 79.4257L54.4186 77.5145L53.2196 75.5108L52.62 74.4999L52.0832 73.4651C51.73 72.7796 51.3678 72.0989 51.0236 71.4133L50.0767 69.3411C49.925 68.9957 49.7642 68.6549 49.6034 68.3096C49.4426 67.9643 49.336 67.6179 49.2069 67.272L48.4233 65.2146C48.2012 64.5221 47.9838 63.8384 47.771 63.1592C47.6645 62.8174 47.5536 62.4801 47.4474 62.1473C47.3411 61.8145 47.2663 61.4675 47.1781 61.1343C47.0061 60.4588 46.8341 59.7833 46.6852 59.13C45.5884 54.4442 45.0604 49.6433 45.1127 44.8312C45.1526 41.5812 45.4492 38.3394 45.9999 35.1361C46.2171 34.0047 46.4123 33.1317 46.5362 32.5408C46.5937 32.2455 46.639 32.0228 46.672 31.8637C46.705 31.7046 46.7126 31.632 46.7126 31.632C46.7126 31.632 46.6869 31.705 46.6493 31.8596C46.6117 32.0143 46.5618 32.237 46.4952 32.5281C46.3623 33.1237 46.1535 33.9924 45.9226 35.1196C44.4531 43.1002 44.6577 51.2992 46.5236 59.1966C46.6908 59.8586 46.8626 60.525 47.0166 61.2054C47.1094 61.543 47.1796 61.8856 47.286 62.223C47.3923 62.5603 47.4987 62.8976 47.6096 63.2394C47.8224 63.9186 48.0396 64.5887 48.262 65.2994L49.0458 67.3657C49.175 67.7117 49.3088 68.062 49.4424 68.4079C49.5761 68.7537 49.7459 69.0943 49.9158 69.4394L50.8629 71.5252C51.2026 72.2109 51.5648 72.8916 51.9226 73.5815C52.1016 73.9309 52.2805 74.2759 52.464 74.6207C52.6474 74.9655 52.8623 75.2962 53.0637 75.6361L54.2674 77.6488L55.5732 79.5644C55.7922 79.8768 55.9979 80.1986 56.2213 80.5064L56.9181 81.3977L58.3118 83.1803C60.1254 85.3905 62.0941 87.4686 64.2032 89.3988C67.7666 92.6716 71.7513 95.4534 76.0517 97.6705C78.9514 99.1563 81.9947 100.343 85.1347 101.213C86.2411 101.54 87.1227 101.712 87.7138 101.845L88.391 101.985L88.6133 102.008Z" fill="#263238"/>
<path d="M68.2528 83.3803C68.2365 83.5308 68.2395 83.6829 68.2619 83.8327C68.2675 84.1132 68.339 84.5146 68.4122 85.0065C68.5498 85.9996 68.7854 87.3618 69.1049 88.8491C69.4244 90.3363 69.7818 91.678 70.059 92.6365C70.2 93.118 70.3209 93.5049 70.4122 93.7701C70.4465 93.9112 70.4994 94.0472 70.5697 94.1743C70.5618 94.0211 70.5344 93.8696 70.4882 93.7233L70.1982 92.5794C69.9525 91.6112 69.6269 90.2734 69.3028 88.7862C68.9787 87.2991 68.7298 85.9462 68.5516 84.963C68.4702 84.512 68.3988 84.1151 68.3382 83.7995C68.3261 83.6569 68.2974 83.5162 68.2528 83.3803Z" fill="#263238"/>
<path d="M64.7723 98.8737C64.9244 98.877 65.0763 98.8603 65.224 98.8239L66.4059 98.6282C67.3983 98.4589 68.7744 98.2367 70.2956 98.0296C71.8168 97.8225 73.2032 97.6634 74.2059 97.5573L75.3938 97.4294C75.5466 97.424 75.6981 97.3997 75.8449 97.3569C75.6943 97.3427 75.5425 97.3457 75.3925 97.366C75.1075 97.3717 74.7002 97.3799 74.1988 97.4307C73.1909 97.5007 71.7995 97.6373 70.2738 97.8444C68.748 98.0516 67.3725 98.301 66.3809 98.5065C65.8895 98.6069 65.4794 98.6966 65.2137 98.7653C65.0627 98.7833 64.9145 98.8197 64.7723 98.8737Z" fill="#263238"/>
<path d="M45.6563 80.4072C45.8237 80.4604 45.9956 80.4978 46.17 80.5191L47.5827 80.7714C48.7773 80.9783 50.4266 81.2892 52.2315 81.6875C54.0365 82.0857 55.6607 82.5012 56.8302 82.8127L58.1956 83.1836C58.3638 83.2405 58.5375 83.2795 58.7139 83.3C58.5569 83.2195 58.3917 83.1561 58.2213 83.1107C57.8977 82.9995 57.4285 82.8505 56.8548 82.6855C55.6936 82.3376 54.0735 81.8994 52.2595 81.5013C50.4455 81.1032 48.7966 80.8104 47.5936 80.6354C46.9943 80.5478 46.5042 80.4853 46.1686 80.4513C45.9999 80.4183 45.8281 80.4035 45.6563 80.4072Z" fill="#263238"/>
<path d="M58.9732 65.5736C58.854 65.7147 58.7508 65.8686 58.6655 66.0324C58.4771 66.344 58.2285 66.8107 57.9372 67.4049C56.434 70.4782 55.5461 73.8157 55.3236 77.2297C55.2823 77.8823 55.2703 78.4076 55.2776 78.7741C55.2651 78.9641 55.2689 79.1548 55.2891 79.3442C55.3232 79.1573 55.339 78.9675 55.3365 78.7775C55.3293 78.4155 55.3908 77.8711 55.446 77.2408C55.7476 73.8578 56.6273 70.5516 58.047 67.4661C58.3158 66.8723 58.5506 66.3968 58.7166 66.0948C58.8191 65.9299 58.905 65.7554 58.9732 65.5736Z" fill="#263238"/>
<path d="M38.1406 57.1296C38.2683 57.2373 38.4067 57.3316 38.5536 57.411L39.7132 58.13C40.6852 58.7487 42.0066 59.6365 43.3861 60.7132C44.7657 61.79 45.9592 62.8478 46.7943 63.6367L47.7773 64.5766C47.8907 64.702 48.0174 64.8148 48.1552 64.913C48.0626 64.7728 47.9553 64.643 47.8351 64.5256C47.622 64.2809 47.3029 63.9433 46.9099 63.5348C45.8456 62.4712 44.716 61.475 43.5278 60.552C42.339 59.629 41.0946 58.7803 39.8014 58.0106C39.3065 57.7127 38.8856 57.4858 38.6111 57.3419C38.4621 57.255 38.3044 57.1838 38.1406 57.1296Z" fill="#263238"/>
<path d="M57.3054 42.6771C57.3054 42.6771 57.2473 42.7145 57.1584 42.7932L56.7762 43.1494C56.4431 43.4639 55.9727 43.9305 55.4004 44.5123C54.2606 45.6804 52.7415 47.3449 51.1553 49.2732C49.569 51.2016 48.2477 53.0251 47.3334 54.3787C46.8943 55.0529 46.5116 55.6037 46.2705 55.9933L45.9945 56.4515C45.9588 56.5002 45.9309 56.5542 45.9117 56.6116C45.9117 56.6116 45.9607 56.5698 46.0312 56.4734L46.3349 56.0463L47.4484 54.4669C48.3949 53.1398 49.7392 51.334 51.3119 49.4104C52.8847 47.4868 54.408 45.8087 55.5067 44.6188L56.8368 43.2342L57.1912 42.8514C57.2382 42.7997 57.2767 42.7409 57.3054 42.6771Z" fill="#263238"/>
<path d="M35.6602 33.4748C35.7765 33.6428 35.9069 33.8007 36.0498 33.9468L37.1568 35.201C38.0834 36.2641 39.3311 37.7645 40.6195 39.4858C41.9078 41.2071 42.9861 42.8375 43.7433 44.0309C44.1033 44.603 44.3981 45.0814 44.6272 45.448C44.7275 45.6262 44.8414 45.7964 44.9679 45.9571C44.8936 45.7662 44.8036 45.5818 44.6988 45.4058C44.5108 45.0565 44.2292 44.5597 43.864 43.956C43.138 42.7394 42.0731 41.0996 40.78 39.3649C39.4868 37.6301 38.2214 36.1482 37.2635 35.1038C36.8004 34.5835 36.3893 34.1708 36.1076 33.8913C35.973 33.7376 35.8231 33.598 35.6602 33.4748Z" fill="#263238"/>
<path d="M51.4695 18.5322C51.3629 18.7141 51.2728 18.9053 51.2004 19.1034C51.0403 19.4732 50.8158 20.0164 50.5442 20.6872C50.0054 22.0333 49.2956 23.8807 48.573 25.9908C47.8505 28.101 47.2411 29.9917 46.83 31.3805C46.6266 32.0726 46.4659 32.637 46.3606 33.0284C46.2952 33.2284 46.2478 33.4339 46.2191 33.6423C46.3145 33.4475 46.3922 33.2444 46.4513 33.0357C46.5877 32.6165 46.7669 32.0697 46.9799 31.4091C47.4277 30.0423 48.0503 28.1332 48.7778 26.0456C49.5054 23.9579 50.1742 22.0978 50.6808 20.7297C50.9212 20.0776 51.1094 19.5352 51.2731 19.12C51.3544 18.9297 51.4201 18.7331 51.4695 18.5322Z" fill="#263238"/>
</svg>
