<svg width="80" height="111" viewBox="0 0 80 111" fill="none" xmlns="http://www.w3.org/2000/svg">
<rect width="80" height="80" rx="40" fill="#66AC47" fill-opacity="0.1"/>
<path d="M29.4633 59.7969C29.4633 60.304 16.9688 102.23 16.9688 102.23L27.7088 97.4278L33.591 110.394L41.1516 60.4511L29.4633 59.7969Z" fill="#66AC47"/>
<path d="M38.6055 61.5718L41.151 109.659L50.5068 96.4695L62.5906 105.115L50.5068 57.8853L38.6055 61.5718Z" fill="#66AC47"/>
<g opacity="0.5">
<path d="M28.6504 62.9764C28.9289 63.8684 29.4717 64.6548 30.207 65.2316C30.9422 65.8084 31.8352 66.1484 32.7679 66.2065C33.8683 66.2522 35.0802 65.9124 36.0082 66.5108C36.9362 67.1091 37.3266 68.5036 38.4169 68.6507C39.6947 68.8332 40.4452 67.1294 41.6521 66.7238C43.3001 66.1862 45.0293 68.174 46.6519 67.5604C47.6965 67.1649 48.1732 65.8211 49.2786 65.5321C49.7639 65.4503 50.2606 65.4675 50.739 65.5828C51.3091 65.6458 51.885 65.5363 52.3921 65.2684L51.7988 62.951L50.7847 58.4532H29.0611L28.6504 62.9764Z" fill="black"/>
</g>
<path d="M41.3535 25.5434C42.42 25.6348 43.4729 25.8457 44.4924 26.1722C44.4908 25.9984 44.5235 25.8261 44.5887 25.6651C45.5082 23.204 46.4244 20.748 47.3371 18.2971L47.403 18.2363C47.022 18.0217 46.7078 17.7057 46.4954 17.3235C46.2309 16.9109 45.865 16.573 45.4326 16.3422C45.0002 16.1113 44.5159 15.9953 44.0259 16.0051C43.5188 18.0943 42.9153 20.9542 42.4691 22.7341C42.2784 23.7327 41.8998 24.686 41.3535 25.5434Z" fill="#66AC47"/>
<path d="M28.1193 47.9363C27.4403 46.9241 26.8917 45.8303 26.4864 44.6808C26.3447 44.8197 26.1703 44.9208 25.9794 44.9749L25.7613 45.051C25.6256 45.1382 25.4832 45.2145 25.3354 45.2791C24.8742 45.4556 24.4036 45.6063 23.9257 45.7304L22.1914 46.2122C20.9592 46.5469 19.8385 46.8359 19.0272 47.0286C18.5941 47.1608 18.1491 47.2508 17.6986 47.2973C18.1086 47.1062 18.5367 46.9568 18.9765 46.8511L20.0819 46.5266L17.5465 47.0894C17.2169 48.5296 16.1977 50.0711 17.0952 51.1816C17.1902 51.2952 17.3012 51.3943 17.4248 51.4757C20.655 50.279 24.7978 48.7324 27.5107 48.0174C27.7074 47.9557 27.9133 47.9283 28.1193 47.9363Z" fill="#66AC47"/>
<path d="M36.4344 25.1731C36.4344 25.3151 36.4344 25.4368 36.4344 25.5484C36.4344 25.6599 36.4344 25.8121 36.4344 25.9388C37.594 25.6389 38.7863 25.4839 39.984 25.4774C39.984 25.4115 39.984 25.3455 39.984 25.2796L40.1513 22.6124C40.1513 22.4349 40.1513 22.2523 40.1513 22.0647C40.1868 20.1479 40.2629 18.5607 40.3288 18.2514C39.7913 17.6176 39.2791 16.289 38.194 16.147C37.2964 16.0304 36.8299 16.147 36.4496 16.5121C36.4902 19.1794 36.404 22.5515 36.4344 25.1731Z" fill="#66AC47"/>
<path d="M22.4258 34.5188C22.6489 34.6067 22.872 34.6878 23.0951 34.7622C22.1469 34.3869 21.1733 33.9813 20.2402 33.5807C20.8842 33.8799 21.6195 34.2044 22.4258 34.5188Z" fill="#66AC47"/>
<path d="M25.6847 39.1788C25.7491 38.0631 25.9431 36.9587 26.2628 35.8879C25.9788 35.8017 25.6847 35.7053 25.3855 35.6039C24.3445 35.4316 23.3246 35.1495 22.343 34.7621C21.2392 34.3224 20.1638 33.8143 19.123 33.2409C18.5652 32.9417 18.1697 32.7338 17.9821 32.5867L17.3736 32.3281C16.9781 32.9721 16.3594 33.4995 15.9284 34.1435C15.6971 34.5094 15.5724 34.9326 15.5684 35.3656C18.8695 36.2682 22.8552 37.4598 25.6289 39.1129L25.6847 39.1788Z" fill="#66AC47"/>
<path d="M26.8007 34.2855C27.2076 33.3318 27.7177 32.4254 28.3219 31.5828L28.1039 31.4408C26.4372 30.3331 24.9056 29.0346 23.5401 27.5717L23.5046 27.5311C22.886 27.0241 22.2978 26.4815 21.7755 26.0099C21.7057 26.2318 21.586 26.4348 21.4256 26.6032C20.6396 27.3892 19.164 26.8821 18.2969 27.5768C17.9902 27.8321 17.7925 28.1948 17.7441 28.591C20.4992 30.1211 23.1687 31.8004 25.7409 33.6212C26.1567 33.8799 26.5269 34.108 26.8007 34.2855Z" fill="#66AC47"/>
<path d="M28.1788 29.2907C28.5338 29.7978 28.8482 30.2339 29.0814 30.5787C29.8712 29.6467 30.7759 28.8186 31.7741 28.1143C31.4698 27.7289 31.0946 27.2269 30.6788 26.6691C30.3086 26.2432 29.8877 25.7361 29.4465 25.1833C28.7975 24.3669 28.2397 23.6114 27.8543 23.0485C27.6241 22.7597 27.4315 22.4427 27.2813 22.1053C27.2813 22.1053 27.4385 22.2372 27.6565 22.5059C27.3016 21.9988 26.9669 21.5678 26.6728 21.1824C26.464 21.6507 26.1263 22.0499 25.6992 22.3335C25.0603 22.7138 24.2134 22.6936 23.4883 22.8406C24.9556 24.5993 26.3105 26.4487 27.545 28.378L28.1788 29.2907Z" fill="#66AC47"/>
<path d="M32.6722 27.5261C33.5031 27.0263 34.3833 26.6133 35.2989 26.2938C35.2634 26.1874 35.233 26.0758 35.1975 25.949C34.9997 25.2645 34.7614 24.3111 34.5535 23.2412C34.3456 22.1712 34.2086 21.2128 34.1326 20.4928C34.0856 20.1279 34.0619 19.7603 34.0616 19.3924L34.0312 19.1946C33.6918 19.2224 33.3502 19.1824 33.0264 19.0771C32.7026 18.9718 32.4029 18.8032 32.1448 18.5811C31.3081 17.8306 29.8883 17.9269 28.793 18.3985C29.9491 21.1824 31.6783 24.9906 32.6316 27.4297C32.6468 27.4601 32.657 27.4906 32.6722 27.5261Z" fill="#66AC47"/>
<path d="M28.9551 30.7254L28.9199 30.6852L28.95 30.7354L28.9551 30.7254Z" fill="#66AC47"/>
<path d="M26.2324 43.8846C25.9083 42.7482 25.7227 41.5768 25.6797 40.3959H25.5986C24.5844 40.4517 23.3978 40.4364 22.1504 40.3959C21.7701 40.3959 21.3796 40.3959 20.9638 40.3959C19.757 40.3959 18.6667 40.2995 17.8807 40.2235C17.5207 40.188 17.2317 40.1525 17.0187 40.1221L16.2479 40.0764C16.0755 40.3401 15.9031 40.5835 15.7408 40.8776C15.2997 41.6535 15.0208 42.6271 15.4366 43.413L15.4822 43.479C18.8391 43.5601 22.1927 43.6581 25.5428 43.7731C25.7778 43.7647 26.0121 43.8026 26.2324 43.8846Z" fill="#66AC47"/>
<path d="M30.9437 51.3439L31.1567 51.2069C30.2066 50.4487 29.3549 49.5748 28.6213 48.6056C28.5258 48.7774 28.3901 48.9236 28.2257 49.0315C28.1666 49.1841 28.0687 49.3187 27.9418 49.422C27.2927 49.9291 26.38 50.492 25.3607 51.1613C24.3415 51.8307 23.4186 52.3986 22.7391 52.8093C22.3867 53.0547 22.0094 53.2621 21.6133 53.428C21.9244 53.1359 22.2642 52.876 22.6275 52.6521C23.0028 52.3986 23.4591 52.0842 23.9713 51.7495C22.9876 52.3428 21.9987 52.9361 21.1113 53.4787C21.2787 54.2292 21.015 55.1014 21.3598 55.8062C21.7046 56.5111 22.4145 56.719 23.2056 56.8609L29.2399 52.3783C29.7587 51.9584 30.3318 51.6105 30.9437 51.3439Z" fill="#66AC47"/>
<path d="M58.498 53.6765L59.3246 54.3255C59.3401 54.3057 59.357 54.2871 59.3753 54.2697L59.1065 54.0923L58.498 53.6765Z" fill="#66AC47"/>
<path d="M50.9678 49.3408C50.2044 50.2209 49.3378 51.0058 48.3867 51.6785C48.6544 51.9522 48.9034 52.2436 49.1321 52.5507C49.1604 52.5693 49.1875 52.5896 49.2133 52.6115C49.6242 53.0206 49.9666 53.4932 50.2274 54.0111L51.272 55.7909L51.3025 55.8518C51.982 56.9826 52.6614 58.159 53.2598 59.1834C53.3342 59.0176 53.4353 58.8651 53.559 58.732C54.6137 57.6317 56.7536 58.7016 57.8692 57.6722C57.9792 57.5671 58.0747 57.4477 58.1532 57.3173C56.0995 55.081 53.3612 51.9472 51.6169 50.1167C51.374 49.8814 51.1564 49.6214 50.9678 49.3408ZM51.774 51.7444C52.2298 52.3216 52.6498 52.9261 53.0316 53.5547C53.4838 54.1352 53.902 54.7413 54.2841 55.3701C53.6989 54.9076 53.2009 54.3443 52.8136 53.7068C52.3569 53.1173 52.0052 52.4534 51.774 51.7444Z" fill="#66AC47"/>
<path d="M40.4613 18.3428C40.4482 18.3322 40.4363 18.3203 40.4258 18.3073C40.4302 18.39 40.4302 18.473 40.4258 18.5557L40.4613 18.3428Z" fill="#66AC47"/>
<path d="M54.4076 41.5621C54.2873 42.5985 54.0543 43.6187 53.7129 44.6046L54.1084 44.7973L55.508 45.5275C55.0316 45.2867 54.5769 45.005 54.149 44.6858C55.6162 45.322 57.0468 46.0398 58.4339 46.8358C59.448 47.3886 60.4115 47.9108 61.1366 48.3216L61.6082 48.5193C61.6013 48.282 61.6356 48.0452 61.7096 47.8196C62.1052 46.6786 63.5656 46.0803 64.0676 45.0762C61.0048 43.9556 57.0698 42.5611 54.4076 41.5621Z" fill="#66AC47"/>
<path d="M51.6465 48.5093C51.9254 48.7273 52.2803 49.0163 52.6607 49.2902L52.7976 49.3865C53.6343 49.9494 54.7701 50.7404 56.0176 51.6278C57.265 52.5152 58.3857 53.3367 59.1919 53.9351L59.4962 54.1683C60.0033 53.8032 60.6118 53.575 61.1391 53.2606C58.5327 50.9788 55.4547 47.8247 53.112 46.0296C52.7058 46.9021 52.2149 47.7326 51.6465 48.5093Z" fill="#66AC47"/>
<path d="M35.1374 53.6664C35.0912 53.5668 35.0387 53.4702 34.9802 53.3773C34.0559 53.0251 33.1705 52.5782 32.3383 52.0437L32.2673 52.135C32.0796 52.3632 31.8667 52.6066 31.6334 52.8652C31.2176 53.3723 30.6497 54.0264 29.9955 54.7313C29.3414 55.4361 28.6416 56.1257 28.1548 56.5872C27.9087 56.8537 27.6292 57.0872 27.3232 57.2819C27.3232 57.2819 27.3688 57.1856 27.4854 57.0486C27.0696 57.4645 26.6792 57.8701 26.3242 58.2504C26.882 59.4117 26.3242 61.1053 27.2775 62.0434C27.4455 62.2116 27.6479 62.3414 27.8708 62.4238C29.8992 59.7007 32.6628 56.1765 34.6303 53.9909C34.7535 53.8239 34.9341 53.7083 35.1374 53.6664Z" fill="#66AC47"/>
<path d="M40.9184 54.285C41.0589 54.4787 41.1384 54.71 41.1466 54.9492C41.3107 55.4496 41.3455 55.9834 41.248 56.5009C41.1719 57.1145 41.0857 57.7737 40.9995 58.4633C40.8778 59.3812 40.7561 60.2381 40.6496 60.9988C40.5685 61.9673 40.4925 62.9206 40.4062 63.7827C40.9251 64.2693 41.5172 64.6714 42.1608 64.9743C43.1344 65.2887 44.0015 64.8171 44.8635 64.1883C44.6658 60.9379 44.4933 56.8863 44.6252 53.9959L44.7773 54.3509C44.7317 54.1835 44.7165 54.0872 44.7317 54.0821C44.9373 54.4454 45.099 54.8318 45.2134 55.2332C45.4771 55.9583 45.8118 56.9725 46.1464 58.0982C46.2377 58.4126 46.3239 58.7169 46.4051 59.011C46.76 60.2128 47.0693 61.4247 47.3026 62.5606C47.6611 62.3999 48.0507 62.3203 48.4435 62.3273C49.336 62.3527 50.2792 62.8851 51.121 62.9967C49.691 59.5333 48.1646 55.1977 47.5714 52.2363C45.5549 53.4537 43.2704 54.1572 40.9184 54.285ZM42.7591 59.797C42.6558 59.3312 42.6182 58.8533 42.6476 58.3771C42.5933 57.9031 42.6018 57.424 42.6729 56.9522C42.9613 57.8747 42.9911 58.8587 42.7591 59.797Z" fill="#66AC47"/>
<path d="M39.5332 54.3458C39.5493 54.3263 39.5681 54.3092 39.589 54.2951C38.0522 54.2475 36.5332 53.9513 35.0912 53.4178C35.1267 53.4635 35.1672 53.5142 35.2129 53.5801C35.2278 53.6132 35.2447 53.6454 35.2636 53.6765C35.5577 53.7576 35.649 54.1835 35.6135 54.503C35.5963 54.6617 35.5692 54.8192 35.5323 54.9746C35.5026 55.4254 35.4017 55.8687 35.2331 56.288C35.01 56.8711 34.7261 57.4745 34.4015 58.1135C33.8639 59.1962 33.268 60.2491 32.6166 61.2675C32.3174 61.7341 32.074 62.0789 31.9219 62.2817C32.1059 62.3028 32.2865 62.3471 32.4594 62.4135C33.8742 62.9663 34.6398 65.02 36.1459 64.8425L36.2828 64.8171C37.1651 62.0079 38.0475 58.1135 38.9298 55.502C39.0425 55.0765 39.2487 54.6816 39.5332 54.3458Z" fill="#66AC47"/>
<path d="M52.0533 31.8515C52.2223 31.6994 52.3914 31.5523 52.5604 31.4103C52.7428 31.1528 52.9695 30.9296 53.2298 30.7511C53.6304 30.4671 54.0766 30.1882 54.5533 29.8992C55.5015 29.3211 56.3838 28.8445 57.038 28.5199C57.4842 28.3019 57.8138 28.1548 57.9862 28.094L58.8888 27.5615C57.9964 26.162 59.1525 24.0373 58.1029 22.7493C58.0544 22.6916 58.0018 22.6373 57.9457 22.587C55.3038 24.5444 51.8961 26.7654 48.9297 28.5199C50.1411 29.4576 51.1955 30.5822 52.0533 31.8515ZM52.6872 26.1823C53.2857 25.7493 53.9145 25.3595 54.5685 25.016C54.0685 25.571 53.481 26.0404 52.8292 26.4054C52.2262 26.8465 51.557 27.1888 50.8465 27.4196C51.4295 26.9634 52.0446 26.5498 52.6872 26.1823Z" fill="#66AC47"/>
<path d="M54.3145 37.5613C54.4388 38.3309 54.5015 39.1092 54.5021 39.8888C54.5021 40.0359 54.5021 40.1778 54.5021 40.3198H54.7404C55.1664 40.3198 55.5872 40.3604 56.0132 40.3908H56.3124C57.1846 40.3908 58.3863 40.472 59.7149 40.5683C60.9573 40.6646 62.083 40.7762 62.9298 40.8776C63.1428 39.9192 64.3243 39.4426 64.6742 38.5146C64.8287 38.0345 64.7924 37.5133 64.5728 37.0593C61.4745 37.2317 57.286 37.4852 54.7049 37.5664L54.3145 37.5613Z" fill="#66AC47"/>
<path d="M50.7956 19.6206L45.6538 26.086C45.5447 26.2219 45.4166 26.3415 45.2734 26.4409C46.4057 26.8754 47.4776 27.4531 48.463 28.1599L48.534 28.0687C48.6043 27.8805 48.7112 27.7082 48.8484 27.5616C49.0766 27.2979 49.3555 26.9886 49.6496 26.6539C51.1708 24.8284 52.9051 22.9826 54.3553 21.4512C54.0582 21.3412 53.7883 21.1682 53.5643 20.9441C52.9254 20.3001 52.7884 19.2251 52.043 18.7332C51.802 18.5856 51.5289 18.4986 51.2469 18.4797C51.2492 18.4982 51.2492 18.5169 51.2469 18.5354C51.2474 18.7372 51.2078 18.9371 51.1303 19.1234C51.0528 19.3097 50.939 19.4787 50.7956 19.6206Z" fill="#66AC47"/>
<path d="M53.9798 36.0452L54.4006 35.8575C54.7174 35.6819 55.0481 35.5326 55.3894 35.4113C56.0182 35.1527 56.9107 34.818 57.864 34.463C58.8174 34.1081 59.72 33.7988 60.364 33.5858C60.7065 33.4483 61.0638 33.3513 61.4288 33.2967C61.4288 33.2967 61.3071 33.388 61.0637 33.4945L62.372 33.0635C62.372 32.0088 62.6661 30.8881 62.1286 29.9906C61.9946 29.7712 61.8229 29.5772 61.6215 29.4175C58.8579 30.5331 55.0801 32.2876 52.6562 32.7947C53.2292 33.8198 53.6737 34.9115 53.9798 36.0452Z" fill="#66AC47"/>
<path d="M62.8886 41.1007L61.7578 41.0145C62.1331 41.0399 62.5083 41.0703 62.8886 41.1007Z" fill="#66AC47"/>
<path d="M35.3909 25.9034C35.4214 26.0251 35.4416 26.1367 35.4619 26.2381L35.543 26.2127C35.4721 26.0302 35.4011 25.8324 35.3301 25.6144C35.3351 25.7107 35.3605 25.8172 35.3909 25.9034Z" fill="#66AC47"/>
<path d="M48.5035 28.1903C48.5088 28.1487 48.519 28.1078 48.5339 28.0686L48.4629 28.1599L48.5035 28.1903Z" fill="black"/>
<path d="M52.2977 32.2267C52.2984 32.0636 52.3293 31.902 52.389 31.7501C52.4348 31.6294 52.4961 31.5151 52.5715 31.4103C52.3924 31.5523 52.2233 31.6994 52.0645 31.8515C52.1253 31.9732 52.2166 32.1 52.2977 32.2267Z" fill="#66AC47"/>
<path d="M61.6083 48.5904V48.5194L61.1367 48.3217L61.6083 48.5904Z" fill="black"/>
<path d="M52.6805 49.2902C52.2799 48.991 51.9249 48.7273 51.6663 48.5093L51.6055 48.5853C51.7779 48.6969 52.1633 48.9454 52.6805 49.2902Z" fill="black"/>
<path d="M53.0966 59.0566L53.2082 59.2646L53.2386 59.1834C52.6402 58.1692 51.9607 56.9827 51.2812 55.8519C52.0013 57.0942 52.6301 58.2301 53.0966 59.0566Z" fill="black"/>
<path d="M40.623 54.2951C40.8398 54.4335 41.015 54.628 41.1301 54.858C41.1301 54.8884 41.1301 54.9188 41.1656 54.9493C41.1574 54.7101 41.078 54.4787 40.9374 54.285L40.623 54.2951Z" fill="#66AC47"/>
<path d="M35.2637 53.6765C35.4249 53.9786 35.5168 54.313 35.5324 54.6551C35.54 54.7615 35.54 54.8682 35.5324 54.9746C35.5693 54.8192 35.5964 54.6617 35.6136 54.503C35.6491 54.1785 35.5578 53.7576 35.2637 53.6765Z" fill="#66AC47"/>
<path d="M32.3474 52.0437H32.2967C32.2054 52.1857 32.0077 52.4494 31.7288 52.7891C31.7034 52.8195 31.673 52.8601 31.6426 52.8905C31.8758 52.6319 32.0888 52.3835 32.2764 52.1603L32.3474 52.0437Z" fill="black"/>
<path d="M26.338 35.5431C26.165 35.629 25.9734 35.6709 25.7802 35.6648L25.3594 35.6039C25.6586 35.7054 25.9527 35.8017 26.2366 35.8879C26.262 35.7713 26.3026 35.6851 26.338 35.5431Z" fill="black"/>
<path d="M31.9513 27.9875C31.6612 27.7608 31.3976 27.5023 31.1653 27.2167L30.6582 26.6691C31.074 27.2269 31.4492 27.7289 31.7535 28.1143L31.9513 27.9875Z" fill="black"/>
<path d="M36.4043 25.954H36.4499C36.4499 25.8272 36.4499 25.6954 36.4499 25.5635C36.4486 25.6949 36.4333 25.8258 36.4043 25.954Z" fill="black"/>
<path d="M40.0039 25.4775H40.1966C40.1712 24.9045 40.1662 23.8497 40.1966 22.6124L40.0293 25.2797C40.009 25.3456 40.0039 25.4115 40.0039 25.4775Z" fill="black"/>
<path d="M44.5886 25.66C44.5234 25.821 44.4906 25.9934 44.4922 26.1671C44.7559 26.2533 44.9993 26.3446 45.2731 26.446C45.4163 26.3465 45.5444 26.227 45.6535 26.091L50.7953 19.6257C51.0832 19.3436 51.2473 18.9588 51.2517 18.5557C51.254 18.5372 51.254 18.5185 51.2517 18.5C50.3237 18.4239 49.2588 18.8853 48.3309 18.5963C48.1091 18.5313 47.8908 18.4551 47.6767 18.3681C47.4131 19.1642 46.977 20.3965 46.4648 21.7554C45.9659 23.203 45.387 24.6216 44.7306 26.0048C45.1418 24.5305 45.6379 23.0812 46.2163 21.6642C46.7234 20.29 47.2051 19.073 47.5297 18.2971C47.4909 18.2799 47.4536 18.2595 47.4181 18.2363L47.3522 18.2971C46.4259 20.7616 45.5047 23.2158 44.5886 25.66ZM47.266 23.5404C47.7093 22.9073 48.2082 22.315 48.7568 21.7707C48.4221 22.4717 47.9902 23.1221 47.4739 23.7026C47.0287 24.3401 46.4981 24.9134 45.8969 25.4065C46.2967 24.7449 46.7549 24.1204 47.266 23.5404Z" fill="#66AC47"/>
<path d="M51.0099 25.163C51.8669 24.2351 52.6528 23.4035 53.2309 22.8102C53.5239 22.4691 53.852 22.1598 54.2096 21.8873C53.9636 22.2635 53.6817 22.6151 53.3678 22.9369C52.8253 23.5607 52.0596 24.4126 51.2076 25.3405C50.3557 26.2685 49.5647 27.1052 48.9866 27.6934C48.8053 27.843 48.6817 28.0509 48.6367 28.2816L48.9258 28.5047C51.8922 26.7502 55.2998 24.5292 57.9417 22.5718C57.7079 22.3428 57.4254 22.1694 57.1152 22.0647C56.2633 21.7706 55.2136 21.7808 54.3719 21.4512C52.9216 22.9724 51.1772 24.8284 49.6661 26.6539C50.0566 26.2076 50.518 25.7006 51.0099 25.163Z" fill="#66AC47"/>
<path d="M58.1334 28.0788C57.8181 28.323 57.4782 28.5338 57.1192 28.7076C56.4955 29.0727 55.6284 29.5696 54.6852 30.1426C53.742 30.7156 52.8141 31.1923 52.5453 31.8414C52.4543 32.038 52.4125 32.2538 52.4236 32.4702L52.6214 32.815C55.0453 32.3079 58.8231 30.5534 61.5867 29.4378C60.7449 28.7634 59.4823 28.4997 58.8839 27.5818L57.9965 28.0788C58.0776 28.0788 58.1283 28.0484 58.1334 28.0788ZM56.3535 31.1213C55.8929 31.37 55.3996 31.5527 54.8881 31.6639C55.7351 31.04 56.7103 30.6122 57.743 30.4114C57.314 30.6994 56.8461 30.9248 56.3535 31.0807V31.1213Z" fill="#66AC47"/>
<path d="M60.436 33.7633C59.8073 34.0168 58.9148 34.3515 57.9564 34.7115C56.998 35.0716 56.0954 35.3758 55.4514 35.5837C55.1117 35.7244 54.7556 35.8215 54.3916 35.8728L53.9707 36.0604C54.1092 36.5612 54.2209 37.069 54.3054 37.5816H54.6857C57.2667 37.5157 61.4553 37.2622 64.5536 37.0746C64.4001 36.7114 64.1989 36.3703 63.9552 36.0604C63.4025 35.3657 62.7179 34.7267 62.4745 33.8748C62.4016 33.6019 62.3641 33.3207 62.363 33.0381L61.0547 33.4692L60.436 33.7633Z" fill="#66AC47"/>
<path d="M59.685 40.8472L56.2926 40.5886C55.8206 40.575 55.3507 40.5207 54.888 40.4263C55.2579 40.3785 55.6316 40.3683 56.0036 40.3959C55.5776 40.3655 55.1567 40.3401 54.7308 40.3249H54.4925C54.4925 40.7458 54.4519 41.1565 54.4062 41.5673C57.0684 42.5814 60.9984 43.9607 64.0662 45.0814C64.1735 44.876 64.2325 44.6487 64.2386 44.4171C64.2741 43.2051 62.8137 42.2772 62.8898 41.1058C62.5095 41.0754 62.1342 41.045 61.759 41.0044L59.685 40.8472Z" fill="#66AC47"/>
<path d="M55.5068 45.5276L54.1072 44.8126L53.7117 44.6199C53.5465 45.0998 53.3552 45.5704 53.1387 46.0296C55.4814 47.8247 58.5594 50.9787 61.1658 53.2606C61.4939 53.0807 61.7713 52.8208 61.9721 52.5051C62.6009 51.3996 61.7439 50.0558 61.6222 48.7881C60.8362 48.3977 59.6446 47.7739 58.316 47.0691C57.2258 46.4859 56.242 45.9434 55.5068 45.5276Z" fill="#66AC47"/>
<path d="M55.8875 51.8459C54.6401 50.9585 53.5143 50.137 52.7131 49.5387C52.1401 49.1076 51.7294 48.7932 51.5519 48.631C51.3643 48.8744 51.1716 49.1127 50.9688 49.3409C51.151 49.6205 51.3617 49.8805 51.5975 50.1167C53.3419 51.9473 56.0802 55.0811 58.1339 57.3174C58.6105 56.5263 58.4939 55.3752 59.0669 54.5994C59.1437 54.4997 59.2304 54.4079 59.3255 54.3256L58.499 53.6765C57.7586 53.1643 56.856 52.5355 55.8875 51.8459Z" fill="#66AC47"/>
<path d="M51.0236 55.9228C50.6585 55.2941 50.3137 54.6906 50.0094 54.1328C49.7762 53.6334 49.4741 53.1691 49.1119 52.7536C48.9845 52.6309 48.8258 52.5456 48.6531 52.5072C48.4805 52.4687 48.3006 52.4785 48.1332 52.5355C47.8949 52.6217 47.829 52.7789 47.8087 52.7586C47.7884 52.7383 47.8087 52.5811 48.0876 52.4392C48.2583 52.3625 48.4464 52.3325 48.6325 52.352C48.8187 52.3716 48.9963 52.4402 49.1474 52.5507C48.9187 52.2436 48.6697 51.9523 48.402 51.6785C48.1383 51.8611 47.8695 52.0436 47.5957 52.211C48.1789 55.1723 49.7052 59.5079 51.1453 62.9713C51.3494 63.0091 51.559 63.0048 51.7613 62.9586C51.9636 62.9124 52.1544 62.8252 52.3217 62.7026C53.2244 62.0129 52.8542 60.5627 53.1635 59.4775L52.9607 59.153C52.4333 58.3315 51.7538 57.1906 51.0236 55.9228Z" fill="#66AC47"/>
<path d="M46.9113 60.9886C47.0309 61.3897 47.1041 61.8031 47.1293 62.2208C46.9596 61.8407 46.8272 61.445 46.7338 61.0393L45.8921 58.154C45.5726 57.079 45.2836 56.1003 45.0351 55.2738C44.9185 54.863 44.8272 54.5385 44.7765 54.3306L44.6243 53.9756C44.4925 56.866 44.6649 60.9177 44.8627 64.1681C45.6117 63.5338 46.4299 62.9861 47.3018 62.5353C47.0685 61.4045 46.7592 60.1925 46.4042 58.9856C46.6172 59.7564 46.7896 60.4461 46.9113 60.9886Z" fill="#66AC47"/>
<path d="M40.4854 62.013C40.4344 62.5073 40.3393 62.996 40.2014 63.4734C40.1878 62.976 40.2218 62.4785 40.3028 61.9876C40.3992 61.0749 40.5513 59.8173 40.7338 58.438L41.0077 56.4807C41.1175 55.9764 41.0948 55.4523 40.9418 54.9594C40.8289 54.6952 40.6354 54.4734 40.389 54.3256H40.0848C39.9174 54.3256 39.7501 54.3256 39.5777 54.3256C39.5568 54.3397 39.538 54.3568 39.5219 54.3763C39.2367 54.7135 39.0305 55.1103 38.9185 55.5375C38.0361 58.149 37.1538 62.0434 36.2715 64.8527C37.3161 64.6346 37.9905 63.3618 39.0706 63.2908C39.5589 63.2924 40.0297 63.4728 40.3941 63.7979C40.4803 62.9359 40.5564 61.9826 40.6375 61.014C40.5919 61.3588 40.5361 61.7087 40.4854 62.013Z" fill="#66AC47"/>
<path d="M34.1691 57.9968C34.4784 57.368 34.7827 56.7595 35.0109 56.2068C35.2196 55.7261 35.3333 55.2095 35.3455 54.6856C35.3478 54.3367 35.2769 53.9912 35.1376 53.6714C34.9344 53.7134 34.7538 53.8289 34.6305 53.9959C32.663 56.1815 29.8893 59.7057 27.8711 62.4288C28.9867 62.8496 30.5181 62.1346 31.8314 62.2766C31.9531 62.0535 32.1712 61.6783 32.4602 61.1762C32.9166 60.37 33.5403 59.2544 34.1691 57.9968Z" fill="#66AC47"/>
<path d="M27.4853 57.0486C27.8403 56.6277 28.753 55.6794 29.8027 54.5486C30.9436 53.3266 31.8969 52.282 32.2265 51.9777C31.8969 51.7597 31.5775 51.5315 31.2631 51.2932C30.8614 51.6703 30.4399 52.0258 30.0004 52.358C29.522 52.7808 28.9901 53.1388 28.4183 53.4229C28.8285 52.9332 29.3067 52.5046 29.8382 52.1501C30.2641 51.8205 30.6546 51.5366 30.9436 51.3439C30.3293 51.6034 29.7528 51.9445 29.2297 52.358L23.2207 56.8609C24.2653 57.0435 25.4468 57.0891 26.1009 57.8751C26.1995 57.9945 26.283 58.1257 26.3494 58.2656C26.679 57.8701 27.0695 57.4897 27.4853 57.0486Z" fill="#66AC47"/>
<path d="M25.1974 50.9383C26.2116 50.2791 27.1599 49.7061 27.7988 49.2801C27.9316 49.1866 28.0338 49.0561 28.0929 48.9049C28.1357 48.7904 28.1357 48.6644 28.0929 48.5499C28.027 48.3522 27.8901 48.3167 27.9002 48.2964C27.9104 48.2761 28.0675 48.2964 28.1892 48.5094C28.2559 48.6447 28.272 48.7993 28.2349 48.9454C28.2285 48.9754 28.2183 49.0044 28.2045 49.0317C28.3688 48.9237 28.5045 48.7775 28.6 48.6057C28.4377 48.3877 28.2755 48.1645 28.1183 47.9364C27.9123 47.9284 27.7064 47.9558 27.5098 48.0175C24.7968 48.7325 20.654 50.2791 17.4238 51.4758C18.438 52.2162 20.2889 51.8967 20.943 53.0376C21.0148 53.177 21.0676 53.3254 21.1002 53.4788C21.9876 52.9362 22.9764 52.3429 23.9602 51.7496C24.3455 51.491 24.7411 51.2223 25.1974 50.9383Z" fill="#66AC47"/>
<path d="M22.1257 45.9585L23.865 45.492C24.4025 45.3551 24.8791 45.2486 25.2696 45.1066C25.6875 44.9586 26.0634 44.7116 26.3649 44.3866C26.3649 44.3866 26.3345 44.5235 26.1773 44.706C26.0578 44.8403 25.9195 44.9565 25.7665 45.0509L25.9846 44.9748C26.1756 44.9207 26.3499 44.8196 26.4917 44.6807C26.4004 44.417 26.3142 44.1736 26.2381 43.8846C26.0216 43.8004 25.7909 43.7591 25.5586 43.7629C22.2051 43.6445 18.8516 43.5465 15.498 43.4688C15.9646 44.2598 17.0193 44.6097 17.4351 45.4261C17.6771 45.9473 17.7186 46.5394 17.5518 47.0893L20.0872 46.5265C20.6855 46.3338 21.3904 46.1563 22.1257 45.9585Z" fill="#66AC47"/>
<path d="M16.6297 40.0156C17.0547 39.9757 17.4825 39.9757 17.9075 40.0156C18.6986 40.046 19.7838 40.0866 20.9855 40.1119C22.1873 40.1373 23.2776 40.1423 24.0636 40.1474C24.4919 40.1255 24.9213 40.1425 25.3465 40.1981C24.9273 40.2935 24.4985 40.3394 24.0686 40.335C23.5616 40.3655 22.8922 40.3807 22.1671 40.3857C23.4145 40.4364 24.6112 40.4517 25.6152 40.3857H25.6964C25.6964 40.2184 25.6964 40.0511 25.6964 39.8787C25.6964 39.7062 25.6964 39.402 25.6964 39.1687L25.6254 39.1231C22.8516 37.47 18.8659 36.2783 15.5648 35.3757C15.5259 35.6482 15.5817 35.9258 15.7229 36.1621C15.8642 36.3984 16.0822 36.5791 16.3406 36.6739L16.2697 36.2175C17.0861 36.5725 17.3092 37.6728 17.0506 38.5247C16.86 39.0666 16.5937 39.5788 16.2595 40.046L17.0303 40.0916C16.8934 40.0896 16.7578 40.0638 16.6297 40.0156ZM23.7289 39.3006C24.3035 39.3597 24.8659 39.505 25.3972 39.7316C24.8207 39.7612 24.2431 39.7048 23.6832 39.5643C23.1102 39.5055 22.5494 39.3602 22.02 39.1332C22.5948 39.1034 23.1708 39.1598 23.7289 39.3006Z" fill="#66AC47"/>
<path d="M17.8411 32.5107C18.3074 32.6639 18.7589 32.8591 19.1899 33.0939L20.2396 33.601C21.1727 34.0016 22.1463 34.4072 23.0945 34.7825C23.9707 35.1006 24.8735 35.3399 25.7922 35.4975C25.9797 35.5186 26.1694 35.4869 26.3399 35.4062C26.3658 35.3887 26.3896 35.3682 26.4109 35.3453C26.5123 35.0461 26.6188 34.752 26.7405 34.4579C26.2739 34.2297 25.564 33.8444 24.773 33.388C23.9274 32.9602 23.1258 32.4507 22.3795 31.8667C23.2614 32.2236 24.1099 32.658 24.9149 33.1649L25.7364 33.6719C23.1623 31.8317 20.4893 30.1338 17.7296 28.5859C17.5673 29.5392 17.9324 30.7562 17.6383 31.745C17.5692 31.9548 17.4756 32.1556 17.3594 32.3434L17.9679 32.602C17.8868 32.5564 17.836 32.5158 17.8411 32.5107Z" fill="#66AC47"/>
<path d="M22.7372 26.6082C23.0705 26.8537 23.378 27.1324 23.6551 27.4398C24.2078 27.9469 24.9786 28.6873 25.8609 29.4377C26.7432 30.1882 27.5799 30.8322 28.1935 31.2886L28.4014 31.4458C28.5789 31.2024 28.7563 30.9641 28.949 30.7359L28.9186 30.6852C28.6499 30.3657 28.3152 29.9347 27.9602 29.4428C27.4707 28.8336 27.0649 28.1617 26.7534 27.4449C27.0492 27.7254 27.3082 28.0423 27.5241 28.3881C26.2897 26.4588 24.9347 24.6094 23.4674 22.8507C23.0435 22.9165 22.655 23.1259 22.3671 23.444C21.8042 24.1286 22.0121 25.2036 21.7383 26.0149C22.2454 26.4814 22.8488 26.9987 23.4674 27.5362C23.1876 27.2573 22.9425 26.9458 22.7372 26.6082Z" fill="#66AC47"/>
<path d="M29.6555 25.0362C30.9232 26.6386 31.983 27.9165 31.9577 27.9976C32.1909 27.8387 32.4293 27.6866 32.6727 27.5412C32.6727 27.5057 32.6473 27.4753 32.6321 27.4449C31.6788 25.0109 29.9496 21.1976 28.7934 18.4137C28.6092 18.4964 28.4297 18.5896 28.2559 18.6926C27.4091 19.1997 27.1302 20.3 26.6738 21.1976C26.9679 21.583 27.3026 22.0343 27.6576 22.5211C28.0125 23.0079 28.7985 23.9561 29.6555 25.0362ZM30.9638 24.301C31.2887 24.8198 31.5637 25.3682 31.7853 25.9388C32.084 26.4733 32.3302 27.0354 32.5205 27.6173C31.7486 26.6493 31.2153 25.5132 30.9638 24.301Z" fill="#66AC47"/>
<path d="M34.0761 19.3367C34.1937 19.7048 34.2752 20.0836 34.3196 20.4675C34.4413 21.1622 34.6086 22.1307 34.8266 23.1905C35.0092 24.1185 35.1867 24.9501 35.3337 25.6144C35.4047 25.8324 35.4757 26.0302 35.5467 26.2128C35.8154 26.1215 36.0893 26.0403 36.3732 25.9643C36.2497 25.4112 36.1633 24.8505 36.1146 24.2858C35.9947 23.7225 35.9369 23.1478 35.9422 22.5719C36.1932 23.1003 36.3412 23.6716 36.3783 24.2554C36.424 24.5901 36.4442 24.9045 36.4544 25.1732C36.4544 22.5516 36.5102 19.1795 36.5051 16.5122C36.0842 16.9128 35.7749 17.6126 35.0954 18.6166C34.9747 18.784 34.8184 18.9227 34.6378 19.0226C34.4572 19.1226 34.2568 19.1813 34.0508 19.1947L34.0812 19.3924C34.066 19.362 34.0711 19.3367 34.0761 19.3367Z" fill="#66AC47"/>
<path d="M40.4627 22.0698C40.4374 23.5454 40.3917 24.8233 40.3359 25.4774C40.6808 25.4774 41.0256 25.4774 41.3501 25.5332C41.8958 24.6774 42.2744 23.7258 42.4657 22.729C42.9119 20.9492 43.5255 18.0892 44.0224 16C43.7082 16.0207 43.402 16.1089 43.1249 16.2586C42.344 16.6896 41.3957 18.576 40.9039 18.5861C40.8151 18.5793 40.7287 18.5542 40.6502 18.5123C40.5716 18.4704 40.5026 18.4127 40.4475 18.3427V18.5557C40.4627 19.1744 40.4627 20.5131 40.4627 22.0698Z" fill="#66AC47"/>
<path d="M55.4501 35.5837C56.0941 35.3758 56.9713 35.0766 57.9551 34.7115C58.9388 34.3464 59.8059 34.0168 60.4347 33.7633L61.0635 33.4945C61.3069 33.388 61.4387 33.317 61.4286 33.2968C61.0636 33.3513 60.7062 33.4483 60.3637 33.5858C59.7197 33.7988 58.8425 34.0929 57.8638 34.4631C56.8851 34.8332 56.018 35.1527 55.3892 35.4113C55.0479 35.5326 54.7172 35.6819 54.4004 35.8575C54.7603 35.8104 55.1129 35.7184 55.4501 35.5837Z" fill="#263238"/>
<path d="M56.3015 40.406H56.0023C55.6304 40.3784 55.2566 40.3886 54.8867 40.4364C55.3494 40.5308 55.8193 40.5851 56.2913 40.5987L59.6837 40.8573L61.7577 41.0094L62.8885 41.0956C62.8885 41.05 62.8885 41.0043 62.8885 40.9587C62.8885 40.9131 62.8885 40.9232 62.8885 40.9029C62.0417 40.8015 60.916 40.69 59.6736 40.5936C58.3755 40.4871 57.1939 40.4263 56.3015 40.406Z" fill="#263238"/>
<path d="M58.4314 46.841C57.0443 46.045 55.6137 45.3272 54.1465 44.691C54.5744 45.0102 55.0291 45.2919 55.5055 45.5327C56.2408 45.9486 57.2245 46.4911 58.3097 47.054C59.6382 47.7639 60.8451 48.3826 61.6159 48.773C61.6159 48.7071 61.6159 48.6412 61.6159 48.5753L61.1443 48.3065C60.409 47.911 59.4658 47.3887 58.4314 46.841Z" fill="#263238"/>
<path d="M56.0383 51.6278C54.7909 50.7404 53.655 49.9494 52.8183 49.3865L52.6814 49.2902C52.1743 48.9453 51.7788 48.6969 51.5861 48.5853L51.6469 48.5092C52.2242 47.7337 52.7235 46.9031 53.1378 46.0296C53.3565 45.5656 53.5495 45.0899 53.7158 44.6047C54.0573 43.6188 54.2902 42.5986 54.4106 41.5622C54.4562 41.1514 54.4866 40.7407 54.4967 40.3198C54.4967 40.1778 54.4967 40.0358 54.4967 39.8888C54.5043 38.5904 54.3336 37.2971 53.9897 36.0451C53.6723 34.9097 53.2159 33.818 52.6307 32.7947L52.4329 32.4498C52.4218 32.2335 52.4636 32.0177 52.5546 31.8211C52.8234 31.172 53.7666 30.7105 54.6945 30.1223C55.6225 29.5341 56.5048 29.0524 57.1285 28.6873C57.4875 28.5134 57.8274 28.3027 58.1427 28.0585C58.1427 28.0585 58.0869 28.0585 58.0058 28.094C57.8334 28.1548 57.4987 28.3019 57.0575 28.5199C56.4034 28.8445 55.5363 29.3211 54.5728 29.8992C54.0961 30.1882 53.6499 30.4671 53.2493 30.7511C52.989 30.9296 52.7624 31.1528 52.58 31.4103C52.5046 31.5151 52.4432 31.6293 52.3974 31.7501C52.3378 31.9019 52.3068 32.0635 52.3061 32.2267C52.225 32.0999 52.1489 31.9732 52.0627 31.8515C51.2047 30.5764 50.1485 29.4466 48.934 28.5047L48.645 28.2816C48.6899 28.0509 48.8136 27.843 48.9949 27.6934C49.5729 27.1052 50.3589 26.2735 51.2159 25.3405C52.0729 24.4075 52.8335 23.5606 53.3761 22.9369C53.6899 22.615 53.9718 22.2635 54.2179 21.8872C53.8602 22.1598 53.5322 22.4691 53.2392 22.8101C52.6611 23.4034 51.8751 24.235 51.0181 25.163C50.5111 25.7005 50.0648 26.2076 49.6592 26.6843C49.36 27.0189 49.0861 27.3283 48.858 27.592C48.7207 27.7386 48.6139 27.9109 48.5436 28.099C48.5287 28.1383 48.5185 28.1791 48.5131 28.2207L48.4726 28.1903C47.4872 27.4834 46.4153 26.9057 45.283 26.4713C45.0244 26.3699 44.7759 26.2786 44.5021 26.1924C43.4827 25.8659 42.4298 25.655 41.3632 25.5636C41.0235 25.5332 40.6787 25.518 40.3491 25.5078C40.4048 24.8537 40.4505 23.5758 40.4758 22.1002C40.5063 20.5435 40.4758 19.2048 40.4758 18.5861C40.4803 18.5034 40.4803 18.4204 40.4758 18.3376L40.4251 18.2819C40.3592 18.5912 40.2831 20.1784 40.2476 22.0951C40.2476 22.2828 40.2476 22.4653 40.2476 22.6428C40.2476 23.8801 40.2476 24.9348 40.2476 25.5078H40.055C38.8572 25.5143 37.6649 25.6693 36.5054 25.9693H36.4597C36.4881 25.836 36.5017 25.6999 36.5003 25.5636C36.5003 25.4521 36.5003 25.3304 36.5003 25.1884C36.5003 24.9196 36.4699 24.6052 36.4242 24.2705C36.3871 23.6868 36.2391 23.1154 35.9881 22.587C35.9828 23.1629 36.0406 23.7377 36.1605 24.301C36.2092 24.8656 36.2956 25.4263 36.4191 25.9794C36.1352 26.0555 35.8614 26.1366 35.5926 26.2279L35.5115 26.2532C35.5115 26.1518 35.4709 26.0403 35.4405 25.9186C35.4101 25.7969 35.3999 25.7259 35.3796 25.6295C35.2376 24.9653 35.0602 24.1336 34.8725 23.2057C34.6697 22.1459 34.5024 21.1773 34.3655 20.4826C34.3211 20.0987 34.2396 19.72 34.1221 19.3518C34.1221 19.3518 34.1221 19.3772 34.1221 19.4076C34.1224 19.7755 34.1461 20.1431 34.1931 20.508C34.2691 21.2128 34.406 22.1915 34.6139 23.2564C34.8218 24.3213 35.0602 25.2847 35.2579 25.9642C35.2934 26.091 35.3238 26.2025 35.3593 26.309C34.4438 26.6285 33.5636 27.0415 32.7326 27.5412C32.4892 27.6866 32.2509 27.8387 32.0177 27.9976C32.0177 27.9165 31.0035 26.6386 29.7155 25.0362C28.8686 23.9714 28.1384 23.0333 27.7176 22.5008C27.4995 22.2321 27.3626 22.085 27.3423 22.1002C27.4926 22.4376 27.6851 22.7546 27.9153 23.0434C28.3007 23.6063 28.8585 24.3618 29.5076 25.1782C29.9487 25.731 30.3696 26.238 30.7398 26.664L31.2469 27.2116C31.4792 27.4972 31.7428 27.7557 32.0329 27.9824L31.8554 28.1092C30.8573 28.8135 29.9525 29.6416 29.1628 30.5736C28.9295 30.2288 28.6151 29.7775 28.2601 29.2856L27.606 28.383C27.3901 28.0372 27.1311 27.7203 26.8352 27.4398C27.1467 28.1566 27.5526 28.8285 28.0421 29.4377C28.3971 29.9448 28.7317 30.3606 29.0005 30.6801L29.036 30.7207C28.8433 30.9489 28.6658 31.1872 28.4883 31.4306L28.2804 31.2734C27.6669 30.817 26.8352 30.173 25.9478 29.4225C25.0604 28.672 24.2947 27.952 23.742 27.4246C23.4649 27.1171 23.1574 26.8385 22.8242 26.593C23.0361 26.9299 23.2881 27.2398 23.5747 27.5159L23.6102 27.5565C24.9757 29.0194 26.5073 30.3179 28.1739 31.4255L28.392 31.5675C27.7877 32.4102 27.2776 33.3165 26.8707 34.2703C26.5969 34.0928 26.2267 33.8646 25.7957 33.606L24.9742 33.0989C24.1691 32.5921 23.3207 32.1576 22.4388 31.8008C23.1851 32.3847 23.9867 32.8943 24.8322 33.322C25.6233 33.7784 26.3535 34.1638 26.7997 34.392C26.678 34.6861 26.5716 34.9802 26.4701 35.2794C26.4489 35.3023 26.425 35.3227 26.3991 35.3402C26.2286 35.421 26.039 35.4526 25.8515 35.4315C24.9328 35.274 24.0299 35.0347 23.1538 34.7165C22.9307 34.6388 22.7076 34.5576 22.4844 34.4731C21.6782 34.1587 20.9632 33.8342 20.2989 33.535L19.2492 33.0279C18.8182 32.7931 18.3667 32.5979 17.9004 32.4448C17.9004 32.4448 17.946 32.4904 18.0272 32.5411C18.2148 32.6679 18.6103 32.8961 19.1681 33.1953C20.2088 33.7687 21.2842 34.2767 22.3881 34.7165C23.3697 35.1038 24.3895 35.386 25.4306 35.5583L25.8515 35.6191C26.0446 35.6252 26.2362 35.5834 26.4093 35.4974C26.3738 35.6141 26.3383 35.7256 26.3079 35.8422C25.9968 36.9141 25.8113 38.0185 25.7551 39.1332C25.7551 39.3665 25.7551 39.6048 25.7551 39.8431C25.7551 40.0815 25.7551 40.1829 25.7551 40.3502C25.7981 41.5312 25.9837 42.7026 26.3079 43.839C26.3839 44.1077 26.4701 44.3714 26.5614 44.6351C26.9667 45.7846 27.5153 46.8784 28.1942 47.8906C28.3514 48.1188 28.5137 48.3419 28.676 48.5599C29.4095 49.5292 30.2613 50.4031 31.2114 51.1613L30.9984 51.2982C30.7094 51.4909 30.3189 51.7749 29.893 52.1045C29.3615 52.4589 28.8833 52.8875 28.4731 53.3773C29.0449 53.0931 29.5768 52.7351 30.0552 52.3124C30.4947 51.9801 30.9162 51.6246 31.3179 51.2475C31.6323 51.4858 31.9517 51.714 32.2813 51.9321C31.9517 52.2363 30.9984 53.2809 29.8575 54.503C28.8078 55.6338 27.895 56.582 27.5401 57.0029C27.4234 57.1398 27.3626 57.221 27.3778 57.2362C27.6838 57.0415 27.9634 56.808 28.2094 56.5415C28.7165 56.08 29.3504 55.431 30.0502 54.6855C30.7499 53.9401 31.2722 53.3265 31.688 52.8195C31.7185 52.789 31.7489 52.7485 31.7742 52.718C32.0531 52.3783 32.2509 52.1146 32.3422 51.9726H32.3929C33.2252 52.5071 34.1105 52.954 35.0348 53.3063C35.0933 53.3992 35.1458 53.4957 35.192 53.5953C35.3313 53.9152 35.4021 54.2606 35.3999 54.6095C35.3877 55.1334 35.274 55.65 35.0652 56.1307C34.837 56.6835 34.5328 57.292 34.2235 57.9207C33.5947 59.1834 32.971 60.299 32.5146 61.1002C32.2255 61.6073 32.0075 61.9774 31.8858 62.2006H31.9771C32.1292 61.9926 32.3726 61.6478 32.6718 61.1864C33.3232 60.168 33.9191 59.1151 34.4567 58.0323C34.7711 57.3934 35.0652 56.7899 35.2883 56.2068C35.4569 55.7876 35.5578 55.3443 35.5875 54.8934C35.5951 54.7871 35.5951 54.6803 35.5875 54.574C35.5719 54.2318 35.48 53.8975 35.3188 53.5953C35.2999 53.5643 35.283 53.5321 35.2681 53.499C35.2224 53.433 35.1819 53.3823 35.1464 53.3367C36.5884 53.8701 38.1074 54.1664 39.6442 54.2139C39.8065 54.2139 39.9738 54.2139 40.1513 54.2139H40.4555C40.7051 54.3957 40.8857 54.6567 40.9677 54.9543C41.1207 55.4472 41.1435 55.9713 41.0336 56.4756L40.7598 58.4329C40.5772 59.8223 40.4251 61.0799 40.3288 61.9825C40.2477 62.4734 40.2138 62.9709 40.2274 63.4683C40.3653 62.9909 40.4603 62.5021 40.5113 62.0079C40.562 61.7036 40.6178 61.3537 40.6736 60.9937C40.7801 60.2533 40.9018 59.3964 41.0235 58.4583C41.1097 57.7686 41.1959 57.1094 41.272 56.4958C41.3695 55.9783 41.3346 55.4446 41.1705 54.9442C41.1705 54.9137 41.1705 54.8833 41.135 54.8529C41.0199 54.6229 40.8447 54.4284 40.628 54.29H40.9221C43.2714 54.1506 45.5507 53.4367 47.5598 52.211C47.8336 52.0436 48.1024 51.8611 48.3661 51.6785C49.3172 51.0058 50.1838 50.2209 50.9471 49.3409C51.15 49.1127 51.3427 48.8743 51.5303 48.6309C51.7078 48.7932 52.1185 49.1076 52.6915 49.5386C53.4927 50.137 54.6185 50.9585 55.8659 51.8459C56.8344 52.5355 57.737 53.1643 58.4774 53.6764L59.0859 54.0923L59.3546 54.2697L59.4966 54.1683L59.2228 53.9401C58.4064 53.3367 57.2857 52.5203 56.0383 51.6278ZM40.0854 52.5304C37.5851 52.5304 35.141 51.789 33.0621 50.3999C30.9832 49.0108 29.3628 47.0365 28.406 44.7265C27.4492 42.4166 27.1989 39.8748 27.6866 37.4225C28.1744 34.9703 29.3784 32.7178 31.1464 30.9498C32.9144 29.1818 35.1669 27.9778 37.6191 27.49C40.0714 27.0023 42.6132 27.2526 44.9231 28.2094C47.2331 29.1662 49.2074 30.7866 50.5965 32.8655C51.9856 34.9444 52.727 37.3885 52.727 39.8888C52.727 43.2416 51.3951 46.457 49.0244 48.8278C46.6536 51.1985 43.4382 52.5304 40.0854 52.5304Z" fill="#263238"/>
<path d="M54.2855 55.3702C53.9033 54.7414 53.4851 54.1353 53.033 53.5548C52.6512 52.9262 52.2312 52.3217 51.7754 51.7445C52.0066 52.4535 52.3582 53.1174 52.8149 53.7069C53.2022 54.3444 53.7002 54.9077 54.2855 55.3702Z" fill="#263238"/>
<path d="M51.2826 55.8519L51.2521 55.791L50.2075 54.0111C49.9467 53.4933 49.6043 53.0207 49.1934 52.6116C49.1676 52.5897 49.1405 52.5694 49.1122 52.5507C48.9647 52.4397 48.7907 52.3691 48.6075 52.3459C48.4242 52.3228 48.2381 52.348 48.0676 52.4189C47.809 52.5609 47.7786 52.7434 47.7887 52.7384C47.7989 52.7333 47.8749 52.6015 48.1133 52.5152C48.2807 52.4583 48.4606 52.4485 48.6332 52.4869C48.8058 52.5254 48.9645 52.6106 49.0919 52.7333C49.4541 53.1488 49.7562 53.6131 49.9895 54.1126C50.309 54.6704 50.6538 55.2738 51.0037 55.9026C51.7339 57.1703 52.4134 58.3112 52.9154 59.1327L53.1182 59.4573C53.1182 59.3863 53.1639 59.3153 53.1892 59.2443L53.0776 59.0364C52.6314 58.2301 52.0026 57.0942 51.2826 55.8519Z" fill="#263238"/>
<path d="M45.8917 58.1541L46.7334 61.0394C46.8268 61.4451 46.9593 61.8408 47.129 62.2209C47.1037 61.8032 47.0305 61.3897 46.9109 60.9887C46.7892 60.4461 46.6168 59.7565 46.4038 58.9908C46.3227 58.6967 46.2365 58.3924 46.1452 58.078C45.8105 56.9523 45.4759 55.9381 45.2122 55.213C45.0978 54.8115 44.9361 54.4251 44.7305 54.0619C44.7305 54.0619 44.7305 54.1633 44.7761 54.3306C44.8217 54.498 44.9181 54.8377 45.0347 55.2738C45.2832 56.1004 45.5722 57.079 45.8917 58.1541Z" fill="#263238"/>
<path d="M42.6719 56.9523C42.6008 57.4241 42.5922 57.9032 42.6465 58.3772C42.6172 58.8533 42.6548 59.3313 42.7581 59.797C42.9901 58.8587 42.9603 57.8748 42.6719 56.9523Z" fill="#263238"/>
<path d="M28.1886 48.5093C28.0669 48.2811 27.8945 48.2862 27.8996 48.2963C27.9046 48.3065 28.0263 48.3521 28.0923 48.5499C28.135 48.6643 28.135 48.7904 28.0923 48.9048C28.0332 49.0561 27.9309 49.1866 27.7981 49.2801C27.1592 49.706 26.2059 50.2943 25.1968 50.9382C24.7607 51.2222 24.3449 51.491 23.9595 51.7496C23.4524 52.0843 22.991 52.3987 22.6157 52.6522C22.2524 52.876 21.9127 53.136 21.6016 53.428C21.9976 53.2621 22.3749 53.0548 22.7273 52.8094C23.4068 52.3987 24.3348 51.7952 25.3489 51.1614C26.3631 50.5275 27.2809 49.919 27.93 49.4221C28.0569 49.3187 28.1548 49.1842 28.214 49.0316C28.2278 49.0043 28.238 48.9753 28.2444 48.9454C28.2784 48.798 28.2586 48.6434 28.1886 48.5093Z" fill="#263238"/>
<path d="M26.1761 44.7061C26.3333 44.5236 26.3739 44.3917 26.3638 44.3867C26.0622 44.7117 25.6864 44.9587 25.2685 45.1067C24.8881 45.2487 24.4013 45.3552 23.8638 45.4921L22.1245 45.9586C21.3893 46.1564 20.6945 46.3491 20.0962 46.5266L18.9907 46.8511C18.5509 46.9567 18.1229 47.1062 17.7129 47.2973C18.1634 47.2508 18.6083 47.1608 19.0415 47.0286C19.8528 46.8359 20.9734 46.5215 22.2057 46.2122L23.9399 45.7304C24.4178 45.6062 24.8884 45.4556 25.3496 45.2791C25.4974 45.2145 25.6398 45.1382 25.7755 45.0509C25.9249 44.9558 26.0598 44.8396 26.1761 44.7061Z" fill="#263238"/>
<path d="M25.3301 40.2032C24.9049 40.1476 24.4755 40.1306 24.0472 40.1525C23.2612 40.1525 22.1709 40.1525 20.9691 40.117C19.7674 40.0815 18.6822 40.0511 17.8911 40.0206C17.4661 39.9808 17.0383 39.9808 16.6133 40.0206C16.7421 40.0747 16.8794 40.1056 17.0189 40.1119C17.2319 40.1423 17.526 40.1778 17.881 40.2133C18.667 40.2894 19.7572 40.3604 20.9641 40.3857C21.3799 40.3857 21.7703 40.3857 22.1507 40.3857C22.8758 40.3857 23.535 40.3857 24.0522 40.335C24.4819 40.3411 24.9107 40.2968 25.3301 40.2032Z" fill="#263238"/>
<path d="M23.6613 39.5643C24.2211 39.7048 24.7988 39.7612 25.3752 39.7316C24.2873 39.3583 23.148 39.1564 21.998 39.1332C22.5275 39.3602 23.0883 39.5055 23.6613 39.5643Z" fill="#263238"/>
<path d="M32.5196 27.6021C32.3293 27.0202 32.0831 26.4581 31.7844 25.9237C31.5628 25.353 31.2878 24.8046 30.9629 24.2858C31.2144 25.498 31.7477 26.6341 32.5196 27.6021Z" fill="#263238"/>
<path d="M44.7148 25.9998C45.3712 24.6165 45.9502 23.1979 46.4491 21.7504C46.9562 20.3812 47.3973 19.1592 47.661 18.363L47.514 18.2921C47.1894 19.0679 46.7128 20.2849 46.2006 21.6591C45.6222 23.0762 45.1261 24.5255 44.7148 25.9998Z" fill="#263238"/>
<path d="M47.4735 23.7026C47.9898 23.1221 48.4217 22.4717 48.7564 21.7706C48.2078 22.3149 47.7089 22.9072 47.2656 23.5403C46.7546 24.1203 46.2963 24.7448 45.8965 25.4064C46.4977 24.9133 47.0283 24.34 47.4735 23.7026Z" fill="#263238"/>
<path d="M52.8304 26.4055C53.4822 26.0405 54.0697 25.5711 54.5697 25.0161C53.9156 25.3596 53.2869 25.7493 52.6884 26.1823C52.0461 26.5467 51.431 26.9568 50.8477 27.4095C51.5575 27.1818 52.2268 26.843 52.8304 26.4055Z" fill="#263238"/>
<path d="M56.2457 30.8374C55.7468 31.0104 55.2855 31.2771 54.8867 31.6234C55.3983 31.5122 55.8916 31.3295 56.3522 31.0808C56.8471 30.9122 57.315 30.6731 57.7416 30.3708C57.2176 30.4288 56.7097 30.5872 56.2457 30.8374Z" fill="#263238"/>
<path d="M40.085 52.5305C47.0668 52.5305 52.7267 46.8706 52.7267 39.8888C52.7267 32.907 47.0668 27.2472 40.085 27.2472C33.1032 27.2472 27.4434 32.907 27.4434 39.8888C27.4434 46.8706 33.1032 52.5305 40.085 52.5305Z" fill="#FAFAFA"/>
<path d="M46.0373 66.2167C46.0695 66.3154 46.09 66.4175 46.0982 66.521C46.1286 66.7542 46.1691 67.0281 46.2198 67.4033C46.3213 68.2096 46.4582 69.31 46.6306 70.6588C46.9754 73.4021 47.4724 77.1901 48.0758 81.3685C48.6792 85.5468 49.2928 89.3196 49.7593 92.0477C49.9875 93.3864 50.1701 94.4817 50.307 95.2778C50.3678 95.6378 50.4135 95.9269 50.449 96.1601C50.4692 96.2621 50.4811 96.3656 50.4844 96.4695C50.4429 96.3739 50.4139 96.2733 50.3982 96.1703C50.3475 95.9421 50.2867 95.6632 50.2055 95.2981C50.0433 94.5425 49.8303 93.4422 49.5717 92.0781C49.0646 89.3601 48.4257 85.5874 47.8172 81.4293C47.2087 77.2712 46.7421 73.4528 46.443 70.6994C46.2959 69.3252 46.1844 68.2096 46.1184 67.4388C46.088 67.0737 46.0627 66.7796 46.0474 66.5463C46.0301 66.4373 46.0267 66.3266 46.0373 66.2167Z" fill="#263238"/>
<path d="M38.7129 63.5748C38.7839 63.5748 39.3873 73.8889 40.0618 86.6218C40.7362 99.3547 41.2281 109.674 41.152 109.679C41.0759 109.684 40.4725 99.3649 39.7981 86.632C39.1237 73.899 38.6368 63.5748 38.7129 63.5748Z" fill="#263238"/>
<path d="M34.6745 65.806C34.6777 65.9103 34.6657 66.0145 34.639 66.1154C34.5985 66.3435 34.5427 66.6224 34.4768 66.9825C34.3196 67.7685 34.1066 68.8485 33.8429 70.1619C33.275 72.8748 32.5042 76.5613 31.6472 80.6332C30.7903 84.7051 29.9637 88.3815 29.3755 91.0842C29.0814 92.3925 28.838 93.4675 28.6605 94.2485C28.5743 94.5933 28.5084 94.8773 28.4526 95.1004C28.4341 95.2033 28.4034 95.3038 28.3613 95.3996C28.3621 95.2952 28.3757 95.1913 28.4019 95.0902C28.4425 94.8671 28.4932 94.5831 28.5591 94.2231C28.7163 93.4422 28.9343 92.3621 29.1929 91.0437C29.7659 88.3359 30.5367 84.6493 31.3886 80.5724C32.2405 76.4954 33.0721 72.8241 33.6604 70.1213C33.9595 68.8131 34.203 67.738 34.3804 66.9571C34.4616 66.6123 34.5326 66.3283 34.5883 66.1052C34.6102 66.0036 34.639 65.9037 34.6745 65.806Z" fill="#263238"/>
<path d="M41.0641 32.7896L42.844 36.3899C42.8876 36.4783 42.9519 36.5548 43.0313 36.613C43.1107 36.6713 43.203 36.7096 43.3004 36.7246L47.2759 37.2976C47.3834 37.3173 47.4835 37.3656 47.5659 37.4373C47.6483 37.5091 47.7098 37.6017 47.744 37.7055C47.7783 37.8092 47.784 37.9202 47.7605 38.0269C47.737 38.1336 47.6852 38.232 47.6106 38.3118L44.7354 41.1109C44.6651 41.1797 44.6126 41.2646 44.5825 41.3583C44.5525 41.4519 44.5458 41.5516 44.563 41.6484L45.2375 45.6088C45.2574 45.7202 45.2455 45.8349 45.2033 45.94C45.1611 46.045 45.0902 46.136 44.9987 46.2026C44.9072 46.2693 44.7988 46.3088 44.6859 46.3168C44.573 46.3247 44.4601 46.3008 44.3602 46.2477L40.8106 44.3765C40.7227 44.3316 40.6254 44.3081 40.5266 44.3081C40.4279 44.3081 40.3306 44.3316 40.2427 44.3765L36.6931 46.2477C36.5931 46.3008 36.4802 46.3247 36.3673 46.3168C36.2544 46.3088 36.1461 46.2693 36.0546 46.2026C35.9631 46.136 35.8922 46.045 35.85 45.94C35.8077 45.8349 35.7959 45.7202 35.8158 45.6088L36.4953 41.6484C36.5115 41.5511 36.5038 41.4514 36.4729 41.3578C36.442 41.2641 36.3887 41.1794 36.3178 41.1109L33.4426 38.3118C33.368 38.2317 33.3163 38.1329 33.2931 38.0258C33.2699 37.9188 33.276 37.8075 33.3108 37.7036C33.3456 37.5998 33.4078 37.5072 33.4908 37.4358C33.5738 37.3643 33.6745 37.3166 33.7824 37.2976L37.7529 36.7246C37.8502 36.7096 37.9425 36.6713 38.022 36.613C38.1014 36.5548 38.1656 36.4783 38.2092 36.3899L39.9891 32.7896C40.0397 32.6905 40.1166 32.6074 40.2115 32.5493C40.3063 32.4912 40.4154 32.4604 40.5266 32.4604C40.6379 32.4604 40.7469 32.4912 40.8418 32.5493C40.9366 32.6074 41.0136 32.6905 41.0641 32.7896Z" fill="#66AC47"/>
<path d="M45.3287 31.6689L45.5416 32.3586C45.5886 32.5096 45.6719 32.6467 45.7842 32.7581C45.8965 32.8695 46.0343 32.9517 46.1856 32.9975L46.8753 33.2156L46.1806 33.4488C46.0402 33.497 45.9125 33.5763 45.8071 33.6808C45.7018 33.7853 45.6214 33.9123 45.572 34.0522L45.3287 34.7571L45.0599 34.0218C45.0086 33.8847 44.9274 33.7607 44.8221 33.6589C44.7169 33.5572 44.5902 33.4802 44.4514 33.4336L43.7871 33.2156L44.4413 32.9924C44.5762 32.948 44.6995 32.8739 44.8022 32.7756C44.9048 32.6774 44.9842 32.5574 45.0345 32.4245L45.3287 31.6689Z" fill="#66AC47"/>
<g opacity="0.3">
<path d="M44.5866 25.66C44.5214 25.821 44.4887 25.9934 44.4903 26.1671C44.754 26.2533 44.9974 26.3446 45.2712 26.446C45.4143 26.3465 45.5424 26.227 45.6515 26.091L50.7934 19.6257C51.0812 19.3436 51.2454 18.9588 51.2497 18.5557C51.252 18.5372 51.252 18.5185 51.2497 18.5C50.3218 18.4239 49.2569 18.8853 48.3289 18.5963C48.1072 18.5313 47.8889 18.4551 47.6748 18.3681C47.4111 19.1642 46.975 20.3965 46.4628 21.7554C45.964 23.203 45.385 24.6216 44.7286 26.0048C45.1399 24.5305 45.636 23.0812 46.2144 21.6642C46.7215 20.29 47.2032 19.073 47.5277 18.2971C47.489 18.2799 47.4517 18.2595 47.4162 18.2363L47.3502 18.2971C46.424 20.7616 45.5028 23.2158 44.5866 25.66ZM47.2641 23.5404C47.7073 22.9073 48.2062 22.315 48.7549 21.7707C48.4201 22.4717 47.9883 23.1221 47.4719 23.7026C47.0268 24.3401 46.4961 24.9134 45.8949 25.4065C46.2948 24.7449 46.753 24.1204 47.2641 23.5404Z" fill="black"/>
<path d="M51.0079 25.163C51.8649 24.2351 52.6509 23.4035 53.229 22.8102C53.522 22.4691 53.85 22.1598 54.2076 21.8873C53.9616 22.2635 53.6797 22.6151 53.3659 22.9369C52.8233 23.5607 52.0576 24.4126 51.2057 25.3405C50.3538 26.2685 49.5627 27.1052 48.9847 27.6934C48.8034 27.843 48.6797 28.0509 48.6348 28.2816L48.9238 28.5047C51.8903 26.7502 55.2979 24.5292 57.9398 22.5718C57.7059 22.3428 57.4234 22.1694 57.1132 22.0647C56.2613 21.7706 55.2117 21.7808 54.3699 21.4512C52.9196 22.9724 51.1753 24.8284 49.6641 26.6539C50.0546 26.2076 50.516 25.7006 51.0079 25.163Z" fill="black"/>
<path d="M58.1334 28.0788C57.8181 28.323 57.4782 28.5338 57.1192 28.7076C56.4955 29.0727 55.6284 29.5696 54.6852 30.1426C53.742 30.7156 52.8141 31.1923 52.5453 31.8414C52.4543 32.038 52.4125 32.2538 52.4236 32.4702L52.6214 32.815C55.0453 32.3079 58.8231 30.5534 61.5867 29.4378C60.7449 28.7634 59.4823 28.4997 58.8839 27.5818L57.9965 28.0788C58.0776 28.0788 58.1283 28.0484 58.1334 28.0788ZM56.3535 31.1213C55.8929 31.37 55.3996 31.5527 54.8881 31.6639C55.7351 31.04 56.7103 30.6122 57.743 30.4114C57.314 30.6994 56.8461 30.9248 56.3535 31.0807V31.1213Z" fill="black"/>
<path d="M60.4341 33.7633C59.8053 34.0168 58.9128 34.3515 57.9544 34.7115C56.996 35.0716 56.0934 35.3758 55.4494 35.5837C55.1098 35.7244 54.7537 35.8215 54.3896 35.8728L53.9688 36.0604C54.1073 36.5612 54.219 37.069 54.3034 37.5816H54.6837C57.2648 37.5157 61.4533 37.2622 64.5516 37.0746C64.3982 36.7114 64.1969 36.3703 63.9533 36.0604C63.4005 35.3657 62.716 34.7267 62.4726 33.8748C62.3997 33.6019 62.3622 33.3207 62.361 33.0381L61.0527 33.4692L60.4341 33.7633Z" fill="black"/>
<path d="M59.685 40.8472L56.2926 40.5886C55.8206 40.575 55.3507 40.5207 54.888 40.4263C55.2579 40.3785 55.6316 40.3683 56.0036 40.3959C55.5776 40.3655 55.1567 40.3401 54.7308 40.3249H54.4925C54.4925 40.7458 54.4519 41.1565 54.4062 41.5673C57.0684 42.5814 60.9984 43.9607 64.0662 45.0814C64.1735 44.876 64.2325 44.6487 64.2386 44.4171C64.2741 43.2051 62.8137 42.2772 62.8898 41.1058C62.5095 41.0754 62.1342 41.045 61.759 41.0044L59.685 40.8472Z" fill="black"/>
<path d="M55.5068 45.5276L54.1072 44.8126L53.7117 44.6199C53.5465 45.0998 53.3552 45.5704 53.1387 46.0296C55.4814 47.8247 58.5594 50.9787 61.1658 53.2606C61.4939 53.0807 61.7713 52.8208 61.9721 52.5051C62.6009 51.3996 61.7439 50.0558 61.6222 48.7881C60.8362 48.3977 59.6446 47.7739 58.316 47.0691C57.2258 46.4859 56.242 45.9434 55.5068 45.5276Z" fill="black"/>
<path d="M55.8855 51.8459C54.6381 50.9585 53.5124 50.137 52.7112 49.5387C52.1382 49.1076 51.7274 48.7932 51.5499 48.631C51.3623 48.8744 51.1696 49.1127 50.9668 49.3409C51.1491 49.6205 51.3598 49.8805 51.5956 50.1167C53.34 51.9473 56.0782 55.0811 58.1319 57.3174C58.6086 56.5263 58.4919 55.3752 59.065 54.5994C59.1418 54.4997 59.2284 54.4079 59.3236 54.3256L58.497 53.6765C57.7567 53.1643 56.8541 52.5355 55.8855 51.8459Z" fill="black"/>
<path d="M51.0236 55.9228C50.6585 55.2941 50.3137 54.6906 50.0094 54.1328C49.7762 53.6334 49.4741 53.1691 49.1119 52.7536C48.9845 52.6309 48.8258 52.5456 48.6531 52.5072C48.4805 52.4687 48.3006 52.4785 48.1332 52.5355C47.8949 52.6217 47.829 52.7789 47.8087 52.7586C47.7884 52.7383 47.8087 52.5811 48.0876 52.4392C48.2583 52.3625 48.4464 52.3325 48.6325 52.352C48.8187 52.3716 48.9963 52.4402 49.1474 52.5507C48.9187 52.2436 48.6697 51.9523 48.402 51.6785C48.1383 51.8611 47.8695 52.0436 47.5957 52.211C48.1789 55.1723 49.7052 59.5079 51.1453 62.9713C51.3494 63.0091 51.559 63.0048 51.7613 62.9586C51.9636 62.9124 52.1544 62.8252 52.3217 62.7026C53.2244 62.0129 52.8542 60.5627 53.1635 59.4775L52.9607 59.153C52.4333 58.3315 51.7538 57.1906 51.0236 55.9228Z" fill="black"/>
<path d="M46.9094 60.9886C47.029 61.3897 47.1021 61.8031 47.1274 62.2208C46.9577 61.8407 46.8252 61.445 46.7319 61.0393L45.8901 58.154C45.5706 57.079 45.2816 56.1003 45.0331 55.2738C44.9165 54.863 44.8252 54.5385 44.7745 54.3306L44.6224 53.9756C44.4905 56.866 44.663 60.9177 44.8607 64.1681C45.6098 63.5338 46.428 62.9861 47.2998 62.5353C47.0665 61.4045 46.7572 60.1925 46.4023 58.9856C46.6152 59.7564 46.7877 60.4461 46.9094 60.9886Z" fill="black"/>
<path d="M40.4854 62.013C40.4344 62.5073 40.3393 62.996 40.2014 63.4734C40.1878 62.976 40.2218 62.4785 40.3028 61.9876C40.3992 61.0749 40.5513 59.8173 40.7338 58.438L41.0077 56.4807C41.1175 55.9764 41.0948 55.4523 40.9418 54.9594C40.8289 54.6952 40.6354 54.4734 40.389 54.3256H40.0848C39.9174 54.3256 39.7501 54.3256 39.5777 54.3256C39.5568 54.3397 39.538 54.3568 39.5219 54.3763C39.2367 54.7135 39.0305 55.1103 38.9185 55.5375C38.0361 58.149 37.1538 62.0434 36.2715 64.8527C37.3161 64.6346 37.9905 63.3618 39.0706 63.2908C39.5589 63.2924 40.0297 63.4728 40.3941 63.7979C40.4803 62.9359 40.5564 61.9826 40.6375 61.014C40.5919 61.3588 40.5361 61.7087 40.4854 62.013Z" fill="black"/>
<path d="M34.1671 57.9968C34.4765 57.368 34.7807 56.7595 35.0089 56.2068C35.2177 55.7261 35.3313 55.2095 35.3436 54.6856C35.3458 54.3367 35.275 53.9912 35.1357 53.6714C34.9324 53.7134 34.7518 53.8289 34.6286 53.9959C32.6611 56.1815 29.8873 59.7057 27.8691 62.4288C28.9847 62.8496 30.5161 62.1346 31.8295 62.2766C31.9512 62.0535 32.1692 61.6783 32.4583 61.1762C32.9146 60.37 33.5383 59.2544 34.1671 57.9968Z" fill="black"/>
<path d="M27.4833 57.0486C27.8383 56.6277 28.7511 55.6794 29.8007 54.5486C30.9417 53.3266 31.895 52.282 32.2246 51.9777C31.895 51.7597 31.5755 51.5315 31.2611 51.2932C30.8594 51.6703 30.438 52.0258 29.9985 52.358C29.52 52.7808 28.9881 53.1388 28.4164 53.4229C28.8266 52.9332 29.3047 52.5046 29.8362 52.1501C30.2622 51.8205 30.6526 51.5366 30.9417 51.3439C30.3274 51.6034 29.7509 51.9445 29.2277 52.358L23.2188 56.8609C24.2633 57.0435 25.4449 57.0891 26.099 57.8751C26.1976 57.9945 26.281 58.1257 26.3475 58.2656C26.6771 57.8701 27.0675 57.4897 27.4833 57.0486Z" fill="black"/>
<path d="M25.1955 50.9383C26.2097 50.2791 27.1579 49.7061 27.7968 49.2801C27.9296 49.1866 28.0319 49.0561 28.0909 48.9049C28.1337 48.7904 28.1337 48.6644 28.0909 48.5499C28.025 48.3522 27.8881 48.3167 27.8983 48.2964C27.9084 48.2761 28.0656 48.2964 28.1873 48.5094C28.2539 48.6447 28.2701 48.7993 28.2329 48.9454C28.2266 48.9754 28.2163 49.0044 28.2025 49.0317C28.3668 48.9237 28.5025 48.7775 28.598 48.6057C28.4358 48.3877 28.2735 48.1645 28.1163 47.9364C27.9103 47.9284 27.7045 47.9558 27.5078 48.0175C24.7949 48.7325 20.652 50.2791 17.4219 51.4758C18.436 52.2162 20.2869 51.8967 20.9411 53.0376C21.0128 53.177 21.0657 53.3254 21.0982 53.4788C21.9856 52.9362 22.9745 52.3429 23.9582 51.7496C24.3436 51.491 24.7391 51.2223 25.1955 50.9383Z" fill="black"/>
<path d="M22.1237 45.9585L23.863 45.492C24.4005 45.3551 24.8772 45.2486 25.2676 45.1066C25.6856 44.9586 26.0614 44.7116 26.363 44.3866C26.363 44.3866 26.3325 44.5235 26.1753 44.706C26.0559 44.8403 25.9175 44.9565 25.7646 45.0509L25.9826 44.9748C26.1736 44.9207 26.348 44.8196 26.4897 44.6807C26.3984 44.417 26.3122 44.1736 26.2362 43.8846C26.0197 43.8004 25.7889 43.7591 25.5567 43.7629C22.2031 43.6445 18.8496 43.5465 15.4961 43.4688C15.9626 44.2598 17.0174 44.6097 17.4332 45.4261C17.6752 45.9473 17.7167 46.5394 17.5498 47.0893L20.0852 46.5265C20.6836 46.3338 21.3884 46.1563 22.1237 45.9585Z" fill="black"/>
<path d="M16.6277 40.0156C17.0527 39.9757 17.4806 39.9757 17.9056 40.0156C18.6966 40.046 19.7818 40.0866 20.9836 40.1119C22.1854 40.1373 23.2756 40.1423 24.0616 40.1474C24.4899 40.1255 24.9193 40.1425 25.3445 40.1981C24.9254 40.2935 24.4965 40.3394 24.0667 40.335C23.5596 40.3655 22.8902 40.3807 22.1651 40.3857C23.4125 40.4364 24.6093 40.4517 25.6133 40.3857H25.6944C25.6944 40.2184 25.6944 40.0511 25.6944 39.8787C25.6944 39.7062 25.6944 39.402 25.6944 39.1687L25.6234 39.1231C22.8497 37.47 18.864 36.2783 15.5628 35.3757C15.5239 35.6482 15.5798 35.9258 15.721 36.1621C15.8622 36.3984 16.0803 36.5791 16.3387 36.6739L16.2677 36.2175C17.0841 36.5725 17.3072 37.6728 17.0486 38.5247C16.858 39.0666 16.5917 39.5788 16.2576 40.046L17.0283 40.0916C16.8914 40.0896 16.7559 40.0638 16.6277 40.0156ZM23.7269 39.3006C24.3015 39.3597 24.8639 39.505 25.3952 39.7316C24.8188 39.7612 24.2411 39.7048 23.6813 39.5643C23.1083 39.5055 22.5475 39.3602 22.0181 39.1332C22.5928 39.1034 23.1688 39.1598 23.7269 39.3006Z" fill="black"/>
<path d="M17.8392 32.5107C18.3055 32.6639 18.7569 32.8591 19.188 33.0939L20.2377 33.601C21.1707 34.0016 22.1443 34.4072 23.0926 34.7825C23.9687 35.1006 24.8715 35.3399 25.7903 35.4975C25.9777 35.5186 26.1674 35.4869 26.3379 35.4062C26.3638 35.3887 26.3876 35.3682 26.4089 35.3453C26.5103 35.0461 26.6168 34.752 26.7385 34.4579C26.272 34.2297 25.5621 33.8444 24.771 33.388C23.9255 32.9602 23.1238 32.4507 22.3776 31.8667C23.2594 32.2236 24.1079 32.658 24.913 33.1649L25.7345 33.6719C23.1603 31.8317 20.4874 30.1338 17.7276 28.5859C17.5653 29.5392 17.9304 30.7562 17.6363 31.745C17.5673 31.9548 17.4737 32.1556 17.3574 32.3434L17.9659 32.602C17.8848 32.5564 17.8341 32.5158 17.8392 32.5107Z" fill="black"/>
<path d="M22.7372 26.6082C23.0705 26.8537 23.378 27.1324 23.6551 27.4398C24.2078 27.9469 24.9786 28.6873 25.8609 29.4377C26.7432 30.1882 27.5799 30.8322 28.1935 31.2886L28.4014 31.4458C28.5789 31.2024 28.7563 30.9641 28.949 30.7359L28.9186 30.6852C28.6499 30.3657 28.3152 29.9347 27.9602 29.4428C27.4707 28.8336 27.0649 28.1617 26.7534 27.4449C27.0492 27.7254 27.3082 28.0423 27.5241 28.3881C26.2897 26.4588 24.9347 24.6094 23.4674 22.8507C23.0435 22.9165 22.655 23.1259 22.3671 23.444C21.8042 24.1286 22.0121 25.2036 21.7383 26.0149C22.2454 26.4814 22.8488 26.9987 23.4674 27.5362C23.1876 27.2573 22.9425 26.9458 22.7372 26.6082Z" fill="black"/>
<path d="M29.6555 25.0362C30.9232 26.6386 31.983 27.9165 31.9577 27.9976C32.1909 27.8387 32.4293 27.6866 32.6727 27.5412C32.6727 27.5057 32.6473 27.4753 32.6321 27.4449C31.6788 25.0109 29.9496 21.1976 28.7934 18.4137C28.6092 18.4964 28.4297 18.5896 28.2559 18.6926C27.4091 19.1997 27.1302 20.3 26.6738 21.1976C26.9679 21.583 27.3026 22.0343 27.6576 22.5211C28.0125 23.0079 28.7985 23.9561 29.6555 25.0362ZM30.9638 24.301C31.2887 24.8198 31.5637 25.3682 31.7853 25.9388C32.084 26.4733 32.3302 27.0354 32.5205 27.6173C31.7486 26.6493 31.2153 25.5132 30.9638 24.301Z" fill="black"/>
<path d="M34.0742 19.3367C34.1917 19.7048 34.2732 20.0836 34.3176 20.4675C34.4393 21.1622 34.6066 22.1307 34.8247 23.1905C35.0072 24.1185 35.1847 24.9501 35.3318 25.6144C35.4028 25.8324 35.4737 26.0302 35.5447 26.2128C35.8135 26.1215 36.0873 26.0403 36.3713 25.9643C36.2478 25.4112 36.1614 24.8505 36.1127 24.2858C35.9927 23.7225 35.9349 23.1478 35.9403 22.5719C36.1912 23.1003 36.3393 23.6716 36.3764 24.2554C36.422 24.5901 36.4423 24.9045 36.4524 25.1732C36.4524 22.5516 36.5082 19.1795 36.5031 16.5122C36.0823 16.9128 35.7729 17.6126 35.0934 18.6166C34.9727 18.784 34.8165 18.9227 34.6359 19.0226C34.4553 19.1226 34.2548 19.1813 34.0488 19.1947L34.0793 19.3924C34.0641 19.362 34.0691 19.3367 34.0742 19.3367Z" fill="black"/>
<path d="M40.4608 22.0698C40.4354 23.5454 40.3898 24.8233 40.334 25.4774C40.6788 25.4774 41.0236 25.4774 41.3482 25.5332C41.8939 24.6774 42.2724 23.7258 42.4638 22.729C42.91 20.9492 43.5235 18.0892 44.0205 16C43.7062 16.0207 43.4001 16.1089 43.123 16.2586C42.342 16.6896 41.3938 18.576 40.9019 18.5861C40.8132 18.5793 40.7268 18.5542 40.6482 18.5123C40.5697 18.4704 40.5007 18.4127 40.4455 18.3427V18.5557C40.4608 19.1744 40.4608 20.5131 40.4608 22.0698Z" fill="black"/>
</g>
</svg>
