<svg width="20" height="20" viewBox="0 0 20 20" fill="none" xmlns="http://www.w3.org/2000/svg">
<mask id="mask0_107_6111" style="mask-type:alpha" maskUnits="userSpaceOnUse" x="0" y="0" width="20" height="20">
<rect width="20" height="20" fill="#D9D9D9"/>
</mask>
<g mask="url(#mask0_107_6111)">
<path d="M10 9.74992C9.02778 9.74992 8.20833 9.41659 7.54167 8.74992C6.875 8.08325 6.54167 7.26381 6.54167 6.29159C6.54167 5.31936 6.875 4.49992 7.54167 3.83325C8.20833 3.16659 9.02778 2.83325 10 2.83325C10.9722 2.83325 11.7917 3.16659 12.4583 3.83325C13.125 4.49992 13.4583 5.31936 13.4583 6.29159C13.4583 7.26381 13.125 8.08325 12.4583 8.74992C11.7917 9.41659 10.9722 9.74992 10 9.74992ZM3.375 15.2291V14.6249C3.375 14.2083 3.47569 13.8263 3.67708 13.4791C3.87847 13.1319 4.15972 12.8471 4.52083 12.6249C5.34028 12.1388 6.21875 11.7673 7.15625 11.5103C8.09375 11.2534 9.04167 11.1249 10 11.1249C10.9583 11.1249 11.9062 11.2534 12.8438 11.5103C13.7812 11.7673 14.6597 12.1388 15.4792 12.6249C15.8403 12.8333 16.1215 13.1145 16.3229 13.4687C16.5243 13.8228 16.625 14.2083 16.625 14.6249V15.2291C16.625 15.8124 16.4306 16.2985 16.0417 16.6874C15.6528 17.0763 15.1667 17.2708 14.5833 17.2708H5.41667C4.83333 17.2708 4.34722 17.0763 3.95833 16.6874C3.56944 16.2985 3.375 15.8124 3.375 15.2291Z" fill="#1C1B1F" fill-opacity="0.25"/>
</g>
</svg>
