<svg width="2187" height="37" viewBox="0 0 2187 37" fill="none" xmlns="http://www.w3.org/2000/svg">
<g clip-path="url(#clip0_18_3197)">
<rect width="2187.47" height="37" fill="#66AC47"/>
<path d="M21.316 24V14.2H23.136V22.46H28.26V24H21.316ZM36.6969 24V14.2H38.5169V24H36.6969ZM48.1676 24V14.2H49.6656L53.9496 21.354H53.1656L57.3796 14.2H58.8776L58.8916 24H57.1696L57.1556 16.902H57.5196L53.9356 22.88H53.1236L49.4836 16.902H49.9036V24H48.1676ZM68.5387 24V14.2H70.3587V24H68.5387ZM81.9974 24V15.74H78.7494V14.2H87.0654V15.74H83.8174V24H81.9974ZM97.1112 18.274H101.983V19.772H97.1112V18.274ZM97.2512 22.474H102.781V24H95.4312V14.2H102.585V15.726H97.2512V22.474ZM111.81 24V14.2H116.094C117.158 14.2 118.091 14.4053 118.894 14.816C119.697 15.2267 120.322 15.796 120.77 16.524C121.218 17.252 121.442 18.1107 121.442 19.1C121.442 20.08 121.218 20.9387 120.77 21.676C120.322 22.404 119.697 22.9733 118.894 23.384C118.091 23.7947 117.158 24 116.094 24H111.81ZM113.63 22.46H116.01C116.747 22.46 117.382 22.32 117.914 22.04C118.455 21.76 118.871 21.368 119.16 20.864C119.459 20.36 119.608 19.772 119.608 19.1C119.608 18.4187 119.459 17.8307 119.16 17.336C118.871 16.832 118.455 16.44 117.914 16.16C117.382 15.88 116.747 15.74 116.01 15.74H113.63V22.46ZM141.246 24V14.2H145.278C146.146 14.2 146.888 14.34 147.504 14.62C148.129 14.9 148.61 15.3013 148.946 15.824C149.282 16.3467 149.45 16.9673 149.45 17.686C149.45 18.4047 149.282 19.0253 148.946 19.548C148.61 20.0707 148.129 20.472 147.504 20.752C146.888 21.032 146.146 21.172 145.278 21.172H142.254L143.066 20.318V24H141.246ZM143.066 20.514L142.254 19.632H145.194C145.996 19.632 146.598 19.464 147 19.128C147.41 18.7827 147.616 18.302 147.616 17.686C147.616 17.0607 147.41 16.58 147 16.244C146.598 15.908 145.996 15.74 145.194 15.74H142.254L143.066 14.844V20.514ZM159.947 18.274H164.819V19.772H159.947V18.274ZM160.087 22.474H165.617V24H158.267V14.2H165.421V15.726H160.087V22.474ZM174.646 24V14.2H178.678C179.546 14.2 180.288 14.34 180.904 14.62C181.529 14.9 182.01 15.3013 182.346 15.824C182.682 16.3467 182.85 16.9673 182.85 17.686C182.85 18.4047 182.682 19.0253 182.346 19.548C182.01 20.0613 181.529 20.458 180.904 20.738C180.288 21.0087 179.546 21.144 178.678 21.144H175.654L176.466 20.318V24H174.646ZM181.058 24L178.58 20.444H180.526L183.018 24H181.058ZM176.466 20.514L175.654 19.646H178.594C179.397 19.646 179.999 19.4733 180.4 19.128C180.811 18.7827 181.016 18.302 181.016 17.686C181.016 17.0607 180.811 16.58 180.4 16.244C179.999 15.908 179.397 15.74 178.594 15.74H175.654L176.466 14.844V20.514ZM191.886 24V14.2H193.706V24H191.886ZM207.949 24.14C207.184 24.14 206.479 24.014 205.835 23.762C205.191 23.51 204.631 23.16 204.155 22.712C203.679 22.2547 203.31 21.7227 203.049 21.116C202.788 20.5 202.657 19.828 202.657 19.1C202.657 18.372 202.788 17.7047 203.049 17.098C203.31 16.482 203.679 15.95 204.155 15.502C204.631 15.0447 205.191 14.69 205.835 14.438C206.479 14.186 207.179 14.06 207.935 14.06C208.7 14.06 209.4 14.186 210.035 14.438C210.679 14.69 211.239 15.0447 211.715 15.502C212.191 15.95 212.56 16.482 212.821 17.098C213.082 17.7047 213.213 18.372 213.213 19.1C213.213 19.828 213.082 20.5 212.821 21.116C212.56 21.732 212.191 22.264 211.715 22.712C211.239 23.16 210.679 23.51 210.035 23.762C209.4 24.014 208.705 24.14 207.949 24.14ZM207.935 22.544C208.43 22.544 208.887 22.46 209.307 22.292C209.727 22.124 210.091 21.886 210.399 21.578C210.707 21.2607 210.945 20.8967 211.113 20.486C211.29 20.066 211.379 19.604 211.379 19.1C211.379 18.596 211.29 18.1387 211.113 17.728C210.945 17.308 210.707 16.944 210.399 16.636C210.091 16.3187 209.727 16.076 209.307 15.908C208.887 15.74 208.43 15.656 207.935 15.656C207.44 15.656 206.983 15.74 206.563 15.908C206.152 16.076 205.788 16.3187 205.471 16.636C205.163 16.944 204.92 17.308 204.743 17.728C204.575 18.1387 204.491 18.596 204.491 19.1C204.491 19.5947 204.575 20.052 204.743 20.472C204.92 20.892 205.163 21.2607 205.471 21.578C205.779 21.886 206.143 22.124 206.563 22.292C206.983 22.46 207.44 22.544 207.935 22.544ZM222.142 24V14.2H226.426C227.49 14.2 228.424 14.4053 229.226 14.816C230.029 15.2267 230.654 15.796 231.102 16.524C231.55 17.252 231.774 18.1107 231.774 19.1C231.774 20.08 231.55 20.9387 231.102 21.676C230.654 22.404 230.029 22.9733 229.226 23.384C228.424 23.7947 227.49 24 226.426 24H222.142ZM223.962 22.46H226.342C227.08 22.46 227.714 22.32 228.246 22.04C228.788 21.76 229.203 21.368 229.492 20.864C229.791 20.36 229.94 19.772 229.94 19.1C229.94 18.4187 229.791 17.8307 229.492 17.336C229.203 16.832 228.788 16.44 228.246 16.16C227.714 15.88 227.08 15.74 226.342 15.74H223.962V22.46ZM256.17 24.14C255.404 24.14 254.7 24.014 254.056 23.762C253.412 23.51 252.852 23.16 252.376 22.712C251.9 22.2547 251.531 21.7227 251.27 21.116C251.008 20.5 250.878 19.828 250.878 19.1C250.878 18.372 251.008 17.7047 251.27 17.098C251.531 16.482 251.9 15.95 252.376 15.502C252.852 15.0447 253.412 14.69 254.056 14.438C254.7 14.186 255.4 14.06 256.156 14.06C256.921 14.06 257.621 14.186 258.256 14.438C258.9 14.69 259.46 15.0447 259.936 15.502C260.412 15.95 260.78 16.482 261.042 17.098C261.303 17.7047 261.434 18.372 261.434 19.1C261.434 19.828 261.303 20.5 261.042 21.116C260.78 21.732 260.412 22.264 259.936 22.712C259.46 23.16 258.9 23.51 258.256 23.762C257.621 24.014 256.926 24.14 256.17 24.14ZM256.156 22.544C256.65 22.544 257.108 22.46 257.528 22.292C257.948 22.124 258.312 21.886 258.62 21.578C258.928 21.2607 259.166 20.8967 259.334 20.486C259.511 20.066 259.6 19.604 259.6 19.1C259.6 18.596 259.511 18.1387 259.334 17.728C259.166 17.308 258.928 16.944 258.62 16.636C258.312 16.3187 257.948 16.076 257.528 15.908C257.108 15.74 256.65 15.656 256.156 15.656C255.661 15.656 255.204 15.74 254.784 15.908C254.373 16.076 254.009 16.3187 253.692 16.636C253.384 16.944 253.141 17.308 252.964 17.728C252.796 18.1387 252.712 18.596 252.712 19.1C252.712 19.5947 252.796 20.052 252.964 20.472C253.141 20.892 253.384 21.2607 253.692 21.578C254 21.886 254.364 22.124 254.784 22.292C255.204 22.46 255.661 22.544 256.156 22.544ZM272.029 18.708H276.915V20.248H272.029V18.708ZM272.183 24H270.363V14.2H277.517V15.726H272.183V24ZM287.943 18.708H292.829V20.248H287.943V18.708ZM288.097 24H286.277V14.2H293.431V15.726H288.097V24ZM303.871 18.274H308.743V19.772H303.871V18.274ZM304.011 22.474H309.541V24H302.191V14.2H309.345V15.726H304.011V22.474ZM318.57 24V14.2H322.602C323.47 14.2 324.212 14.34 324.828 14.62C325.453 14.9 325.934 15.3013 326.27 15.824C326.606 16.3467 326.774 16.9673 326.774 17.686C326.774 18.4047 326.606 19.0253 326.27 19.548C325.934 20.0613 325.453 20.458 324.828 20.738C324.212 21.0087 323.47 21.144 322.602 21.144H319.578L320.39 20.318V24H318.57ZM324.982 24L322.504 20.444H324.45L326.942 24H324.982ZM320.39 20.514L319.578 19.646H322.518C323.321 19.646 323.923 19.4733 324.324 19.128C324.735 18.7827 324.94 18.302 324.94 17.686C324.94 17.0607 324.735 16.58 324.324 16.244C323.923 15.908 323.321 15.74 322.518 15.74H319.578L320.39 14.844V20.514Z" fill="white"/>
<circle cx="395.147" cy="18.5" r="3.14746" fill="white"/>
<path d="M463.611 24V14.2H465.431V22.46H470.555V24H463.611ZM478.992 24V14.2H480.812V24H478.992ZM490.462 24V14.2H491.96L496.244 21.354H495.46L499.674 14.2H501.172L501.186 24H499.464L499.45 16.902H499.814L496.23 22.88H495.418L491.778 16.902H492.198V24H490.462ZM510.834 24V14.2H512.654V24H510.834ZM524.292 24V15.74H521.044V14.2H529.36V15.74H526.112V24H524.292ZM539.406 18.274H544.278V19.772H539.406V18.274ZM539.546 22.474H545.076V24H537.726V14.2H544.88V15.726H539.546V22.474ZM554.105 24V14.2H558.389C559.453 14.2 560.386 14.4053 561.189 14.816C561.992 15.2267 562.617 15.796 563.065 16.524C563.513 17.252 563.737 18.1107 563.737 19.1C563.737 20.08 563.513 20.9387 563.065 21.676C562.617 22.404 561.992 22.9733 561.189 23.384C560.386 23.7947 559.453 24 558.389 24H554.105ZM555.925 22.46H558.305C559.042 22.46 559.677 22.32 560.209 22.04C560.75 21.76 561.166 21.368 561.455 20.864C561.754 20.36 561.903 19.772 561.903 19.1C561.903 18.4187 561.754 17.8307 561.455 17.336C561.166 16.832 560.75 16.44 560.209 16.16C559.677 15.88 559.042 15.74 558.305 15.74H555.925V22.46ZM583.541 24V14.2H587.573C588.441 14.2 589.183 14.34 589.799 14.62C590.424 14.9 590.905 15.3013 591.241 15.824C591.577 16.3467 591.745 16.9673 591.745 17.686C591.745 18.4047 591.577 19.0253 591.241 19.548C590.905 20.0707 590.424 20.472 589.799 20.752C589.183 21.032 588.441 21.172 587.573 21.172H584.549L585.361 20.318V24H583.541ZM585.361 20.514L584.549 19.632H587.489C588.291 19.632 588.893 19.464 589.295 19.128C589.705 18.7827 589.911 18.302 589.911 17.686C589.911 17.0607 589.705 16.58 589.295 16.244C588.893 15.908 588.291 15.74 587.489 15.74H584.549L585.361 14.844V20.514ZM602.242 18.274H607.114V19.772H602.242V18.274ZM602.382 22.474H607.912V24H600.562V14.2H607.716V15.726H602.382V22.474ZM616.941 24V14.2H620.973C621.841 14.2 622.583 14.34 623.199 14.62C623.824 14.9 624.305 15.3013 624.641 15.824C624.977 16.3467 625.145 16.9673 625.145 17.686C625.145 18.4047 624.977 19.0253 624.641 19.548C624.305 20.0613 623.824 20.458 623.199 20.738C622.583 21.0087 621.841 21.144 620.973 21.144H617.949L618.761 20.318V24H616.941ZM623.353 24L620.875 20.444H622.821L625.313 24H623.353ZM618.761 20.514L617.949 19.646H620.889C621.692 19.646 622.294 19.4733 622.695 19.128C623.106 18.7827 623.311 18.302 623.311 17.686C623.311 17.0607 623.106 16.58 622.695 16.244C622.294 15.908 621.692 15.74 620.889 15.74H617.949L618.761 14.844V20.514ZM634.181 24V14.2H636.001V24H634.181ZM650.244 24.14C649.479 24.14 648.774 24.014 648.13 23.762C647.486 23.51 646.926 23.16 646.45 22.712C645.974 22.2547 645.605 21.7227 645.344 21.116C645.083 20.5 644.952 19.828 644.952 19.1C644.952 18.372 645.083 17.7047 645.344 17.098C645.605 16.482 645.974 15.95 646.45 15.502C646.926 15.0447 647.486 14.69 648.13 14.438C648.774 14.186 649.474 14.06 650.23 14.06C650.995 14.06 651.695 14.186 652.33 14.438C652.974 14.69 653.534 15.0447 654.01 15.502C654.486 15.95 654.855 16.482 655.116 17.098C655.377 17.7047 655.508 18.372 655.508 19.1C655.508 19.828 655.377 20.5 655.116 21.116C654.855 21.732 654.486 22.264 654.01 22.712C653.534 23.16 652.974 23.51 652.33 23.762C651.695 24.014 651 24.14 650.244 24.14ZM650.23 22.544C650.725 22.544 651.182 22.46 651.602 22.292C652.022 22.124 652.386 21.886 652.694 21.578C653.002 21.2607 653.24 20.8967 653.408 20.486C653.585 20.066 653.674 19.604 653.674 19.1C653.674 18.596 653.585 18.1387 653.408 17.728C653.24 17.308 653.002 16.944 652.694 16.636C652.386 16.3187 652.022 16.076 651.602 15.908C651.182 15.74 650.725 15.656 650.23 15.656C649.735 15.656 649.278 15.74 648.858 15.908C648.447 16.076 648.083 16.3187 647.766 16.636C647.458 16.944 647.215 17.308 647.038 17.728C646.87 18.1387 646.786 18.596 646.786 19.1C646.786 19.5947 646.87 20.052 647.038 20.472C647.215 20.892 647.458 21.2607 647.766 21.578C648.074 21.886 648.438 22.124 648.858 22.292C649.278 22.46 649.735 22.544 650.23 22.544ZM664.437 24V14.2H668.721C669.785 14.2 670.718 14.4053 671.521 14.816C672.324 15.2267 672.949 15.796 673.397 16.524C673.845 17.252 674.069 18.1107 674.069 19.1C674.069 20.08 673.845 20.9387 673.397 21.676C672.949 22.404 672.324 22.9733 671.521 23.384C670.718 23.7947 669.785 24 668.721 24H664.437ZM666.257 22.46H668.637C669.374 22.46 670.009 22.32 670.541 22.04C671.082 21.76 671.498 21.368 671.787 20.864C672.086 20.36 672.235 19.772 672.235 19.1C672.235 18.4187 672.086 17.8307 671.787 17.336C671.498 16.832 671.082 16.44 670.541 16.16C670.009 15.88 669.374 15.74 668.637 15.74H666.257V22.46ZM698.465 24.14C697.699 24.14 696.995 24.014 696.351 23.762C695.707 23.51 695.147 23.16 694.671 22.712C694.195 22.2547 693.826 21.7227 693.565 21.116C693.303 20.5 693.173 19.828 693.173 19.1C693.173 18.372 693.303 17.7047 693.565 17.098C693.826 16.482 694.195 15.95 694.671 15.502C695.147 15.0447 695.707 14.69 696.351 14.438C696.995 14.186 697.695 14.06 698.451 14.06C699.216 14.06 699.916 14.186 700.551 14.438C701.195 14.69 701.755 15.0447 702.231 15.502C702.707 15.95 703.075 16.482 703.337 17.098C703.598 17.7047 703.729 18.372 703.729 19.1C703.729 19.828 703.598 20.5 703.337 21.116C703.075 21.732 702.707 22.264 702.231 22.712C701.755 23.16 701.195 23.51 700.551 23.762C699.916 24.014 699.221 24.14 698.465 24.14ZM698.451 22.544C698.945 22.544 699.403 22.46 699.823 22.292C700.243 22.124 700.607 21.886 700.915 21.578C701.223 21.2607 701.461 20.8967 701.629 20.486C701.806 20.066 701.895 19.604 701.895 19.1C701.895 18.596 701.806 18.1387 701.629 17.728C701.461 17.308 701.223 16.944 700.915 16.636C700.607 16.3187 700.243 16.076 699.823 15.908C699.403 15.74 698.945 15.656 698.451 15.656C697.956 15.656 697.499 15.74 697.079 15.908C696.668 16.076 696.304 16.3187 695.987 16.636C695.679 16.944 695.436 17.308 695.259 17.728C695.091 18.1387 695.007 18.596 695.007 19.1C695.007 19.5947 695.091 20.052 695.259 20.472C695.436 20.892 695.679 21.2607 695.987 21.578C696.295 21.886 696.659 22.124 697.079 22.292C697.499 22.46 697.956 22.544 698.451 22.544ZM714.324 18.708H719.21V20.248H714.324V18.708ZM714.478 24H712.658V14.2H719.812V15.726H714.478V24ZM730.238 18.708H735.124V20.248H730.238V18.708ZM730.392 24H728.572V14.2H735.726V15.726H730.392V24ZM746.166 18.274H751.038V19.772H746.166V18.274ZM746.306 22.474H751.836V24H744.486V14.2H751.64V15.726H746.306V22.474ZM760.865 24V14.2H764.897C765.765 14.2 766.507 14.34 767.123 14.62C767.748 14.9 768.229 15.3013 768.565 15.824C768.901 16.3467 769.069 16.9673 769.069 17.686C769.069 18.4047 768.901 19.0253 768.565 19.548C768.229 20.0613 767.748 20.458 767.123 20.738C766.507 21.0087 765.765 21.144 764.897 21.144H761.873L762.685 20.318V24H760.865ZM767.277 24L764.799 20.444H766.745L769.237 24H767.277ZM762.685 20.514L761.873 19.646H764.813C765.615 19.646 766.217 19.4733 766.619 19.128C767.029 18.7827 767.235 18.302 767.235 17.686C767.235 17.0607 767.029 16.58 766.619 16.244C766.217 15.908 765.615 15.74 764.813 15.74H761.873L762.685 14.844V20.514Z" fill="white"/>
<circle cx="837.442" cy="18.5" r="3.14746" fill="white"/>
<path d="M905.906 24V14.2H907.726V22.46H912.85V24H905.906ZM921.287 24V14.2H923.107V24H921.287ZM932.757 24V14.2H934.255L938.539 21.354H937.755L941.969 14.2H943.467L943.481 24H941.759L941.745 16.902H942.109L938.525 22.88H937.713L934.073 16.902H934.493V24H932.757ZM953.129 24V14.2H954.949V24H953.129ZM966.587 24V15.74H963.339V14.2H971.655V15.74H968.407V24H966.587ZM981.701 18.274H986.573V19.772H981.701V18.274ZM981.841 22.474H987.371V24H980.021V14.2H987.175V15.726H981.841V22.474ZM996.4 24V14.2H1000.68C1001.75 14.2 1002.68 14.4053 1003.48 14.816C1004.29 15.2267 1004.91 15.796 1005.36 16.524C1005.81 17.252 1006.03 18.1107 1006.03 19.1C1006.03 20.08 1005.81 20.9387 1005.36 21.676C1004.91 22.404 1004.29 22.9733 1003.48 23.384C1002.68 23.7947 1001.75 24 1000.68 24H996.4ZM998.22 22.46H1000.6C1001.34 22.46 1001.97 22.32 1002.5 22.04C1003.05 21.76 1003.46 21.368 1003.75 20.864C1004.05 20.36 1004.2 19.772 1004.2 19.1C1004.2 18.4187 1004.05 17.8307 1003.75 17.336C1003.46 16.832 1003.05 16.44 1002.5 16.16C1001.97 15.88 1001.34 15.74 1000.6 15.74H998.22V22.46ZM1025.84 24V14.2H1029.87C1030.74 14.2 1031.48 14.34 1032.09 14.62C1032.72 14.9 1033.2 15.3013 1033.54 15.824C1033.87 16.3467 1034.04 16.9673 1034.04 17.686C1034.04 18.4047 1033.87 19.0253 1033.54 19.548C1033.2 20.0707 1032.72 20.472 1032.09 20.752C1031.48 21.032 1030.74 21.172 1029.87 21.172H1026.84L1027.66 20.318V24H1025.84ZM1027.66 20.514L1026.84 19.632H1029.78C1030.59 19.632 1031.19 19.464 1031.59 19.128C1032 18.7827 1032.21 18.302 1032.21 17.686C1032.21 17.0607 1032 16.58 1031.59 16.244C1031.19 15.908 1030.59 15.74 1029.78 15.74H1026.84L1027.66 14.844V20.514ZM1044.54 18.274H1049.41V19.772H1044.54V18.274ZM1044.68 22.474H1050.21V24H1042.86V14.2H1050.01V15.726H1044.68V22.474ZM1059.24 24V14.2H1063.27C1064.14 14.2 1064.88 14.34 1065.49 14.62C1066.12 14.9 1066.6 15.3013 1066.94 15.824C1067.27 16.3467 1067.44 16.9673 1067.44 17.686C1067.44 18.4047 1067.27 19.0253 1066.94 19.548C1066.6 20.0613 1066.12 20.458 1065.49 20.738C1064.88 21.0087 1064.14 21.144 1063.27 21.144H1060.24L1061.06 20.318V24H1059.24ZM1065.65 24L1063.17 20.444H1065.12L1067.61 24H1065.65ZM1061.06 20.514L1060.24 19.646H1063.18C1063.99 19.646 1064.59 19.4733 1064.99 19.128C1065.4 18.7827 1065.61 18.302 1065.61 17.686C1065.61 17.0607 1065.4 16.58 1064.99 16.244C1064.59 15.908 1063.99 15.74 1063.18 15.74H1060.24L1061.06 14.844V20.514ZM1076.48 24V14.2H1078.3V24H1076.48ZM1092.54 24.14C1091.77 24.14 1091.07 24.014 1090.42 23.762C1089.78 23.51 1089.22 23.16 1088.74 22.712C1088.27 22.2547 1087.9 21.7227 1087.64 21.116C1087.38 20.5 1087.25 19.828 1087.25 19.1C1087.25 18.372 1087.38 17.7047 1087.64 17.098C1087.9 16.482 1088.27 15.95 1088.74 15.502C1089.22 15.0447 1089.78 14.69 1090.42 14.438C1091.07 14.186 1091.77 14.06 1092.52 14.06C1093.29 14.06 1093.99 14.186 1094.62 14.438C1095.27 14.69 1095.83 15.0447 1096.3 15.502C1096.78 15.95 1097.15 16.482 1097.41 17.098C1097.67 17.7047 1097.8 18.372 1097.8 19.1C1097.8 19.828 1097.67 20.5 1097.41 21.116C1097.15 21.732 1096.78 22.264 1096.3 22.712C1095.83 23.16 1095.27 23.51 1094.62 23.762C1093.99 24.014 1093.29 24.14 1092.54 24.14ZM1092.52 22.544C1093.02 22.544 1093.48 22.46 1093.9 22.292C1094.32 22.124 1094.68 21.886 1094.99 21.578C1095.3 21.2607 1095.53 20.8967 1095.7 20.486C1095.88 20.066 1095.97 19.604 1095.97 19.1C1095.97 18.596 1095.88 18.1387 1095.7 17.728C1095.53 17.308 1095.3 16.944 1094.99 16.636C1094.68 16.3187 1094.32 16.076 1093.9 15.908C1093.48 15.74 1093.02 15.656 1092.52 15.656C1092.03 15.656 1091.57 15.74 1091.15 15.908C1090.74 16.076 1090.38 16.3187 1090.06 16.636C1089.75 16.944 1089.51 17.308 1089.33 17.728C1089.16 18.1387 1089.08 18.596 1089.08 19.1C1089.08 19.5947 1089.16 20.052 1089.33 20.472C1089.51 20.892 1089.75 21.2607 1090.06 21.578C1090.37 21.886 1090.73 22.124 1091.15 22.292C1091.57 22.46 1092.03 22.544 1092.52 22.544ZM1106.73 24V14.2H1111.02C1112.08 14.2 1113.01 14.4053 1113.82 14.816C1114.62 15.2267 1115.24 15.796 1115.69 16.524C1116.14 17.252 1116.36 18.1107 1116.36 19.1C1116.36 20.08 1116.14 20.9387 1115.69 21.676C1115.24 22.404 1114.62 22.9733 1113.82 23.384C1113.01 23.7947 1112.08 24 1111.02 24H1106.73ZM1108.55 22.46H1110.93C1111.67 22.46 1112.3 22.32 1112.84 22.04C1113.38 21.76 1113.79 21.368 1114.08 20.864C1114.38 20.36 1114.53 19.772 1114.53 19.1C1114.53 18.4187 1114.38 17.8307 1114.08 17.336C1113.79 16.832 1113.38 16.44 1112.84 16.16C1112.3 15.88 1111.67 15.74 1110.93 15.74H1108.55V22.46ZM1140.76 24.14C1139.99 24.14 1139.29 24.014 1138.65 23.762C1138 23.51 1137.44 23.16 1136.97 22.712C1136.49 22.2547 1136.12 21.7227 1135.86 21.116C1135.6 20.5 1135.47 19.828 1135.47 19.1C1135.47 18.372 1135.6 17.7047 1135.86 17.098C1136.12 16.482 1136.49 15.95 1136.97 15.502C1137.44 15.0447 1138 14.69 1138.65 14.438C1139.29 14.186 1139.99 14.06 1140.75 14.06C1141.51 14.06 1142.21 14.186 1142.85 14.438C1143.49 14.69 1144.05 15.0447 1144.53 15.502C1145 15.95 1145.37 16.482 1145.63 17.098C1145.89 17.7047 1146.02 18.372 1146.02 19.1C1146.02 19.828 1145.89 20.5 1145.63 21.116C1145.37 21.732 1145 22.264 1144.53 22.712C1144.05 23.16 1143.49 23.51 1142.85 23.762C1142.21 24.014 1141.52 24.14 1140.76 24.14ZM1140.75 22.544C1141.24 22.544 1141.7 22.46 1142.12 22.292C1142.54 22.124 1142.9 21.886 1143.21 21.578C1143.52 21.2607 1143.76 20.8967 1143.92 20.486C1144.1 20.066 1144.19 19.604 1144.19 19.1C1144.19 18.596 1144.1 18.1387 1143.92 17.728C1143.76 17.308 1143.52 16.944 1143.21 16.636C1142.9 16.3187 1142.54 16.076 1142.12 15.908C1141.7 15.74 1141.24 15.656 1140.75 15.656C1140.25 15.656 1139.79 15.74 1139.37 15.908C1138.96 16.076 1138.6 16.3187 1138.28 16.636C1137.97 16.944 1137.73 17.308 1137.55 17.728C1137.39 18.1387 1137.3 18.596 1137.3 19.1C1137.3 19.5947 1137.39 20.052 1137.55 20.472C1137.73 20.892 1137.97 21.2607 1138.28 21.578C1138.59 21.886 1138.95 22.124 1139.37 22.292C1139.79 22.46 1140.25 22.544 1140.75 22.544ZM1156.62 18.708H1161.5V20.248H1156.62V18.708ZM1156.77 24H1154.95V14.2H1162.11V15.726H1156.77V24ZM1172.53 18.708H1177.42V20.248H1172.53V18.708ZM1172.69 24H1170.87V14.2H1178.02V15.726H1172.69V24ZM1188.46 18.274H1193.33V19.772H1188.46V18.274ZM1188.6 22.474H1194.13V24H1186.78V14.2H1193.93V15.726H1188.6V22.474ZM1203.16 24V14.2H1207.19C1208.06 14.2 1208.8 14.34 1209.42 14.62C1210.04 14.9 1210.52 15.3013 1210.86 15.824C1211.2 16.3467 1211.36 16.9673 1211.36 17.686C1211.36 18.4047 1211.2 19.0253 1210.86 19.548C1210.52 20.0613 1210.04 20.458 1209.42 20.738C1208.8 21.0087 1208.06 21.144 1207.19 21.144H1204.17L1204.98 20.318V24H1203.16ZM1209.57 24L1207.09 20.444H1209.04L1211.53 24H1209.57ZM1204.98 20.514L1204.17 19.646H1207.11C1207.91 19.646 1208.51 19.4733 1208.91 19.128C1209.32 18.7827 1209.53 18.302 1209.53 17.686C1209.53 17.0607 1209.32 16.58 1208.91 16.244C1208.51 15.908 1207.91 15.74 1207.11 15.74H1204.17L1204.98 14.844V20.514Z" fill="white"/>
<circle cx="1279.74" cy="18.5" r="3.14746" fill="white"/>
<path d="M1348.2 24V14.2H1350.02V22.46H1355.14V24H1348.2ZM1363.58 24V14.2H1365.4V24H1363.58ZM1375.05 24V14.2H1376.55L1380.83 21.354H1380.05L1384.26 14.2H1385.76L1385.78 24H1384.05L1384.04 16.902H1384.4L1380.82 22.88H1380.01L1376.37 16.902H1376.79V24H1375.05ZM1395.42 24V14.2H1397.24V24H1395.42ZM1408.88 24V15.74H1405.63V14.2H1413.95V15.74H1410.7V24H1408.88ZM1424 18.274H1428.87V19.772H1424V18.274ZM1424.14 22.474H1429.67V24H1422.32V14.2H1429.47V15.726H1424.14V22.474ZM1438.69 24V14.2H1442.98C1444.04 14.2 1444.98 14.4053 1445.78 14.816C1446.58 15.2267 1447.21 15.796 1447.65 16.524C1448.1 17.252 1448.33 18.1107 1448.33 19.1C1448.33 20.08 1448.1 20.9387 1447.65 21.676C1447.21 22.404 1446.58 22.9733 1445.78 23.384C1444.98 23.7947 1444.04 24 1442.98 24H1438.69ZM1440.51 22.46H1442.89C1443.63 22.46 1444.27 22.32 1444.8 22.04C1445.34 21.76 1445.76 21.368 1446.04 20.864C1446.34 20.36 1446.49 19.772 1446.49 19.1C1446.49 18.4187 1446.34 17.8307 1446.04 17.336C1445.76 16.832 1445.34 16.44 1444.8 16.16C1444.27 15.88 1443.63 15.74 1442.89 15.74H1440.51V22.46ZM1468.13 24V14.2H1472.16C1473.03 14.2 1473.77 14.34 1474.39 14.62C1475.01 14.9 1475.49 15.3013 1475.83 15.824C1476.17 16.3467 1476.33 16.9673 1476.33 17.686C1476.33 18.4047 1476.17 19.0253 1475.83 19.548C1475.49 20.0707 1475.01 20.472 1474.39 20.752C1473.77 21.032 1473.03 21.172 1472.16 21.172H1469.14L1469.95 20.318V24H1468.13ZM1469.95 20.514L1469.14 19.632H1472.08C1472.88 19.632 1473.48 19.464 1473.88 19.128C1474.3 18.7827 1474.5 18.302 1474.5 17.686C1474.5 17.0607 1474.3 16.58 1473.88 16.244C1473.48 15.908 1472.88 15.74 1472.08 15.74H1469.14L1469.95 14.844V20.514ZM1486.83 18.274H1491.7V19.772H1486.83V18.274ZM1486.97 22.474H1492.5V24H1485.15V14.2H1492.31V15.726H1486.97V22.474ZM1501.53 24V14.2H1505.56C1506.43 14.2 1507.17 14.34 1507.79 14.62C1508.41 14.9 1508.89 15.3013 1509.23 15.824C1509.57 16.3467 1509.73 16.9673 1509.73 17.686C1509.73 18.4047 1509.57 19.0253 1509.23 19.548C1508.89 20.0613 1508.41 20.458 1507.79 20.738C1507.17 21.0087 1506.43 21.144 1505.56 21.144H1502.54L1503.35 20.318V24H1501.53ZM1507.94 24L1505.46 20.444H1507.41L1509.9 24H1507.94ZM1503.35 20.514L1502.54 19.646H1505.48C1506.28 19.646 1506.88 19.4733 1507.28 19.128C1507.7 18.7827 1507.9 18.302 1507.9 17.686C1507.9 17.0607 1507.7 16.58 1507.28 16.244C1506.88 15.908 1506.28 15.74 1505.48 15.74H1502.54L1503.35 14.844V20.514ZM1518.77 24V14.2H1520.59V24H1518.77ZM1534.83 24.14C1534.07 24.14 1533.36 24.014 1532.72 23.762C1532.08 23.51 1531.52 23.16 1531.04 22.712C1530.56 22.2547 1530.2 21.7227 1529.93 21.116C1529.67 20.5 1529.54 19.828 1529.54 19.1C1529.54 18.372 1529.67 17.7047 1529.93 17.098C1530.2 16.482 1530.56 15.95 1531.04 15.502C1531.52 15.0447 1532.08 14.69 1532.72 14.438C1533.36 14.186 1534.06 14.06 1534.82 14.06C1535.59 14.06 1536.29 14.186 1536.92 14.438C1537.56 14.69 1538.12 15.0447 1538.6 15.502C1539.08 15.95 1539.44 16.482 1539.71 17.098C1539.97 17.7047 1540.1 18.372 1540.1 19.1C1540.1 19.828 1539.97 20.5 1539.71 21.116C1539.44 21.732 1539.08 22.264 1538.6 22.712C1538.12 23.16 1537.56 23.51 1536.92 23.762C1536.29 24.014 1535.59 24.14 1534.83 24.14ZM1534.82 22.544C1535.31 22.544 1535.77 22.46 1536.19 22.292C1536.61 22.124 1536.98 21.886 1537.28 21.578C1537.59 21.2607 1537.83 20.8967 1538 20.486C1538.18 20.066 1538.26 19.604 1538.26 19.1C1538.26 18.596 1538.18 18.1387 1538 17.728C1537.83 17.308 1537.59 16.944 1537.28 16.636C1536.98 16.3187 1536.61 16.076 1536.19 15.908C1535.77 15.74 1535.31 15.656 1534.82 15.656C1534.33 15.656 1533.87 15.74 1533.45 15.908C1533.04 16.076 1532.67 16.3187 1532.36 16.636C1532.05 16.944 1531.81 17.308 1531.63 17.728C1531.46 18.1387 1531.38 18.596 1531.38 19.1C1531.38 19.5947 1531.46 20.052 1531.63 20.472C1531.81 20.892 1532.05 21.2607 1532.36 21.578C1532.66 21.886 1533.03 22.124 1533.45 22.292C1533.87 22.46 1534.33 22.544 1534.82 22.544ZM1549.03 24V14.2H1553.31C1554.37 14.2 1555.31 14.4053 1556.11 14.816C1556.91 15.2267 1557.54 15.796 1557.99 16.524C1558.43 17.252 1558.66 18.1107 1558.66 19.1C1558.66 20.08 1558.43 20.9387 1557.99 21.676C1557.54 22.404 1556.91 22.9733 1556.11 23.384C1555.31 23.7947 1554.37 24 1553.31 24H1549.03ZM1550.85 22.46H1553.23C1553.96 22.46 1554.6 22.32 1555.13 22.04C1555.67 21.76 1556.09 21.368 1556.38 20.864C1556.68 20.36 1556.82 19.772 1556.82 19.1C1556.82 18.4187 1556.68 17.8307 1556.38 17.336C1556.09 16.832 1555.67 16.44 1555.13 16.16C1554.6 15.88 1553.96 15.74 1553.23 15.74H1550.85V22.46ZM1583.05 24.14C1582.29 24.14 1581.58 24.014 1580.94 23.762C1580.3 23.51 1579.74 23.16 1579.26 22.712C1578.78 22.2547 1578.42 21.7227 1578.15 21.116C1577.89 20.5 1577.76 19.828 1577.76 19.1C1577.76 18.372 1577.89 17.7047 1578.15 17.098C1578.42 16.482 1578.78 15.95 1579.26 15.502C1579.74 15.0447 1580.3 14.69 1580.94 14.438C1581.58 14.186 1582.28 14.06 1583.04 14.06C1583.81 14.06 1584.51 14.186 1585.14 14.438C1585.78 14.69 1586.34 15.0447 1586.82 15.502C1587.3 15.95 1587.67 16.482 1587.93 17.098C1588.19 17.7047 1588.32 18.372 1588.32 19.1C1588.32 19.828 1588.19 20.5 1587.93 21.116C1587.67 21.732 1587.3 22.264 1586.82 22.712C1586.34 23.16 1585.78 23.51 1585.14 23.762C1584.51 24.014 1583.81 24.14 1583.05 24.14ZM1583.04 22.544C1583.54 22.544 1583.99 22.46 1584.41 22.292C1584.83 22.124 1585.2 21.886 1585.5 21.578C1585.81 21.2607 1586.05 20.8967 1586.22 20.486C1586.4 20.066 1586.48 19.604 1586.48 19.1C1586.48 18.596 1586.4 18.1387 1586.22 17.728C1586.05 17.308 1585.81 16.944 1585.5 16.636C1585.2 16.3187 1584.83 16.076 1584.41 15.908C1583.99 15.74 1583.54 15.656 1583.04 15.656C1582.55 15.656 1582.09 15.74 1581.67 15.908C1581.26 16.076 1580.89 16.3187 1580.58 16.636C1580.27 16.944 1580.03 17.308 1579.85 17.728C1579.68 18.1387 1579.6 18.596 1579.6 19.1C1579.6 19.5947 1579.68 20.052 1579.85 20.472C1580.03 20.892 1580.27 21.2607 1580.58 21.578C1580.88 21.886 1581.25 22.124 1581.67 22.292C1582.09 22.46 1582.55 22.544 1583.04 22.544ZM1598.91 18.708H1603.8V20.248H1598.91V18.708ZM1599.07 24H1597.25V14.2H1604.4V15.726H1599.07V24ZM1614.83 18.708H1619.71V20.248H1614.83V18.708ZM1614.98 24H1613.16V14.2H1620.32V15.726H1614.98V24ZM1630.76 18.274H1635.63V19.772H1630.76V18.274ZM1630.9 22.474H1636.43V24H1629.08V14.2H1636.23V15.726H1630.9V22.474ZM1645.45 24V14.2H1649.49C1650.35 14.2 1651.1 14.34 1651.71 14.62C1652.34 14.9 1652.82 15.3013 1653.15 15.824C1653.49 16.3467 1653.66 16.9673 1653.66 17.686C1653.66 18.4047 1653.49 19.0253 1653.15 19.548C1652.82 20.0613 1652.34 20.458 1651.71 20.738C1651.1 21.0087 1650.35 21.144 1649.49 21.144H1646.46L1647.27 20.318V24H1645.45ZM1651.87 24L1649.39 20.444H1651.33L1653.83 24H1651.87ZM1647.27 20.514L1646.46 19.646H1649.4C1650.21 19.646 1650.81 19.4733 1651.21 19.128C1651.62 18.7827 1651.82 18.302 1651.82 17.686C1651.82 17.0607 1651.62 16.58 1651.21 16.244C1650.81 15.908 1650.21 15.74 1649.4 15.74H1646.46L1647.27 14.844V20.514Z" fill="white"/>
<circle cx="1722.03" cy="18.5" r="3.14746" fill="white"/>
<path d="M1790.5 24V14.2H1792.32V22.46H1797.44V24H1790.5ZM1805.88 24V14.2H1807.7V24H1805.88ZM1817.35 24V14.2H1818.85L1823.13 21.354H1822.35L1826.56 14.2H1828.06L1828.07 24H1826.35L1826.34 16.902H1826.7L1823.12 22.88H1822.3L1818.66 16.902H1819.08V24H1817.35ZM1837.72 24V14.2H1839.54V24H1837.72ZM1851.18 24V15.74H1847.93V14.2H1856.25V15.74H1853V24H1851.18ZM1866.29 18.274H1871.16V19.772H1866.29V18.274ZM1866.43 22.474H1871.96V24H1864.61V14.2H1871.76V15.726H1866.43V22.474ZM1880.99 24V14.2H1885.27C1886.34 14.2 1887.27 14.4053 1888.07 14.816C1888.88 15.2267 1889.5 15.796 1889.95 16.524C1890.4 17.252 1890.62 18.1107 1890.62 19.1C1890.62 20.08 1890.4 20.9387 1889.95 21.676C1889.5 22.404 1888.88 22.9733 1888.07 23.384C1887.27 23.7947 1886.34 24 1885.27 24H1880.99ZM1882.81 22.46H1885.19C1885.93 22.46 1886.56 22.32 1887.09 22.04C1887.64 21.76 1888.05 21.368 1888.34 20.864C1888.64 20.36 1888.79 19.772 1888.79 19.1C1888.79 18.4187 1888.64 17.8307 1888.34 17.336C1888.05 16.832 1887.64 16.44 1887.09 16.16C1886.56 15.88 1885.93 15.74 1885.19 15.74H1882.81V22.46ZM1910.43 24V14.2H1914.46C1915.33 14.2 1916.07 14.34 1916.68 14.62C1917.31 14.9 1917.79 15.3013 1918.13 15.824C1918.46 16.3467 1918.63 16.9673 1918.63 17.686C1918.63 18.4047 1918.46 19.0253 1918.13 19.548C1917.79 20.0707 1917.31 20.472 1916.68 20.752C1916.07 21.032 1915.33 21.172 1914.46 21.172H1911.43L1912.25 20.318V24H1910.43ZM1912.25 20.514L1911.43 19.632H1914.37C1915.18 19.632 1915.78 19.464 1916.18 19.128C1916.59 18.7827 1916.8 18.302 1916.8 17.686C1916.8 17.0607 1916.59 16.58 1916.18 16.244C1915.78 15.908 1915.18 15.74 1914.37 15.74H1911.43L1912.25 14.844V20.514ZM1929.13 18.274H1934V19.772H1929.13V18.274ZM1929.27 22.474H1934.8V24H1927.45V14.2H1934.6V15.726H1929.27V22.474ZM1943.83 24V14.2H1947.86C1948.73 14.2 1949.47 14.34 1950.08 14.62C1950.71 14.9 1951.19 15.3013 1951.53 15.824C1951.86 16.3467 1952.03 16.9673 1952.03 17.686C1952.03 18.4047 1951.86 19.0253 1951.53 19.548C1951.19 20.0613 1950.71 20.458 1950.08 20.738C1949.47 21.0087 1948.73 21.144 1947.86 21.144H1944.83L1945.65 20.318V24H1943.83ZM1950.24 24L1947.76 20.444H1949.71L1952.2 24H1950.24ZM1945.65 20.514L1944.83 19.646H1947.77C1948.58 19.646 1949.18 19.4733 1949.58 19.128C1949.99 18.7827 1950.2 18.302 1950.2 17.686C1950.2 17.0607 1949.99 16.58 1949.58 16.244C1949.18 15.908 1948.58 15.74 1947.77 15.74H1944.83L1945.65 14.844V20.514ZM1961.07 24V14.2H1962.89V24H1961.07ZM1977.13 24.14C1976.36 24.14 1975.66 24.014 1975.01 23.762C1974.37 23.51 1973.81 23.16 1973.33 22.712C1972.86 22.2547 1972.49 21.7227 1972.23 21.116C1971.97 20.5 1971.84 19.828 1971.84 19.1C1971.84 18.372 1971.97 17.7047 1972.23 17.098C1972.49 16.482 1972.86 15.95 1973.33 15.502C1973.81 15.0447 1974.37 14.69 1975.01 14.438C1975.66 14.186 1976.36 14.06 1977.11 14.06C1977.88 14.06 1978.58 14.186 1979.21 14.438C1979.86 14.69 1980.42 15.0447 1980.89 15.502C1981.37 15.95 1981.74 16.482 1982 17.098C1982.26 17.7047 1982.39 18.372 1982.39 19.1C1982.39 19.828 1982.26 20.5 1982 21.116C1981.74 21.732 1981.37 22.264 1980.89 22.712C1980.42 23.16 1979.86 23.51 1979.21 23.762C1978.58 24.014 1977.88 24.14 1977.13 24.14ZM1977.11 22.544C1977.61 22.544 1978.07 22.46 1978.49 22.292C1978.91 22.124 1979.27 21.886 1979.58 21.578C1979.89 21.2607 1980.12 20.8967 1980.29 20.486C1980.47 20.066 1980.56 19.604 1980.56 19.1C1980.56 18.596 1980.47 18.1387 1980.29 17.728C1980.12 17.308 1979.89 16.944 1979.58 16.636C1979.27 16.3187 1978.91 16.076 1978.49 15.908C1978.07 15.74 1977.61 15.656 1977.11 15.656C1976.62 15.656 1976.16 15.74 1975.74 15.908C1975.33 16.076 1974.97 16.3187 1974.65 16.636C1974.34 16.944 1974.1 17.308 1973.92 17.728C1973.75 18.1387 1973.67 18.596 1973.67 19.1C1973.67 19.5947 1973.75 20.052 1973.92 20.472C1974.1 20.892 1974.34 21.2607 1974.65 21.578C1974.96 21.886 1975.32 22.124 1975.74 22.292C1976.16 22.46 1976.62 22.544 1977.11 22.544ZM1991.32 24V14.2H1995.61C1996.67 14.2 1997.6 14.4053 1998.41 14.816C1999.21 15.2267 1999.83 15.796 2000.28 16.524C2000.73 17.252 2000.95 18.1107 2000.95 19.1C2000.95 20.08 2000.73 20.9387 2000.28 21.676C1999.83 22.404 1999.21 22.9733 1998.41 23.384C1997.6 23.7947 1996.67 24 1995.61 24H1991.32ZM1993.14 22.46H1995.52C1996.26 22.46 1996.89 22.32 1997.43 22.04C1997.97 21.76 1998.38 21.368 1998.67 20.864C1998.97 20.36 1999.12 19.772 1999.12 19.1C1999.12 18.4187 1998.97 17.8307 1998.67 17.336C1998.38 16.832 1997.97 16.44 1997.43 16.16C1996.89 15.88 1996.26 15.74 1995.52 15.74H1993.14V22.46ZM2025.35 24.14C2024.58 24.14 2023.88 24.014 2023.24 23.762C2022.59 23.51 2022.03 23.16 2021.56 22.712C2021.08 22.2547 2020.71 21.7227 2020.45 21.116C2020.19 20.5 2020.06 19.828 2020.06 19.1C2020.06 18.372 2020.19 17.7047 2020.45 17.098C2020.71 16.482 2021.08 15.95 2021.56 15.502C2022.03 15.0447 2022.59 14.69 2023.24 14.438C2023.88 14.186 2024.58 14.06 2025.34 14.06C2026.1 14.06 2026.8 14.186 2027.44 14.438C2028.08 14.69 2028.64 15.0447 2029.12 15.502C2029.59 15.95 2029.96 16.482 2030.22 17.098C2030.48 17.7047 2030.61 18.372 2030.61 19.1C2030.61 19.828 2030.48 20.5 2030.22 21.116C2029.96 21.732 2029.59 22.264 2029.12 22.712C2028.64 23.16 2028.08 23.51 2027.44 23.762C2026.8 24.014 2026.11 24.14 2025.35 24.14ZM2025.34 22.544C2025.83 22.544 2026.29 22.46 2026.71 22.292C2027.13 22.124 2027.49 21.886 2027.8 21.578C2028.11 21.2607 2028.35 20.8967 2028.51 20.486C2028.69 20.066 2028.78 19.604 2028.78 19.1C2028.78 18.596 2028.69 18.1387 2028.51 17.728C2028.35 17.308 2028.11 16.944 2027.8 16.636C2027.49 16.3187 2027.13 16.076 2026.71 15.908C2026.29 15.74 2025.83 15.656 2025.34 15.656C2024.84 15.656 2024.38 15.74 2023.96 15.908C2023.55 16.076 2023.19 16.3187 2022.87 16.636C2022.56 16.944 2022.32 17.308 2022.14 17.728C2021.98 18.1387 2021.89 18.596 2021.89 19.1C2021.89 19.5947 2021.98 20.052 2022.14 20.472C2022.32 20.892 2022.56 21.2607 2022.87 21.578C2023.18 21.886 2023.54 22.124 2023.96 22.292C2024.38 22.46 2024.84 22.544 2025.34 22.544ZM2041.21 18.708H2046.09V20.248H2041.21V18.708ZM2041.36 24H2039.54V14.2H2046.7V15.726H2041.36V24ZM2057.12 18.708H2062.01V20.248H2057.12V18.708ZM2057.28 24H2055.46V14.2H2062.61V15.726H2057.28V24ZM2073.05 18.274H2077.92V19.772H2073.05V18.274ZM2073.19 22.474H2078.72V24H2071.37V14.2H2078.52V15.726H2073.19V22.474ZM2087.75 24V14.2H2091.78C2092.65 14.2 2093.39 14.34 2094.01 14.62C2094.63 14.9 2095.11 15.3013 2095.45 15.824C2095.79 16.3467 2095.95 16.9673 2095.95 17.686C2095.95 18.4047 2095.79 19.0253 2095.45 19.548C2095.11 20.0613 2094.63 20.458 2094.01 20.738C2093.39 21.0087 2092.65 21.144 2091.78 21.144H2088.76L2089.57 20.318V24H2087.75ZM2094.16 24L2091.68 20.444H2093.63L2096.12 24H2094.16ZM2089.57 20.514L2088.76 19.646H2091.7C2092.5 19.646 2093.1 19.4733 2093.5 19.128C2093.91 18.7827 2094.12 18.302 2094.12 17.686C2094.12 17.0607 2093.91 16.58 2093.5 16.244C2093.1 15.908 2092.5 15.74 2091.7 15.74H2088.76L2089.57 14.844V20.514Z" fill="white"/>
<circle cx="2164.33" cy="18.5" r="3.14746" fill="white"/>
</g>
<defs>
<clipPath id="clip0_18_3197">
<rect width="2187" height="37" fill="white"/>
</clipPath>
</defs>
</svg>
