<svg width="33" height="32" viewBox="0 0 33 32" fill="none" xmlns="http://www.w3.org/2000/svg">
<rect x="0.5" width="32" height="32" rx="16" fill="#66AC47" fill-opacity="0.1"/>
<mask id="mask0_83_8097" style="mask-type:alpha" maskUnits="userSpaceOnUse" x="4" y="4" width="25" height="24">
<rect x="4.5" y="4" width="24" height="24" fill="#D9D9D9"/>
</mask>
<g mask="url(#mask0_83_8097)">
<path d="M10.0242 17.3C9.65755 17.3 9.34505 17.1709 9.08672 16.9125C8.82839 16.6542 8.69922 16.3417 8.69922 15.975C8.69922 15.6084 8.82839 15.2959 9.08672 15.0375C9.34505 14.7792 9.65755 14.65 10.0242 14.65H22.9742C23.3409 14.65 23.6534 14.7792 23.9117 15.0375C24.1701 15.2959 24.2992 15.6084 24.2992 15.975C24.2992 16.3417 24.1701 16.6542 23.9117 16.9125C23.6534 17.1709 23.3409 17.3 22.9742 17.3H10.0242Z" fill="#66AC47" fill-opacity="0.5"/>
</g>
</svg>
