<svg width="48" height="48" viewBox="0 0 48 48" fill="none" xmlns="http://www.w3.org/2000/svg">
<mask id="mask0_51_5163" style="mask-type:alpha" maskUnits="userSpaceOnUse" x="0" y="0" width="48" height="48">
<rect width="48" height="48" fill="#D9D9D9"/>
</mask>
<g mask="url(#mask0_51_5163)">
<path d="M24.0004 44.8004C21.0671 44.8004 18.3338 44.2671 15.8004 43.2004C13.2671 42.1338 11.0671 40.6671 9.20044 38.8004C7.33377 36.9338 5.86711 34.7338 4.80044 32.2004C3.73377 29.6671 3.20044 26.9338 3.20044 24.0004C3.20044 21.0671 3.73377 18.3338 4.80044 15.8004C5.86711 13.2671 7.33377 11.0671 9.20044 9.20044C11.0671 7.33377 13.2671 5.86711 15.8004 4.80044C18.3338 3.73377 21.0671 3.20044 24.0004 3.20044C26.0004 3.20044 27.9421 3.48377 29.8254 4.05044C31.7088 4.61711 33.4838 5.45044 35.1504 6.55044C35.5838 6.81711 35.8504 7.19211 35.9504 7.67544C36.0504 8.15877 35.9504 8.58377 35.6504 8.95044C35.3504 9.38377 34.9504 9.62544 34.4504 9.67544C33.9504 9.72544 33.4838 9.63377 33.0504 9.40044C31.6838 8.56711 30.2338 7.93377 28.7004 7.50044C27.1671 7.06711 25.6004 6.85044 24.0004 6.85044C19.1338 6.85044 15.0588 8.49211 11.7754 11.7754C8.49211 15.0588 6.85044 19.1338 6.85044 24.0004C6.85044 28.8671 8.49211 32.9421 11.7754 36.2254C15.0588 39.5088 19.1338 41.1504 24.0004 41.1504C28.8671 41.1504 32.9421 39.5088 36.2254 36.2254C39.5088 32.9421 41.1504 28.8671 41.1504 24.0004C41.1504 23.4671 41.1254 22.9504 41.0754 22.4504C41.0254 21.9504 40.9504 21.4671 40.8504 21.0004C40.7838 20.4671 40.8838 19.9838 41.1504 19.5504C41.4171 19.1171 41.8004 18.8504 42.3004 18.7504C42.8004 18.6171 43.2671 18.7004 43.7004 19.0004C44.1338 19.3004 44.3838 19.7004 44.4504 20.2004C44.5504 20.8338 44.6338 21.4671 44.7004 22.1004C44.7671 22.7338 44.8004 23.3671 44.8004 24.0004C44.8004 26.9338 44.2671 29.6671 43.2004 32.2004C42.1338 34.7338 40.6671 36.9338 38.8004 38.8004C36.9338 40.6671 34.7338 42.1338 32.2004 43.2004C29.6671 44.2671 26.9338 44.8004 24.0004 44.8004ZM21.0504 28.1504L40.8004 8.45044C41.1338 8.08377 41.5671 7.90044 42.1004 7.90044C42.6338 7.90044 43.1004 8.08377 43.5004 8.45044C43.8671 8.85044 44.0504 9.30877 44.0504 9.82544C44.0504 10.3421 43.8671 10.8004 43.5004 11.2004L22.3504 32.3004C21.9838 32.6671 21.5504 32.8504 21.0504 32.8504C20.5504 32.8504 20.1338 32.6671 19.8004 32.3004L13.6504 26.1004C13.2838 25.7671 13.1088 25.3254 13.1254 24.7754C13.1421 24.2254 13.3338 23.7671 13.7004 23.4004C14.0338 23.0671 14.4754 22.9004 15.0254 22.9004C15.5754 22.9004 16.0338 23.0671 16.4004 23.4004L21.0504 28.1504Z" fill="#66AC47"/>
</g>
</svg>
