<svg width="35" height="52" viewBox="0 0 35 52" fill="none" xmlns="http://www.w3.org/2000/svg">
<path d="M34.2991 34.6714C34.2991 39.2198 32.4923 43.5818 29.2761 46.798C26.0599 50.0142 21.6979 51.821 17.1495 51.821C12.6012 51.821 8.23915 50.0142 5.02298 46.798C1.80682 43.5818 1.91698e-07 39.2198 0 34.6714C0 25.2008 17.1495 0.0400391 17.1495 0.0400391C17.1495 0.0400391 34.2991 25.2008 34.2991 34.6714Z" fill="url(#paint0_linear_196_6621)"/>
<path style="mix-blend-mode:multiply" d="M30.8142 36.7546C30.8142 39.3422 30.0469 41.8716 28.6093 44.023C27.1718 46.1745 25.1286 47.8513 22.738 48.8415C20.3474 49.8317 17.7169 50.0908 15.1791 49.586C12.6413 49.0812 10.3102 47.8352 8.48054 46.0055C6.65088 44.1759 5.40487 41.8448 4.90007 39.307C4.39527 36.7691 4.65435 34.1386 5.64455 31.7481C6.63475 29.3575 8.31161 27.3143 10.4631 25.8767C12.6145 24.4392 15.1439 23.6719 17.7314 23.6719C21.2012 23.6719 24.5288 25.0502 26.9823 27.5037C29.4358 29.9572 30.8142 33.2849 30.8142 36.7546Z" fill="url(#paint1_linear_196_6621)"/>
<defs>
<linearGradient id="paint0_linear_196_6621" x1="31.4787" y1="15.153" x2="1.02225" y2="45.6095" gradientUnits="userSpaceOnUse">
<stop stop-color="#FFFB90"/>
<stop offset="0.14" stop-color="#FBEA78"/>
<stop offset="0.24" stop-color="#F8DC65"/>
<stop offset="0.27" stop-color="#E6C758"/>
<stop offset="0.34" stop-color="#C5A041"/>
<stop offset="0.4" stop-color="#AD8330"/>
<stop offset="0.45" stop-color="#9E7226"/>
<stop offset="0.49" stop-color="#996C22"/>
<stop offset="0.52" stop-color="#9D7126"/>
<stop offset="0.56" stop-color="#AA8131"/>
<stop offset="0.6" stop-color="#BE9B42"/>
<stop offset="0.64" stop-color="#DABE5B"/>
<stop offset="0.69" stop-color="#FBE878"/>
<stop offset="0.77" stop-color="#FFFFAA"/>
<stop offset="0.83" stop-color="#FBE878"/>
<stop offset="1" stop-color="#A4631B"/>
</linearGradient>
<linearGradient id="paint1_linear_196_6621" x1="4.03024" y1="50.4558" x2="24.1878" y2="30.2983" gradientUnits="userSpaceOnUse">
<stop stop-color="#FC9512"/>
<stop offset="0.38" stop-color="#E9591E"/>
<stop offset="0.8" stop-color="#D51C2B"/>
<stop offset="1" stop-color="#CD0430"/>
</linearGradient>
</defs>
</svg>
