<svg width="350" height="350" viewBox="0 0 350 350" fill="none" xmlns="http://www.w3.org/2000/svg">
<path d="M305.627 80.031L304.045 77.427C290.71 55.447 266.595 42.196 241.171 43.827C237.899 44.0308 234.647 44.4777 231.441 45.164C208.341 50.113 188.209 67.564 179.872 89.964C174.972 103.131 173.572 118.286 164.297 128.737C152.187 142.338 131.628 142.737 113.554 142.205C95.4801 141.673 74.9001 142.1 62.8601 155.771C55.3071 164.318 52.9131 176.477 53.5221 187.971C55.1321 218.288 76.2581 245.371 103.131 258.874C130.004 272.377 161.63 273.574 191.037 267.631C232.232 259.322 271.411 236.523 294.959 201.299C318.507 166.075 324.464 118.048 305.627 80.031Z" fill="#F5F5F5"/>
<path d="M244.469 177.261L248.067 178.612L244.945 179.501C244.433 179.644 243.965 179.91 243.58 180.276C243.196 180.642 242.907 181.097 242.74 181.601L241.613 185.059L240.213 181.594C240.043 181.169 239.786 180.785 239.458 180.466C239.13 180.148 238.738 179.902 238.309 179.746L235.145 178.598L238.568 177.198C238.976 177.028 239.346 176.778 239.655 176.462C239.965 176.145 240.207 175.769 240.367 175.357L241.606 172.144L242.488 175.126C242.629 175.611 242.882 176.057 243.226 176.427C243.57 176.798 243.995 177.083 244.469 177.261Z" fill="#66AC47"/>
<path d="M121.689 93.905L125.287 95.256L122.165 96.138C121.655 96.2823 121.187 96.5489 120.803 96.9149C120.418 97.2808 120.129 97.735 119.96 98.238L118.833 101.689L117.433 98.231C117.264 97.8051 117.006 97.4201 116.676 97.1015C116.347 96.7829 115.954 96.538 115.522 96.383L112.365 95.235L115.788 93.835C116.198 93.6665 116.568 93.4164 116.877 93.0998C117.187 92.7833 117.428 92.407 117.587 91.994L118.826 88.788L119.708 91.77C119.85 92.2552 120.103 92.7008 120.447 93.0714C120.79 93.442 121.216 93.7274 121.689 93.905Z" fill="#66AC47"/>
<path d="M111.805 179.998L113.548 180.649L112.036 181.083C111.787 181.153 111.56 181.283 111.373 181.461C111.187 181.639 111.046 181.86 110.965 182.105L110.419 183.778L109.719 182.105C109.636 181.899 109.512 181.713 109.352 181.558C109.193 181.404 109.003 181.285 108.795 181.209L107.262 180.649L108.921 179.949C109.118 179.866 109.297 179.744 109.447 179.592C109.597 179.439 109.716 179.259 109.796 179.06L110.391 177.499L110.818 178.948C110.888 179.188 111.015 179.408 111.186 179.591C111.357 179.773 111.569 179.913 111.805 179.998Z" fill="#66AC47"/>
<path d="M234.808 159.845L236.649 160.545L235.046 161C234.784 161.076 234.545 161.214 234.349 161.403C234.152 161.592 234.005 161.826 233.919 162.085L233.338 163.856L232.638 162.085C232.55 161.868 232.419 161.671 232.251 161.507C232.084 161.343 231.884 161.216 231.665 161.133L230.041 160.545L231.798 159.845C232.007 159.757 232.197 159.628 232.356 159.466C232.514 159.304 232.639 159.111 232.722 158.9L233.352 157.255L233.807 158.781C233.881 159.023 234.01 159.245 234.184 159.43C234.357 159.614 234.571 159.756 234.808 159.845Z" fill="#66AC47"/>
<path d="M113.842 114.8L115.683 115.5L114.087 115.948C113.822 116.023 113.581 116.162 113.383 116.352C113.185 116.543 113.037 116.779 112.953 117.04L112.372 118.804L111.672 117.033C111.582 116.816 111.449 116.619 111.28 116.456C111.111 116.292 110.911 116.164 110.692 116.081L109.061 115.5L110.818 114.8C111.027 114.713 111.218 114.585 111.376 114.422C111.535 114.26 111.659 114.067 111.742 113.855L112.372 112.21L112.827 113.736C112.902 113.98 113.033 114.203 113.209 114.387C113.385 114.572 113.602 114.713 113.842 114.8Z" fill="#66AC47"/>
<path d="M201.747 78.2809C201.747 78.2809 188.405 67.7809 172.277 71.1129C157.465 74.1929 142.527 85.4419 142.527 85.4419L140.609 65.2609C140.609 65.2609 143.906 69.1879 145.831 68.3619C147.756 67.5359 147.763 52.6609 147.763 52.6609C147.763 52.6609 154.924 62.0269 159.054 61.2009C163.184 60.3749 168.973 41.6429 168.973 41.6429C168.973 41.6429 177.513 57.8969 182.469 58.4429C187.425 58.9889 191.569 47.9779 191.569 47.9779C191.569 47.9779 194.6 62.8529 198.17 63.5389C201.74 64.2249 203.399 57.3439 203.399 57.3439L201.747 78.2809Z" fill="#66AC47"/>
<path d="M201.326 57.2179C201.326 57.6333 201.449 58.0393 201.68 58.3846C201.911 58.73 202.239 58.9991 202.623 59.1581C203.006 59.317 203.429 59.3586 203.836 59.2776C204.243 59.1965 204.617 58.9965 204.911 58.7028C205.205 58.4092 205.405 58.035 205.486 57.6276C205.567 57.2203 205.525 56.798 205.366 56.4143C205.207 56.0306 204.938 55.7026 204.593 55.4718C204.248 55.2411 203.842 55.1179 203.426 55.1179C202.869 55.1179 202.335 55.3392 201.941 55.733C201.547 56.1268 201.326 56.661 201.326 57.2179Z" fill="#66AC47"/>
<path d="M191.611 48.734C192.755 48.734 193.683 47.8063 193.683 46.662C193.683 45.5176 192.755 44.59 191.611 44.59C190.467 44.59 189.539 45.5176 189.539 46.662C189.539 47.8063 190.467 48.734 191.611 48.734Z" fill="#66AC47"/>
<path d="M168.868 42.5949C170.136 42.5949 171.164 41.567 171.164 40.2989C171.164 39.0309 170.136 38.0029 168.868 38.0029C167.6 38.0029 166.572 39.0309 166.572 40.2989C166.572 41.567 167.6 42.5949 168.868 42.5949Z" fill="#66AC47"/>
<path d="M148.001 54.145C149.269 54.145 150.297 53.117 150.297 51.849C150.297 50.5809 149.269 49.553 148.001 49.553C146.733 49.553 145.705 50.5809 145.705 51.849C145.705 53.117 146.733 54.145 148.001 54.145Z" fill="#66AC47"/>
<path d="M138.109 64.2389C138.109 64.6224 138.223 64.9973 138.436 65.3162C138.649 65.635 138.952 65.8836 139.306 66.0303C139.661 66.1771 140.051 66.2155 140.427 66.1407C140.803 66.0659 141.148 65.8812 141.419 65.61C141.691 65.3388 141.875 64.9933 141.95 64.6172C142.025 64.2411 141.987 63.8512 141.84 63.4969C141.693 63.1426 141.444 62.8398 141.126 62.6267C140.807 62.4136 140.432 62.2999 140.048 62.2999C139.534 62.2999 139.041 62.5042 138.677 62.8678C138.314 63.2315 138.109 63.7247 138.109 64.2389Z" fill="#66AC47"/>
<path d="M202.02 74.8509C202.02 74.8509 201.964 74.8509 201.873 74.7669L201.467 74.4939C201.103 74.2559 200.613 73.8499 199.913 73.4299C197.974 72.1726 195.915 71.1104 193.767 70.2589C190.578 69.0038 187.234 68.1867 183.827 67.8299C181.815 67.6219 179.792 67.5564 177.772 67.6339C175.606 67.7306 173.449 67.9785 171.318 68.3759C167.196 69.1823 163.173 70.4309 159.32 72.0999C156.172 73.46 153.116 75.0219 150.171 76.7759C147.651 78.2739 145.663 79.5759 144.305 80.4929L142.744 81.5569L142.338 81.8229C142.24 81.8859 142.191 81.9139 142.184 81.9069C142.222 81.8655 142.264 81.828 142.31 81.7949L142.702 81.4939C143.052 81.2419 143.556 80.8499 144.228 80.3809C145.558 79.4219 147.525 78.0849 150.038 76.5589C152.974 74.761 156.031 73.1682 159.187 71.7919C163.056 70.0938 167.101 68.8285 171.248 68.0189C173.397 67.618 175.573 67.3701 177.758 67.2769C179.795 67.206 181.835 67.2785 183.862 67.4939C187.294 67.8601 190.658 68.7036 193.858 69.9999C196.014 70.8724 198.07 71.9755 199.99 73.2899C200.69 73.7309 201.159 74.1579 201.509 74.4099L201.894 74.7179C201.985 74.8089 202.027 74.8509 202.02 74.8509Z" fill="#263238"/>
<g opacity="0.3">
<path d="M173.473 58.513C173.289 57.9342 172.964 57.4105 172.526 56.9899C172.088 56.5692 171.552 56.265 170.967 56.105C170.473 56.004 169.962 56.0379 169.487 56.203C169.011 56.368 168.589 56.6582 168.265 57.043L168.3 56.98C167.499 57.8916 167.066 59.0676 167.083 60.2805C167.099 61.4934 167.565 62.6569 168.391 63.546C168.715 63.9282 169.129 64.2237 169.596 64.4058C170.062 64.5879 170.567 64.6509 171.065 64.589C172.234 64.358 172.997 63.189 173.375 62.076C173.787 60.9294 173.822 59.6806 173.473 58.513Z" fill="black"/>
</g>
<path d="M168.868 63.154C168.833 63.154 168.546 62.902 168.259 62.328C167.89 61.5696 167.732 60.7255 167.804 59.885C167.875 59.0446 168.173 58.2391 168.665 57.554C169.043 57.036 169.365 56.812 169.407 56.854C169.449 56.896 169.19 57.183 168.882 57.708C168.479 58.3843 168.234 59.1435 168.168 59.9281C168.101 60.7127 168.213 61.5023 168.497 62.237C168.638 62.5351 168.762 62.8413 168.868 63.154Z" fill="white"/>
<g opacity="0.3">
<path d="M155.028 65.9189C154.82 65.6092 154.537 65.3571 154.205 65.1858C153.874 65.0145 153.504 64.9296 153.131 64.9389C152.828 64.9675 152.539 65.0767 152.293 65.2553C152.046 65.4338 151.853 65.675 151.731 65.9539V65.9119C151.42 66.5904 151.37 67.3598 151.591 68.0728C151.812 68.7858 152.288 69.3923 152.928 69.7759C153.186 69.9443 153.481 70.0459 153.788 70.0715C154.095 70.0972 154.403 70.0461 154.685 69.9229C154.991 69.7176 155.237 69.4355 155.399 69.1051C155.561 68.7746 155.634 68.4072 155.609 68.0399C155.648 67.2889 155.445 66.5451 155.028 65.9189Z" fill="black"/>
</g>
<path d="M153.167 69.44C153.167 69.44 152.915 69.377 152.628 69.09C152.267 68.6993 152.024 68.2137 151.928 67.69C151.818 67.1707 151.862 66.6307 152.054 66.136C152.201 65.758 152.369 65.576 152.411 65.597C152.253 66.2566 152.21 66.9387 152.285 67.613C152.473 68.2677 152.772 68.8855 153.167 69.44Z" fill="white"/>
<g opacity="0.3">
<path d="M191.954 62.195C191.873 61.8314 191.702 61.4937 191.458 61.2126C191.213 60.9315 190.903 60.7158 190.554 60.585C190.258 60.4942 189.944 60.486 189.644 60.5612C189.344 60.6365 189.07 60.7924 188.853 61.012C188.318 61.5309 187.992 62.2285 187.938 62.972C187.884 63.7155 188.105 64.4529 188.559 65.044C188.742 65.2903 188.982 65.488 189.259 65.6199C189.536 65.7517 189.841 65.8135 190.148 65.8C190.504 65.7177 190.834 65.546 191.106 65.3011C191.378 65.0561 191.583 64.746 191.702 64.4C192.023 63.7118 192.111 62.9379 191.954 62.195Z" fill="black"/>
</g>
<path d="M188.818 64.848C188.776 64.848 188.601 64.687 188.44 64.323C188.243 63.8303 188.184 63.2926 188.272 62.769C188.368 62.2453 188.611 61.7596 188.972 61.369C189.245 61.075 189.476 60.97 189.504 61.005C189.112 61.5588 188.821 62.1773 188.643 62.832C188.586 63.5091 188.646 64.1909 188.818 64.848Z" fill="white"/>
<g opacity="0.3">
<path d="M146.097 73.836C145.907 73.6527 145.674 73.5197 145.42 73.4488C145.166 73.3779 144.898 73.3714 144.641 73.43C144.43 73.4915 144.239 73.6094 144.09 73.7709C143.941 73.9325 143.838 74.1316 143.794 74.347C143.679 74.8637 143.758 75.4047 144.016 75.8669C144.274 76.329 144.693 76.68 145.194 76.853C145.397 76.9301 145.616 76.9563 145.832 76.9295C146.048 76.9027 146.254 76.8235 146.433 76.699C146.612 76.51 146.739 76.2781 146.803 76.0256C146.867 75.7731 146.865 75.5084 146.797 75.257C146.73 74.7181 146.483 74.2175 146.097 73.836Z" fill="black"/>
</g>
<path d="M145.278 76.6289C145.278 76.6709 145.075 76.6289 144.823 76.4889C144.512 76.2787 144.268 75.9818 144.123 75.6349C143.968 75.2832 143.924 74.8924 143.997 74.5149C144.053 74.2279 144.158 74.0739 144.2 74.0879C144.242 74.1019 144.144 74.7879 144.459 75.4879C144.774 76.1879 145.327 76.5379 145.278 76.6289Z" fill="white"/>
<g opacity="0.3">
<path d="M201.207 68.929C201.262 68.6699 201.25 68.4013 201.172 68.148C201.095 67.8947 200.956 67.665 200.766 67.48C200.601 67.3344 200.398 67.2372 200.181 67.1989C199.963 67.1606 199.74 67.1828 199.534 67.263C199.037 67.4443 198.624 67.8019 198.374 68.2678C198.124 68.7338 198.053 69.2755 198.176 69.79C198.219 70.0044 198.314 70.2049 198.454 70.3734C198.593 70.542 198.772 70.6734 198.974 70.756C199.228 70.802 199.49 70.7831 199.735 70.7011C199.979 70.6191 200.199 70.4767 200.374 70.287C200.795 69.939 201.088 69.4614 201.207 68.929Z" fill="black"/>
</g>
<path d="M198.415 69.734C198.366 69.734 198.289 69.573 198.289 69.279C198.291 68.895 198.408 68.5203 198.623 68.2026C198.839 67.8848 199.144 67.6382 199.5 67.494C199.773 67.389 199.955 67.396 199.969 67.445C199.983 67.494 199.353 67.767 198.926 68.411C198.499 69.055 198.52 69.727 198.415 69.734Z" fill="white"/>
<path d="M133.034 70.294C131.519 70.05 130.026 69.6872 128.568 69.209C127.078 68.8446 125.62 68.3624 124.207 67.767C125.72 68.012 127.211 68.3771 128.666 68.859C130.158 69.22 131.619 69.6998 133.034 70.294Z" fill="#263238"/>
<path d="M141.435 56C139.985 54.2615 138.63 52.4458 137.375 50.561C136.017 48.7489 134.76 46.863 133.609 44.912C135.057 46.6526 136.412 48.4681 137.669 50.351C139.028 52.1631 140.285 54.049 141.435 56Z" fill="#263238"/>
<path d="M158.311 48.132C158.213 48.132 157.527 44.415 156.778 39.802C156.029 35.189 155.504 31.402 155.602 31.402C155.7 31.402 156.386 35.112 157.135 39.725C157.884 44.338 158.409 48.111 158.311 48.132Z" fill="#263238"/>
<path d="M185.577 25.0179C185.605 25.2949 185.605 25.574 185.577 25.8509C185.577 26.3899 185.5 27.1599 185.416 28.1119C185.255 30.0229 184.968 32.6549 184.541 35.5459C184.114 38.4369 183.638 41.0409 183.246 42.9099C183.057 43.8479 182.882 44.6039 182.756 45.1289C182.711 45.4042 182.631 45.6725 182.518 45.9269C182.522 45.649 182.555 45.3723 182.616 45.1009C182.721 44.4919 182.847 43.7499 182.994 42.8679C183.323 40.9779 183.757 38.3739 184.184 35.4899C184.611 32.6059 184.933 29.9879 185.164 28.0839C185.271 27.1973 185.362 26.4483 185.437 25.8369C185.451 25.5594 185.498 25.2844 185.577 25.0179Z" fill="#263238"/>
<path d="M206.247 41.7129C205.084 43.4607 203.819 45.1389 202.46 46.7389C201.194 48.4149 199.831 50.0159 198.379 51.5339C199.546 49.787 200.813 48.1089 202.173 46.5079C203.438 44.8329 204.798 43.2319 206.247 41.7129Z" fill="#263238"/>
<path d="M218.576 63.7419C216.842 64.1002 215.085 64.3342 213.319 64.4419C211.562 64.6742 209.791 64.7865 208.02 64.7779C209.756 64.4257 211.515 64.1918 213.284 64.0779C215.038 63.848 216.806 63.7357 218.576 63.7419Z" fill="#263238"/>
<path d="M268.352 217.252C268.352 217.252 262.164 217.721 262.563 220.199C262.962 222.677 265.958 224.063 269.626 223.51L272.895 219.464L268.352 217.252Z" fill="#EB996E"/>
<path d="M260.455 246.4L267.665 276.29L290.128 242.69L306.228 247.73C306.228 247.73 274.434 320.103 266.748 318.899C259.062 317.695 252.748 317.184 248.94 309.099C245.132 301.014 236.06 271.152 236.06 271.152L233.316 257.936L259.594 246.4" fill="#FFBE9D"/>
<path d="M257.368 204.785C257.368 204.785 285.865 209.097 287.02 209.923C288.175 210.749 308.062 231.133 308.23 236.929C308.278 240.615 307.602 244.275 306.242 247.702L290.499 244.055L283.212 235.109C283.212 235.109 277.248 235.27 275.757 234.276C274.266 233.282 272.607 230.776 272.957 229.474C272.957 229.474 268.484 229.306 269.646 223.51C269.646 223.51 264.508 220.36 267.987 217.546C271.466 214.732 277.927 213.731 277.927 213.731C277.927 213.731 260.371 211.085 258.383 209.097C257.813 208.555 257.413 207.858 257.233 207.092C257.052 206.326 257.099 205.525 257.368 204.785Z" fill="#FFBE9D"/>
<path d="M279.796 219.723C279.796 219.835 277.465 220.199 274.742 221.228C272.019 222.257 270.003 223.503 269.947 223.405C270.326 223.046 270.755 222.744 271.221 222.509C272.303 221.869 273.439 221.325 274.616 220.885C275.792 220.441 277.006 220.104 278.242 219.877C278.75 219.748 279.273 219.696 279.796 219.723Z" fill="#EB996E"/>
<path d="M282.296 226.94C282.296 227.045 280.231 227.346 277.739 228.004C275.247 228.662 273.28 229.404 273.238 229.306C273.619 229.041 274.036 228.833 274.477 228.69C276.544 227.861 278.708 227.296 280.917 227.01C281.371 226.916 281.836 226.893 282.296 226.94Z" fill="#EB996E"/>
<path d="M296.232 246.575C295.119 246.183 294.047 245.681 293.033 245.077C291.962 244.577 290.946 243.967 290.002 243.257C291.117 243.646 292.189 244.147 293.201 244.755C294.272 245.255 295.287 245.865 296.232 246.575Z" fill="#EB996E"/>
<path d="M266.986 290.535C266.942 288.138 267.026 285.741 267.238 283.353C267.318 280.957 267.524 278.567 267.854 276.192C267.952 276.192 267.854 279.412 267.602 283.374C267.35 287.336 267.084 290.542 266.986 290.535Z" fill="#EB996E"/>
<path d="M229.6 193.011C227.094 189.399 223.825 186.284 221.97 182.301C220.862 179.649 220.089 176.87 219.667 174.027L207.004 107.527L140.343 100.31C130.356 118.317 124.995 138.521 124.74 159.11C124.628 169.715 125.398 181.692 118.097 189.385C115.017 192.633 110.558 194.985 109.368 199.339C108.353 203.021 110.124 206.941 109.655 210.735C109.109 215.187 105.658 218.617 103.194 222.362C99.6404 227.79 97.9816 234.24 98.4762 240.709C98.7282 243.789 99.7083 247.17 102.389 248.71C104.048 249.662 106.05 249.718 107.989 249.753C149.821 250.544 192.101 251.293 232.974 242.375C234.654 234.052 236.341 225.666 236.327 217.175C236.313 208.684 234.43 199.983 229.6 193.011Z" fill="#263238"/>
<path d="M128.912 253.183C128.912 253.183 128.842 253.092 128.723 252.91C128.604 252.728 128.429 252.434 128.205 252.084C127.572 251.012 127.01 249.899 126.525 248.752C125.777 246.923 125.217 245.024 124.852 243.082C124.38 240.504 124.25 237.875 124.467 235.263C124.751 232.093 125.572 228.994 126.896 226.1C128.296 222.985 130.361 219.926 131.663 216.342C131.984 215.43 132.233 214.494 132.405 213.542C132.567 212.575 132.637 211.596 132.615 210.616C132.512 208.584 132.162 206.572 131.572 204.624C131.019 202.629 130.326 200.62 129.745 198.534C129.126 196.426 128.757 194.253 128.646 192.059C128.464 187.593 129.346 183.295 130.34 179.249C131.334 175.203 132.51 171.346 133.301 167.601C134.738 160.973 135.586 154.232 135.835 147.455C135.992 142.886 135.882 138.312 135.506 133.756C135.366 132.146 135.247 130.893 135.142 130.046C135.1 129.633 135.065 129.311 135.044 129.08C135.023 128.849 135.044 128.751 135.044 128.751C135.069 128.857 135.088 128.965 135.1 129.073C135.135 129.304 135.177 129.626 135.24 130.032C135.366 130.879 135.506 132.132 135.667 133.742C136.102 138.304 136.251 142.888 136.115 147.469C135.902 154.266 135.078 161.029 133.651 167.678C132.867 171.43 131.726 175.301 130.711 179.34C129.696 183.379 128.849 187.635 129.031 192.038C129.213 196.441 130.823 200.515 131.943 204.533C132.542 206.515 132.897 208.562 133 210.63C133.021 211.633 132.946 212.637 132.776 213.626C132.598 214.578 132.343 215.515 132.013 216.426C130.683 220.066 128.618 223.111 127.204 226.226C125.884 229.086 125.055 232.148 124.754 235.284C124.523 237.873 124.636 240.481 125.09 243.04C125.436 244.973 125.971 246.867 126.686 248.696C127.159 249.844 127.699 250.964 128.303 252.049C128.513 252.404 128.674 252.684 128.786 252.889C128.863 253.078 128.912 253.183 128.912 253.183Z" fill="#455A64"/>
<path d="M182.147 76.9229C169.435 76.5169 157.108 79.3939 148.043 88.3119C139.727 96.5019 136.024 104.097 135.345 116.102C135.114 120.218 136.878 129.283 138.544 133.049C140.21 136.815 144.844 146.349 148.701 147.749C152.558 149.149 154.441 142.555 157.101 139.433C158.746 137.529 159.488 135.023 160.216 132.615C163.289 122.423 167.006 112.238 173.369 103.698C179.732 95.1579 189.098 88.3819 199.689 87.2619L206.451 87.1079C197.848 78.7639 190.533 77.1959 182.147 76.9229Z" fill="#455A64"/>
<path d="M192.675 90.342L158.123 103.264C156.476 103.625 155.023 104.591 154.053 105.972C153.084 107.352 152.668 109.046 152.887 110.719L164.92 187.887C165.738 193.158 168.276 198.011 172.137 201.691L176.197 205.569C185.458 214.41 201.026 211.043 205.275 198.961C205.536 198.271 205.71 197.552 205.793 196.819C205.849 196.221 205.873 195.62 205.863 195.02C205.899 191.062 205.519 187.111 204.729 183.232C204.029 176.309 203.728 173.467 203.735 173.53C203.742 173.593 218.064 169.491 218.981 150.115C219.436 140.476 217.238 124.999 215.033 112.399C213.045 101.052 203.924 87.878 192.675 90.342Z" fill="#FFBE9D"/>
<path d="M209.446 126.273C209.522 126.911 209.344 127.554 208.952 128.063C208.559 128.572 207.983 128.907 207.346 128.996C207.037 129.055 206.72 129.052 206.413 128.987C206.106 128.922 205.815 128.796 205.557 128.617C205.3 128.437 205.08 128.208 204.913 127.943C204.745 127.677 204.632 127.381 204.581 127.071C204.507 126.433 204.685 125.791 205.077 125.283C205.47 124.774 206.045 124.439 206.681 124.348C206.989 124.288 207.307 124.29 207.614 124.355C207.922 124.419 208.213 124.545 208.471 124.725C208.729 124.904 208.948 125.134 209.116 125.4C209.283 125.666 209.395 125.963 209.446 126.273Z" fill="#263238"/>
<path d="M213.219 120.848C212.946 121.198 210.944 120.036 208.319 120.337C205.694 120.638 203.909 122.164 203.594 121.87C203.433 121.744 203.678 121.17 204.448 120.428C205.5 119.515 206.807 118.947 208.193 118.804C209.559 118.65 210.94 118.934 212.134 119.616C213.009 120.141 213.352 120.687 213.219 120.848Z" fill="#263238"/>
<path d="M184.646 128.632C184.722 129.27 184.544 129.913 184.152 130.422C183.759 130.931 183.182 131.266 182.546 131.355C182.237 131.414 181.92 131.411 181.613 131.346C181.306 131.281 181.015 131.155 180.757 130.976C180.5 130.796 180.28 130.567 180.113 130.302C179.945 130.036 179.832 129.74 179.781 129.43C179.705 128.792 179.882 128.149 180.275 127.64C180.668 127.131 181.244 126.796 181.881 126.707C182.189 126.648 182.506 126.651 182.813 126.716C183.121 126.781 183.412 126.907 183.669 127.086C183.927 127.266 184.146 127.495 184.314 127.76C184.482 128.026 184.594 128.322 184.646 128.632Z" fill="#263238"/>
<path d="M186.781 123.298C186.515 123.655 184.506 122.486 181.881 122.787C179.256 123.088 177.478 124.614 177.156 124.32C177.002 124.194 177.24 123.62 178.017 122.878C179.065 121.963 180.371 121.396 181.755 121.254C183.123 121.1 184.506 121.384 185.703 122.066C186.571 122.598 186.9 123.144 186.781 123.298Z" fill="#263238"/>
<path d="M198.478 142.632C198.478 142.485 200.053 142.023 202.678 141.393C203.336 141.246 203.959 141.043 204.022 140.574C203.993 139.871 203.749 139.194 203.322 138.635C202.517 137.081 201.663 135.45 200.774 133.735C197.211 126.77 194.551 121.002 194.838 120.862C195.125 120.722 198.233 126.259 201.796 133.231L204.267 138.131C204.603 138.866 205.135 139.685 204.904 140.728C204.833 140.975 204.706 141.202 204.534 141.392C204.361 141.583 204.148 141.732 203.91 141.827C203.551 141.972 203.174 142.068 202.79 142.114C200.158 142.59 198.506 142.8 198.478 142.632Z" fill="#263238"/>
<path d="M203.734 173.53C194.782 174.661 185.692 173.284 177.477 169.554C177.477 169.554 185.352 182.028 204.217 178.136L203.734 173.53Z" fill="#EB996E"/>
<path d="M198.1 149.1C197.532 148.524 196.826 148.104 196.049 147.878C195.272 147.653 194.45 147.63 193.662 147.812C193.089 147.928 192.545 148.159 192.064 148.491C191.583 148.823 191.174 149.249 190.862 149.744C190.565 150.223 190.419 150.781 190.444 151.344C190.469 151.907 190.664 152.45 191.002 152.901C191.821 153.818 193.326 153.881 194.544 153.384C195.737 152.809 196.803 152.002 197.68 151.011C197.965 150.77 198.202 150.478 198.38 150.15C198.459 149.994 198.491 149.817 198.471 149.643C198.451 149.469 198.381 149.304 198.268 149.17" fill="#EB996E"/>
<path d="M190.945 145.306C191.372 145.236 191.687 148.106 194.354 149.842C197.021 151.578 200.024 150.948 200.087 151.347C200.15 151.515 199.471 151.97 198.197 152.152C196.527 152.359 194.837 151.973 193.423 151.06C192.071 150.18 191.112 148.81 190.749 147.238C190.504 146.055 190.749 145.313 190.945 145.306Z" fill="#263238"/>
<path d="M186.598 110.838C186.29 111.538 183.679 111.006 180.557 111.153C177.435 111.3 174.873 111.965 174.509 111.293C174.348 110.971 174.831 110.327 175.909 109.711C177.316 108.956 178.878 108.532 180.474 108.471C182.071 108.41 183.66 108.715 185.121 109.361C186.199 109.9 186.738 110.502 186.598 110.838Z" fill="#263238"/>
<path d="M200.964 114.604C201.454 113.939 203.764 114.261 206.452 113.904C209.14 113.547 211.352 112.847 211.954 113.4C212.227 113.673 211.954 114.317 211.03 115.01C209.748 115.9 208.257 116.44 206.704 116.578C205.166 116.771 203.605 116.559 202.175 115.962C201.146 115.5 200.747 114.933 200.964 114.604Z" fill="#263238"/>
<path d="M161.818 142.023C161.657 140.623 159.648 137.445 158.22 137.382C154.412 137.214 147.72 138.264 148.7 147.77C150.051 160.762 162.812 156.723 162.798 156.345C162.784 155.967 162.399 146.923 161.818 142.023Z" fill="#FFBE9D"/>
<path d="M158.318 151.837C158.255 151.837 158.108 152.019 157.744 152.236C157.23 152.521 156.626 152.596 156.057 152.446C154.657 152.082 153.257 150.024 152.942 147.693C152.79 146.581 152.891 145.449 153.236 144.382C153.318 143.964 153.5 143.572 153.765 143.24C154.031 142.907 154.373 142.643 154.762 142.471C155.015 142.377 155.292 142.373 155.547 142.459C155.802 142.546 156.02 142.718 156.162 142.947C156.372 143.297 156.316 143.563 156.386 143.577C156.456 143.591 156.645 143.332 156.484 142.807C156.377 142.493 156.167 142.225 155.889 142.044C155.502 141.813 155.04 141.743 154.601 141.848C153.607 142.016 152.802 143.031 152.445 144.102C152.011 145.287 151.872 146.561 152.039 147.812C152.396 150.416 153.992 152.712 155.924 153.076C156.284 153.14 156.654 153.124 157.006 153.027C157.359 152.93 157.685 152.755 157.961 152.516C158.325 152.152 158.367 151.858 158.318 151.837Z" fill="#EB996E"/>
<path d="M206.499 86.6669C201.991 82.5929 196.104 80.2899 190.126 79.1839C184.955 78.1861 179.638 78.2218 174.481 79.2889C162.889 79.9889 148.959 97.2159 146.894 108.64C145.907 114.086 146.677 119.693 147.671 125.139C148.175 127.939 148.756 130.739 150.121 133.182C151.486 135.625 153.761 137.753 156.526 138.257C159.291 138.761 162.483 137.249 163.309 134.554C163.932 132.538 163.197 130.291 163.778 128.254C165.108 123.606 172.08 122.899 174.089 118.496C175.538 115.325 173.851 111.328 175.447 108.227C177.043 105.126 180.886 104.405 184.001 102.998C186.566 101.793 188.808 99.9965 190.543 97.7562C192.279 95.5158 193.457 92.8956 193.983 90.1109H194.242C206.905 89.7189 212.61 103.068 214.507 108.521C215.012 104.504 214.548 100.424 213.155 96.6219C211.762 92.8202 209.48 89.4068 206.499 86.6669Z" fill="#263238"/>
<path d="M154.049 94.304C154.184 94.2854 154.32 94.2854 154.455 94.304L155.61 94.444C156.114 94.514 156.73 94.584 157.444 94.647C158.158 94.71 158.97 94.808 159.873 94.857C161.672 95.004 163.828 95.067 166.215 95.06C168.602 95.053 171.227 94.899 173.971 94.626C176.715 94.353 179.305 93.926 181.671 93.45C184.037 92.974 186.102 92.449 187.831 91.931C188.706 91.7 189.483 91.441 190.162 91.231C190.841 91.021 191.436 90.825 191.912 90.65L193.018 90.279C193.143 90.225 193.275 90.1873 193.41 90.167C193.297 90.2413 193.174 90.3001 193.046 90.342L191.961 90.783C191.492 90.979 190.911 91.196 190.232 91.427C189.553 91.658 188.776 91.938 187.908 92.19C186.179 92.736 184.079 93.268 181.734 93.786C179.389 94.304 176.785 94.696 174.034 94.997C171.283 95.298 168.644 95.389 166.243 95.403C163.842 95.417 161.686 95.305 159.88 95.123C158.977 95.06 158.165 94.948 157.451 94.857C156.737 94.766 156.121 94.682 155.624 94.591L154.469 94.381C154.327 94.3682 154.186 94.3424 154.049 94.304Z" fill="#455A64"/>
<path d="M149.023 101.941C149.187 101.955 149.349 101.986 149.506 102.032L150.906 102.354L151.9 102.592C152.264 102.676 152.663 102.732 153.09 102.809C153.951 102.942 154.917 103.166 156.009 103.25L157.71 103.432C158.305 103.502 158.928 103.488 159.572 103.523C160.853 103.614 162.225 103.523 163.667 103.523C166.785 103.323 169.877 102.826 172.9 102.039C175.924 101.2 178.862 100.083 181.678 98.7L183.554 97.72C184.163 97.419 184.709 97.02 185.269 96.712C185.829 96.404 186.361 96.082 186.844 95.732L188.244 94.752C189.161 94.157 189.903 93.499 190.596 92.967C190.932 92.701 191.261 92.456 191.541 92.211L192.297 91.511L193.361 90.58C193.481 90.4668 193.61 90.3638 193.746 90.272C193.649 90.4041 193.536 90.5239 193.41 90.629L192.409 91.7L191.667 92.4C191.394 92.652 191.072 92.904 190.736 93.184C190.036 93.73 189.336 94.402 188.405 95.018L187.005 96.019C186.522 96.376 185.969 96.677 185.423 97.027C184.877 97.377 184.324 97.727 183.708 98.056L181.832 99.057C179.001 100.457 176.043 101.585 172.998 102.424C169.94 103.209 166.813 103.692 163.66 103.866C162.285 103.936 160.906 103.936 159.53 103.866C158.886 103.824 158.256 103.866 157.661 103.754L155.946 103.551C154.847 103.453 153.881 103.201 153.02 103.047C152.593 102.963 152.194 102.9 151.83 102.802L150.85 102.529L149.485 102.144C149.325 102.092 149.17 102.024 149.023 101.941Z" fill="#455A64"/>
<path d="M160.509 159.6C160.509 159.6 160.509 159.663 160.509 159.782C160.513 159.958 160.496 160.134 160.46 160.307C160.309 160.941 159.955 161.509 159.452 161.924C158.711 162.555 157.779 162.917 156.806 162.953C156.208 162.967 155.615 162.845 155.071 162.595C154.528 162.345 154.049 161.974 153.67 161.511C153.278 161.06 152.987 160.531 152.815 159.959C152.644 159.387 152.597 158.785 152.676 158.193C152.835 157.237 153.29 156.355 153.978 155.673C154.43 155.212 154.974 154.852 155.574 154.616C155.795 154.518 156.033 154.463 156.274 154.455C155.485 154.772 154.77 155.249 154.174 155.855C153.56 156.519 153.16 157.354 153.026 158.249C152.965 158.794 153.02 159.346 153.188 159.869C153.356 160.391 153.632 160.872 153.999 161.28C154.343 161.703 154.777 162.044 155.271 162.277C155.764 162.509 156.303 162.628 156.848 162.624C157.753 162.604 158.627 162.292 159.34 161.735C159.825 161.364 160.188 160.857 160.383 160.279C160.481 159.859 160.467 159.6 160.509 159.6Z" fill="#E0E0E0"/>
<path d="M192.065 142.758C192.065 142.87 190.735 143.227 189.265 144.102C187.795 144.977 186.829 145.971 186.752 145.894C187.38 145.041 188.174 144.324 189.085 143.785C189.997 143.246 191.008 142.897 192.058 142.758H192.065Z" fill="#EB996E"/>
<path d="M155.736 189.889L164.598 186.718L205.1 185.185L219.044 189.252C219.044 189.252 201.32 211.911 185.941 210.35C170.562 208.789 155.736 189.889 155.736 189.889Z" fill="#FFBE9D"/>
<path d="M242.542 198.842L239.84 211.589L233.33 263.683C233.33 263.683 256.213 260.967 263.542 247.947V245.777C263.542 245.777 248.597 200.592 242.542 198.842Z" fill="#66AC47"/>
<path d="M242.543 198.842L217.861 187.719C217.861 187.719 212.709 198.023 191.548 201.019C170.387 204.015 154.833 189.119 154.833 189.119C154.833 189.119 147.231 192.913 136.381 196.98L137.83 262.339L142.17 275.905C142.17 275.905 138.376 294.896 137.018 300.594C135.66 306.292 139.461 308.7 139.461 308.7L137.557 327.6H243.096L236.6 290.269L242.543 198.842Z" fill="#66AC47"/>
<path d="M136.38 196.966C136.38 196.966 122.912 202.916 118.061 213.955C113.931 223.356 105.818 247.128 105.818 247.128L139.999 263.683V217L136.38 196.966Z" fill="#66AC47"/>
<path d="M130.584 230.678C130.682 230.678 132.684 238.588 135.008 248.395C137.332 258.202 139.166 266.168 139.068 266.196C138.97 266.224 136.968 258.286 134.651 248.479C132.334 238.672 130.486 230.699 130.584 230.678Z" fill="#263238"/>
<path d="M241.499 220.332C241.508 220.39 241.508 220.449 241.499 220.507C241.499 220.647 241.499 220.822 241.499 221.039C241.471 221.529 241.436 222.201 241.394 223.055C241.282 224.833 241.121 227.36 240.932 230.468C240.505 236.768 239.924 245.392 239.28 254.933C238.636 264.474 237.971 273.133 237.516 279.391C237.278 282.499 237.082 284.991 236.942 286.797C236.865 287.651 236.809 288.323 236.767 288.813C236.767 289.023 236.725 289.198 236.711 289.331C236.718 289.391 236.718 289.452 236.711 289.513C236.703 289.453 236.703 289.391 236.711 289.331C236.711 289.191 236.711 289.016 236.711 288.806C236.711 288.316 236.774 287.644 236.823 286.79C236.928 285.005 237.089 282.478 237.278 279.37C237.705 273.07 238.293 264.446 238.937 254.87C239.581 245.294 240.246 236.705 240.694 230.419C240.939 227.311 241.135 224.819 241.268 223.006C241.345 222.159 241.401 221.487 241.443 220.997C241.443 220.787 241.485 220.612 241.499 220.472C241.492 220.425 241.492 220.378 241.499 220.332Z" fill="#263238"/>
<path d="M223.3 190.036C223.3 190.036 223.265 190.099 223.174 190.204L222.782 190.652C222.418 191.037 221.942 191.66 221.207 192.346C219.204 194.35 216.985 196.127 214.592 197.645C213.85 198.163 213.01 198.59 212.17 199.094C211.33 199.598 210.399 200.018 209.447 200.494C207.405 201.434 205.3 202.231 203.147 202.881C198.2 204.351 193.055 205.047 187.894 204.946C182.738 204.795 177.625 203.957 172.69 202.454C168.669 201.231 164.771 199.633 161.049 197.68C158.537 196.373 156.104 194.919 153.762 193.326C152.929 192.773 152.313 192.297 151.879 191.989L151.396 191.632C151.339 191.595 151.287 191.55 151.242 191.499L151.424 191.604L151.921 191.933C152.369 192.22 152.992 192.675 153.839 193.207C156.205 194.751 158.651 196.167 161.168 197.449C164.89 199.362 168.78 200.929 172.788 202.132C177.696 203.609 182.778 204.433 187.901 204.582C195.272 204.743 202.586 203.246 209.3 200.2C210.245 199.745 211.162 199.304 212.016 198.842C212.87 198.38 213.696 197.932 214.431 197.442C216.824 195.948 219.055 194.21 221.088 192.255C221.837 191.59 222.327 190.981 222.705 190.617L223.125 190.19C223.177 190.132 223.236 190.08 223.3 190.036Z" fill="#263238"/>
<path d="M136.499 257.537C136.09 257.445 135.69 257.321 135.302 257.166C134.539 256.9 133.447 256.501 132.103 255.99C129.408 254.968 125.712 253.477 121.687 251.706C117.662 249.935 114.071 248.206 111.502 246.897C110.214 246.246 109.185 245.707 108.478 245.322C108.1 245.141 107.737 244.93 107.393 244.692C107.788 244.83 108.172 244.998 108.541 245.196L111.614 246.666C114.211 247.905 117.816 249.599 121.834 251.37C125.852 253.141 129.534 254.667 132.194 255.752L135.351 257.033C135.745 257.172 136.129 257.341 136.499 257.537Z" fill="#263238"/>
<path d="M263.648 245.777C263.403 246.055 263.136 246.313 262.85 246.547C262.318 247.023 261.527 247.688 260.533 248.486C257.916 250.54 255.153 252.399 252.266 254.051C249.374 255.694 246.365 257.121 243.264 258.321C242.067 258.776 241.094 259.119 240.415 259.329C240.066 259.454 239.708 259.552 239.344 259.623C239.672 259.453 240.014 259.311 240.366 259.196C241.031 258.944 241.99 258.566 243.166 258.083C249.299 255.57 255.082 252.277 260.372 248.283C261.387 247.52 262.199 246.883 262.759 246.442C263.033 246.192 263.331 245.97 263.648 245.777Z" fill="#263238"/>
<path d="M214.571 268.919C214.571 268.954 213.982 268.562 212.834 268.1C211.2 267.484 209.464 267.177 207.717 267.197C205.127 267.257 202.568 267.774 200.158 268.723C197.414 269.731 194.502 271.138 191.408 272.51L175.552 279.587L170.729 281.687L169.406 282.24C169.257 282.315 169.1 282.374 168.938 282.415C169.077 282.323 169.225 282.243 169.379 282.177L170.667 281.561L175.448 279.349L191.254 272.174C194.355 270.774 197.267 269.374 200.046 268.401C202.503 267.452 205.111 266.954 207.746 266.931C209.518 266.934 211.273 267.284 212.912 267.96C213.348 268.153 213.771 268.375 214.179 268.625C214.317 268.713 214.448 268.811 214.571 268.919Z" fill="#263238"/>
<g opacity="0.3">
<path d="M169.826 282.023C176.217 286.048 184.722 285.999 191.526 282.688C198.33 279.377 203.489 273.371 207.08 266.728C194.123 270.739 182.048 276.724 169.826 282.023Z" fill="black"/>
</g>
<g opacity="0.3">
<path d="M130.899 232.4C129.562 242.004 132.439 253.295 138.025 261.219C136.223 251.471 133.81 241.845 130.801 232.4" fill="black"/>
</g>
<path d="M134.4 246.911C134.351 247.002 128.912 244.328 122.241 240.94C115.57 237.552 110.201 234.731 110.25 234.64C110.299 234.549 115.738 237.223 122.409 240.611C129.08 243.999 134.456 246.82 134.4 246.911Z" fill="white"/>
<path d="M130.585 229.236C130.536 229.32 127.085 227.423 122.885 224.994C118.685 222.565 115.346 220.528 115.395 220.444C115.444 220.36 118.895 222.25 123.095 224.679C127.295 227.108 130.641 229.145 130.585 229.236Z" fill="white"/>
<path d="M251.349 212.667C251.349 212.667 251.237 212.667 251.013 212.73L250.026 212.877L246.225 213.402C244.573 213.633 242.55 213.899 240.198 214.158C237.846 214.417 235.165 214.76 232.197 215.026L227.542 215.481C225.918 215.635 224.231 215.754 222.481 215.901C218.981 216.202 215.25 216.419 211.316 216.664C203.441 217.091 194.775 217.364 185.682 217.427C176.589 217.49 167.909 217.196 160.034 216.818C156.093 216.594 152.334 216.398 148.834 216.118C147.084 215.985 145.397 215.873 143.773 215.726L139.111 215.306C136.143 215.054 133.462 214.732 131.11 214.48C128.758 214.228 126.728 213.976 125.076 213.78L121.268 213.276L120.281 213.136L119.945 213.073H120.288L121.282 213.178L125.09 213.612C126.749 213.808 128.772 214.039 131.131 214.27C133.49 214.501 136.164 214.802 139.139 215.04L143.794 215.439C145.418 215.579 147.105 215.677 148.855 215.81C152.355 216.076 156.086 216.258 160.02 216.475C167.895 216.832 176.554 217.07 185.647 217.056C194.74 217.042 203.399 216.727 211.267 216.356C215.201 216.118 218.967 215.915 222.432 215.656C224.175 215.516 225.869 215.404 227.486 215.257L232.141 214.83C235.116 214.578 237.79 214.256 240.142 214.011C242.494 213.766 244.524 213.521 246.176 213.311L249.991 212.849L250.985 212.744L251.349 212.667Z" fill="white"/>
<path d="M239.19 240.478C239.19 240.576 215.607 240.66 186.515 240.66C157.423 240.66 133.84 240.576 133.84 240.478C133.84 240.38 157.423 240.289 186.515 240.289C215.607 240.289 239.19 240.373 239.19 240.478Z" fill="white"/>
<path d="M199.66 267.603C199.66 267.701 186.479 267.785 170.218 267.785C153.957 267.785 140.818 267.701 140.818 267.603C140.818 267.505 153.992 267.421 170.218 267.421C186.444 267.421 199.66 267.498 199.66 267.603Z" fill="white"/>
<path d="M238.048 267.813C238.048 267.911 232.609 267.995 225.896 267.995C219.183 267.995 213.744 267.911 213.744 267.813C213.744 267.715 219.183 267.631 225.896 267.631C232.609 267.631 238.048 267.708 238.048 267.813Z" fill="white"/>
<path d="M236.453 290.5C236.453 290.598 214.802 290.682 188.097 290.682C161.392 290.682 139.727 290.598 139.727 290.5C139.727 290.402 161.378 290.318 188.097 290.318C214.816 290.318 236.453 290.423 236.453 290.5Z" fill="white"/>
<path d="M240.659 317.436C240.659 317.534 218.161 317.618 190.406 317.618C162.651 317.618 140.146 317.534 140.146 317.436C140.146 317.338 162.644 317.254 190.406 317.254C218.168 317.254 240.659 317.338 240.659 317.436Z" fill="white"/>
<path d="M255.387 225.61C255.232 225.798 255.053 225.965 254.855 226.107C254.505 226.415 253.98 226.842 253.329 227.36C252.027 228.396 250.186 229.789 248.1 231.252C246.014 232.715 244.082 233.968 242.661 234.836C241.961 235.277 241.366 235.62 240.96 235.851C240.757 235.984 240.538 236.092 240.309 236.173C240.48 236 240.673 235.849 240.883 235.725L242.521 234.619C243.921 233.695 245.811 232.407 247.89 230.951C249.969 229.495 251.831 228.151 253.175 227.157L254.771 225.995C254.956 225.838 255.164 225.708 255.387 225.61Z" fill="white"/>
<path d="M262.212 239.477C261.957 239.724 261.678 239.944 261.379 240.135C260.833 240.541 260.028 241.108 259.027 241.801C257.025 243.201 254.211 245.028 251.047 246.967C247.883 248.906 244.95 250.558 242.808 251.713C241.737 252.287 240.862 252.742 240.253 253.05C239.944 253.224 239.621 253.371 239.287 253.491C239.566 253.272 239.866 253.082 240.183 252.924L242.682 251.489C244.782 250.278 247.687 248.591 250.858 246.652C254.029 244.713 256.843 242.907 258.887 241.584L261.302 240.016C261.59 239.811 261.894 239.631 262.212 239.477Z" fill="white"/>
<path d="M111.398 249.83L102.837 285.929L85.4695 250.117H67.2695C67.2695 250.117 74.7595 288.449 88.4585 310.149C99.0075 326.865 108.626 327.376 114.863 325.017C121.1 322.658 127.232 313.908 132.93 292.999C136.241 280.84 138.32 271.663 139.048 266.196C139.181 265.216 137.809 262.325 137.809 262.325L111.398 249.83Z" fill="#FFBE9D"/>
<path d="M110.978 225.722C110.978 225.722 118.062 225.19 118.062 228.844C118.062 232.498 108.115 232.946 108.115 232.946L106.715 227.829L110.978 225.722Z" fill="#EB996E"/>
<path d="M67.291 250.117C67.291 250.117 67.291 239.806 70.546 235.466C73.178 231.966 87.423 220.962 92.82 216.853C94.1488 215.839 95.8105 215.361 97.475 215.516L126.644 218.162C126.644 218.162 127.183 221.956 124.474 222.502C121.765 223.048 110.432 222.985 110.432 222.985C110.432 222.985 111.594 227.542 111.041 229.481C110.488 231.42 107.989 232.617 107.989 232.617C107.989 232.617 109.515 235.305 104.902 238.56C104.902 238.56 105.28 244.013 100.121 244.16C98.4833 244.186 96.8458 244.095 95.221 243.887C95.221 243.887 86.821 249.858 85.421 250.131C84.021 250.404 67.291 250.117 67.291 250.117Z" fill="#FFBE9D"/>
<path d="M77.6992 251.951C78.9418 251.491 80.2233 251.144 81.5282 250.915C82.8063 250.564 84.1137 250.329 85.4342 250.215C84.1929 250.68 82.9111 251.03 81.6052 251.258C80.3275 251.609 79.0199 251.841 77.6992 251.951Z" fill="#EB996E"/>
<path d="M97.8035 234.192C99.1112 234.673 100.353 235.318 101.5 236.11C102.713 236.805 103.834 237.65 104.839 238.623C104.776 238.707 103.25 237.643 101.304 236.425C99.3575 235.207 97.7615 234.29 97.8035 234.192Z" fill="#EB996E"/>
<path d="M108.115 232.4C108.045 232.484 106.638 231.203 104.678 229.957C102.718 228.711 100.982 227.948 101.024 227.857C102.405 228.226 103.711 228.835 104.881 229.656C106.113 230.372 107.208 231.301 108.115 232.4Z" fill="#EB996E"/>
<path d="M102.949 221.571C104.218 221.618 105.479 221.787 106.715 222.075C107.974 222.24 109.214 222.526 110.418 222.929C109.149 222.89 107.888 222.723 106.652 222.432C105.394 222.262 104.154 221.973 102.949 221.571Z" fill="#EB996E"/>
<path d="M110.417 297.549C108.942 295.672 107.564 293.721 106.287 291.704C104.91 289.757 103.634 287.741 102.465 285.663C103.937 287.538 105.313 289.487 106.588 291.501C107.966 293.451 109.244 295.469 110.417 297.549Z" fill="#EB996E"/>
<path d="M325.025 327.6C325.025 327.698 257.825 327.782 175.008 327.782C92.1905 327.782 24.9766 327.719 24.9766 327.6C24.9766 327.481 92.1345 327.418 175.008 327.418C257.881 327.418 325.025 327.523 325.025 327.6Z" fill="#263238"/>
</svg>
